<svg viewBox="0 0 1000 1000" xmlns="http://www.w3.org/2000/svg"><path d="m475.69 800.01.83-.56-.75-.1z" fill="#8a7745"/><path d="m492.18 502.1-34.9-4.34-29.96 20.37-53.17-30.72-25.31-3.16-49.9 42.77-70.31-57.74-84.35-10.5-22.79-2.84-31.81 45.02-25.14 201.88 18.05 47.55 56.89 7.98 49.49-14.1 39.17 24.25 33.11-10.48 32.56 18.66 181.96 22.65.75.1.24.03.03-.21 26.63-213.84z" fill="#cc895c"/><path d="m853.18 233.97-270.35-33.98-77.06 4.1-78.64 47.58-18.41 29.3-98.98 41.71-164.23 99.36-24.78 33.81.76.09 22.79 2.84 84.35 10.5 70.31 57.74 49.9-42.77 25.31 3.16 53.17 30.72 29.96-20.37 34.9 4.34 20.84 2.6 52.72-31.45 46.61 7.64 73.51-79.28 163.39-78.07 9.59-48.87 42.92-34.55z" fill="#ffc299"/><g fill="#f2a26d"><path d="m935.46 294-33.7-53.88-42.92 34.55-9.59 48.87-51.12 16.83-112.27 61.24-73.51 79.28-46.61-7.64-52.72 31.45-20.84-2.6 11.24 83.33-26.63 213.84 208.71-141.06 48.99-58.55 72.18-23.34 75.23-50.85 35.46-83.82z"/><path d="m352.65 354.25 65.3-25.42 75.46-58.36 73.77-28.24 115.01 8.41 33.9 24.85-87.91-2.47-87.82 15.77-81.42 57.95z" opacity=".5"/><path d="m212.82 467.27 107.73-18.94 44.1 37.84-63.02 54.01z"/><path d="m374.15 487.41 83.69-8.63-.56 18.98-29.96 20.37z"/></g><path d="m608.86 492.01-58.79-9.63 31.3-42.58 120.21-47.79z" fill="#faaf7d"/><path d="m465.86 645.28 34.73-38.54 12.49 52.04-27.74 76.5z" fill="#de9564"/><path d="m870.3 265.44-57.17 15.69-27.55 66.08 69.71-19.02z" fill="#faaf7d"/></svg>