<svg xmlns="http://www.w3.org/2000/svg" viewBox="0 0 1000 1000"><defs><style>.a{fill:#39c74a;}.b{opacity:0.5;}.c{fill:#009444;}.d{fill:#725839;}.e{fill:#fff;}</style></defs><path class="a" d="M368.47,871.76C227.1,807.28,33.65,374,255.36,288.05c58.82-22.62,140.55-2.71,181,18.1,17.6,9.05,48.84,25.36,67.31,22.65,24.48-3.59,34.5-6.78,67.3-21.49,111.37-49.93,259-32.83,272.61,134.58,14.5,141.4-62.34,428.34-207,437.79-35.87,2.34-61.14-4.25-105.19-40.21C498.77,877.36,394.2,883.5,368.47,871.76Z"/><g class="b"><path class="c" d="M775.6,309c52.93,34,65.42,101.5,68,132.89,14.5,141.4-62.34,428.34-207,437.79-35.87,2.34-61.14-4.25-105.19-40.21-32.59,37.89-137.16,44-162.89,32.29-31.16-14.21-64.86-46.35-96.08-88.74,0,0,235.8,9.49,377.76-125.3C766.79,547,775.6,309,775.6,309Z"/></g><path class="c" d="M510.46,323.64c6-41.58-36-99.73-74.83-126.93-40.48-30.81-96.82-46.79-142-71.46-24.48,40.82,12.07,113.49,35,155.53,28.08,52.88,92.59,70,158.64,70.28"/><path class="d" d="M479.39,346.43c5.66-31.19,11.92-157,53-205.17,15-17.56,20.24-18.62,20.24-18.62s69,43.68,93.11,60.68C570.68,224.89,541.18,250.43,535.5,344c0,0-18.33,6-33.88,6C487.94,350,479.39,346.43,479.39,346.43Z"/><path class="d" d="M649.05,179.79c-5.8,10.87-32.91,7.73-60.53-7s-45.31-35.52-39.5-46.39,32.9-7.74,60.52,7S654.86,168.91,649.05,179.79Z"/><g class="b"><path class="e" d="M285.5,651.51c-22.35-12.42-29.8-65.81-36-89.39-7.45-31-13.66-68.29-9.93-100.57C247,409.41,351.31,306.35,365,405.68c3.73,26.08-13.65,49.66-17.38,74.5-6.21,28.55-5,58.35-3.72,88.15,1.23,22.34,7.45,55.86,1.23,77-7.45,26.07-47.17,29.8-59.59,6.21"/></g></svg>