<svg viewBox="0 0 1000 1000" xmlns="http://www.w3.org/2000/svg"><path d="m640.65 756.74-600.31-50v-82.06l600.31 31.25z" fill="#b3dde5"/><path d="m959.65 252.01-476.52-8.75-442.79 381.42 600.31 31.25z" fill="#d1f7ff"/><path d="m959.65 252.01-319 403.92v100.81l319-459.59z" fill="#73bfe5"/><path d="m483.13 243.26-442.79 381.42v82.06l442.79-418.34z" fill="#73bfe5" opacity=".2"/><path d="m959.65 297.15-476.52-8.75v-45.14l476.52 8.75z" fill="#b3dde5" opacity=".4"/><g fill="#fff"><path d="m365.93 603.5 12.75-8.5s134.54-8.54 235.52-62.79c82.64-44.4 218.45-195.25 218.45-195.25l23.81 2.32-258.88 272.34z"/><path d="m265.9 608.16 84.84-16.3-84.91-16.4-19.53-92.2-19.46 92.1-84.98 16.5 84.91 16.4 19.53 92.2z"/><path d="m607.76 394.6 51.99-9.98-52.02-10.05-11.97-56.49-11.93 56.43-52.06 10.11 52.02 10.04 11.97 56.49z"/></g></svg>