<svg xmlns="http://www.w3.org/2000/svg" viewBox="0 0 1000 1000"><defs><style>.a{fill:#ffd02e;}.b{fill:#ffd35a;}.c{fill:#e19200;}.d{fill:#fbff83;}</style></defs><polygon class="a" points="521.63 793.78 41.85 743.78 120.6 519.73 459.13 550.98 521.63 793.78"/><polygon class="b" points="857.58 216.06 592.81 207.31 120.6 519.73 459.13 550.98 857.58 216.06"/><polygon class="c" points="857.58 216.06 459.13 550.98 521.63 793.78 958.83 374.2 857.58 216.06"/><polygon class="d" points="464.76 572.88 112.98 541.4 120.6 519.73 459.13 550.98 464.76 572.88"/><polygon class="d" points="857.58 233.67 569.23 222.38 590.6 207.31 857.58 216.06 857.58 233.67"/><polygon class="d" points="459.13 550.98 857.58 216.06 868.27 232.75 464.76 572.88 459.13 550.98"/><polygon class="d" points="120.6 519.73 592.58 207.31 616.9 208.12 143.07 533.9 120.6 519.73"/><polygon class="d" points="41.85 743.78 120.6 519.73 146.59 521.59 72.38 746.96 41.85 743.78"/><polygon class="d" points="656.17 431.17 766.27 416.44 656.03 401.68 693.74 345.2 642.74 379.24 622.5 244.44 602.31 378.94 551.14 344.78 589.11 401.67 478.74 416.44 588.97 431.19 551.27 487.67 602.26 453.63 622.5 588.43 642.79 453.32 693.6 487.24 656.17 431.17"/><polygon class="d" points="263.72 607.53 330.25 594.75 263.67 581.89 263.67 581.89 248.36 509.6 233.09 581.81 233.09 581.81 166.46 594.75 233.04 607.61 233.04 607.61 248.36 679.9 263.72 607.53 263.72 607.53"/><polygon class="d" points="942.63 389.75 830.77 215.18 857.58 216.06 958.83 374.2 942.63 389.75"/><polygon class="d" points="515.76 770.99 950.2 360.71 958.83 374.2 521.63 793.78 515.76 770.99"/><polygon class="d" points="521.63 793.78 41.85 743.78 56.78 725.37 515.76 770.99 521.63 793.78"/><polygon class="d" points="521.63 779.5 497.62 779.5 440.76 567 464.76 567 521.63 779.5"/></svg>