<svg xmlns="http://www.w3.org/2000/svg" viewBox="0 0 1000 1000"><defs><style>.a{fill:#ffd02e;}.b{fill:#ffdc63;}.c{fill:#e19200;}.d{fill:#fbff83;}</style></defs><polygon class="a" points="521.63 793.78 41.85 743.78 120.6 519.73 459.13 550.98 521.63 793.78"/><polygon class="b" points="857.58 216.06 592.81 207.31 120.6 519.73 459.13 550.98 857.58 216.06"/><polygon class="c" points="857.58 216.06 459.13 550.98 521.63 793.78 958.83 374.2 857.58 216.06"/><polygon class="d" points="263.72 607.53 330.25 594.75 263.67 581.89 263.67 581.89 248.36 509.6 233.09 581.81 233.09 581.81 166.46 594.75 233.04 607.61 233.04 607.61 248.36 679.9 263.72 607.53 263.72 607.53"/><polygon class="d" points="684.14 437.49 794.23 422.75 684 408 721.7 351.52 670.71 385.56 650.47 250.76 630.28 385.26 579.11 351.1 617.08 407.98 506.71 422.75 616.94 437.5 579.24 493.98 630.23 459.95 650.47 594.75 670.75 459.64 721.57 493.56 684.14 437.49"/></svg>