<svg xmlns="http://www.w3.org/2000/svg" xmlns:xlink="http://www.w3.org/1999/xlink" viewBox="0 0 1000 1000"><defs><style>.a{fill:none;}.b{clip-path:url(#a);}.c{fill:#a97c50;}.d{fill:#fff;}.d,.g{opacity:0.15;}.e,.g{fill:#414042;}.f{fill:#6d6e71;}</style><clipPath id="a"><circle class="a" cx="500" cy="500" r="418.52"/></clipPath></defs><g class="b"><path class="c" d="M-162.62,651.54s369.42-273.88,474-387.73C393.3,174.71,576.07,171,612.2,233.56c49.1,85.12,174.28,242.17,174.28,242.17L865.31,560s36.12,69.84,0,127.64C827,748.92,742.49,719,742.49,719l-72.25-69.84L446.89,552.54,199.83,1072.17S80.23,1046.49-64.42,944.94C-193.26,854.49-162.62,651.54-162.62,651.54Z"/><path class="d" d="M865.31,560l-78.83-84.29L683,340.11s.79,48-15.54,63.12C649.2,420.17,595.77,430,595.77,430l217,132.27c6.53-5.24,47.4,133.7,52.57,125.44C901.43,629.86,865.31,560,865.31,560Z"/><path class="c" d="M495.6,221.86s3.35-63.68,32.68-93c26.39-26.4,88-27.65,88-27.65s-8.91,62-32.68,88C557.19,218.09,495.6,221.86,495.6,221.86Z"/><circle class="e" cx="610.07" cy="351.35" r="30.86"/><path class="e" d="M692.4,670.55s41.53-78.95,71-107.85c20.81-20.43,69.74-37.12,69.74-37.12L865.31,560s34.3,74.63,0,127.64C825.57,749.07,742.49,719,742.49,719Z"/><path class="e" d="M608.07,207.86C583.5,187.73,515,179.61,483.43,183.22c-68.64,7.85-127.67,44.43-127.67,44.43a279.69,279.69,0,0,0-40.23,30.62L-162.62,651.54s-4.4,97.73,2.87,143.28c7.86,49.19,33,86.75,33,86.75l66.51-172.24L8.78,780l8-141.28,93.2,86.1v-172L199,619.23l-1-166.15L280.13,504l4.79-137.86,93.87,32.19L385.15,285l.92,2.09S422.28,221.71,494,220.22c66.62-1.38,151.35,65.52,151.35,65.52S620.23,217.82,608.07,207.86Z"/><circle class="f" cx="818.9" cy="595.37" r="18.54"/><polygon class="g" points="446.89 552.54 413.32 485.33 103.17 811.78 279.04 905.58 446.89 552.54"/></g></svg>