<svg xmlns="http://www.w3.org/2000/svg" xmlns:xlink="http://www.w3.org/1999/xlink" viewBox="0 0 1000 1000"><defs><style>.a{fill:none;}.b{clip-path:url(#a);}.c{fill:#a97c50;}.d{fill:#fff;}.d,.g{opacity:0.15;}.e,.g{fill:#414042;}.f{fill:#6d6e71;}.h{fill:#e9c89c;}</style><clipPath id="a"><circle class="a" cx="499.5" cy="499.5" r="418.5"/></clipPath></defs><g class="b"><path class="c" d="M-162.62,651.54s369.42-273.88,474-387.73C393.3,174.71,576.07,171,612.2,233.56c49.1,85.12,174.28,242.17,174.28,242.17L865.31,560s36.12,69.84,0,127.64C827,748.92,742.49,719,742.49,719l-72.25-69.84L446.89,552.54,199.83,1072.17S80.23,1046.49-64.42,944.94C-193.26,854.49-162.62,651.54-162.62,651.54Z"/><path class="d" d="M865.31,560l-78.83-84.29L683,340.11s.79,48-15.54,63.12C649.2,420.17,595.77,430,595.77,430l217,132.27c6.53-5.24,47.4,133.7,52.57,125.44C901.43,629.86,865.31,560,865.31,560Z"/><path class="c" d="M495.6,221.86s3.35-63.68,32.68-93c26.39-26.4,88-27.65,88-27.65s-8.91,62-32.68,88C557.19,218.09,495.6,221.86,495.6,221.86Z"/><circle class="e" cx="610" cy="351" r="31" transform="translate(52.28 780.24) rotate(-67.5)"/><path class="e" d="M692.4,670.55s41.53-78.95,71-107.85c20.81-20.43,69.74-37.12,69.74-37.12L865.31,560s34.3,74.63,0,127.64C825.57,749.07,742.49,719,742.49,719Z"/><circle class="f" cx="818.5" cy="595.5" r="18.5" transform="translate(50.88 1255.29) rotate(-76.72)"/><polygon class="g" points="446.89 552.54 413.32 485.33 103.17 811.78 279.04 905.58 446.89 552.54"/><path class="h" d="M664.86,287.56S620.56,218,608.39,208c-24.59-20.13-93.15-28.25-124.72-24.64-68.69,7.85-126.45,43.36-126.45,43.36a476.47,476.47,0,0,0-43,30.62l-477,394.33s-4.4,97.74,2.87,143.29c7.87,49.19,33,86.75,33,86.75L-60.38,709.5,8.7,780.14l8-141.28L110,725v-172l89,66.46-1-166.15,82.21,50.94L285,366.33,379,398.52l6.14-109.3,130.23,20.93L540.11,258l19.56,29Z"/></g></svg>