<svg xmlns="http://www.w3.org/2000/svg" viewBox="0 0 1000 1000"><defs><style>.a{fill:#8a7745;}.b{fill:#ffdf87;}.c{fill:#baa15d;}.d{fill:#ffdd80;}.e{opacity:0.2;}.f{fill:#231f20;}</style></defs><polygon class="a" points="907.23 194.4 513.54 504.99 513.54 802.43 882.43 480.04 907.23 392.55 907.23 194.4"/><polygon class="b" points="590.63 468.39 560.57 467.23 647.52 399.29 590.63 468.39"/><polygon class="c" points="92.77 504.99 92.77 757.4 116.54 802.43 173.94 803.32 221.28 773.16 263.14 802.43 294.68 757.88 329.27 802.43 513.54 802.43 513.54 504.99 92.77 504.99"/><polygon class="b" points="816.29 296.14 772.18 296.14 844.1 244.2 816.29 296.14"/><polygon class="d" points="469.25 207.97 397.19 264.82 397.19 264.82 382.56 296.14 289.61 349.69 92.77 504.99 513.54 504.99 907.23 194.4 545.11 194.4 469.25 207.97"/><polygon class="a" points="513.54 586.3 513.54 576.3 521.88 498.41 492.08 504.99 513.54 586.3"/><polygon class="d" points="303.87 572.84 274.75 501.24 351.75 501.24 303.87 572.84"/><polygon class="d" points="390.17 529.16 370.85 501.24 421.94 501.24 390.17 529.16"/><polygon class="c" points="250.05 380.47 401.76 392.61 430.46 421.3 476.92 421.3 438.09 409.07 421.81 378.92 345.13 365.28 399.03 350.52 414.06 328.39 379.9 343.42 307.48 361.18 280.69 356.3 250.05 380.47"/><g class="e"><polygon class="f" points="742.72 602.14 756.25 480.89 801.25 421.3 808.14 358.39 857.5 412.14 907.23 392.55 882.43 480.04 742.72 602.14"/><polygon class="f" points="542.48 194.4 560.57 249.64 662.5 222.01 710.39 244.2 772.18 194.4 542.48 194.4"/><polyline class="f" points="560.57 465.89 548.75 374.85 640 349.69 647.52 317.14 742.72 324.18 647.52 399.29 590.63 468.39"/><polygon class="f" points="408.75 803.32 439.58 747.14 486.25 732.14 513.54 695.47 513.54 802.43 408.75 803.32"/><polygon class="f" points="92.77 504.99 92.92 606.3 122.92 542.36 160.42 504.99 92.77 504.99"/></g></svg>