<svg xmlns="http://www.w3.org/2000/svg" viewBox="0 0 1000 1000"><defs><style>.a{fill:#8a7745;}.b{fill:#ffdf87;}.c{fill:#baa15d;}.d{fill:#ffdd80;}.e{opacity:0.2;}.f{fill:#231f20;}</style></defs><polygon class="a" points="907 194.16 513 505 513 802.66 882.17 480.03 907 392.47 907 194.16"/><polygon class="b" points="590.63 468.39 560.57 467.23 647.52 399.29 590.63 468.39"/><polygon class="c" points="93 505 93 757.04 116.79 802 174.22 802.89 221.59 772.78 263.46 802 295.02 757.51 329.63 802 514 802 514 505 93 505"/><polygon class="b" points="816.29 296 772.18 296 844.1 244.07 816.29 296"/><polygon class="d" points="469.21 207.59 397.06 264.52 397.06 264.52 382.41 295.87 289.34 349.5 92.23 505 513.55 505 907.76 194 545.17 194 469.21 207.59"/><polygon class="a" points="514 586.3 514 576.3 522.34 498.41 492.55 504.99 514 586.3"/><polygon class="d" points="303.87 572.6 274.75 501 351.75 501 303.87 572.6"/><polygon class="d" points="390.17 528.92 370.85 501 421.94 501 390.17 528.92"/><polygon class="c" points="250.05 380.17 401.76 392.31 430.46 421 476.92 421 438.09 408.76 421.81 378.61 345.13 364.98 399.03 350.22 414.06 328.08 379.9 343.11 307.48 360.88 280.69 356 250.05 380.17"/><g class="e"><polygon class="f" points="742.72 602.14 756.25 480.89 801.25 421.3 808.14 358.39 857.5 412.14 907.23 392.55 882.43 480.04 742.72 602.14"/><polygon class="f" points="542.48 194 560.57 249.24 662.5 221.62 710.39 243.81 772.18 194 542.48 194"/><polyline class="f" points="560.57 465.89 548.75 374.85 640 349.69 647.52 317.14 742.72 324.18 647.52 399.29 590.63 468.39"/><polygon class="f" points="409.21 802.89 440.05 746.71 486.71 731.71 514 695.04 514 802 409.21 802.89"/><polygon class="f" points="93 505 93.15 606.31 123.15 542.37 160.65 505 93 505"/></g></svg>