<svg xmlns="http://www.w3.org/2000/svg" viewBox="0 0 1000 1000"><defs><style>.a{fill:#b3dde5;}.b{fill:#73bfe5;}.c,.d{fill:#fff;}.c{opacity:0.7;}.d{opacity:0.4;}</style></defs><path class="a" d="M748.1,881H251.9c-58.86,0-99-59.55-77-114.12L394,358H606L825.09,766.88C847.14,821.45,807,881,748.1,881Z"/><rect class="a" x="394" y="119" width="212" height="239"/><rect class="a" x="341" y="119" width="319" height="107" rx="49.6"/><path class="b" d="M737,741.82,632.42,543H367.58L263.05,741.82C247,781.6,276.26,825,319.16,825H680.84C723.74,825,753,781.6,737,741.82Z"/><circle class="c" cx="392" cy="698" r="31"/><circle class="c" cx="486.5" cy="614.5" r="41.5"/><rect class="d" x="454" y="226" width="46" height="116" rx="20.71"/><path class="d" d="M433.75,402.07l-27.39,57.32A20.72,20.72,0,0,0,425.05,489h0a20.72,20.72,0,0,0,18.69-11.79l27.39-57.32a20.72,20.72,0,0,0-18.69-29.65h0A20.73,20.73,0,0,0,433.75,402.07Z"/></svg>