<svg xmlns="http://www.w3.org/2000/svg" viewBox="0 0 1000 1000"><defs><style>.a{fill:#939598;}.b{fill:#bcbec0;}.c{fill:#6d6e71;}.d{fill:#e6e7e8;}</style></defs><polygon class="a" points="521.63 793.28 41.85 743.28 120.6 519.23 459.13 550.48 521.63 793.28"/><polygon class="b" points="857.58 215.56 592.81 206.81 120.6 519.23 459.13 550.48 857.58 215.56"/><polygon class="c" points="857.58 215.56 459.13 550.48 521.63 793.28 958.83 373.7 857.58 215.56"/><polygon class="d" points="656.17 430.67 766.27 415.94 656.03 401.18 693.74 344.7 642.74 378.74 622.5 243.94 602.31 378.44 551.14 344.28 589.11 401.17 478.74 415.94 588.97 430.69 551.27 487.17 602.26 453.13 622.5 587.93 642.79 452.82 693.6 486.74 656.17 430.67"/><polygon class="d" points="263.72 607.03 330.25 594.25 263.67 581.39 263.67 581.39 248.36 509.1 233.09 581.31 233.09 581.31 166.46 594.25 233.04 607.11 233.04 607.11 248.36 679.4 263.72 607.03 263.72 607.03"/></svg>