<svg viewBox="0 0 1000 1000" xmlns="http://www.w3.org/2000/svg"><path d="m821.87 293.44-98.45-98.44-591.42 591.46c-17.91 19-11 55.7 15.82 82.5s63.44 33.72 82.49 15.82z" fill="#996536"/><path d="m567.55 445.93-17.04-42.99 17.04-62.44 16.89-29.63 3.37-37.68 20.16-48.2 71.57-40.6 34.86-1.5 36.07-31.9 190.44-78.41z" fill="#939598"/><path d="m567.55 445.93 121.61-121.6 25.24-43.37 23.58-5.45 202.93-202.93-50.46 123.1-22.34 20.2-7.72 36.2-66.28 124.39-23.68 14.88-14.67 21.48-134.98 51.15z" fill="#bcbec0"/><g fill="#996536"><path d="m620.78 463.98-44.77-138.32 8.43-14.79 48.63 148.45z"/><path d="m550.51 402.94 4.23-15.51 166.32 38.55-14.35 5.44z"/></g></svg>