<svg viewBox="0 0 1000 1000" xmlns="http://www.w3.org/2000/svg"><path d="m554.11 425.58-243.98-7.57-203.35-83.86 105.9-107.12 174.06-101.56 232.26 8.9 206.36 66.13-28.85 75.03z" fill="#ccc"/><path d="m386.74 780.56-76.61-362.55-203.35-83.86-17.92 327.72z" fill="#999"/><path d="m796.51 275.53 29.11 335.65-236.88 169.38-34.63-354.98z" fill="#ccc"/><path d="m386.74 780.56h202l-34.63-354.98-243.98-7.57" fill="#a6a6a6"/><path d="m825.62 611.18 34.63-69.25-34.89-341.43-28.85 75.03-53.99 33.41 62.24 61.75z" fill="#e6e7e8"/><path d="m686.85 710.4 8-371.94-140.74 87.12 34.63 354.98z" fill="#b3b3b3"/><path d="m412.85 194.66-207 132.45 53.84-76.79 40.31-20.78z" fill="#b3b3b3"/><path d="m658.13 268.69 58.17-1.41-47.68 32.32-44.67-25.68z" fill="#e6e7e8"/><path d="m237.8 388.18 83.07 91.2 74.87-34.32 53.69-22.73-89.55-34.15z" fill="#b3b3b3"/><path d="m565.8 357.98-143.89-6.63 67.01-25.03 33.99-7.38z" fill="#b3b3b3"/><path d="m768.07 687.48-128.57-3.99-107.14-44.19 55.8-56.44 91.72-53.52 122.38 4.69 80.73 35.14 12.81 39.24z" fill="#ccc"/><path d="m679.88 874.53-40.38-191.04-107.14-44.19-9.45 172.69z" fill="#999"/><path d="m895.8 608.41 15.33 176.87-124.81 89.25-18.25-187.05z" fill="#b3b3b3"/><path d="m679.88 874.53h106.44l-18.25-187.05-128.57-3.99" fill="#a6a6a6"/><g fill="#b3b3b3"><path d="m838.01 837.56 4.22-195.99-74.16 45.91 18.25 187.05z"/><path d="m767.19 551.57-169.4 50.54 59.25-34.24 32.46-19.28z"/><path d="m787.37 734.2-40.74 50.66 23.96 36.19 16.2 26.11 10.5-49.4z"/></g></svg>