<svg xmlns="http://www.w3.org/2000/svg" viewBox="0 0 1000 1000"><defs><style>.a{fill:#f1f2f2;}.b{fill:#d1d3d4;}.c{fill:#939598;}.d{fill:#808285;}.e{fill:#bcbec0;}</style></defs><polygon class="a" points="385.81 722.61 277.1 613.9 765.81 96 905 94.71 903.71 233.9 385.81 722.61"/><polygon class="b" points="339.61 673.61 326.39 660.39 794.97 188.26 845.63 154.37 811.75 205.03 339.61 673.61"/><path class="c" d="M420.3,756.07,243.93,579.7c-4.29-4.29-17.66,2.13-29.87,14.34s-18.63,25.58-14.33,29.87l44.94,45L96.91,816.62l86.47,86.47L331.14,755.33l44.95,44.94c4.29,4.3,17.67-2.12,29.88-14.33S424.59,760.36,420.3,756.07Z"/><path class="d" d="M183,903.45c-6.86,6.86-31.77-7-55.64-30.83S89.7,823.84,96.55,817s31.76,7,55.64,30.83S189.87,896.6,183,903.45Z"/><path class="e" d="M132.67,780.86c6.85-6.85,31.76,7,55.64,30.83s37.68,48.79,30.82,55.64L205.27,881.2c6.85-6.85-7-31.76-30.83-55.64s-48.79-37.68-55.64-30.83"/><path class="e" d="M166.23,747.3c6.85-6.85,31.76,7,55.64,30.83s37.68,48.79,30.83,55.64l-13.86,13.86c6.85-6.85-7-31.76-30.83-55.64s-48.79-37.68-55.64-30.83"/><path class="e" d="M199.07,714.46c6.85-6.85,31.76,7,55.64,30.83s37.68,48.79,30.83,55.64l-13.87,13.86c6.85-6.85-6.95-31.76-30.83-55.63s-48.79-37.68-55.64-30.83"/><path class="e" d="M230.08,683.45c6.85-6.85,31.76,6.95,55.64,30.83s37.68,48.79,30.83,55.64l-13.87,13.86c6.86-6.85-6.95-31.76-30.82-55.64s-48.79-37.67-55.64-30.83"/></svg>