<svg xmlns="http://www.w3.org/2000/svg" viewBox="0 0 1000 1000"><defs><style>.a{fill:#996536;}.b{fill:#6b452d;}.c{fill:#6d6e71;}</style></defs><path class="a" d="M612.39,201.36,116.59,796l85.61,85.61L796.8,385.76S933.28,278.34,821.55,175.9C710.28,73.88,612.39,201.36,612.39,201.36Z"/><path class="b" d="M201.84,881.93c-6.78,6.78-31.45-6.88-55.09-30.53s-37.31-48.3-30.52-55.09,31.44,6.89,55.08,30.53S208.62,875.15,201.84,881.93Z"/><path class="b" d="M548.71,331.53,504.41,246l85.5,44.3s-1.19,14.56-13.94,27.26C564.75,328.74,548.71,331.53,548.71,331.53Z"/><path class="b" d="M644.79,232.44l-44.31-85.5L686,191.24s-1.19,14.56-14,27.26C660.83,229.65,644.79,232.44,644.79,232.44Z"/><path class="b" d="M452.64,430.62l-44.3-85.5,85.5,44.3s-1.19,14.56-13.95,27.26C468.68,427.83,452.64,430.62,452.64,430.62Z"/><path class="b" d="M720.86,395.19l44.3,85.5-85.5-44.31s1.19-14.56,14-27.25C704.82,398,720.86,395.19,720.86,395.19Z"/><path class="c" d="M624.79,494.28l44.3,85.5-85.5-44.31s1.19-14.56,13.94-27.25C608.75,497.07,624.79,494.28,624.79,494.28Z"/><path class="b" d="M816.93,296.1l44.31,85.5-85.51-44.31s1.19-14.56,13.95-27.25C800.89,298.89,816.93,296.1,816.93,296.1Z"/><circle class="b" cx="536.5" cy="462.5" r="25.5"/><circle class="b" cx="634.5" cy="363.5" r="25.5"/><circle class="b" cx="733.5" cy="264.5" r="25.5"/></svg>