<svg xmlns="http://www.w3.org/2000/svg" viewBox="0 0 1000 1000"><defs><style>.a{fill:#bcbec0;}.b{fill:#a7a9ac;}.c{fill:#6d6e71;}.d{fill:#58595b;}.e{fill:#939598;}</style></defs><polygon class="a" points="385.81 722.61 277.1 613.9 765.81 96 905 94.71 903.71 233.9 385.81 722.61"/><polygon class="b" points="339.58 673.65 326.35 660.42 794.93 188.29 845.6 154.4 811.71 205.07 339.58 673.65"/><rect class="c" x="109.51" y="724.87" width="208.97" height="122.29" transform="translate(-493.12 381.54) rotate(-45)"/><path class="d" d="M183,903.49c-6.85,6.85-31.76-7-55.64-30.83S89.66,823.87,96.51,817s31.76,7,55.64,30.83S189.83,896.64,183,903.49Z"/><path class="e" d="M132.63,780.9c6.85-6.85,31.76,7,55.64,30.83S226,860.52,219.1,867.37l-13.87,13.86c6.86-6.85-6.95-31.76-30.83-55.64s-48.78-37.68-55.63-30.83"/><path class="e" d="M166.19,747.33c6.85-6.85,31.77,7,55.64,30.83S259.51,827,252.66,833.8L238.8,847.66c6.85-6.84-7-31.76-30.83-55.63s-48.79-37.68-55.64-30.83"/><path class="e" d="M199,714.5c6.85-6.85,31.76,7,55.64,30.83S292.35,794.11,285.5,801l-13.86,13.86c6.85-6.85-7-31.76-30.83-55.64S192,721.51,185.17,728.36"/><path class="e" d="M230,683.49c6.85-6.86,31.76,7,55.64,30.83S323.36,763.1,316.51,770l-13.86,13.87c6.85-6.85-6.95-31.76-30.83-55.64S223,690.5,216.18,697.35"/><rect class="c" x="278.72" y="565.31" width="62.52" height="249.42" transform="translate(-397.13 421.29) rotate(-45)"/><path class="c" d="M405.93,786c-12.21,12.2-25.59,18.62-29.88,14.33s2.12-17.67,14.33-29.88S416,751.81,420.26,756.1,418.14,773.77,405.93,786Z"/><path class="c" d="M229.57,609.61C217.36,621.82,204,628.24,199.69,624s2.12-17.67,14.33-29.88,25.58-18.63,29.88-14.33S241.77,597.41,229.57,609.61Z"/></svg>