<svg xmlns="http://www.w3.org/2000/svg" viewBox="0 0 1000 1000"><defs><style>.a{fill:#e6a258;}.b{fill:#fbff83;}</style></defs><circle class="a" cx="500" cy="500" r="376.82"/><circle class="b" cx="500" cy="500" r="299.32"/><path class="a" d="M500,825.4a7,7,0,0,1-6.85-5.54l-67.84-318.4a7,7,0,0,1,6.85-8.46H567.85a7,7,0,0,1,6.84,8.46l-67.84,318.4A7,7,0,0,1,500,825.4Z"/><path class="a" d="M567.85,500,500,818.4,432.16,500H567.85m0-14H432.16a14,14,0,0,0-13.7,16.92l67.85,318.4a14,14,0,0,0,27.38,0l67.85-318.4A14,14,0,0,0,567.85,486Z"/><path class="a" d="M432.16,507a7,7,0,0,1-6.85-8.46l67.84-318.4a7,7,0,0,1,13.7,0l67.84,318.4a7,7,0,0,1-6.84,8.46Z"/><path class="a" d="M500,181.6,567.85,500H432.16L500,181.6m0-14a14,14,0,0,0-13.69,11.08l-67.85,318.4A14,14,0,0,0,432.16,514H567.85a14,14,0,0,0,13.69-16.92l-67.85-318.4A14,14,0,0,0,500,167.6Z"/><path class="a" d="M500,577.79a6.77,6.77,0,0,1-1.48-.16L172,506.84a7,7,0,0,1,0-13.68l326.5-70.79a6.77,6.77,0,0,1,1.48-.16,7,7,0,0,1,7,7V570.79a7,7,0,0,1-7,7Z"/><path class="a" d="M500,429.21V570.79L173.5,500,500,429.21m0-14a13.64,13.64,0,0,0-3,.32L170.54,486.32a14,14,0,0,0,0,27.36L497,584.48a14.27,14.27,0,0,0,3,.31,14,14,0,0,0,14-14V429.21a14,14,0,0,0-14-14Z"/><path class="a" d="M500,577.79a7,7,0,0,1-7-7V429.21a7,7,0,0,1,7-7,6.77,6.77,0,0,1,1.48.16L828,493.16a7,7,0,0,1,0,13.68l-326.5,70.79A6.77,6.77,0,0,1,500,577.79Z"/><path class="a" d="M500,429.21,826.5,500,500,570.79V429.21m0-14a14,14,0,0,0-14,14V570.79a14,14,0,0,0,14,14,14.27,14.27,0,0,0,3-.31l326.49-70.8a14,14,0,0,0,0-27.36L503,415.53a13.64,13.64,0,0,0-3-.32Z"/><path class="a" d="M323.26,683.92A7,7,0,0,1,317.43,673L459,461a7,7,0,0,1,5.13-3.08,5.32,5.32,0,0,1,.69,0,7,7,0,0,1,4.95,2.05l70.5,70.51a7,7,0,0,1-1.06,10.77l-212,141.53A7,7,0,0,1,323.26,683.92Z"/><path class="a" d="M464.79,464.88l70.5,70.51-212,141.53,141.54-212m0-14c-.46,0-.92,0-1.38.07a14,14,0,0,0-10.26,6.16l-141.54,212A14,14,0,0,0,331,688.56L543.06,547a14,14,0,0,0,2.13-21.54L474.69,455a14,14,0,0,0-9.9-4.1Z"/><path class="a" d="M535.29,542.39a7,7,0,0,1-4.95-2l-70.5-70.51a7,7,0,0,1,1.06-10.77l212-141.54a7,7,0,0,1,9.71,9.71l-141.54,212a7,7,0,0,1-5.13,3.08A5.32,5.32,0,0,1,535.29,542.39Z"/><path class="a" d="M676.83,323.35l-141.54,212-70.5-70.51,212-141.53m0-14a14,14,0,0,0-7.77,2.35L457,453.24a14,14,0,0,0-2.13,21.54l70.5,70.51a14,14,0,0,0,9.9,4.1c.46,0,.92,0,1.38-.07a14,14,0,0,0,10.26-6.16l141.54-212a14,14,0,0,0-11.65-21.77Z"/><path class="a" d="M464.47,541.34a5.32,5.32,0,0,1-.69,0,6.94,6.94,0,0,1-5.13-3.08l-141.54-212a7,7,0,0,1,9.71-9.71L538.85,458a7,7,0,0,1,1.07,10.77l-70.5,70.5A7.05,7.05,0,0,1,464.47,541.34Z"/><path class="a" d="M322.93,322.3,535,463.84l-70.5,70.5-141.54-212m0-14a14,14,0,0,0-11.65,21.77l141.53,212a14,14,0,0,0,10.27,6.16c.46,0,.92.07,1.38.07a14,14,0,0,0,9.9-4.1l70.5-70.5a14,14,0,0,0-2.13-21.55l-212-141.53a13.88,13.88,0,0,0-7.76-2.36Z"/><path class="a" d="M676.5,682.87a6.9,6.9,0,0,1-3.88-1.18l-212-141.53a7,7,0,0,1-1.06-10.77l70.5-70.5a7,7,0,0,1,5-2.05l.69,0a7,7,0,0,1,5.13,3.08L682.33,672a7,7,0,0,1-5.83,10.88Z"/><path class="a" d="M535,463.84l141.54,212-212-141.53,70.5-70.5m0-14a14,14,0,0,0-9.9,4.1l-70.5,70.5A14,14,0,0,0,456.7,546l212,141.54a14,14,0,0,0,19.42-19.42l-141.54-212a14,14,0,0,0-10.27-6.16,12.7,12.7,0,0,0-1.37-.07Z"/></svg>