<svg xmlns="http://www.w3.org/2000/svg" viewBox="0 0 1000 1000"><defs><style>.a{fill:#ffd02e;}.b{fill:#e19200;}.c{fill:#fbff83;}.d{fill:#ffd35a;}</style></defs><path class="a" d="M539.46,125.07H460.55c-29.61,0-58,7.32-84.51,20.62h88.47v50.67H309.05a330.77,330.77,0,0,0-44.2,59h142V306H239.4a460.78,460.78,0,0,0-19.91,59H367.93v50.68H208.81a533.05,533.05,0,0,0-6,59h178.9v50.68H202.82a532.81,532.81,0,0,0,6,59h198V635H219.49a462.32,462.32,0,0,0,19.9,59h203.8v50.67H264.85a330.49,330.49,0,0,0,44.2,59H522.83v50.67H376c26.49,13.3,54.9,20.62,84.51,20.62h78.91c142.69,0,258.37-167.86,258.37-374.93S682.15,125.07,539.46,125.07Z"/><path class="b" d="M464.51,145.69H376c-24.16,12.13-46.69,29.3-67,50.67H464.51Z"/><path class="b" d="M406.81,255.34h-142A404.39,404.39,0,0,0,239.4,306H406.81Z"/><path class="b" d="M367.93,365H219.49a504.37,504.37,0,0,0-10.68,50.68H367.93Z"/><path class="b" d="M381.72,474.66H202.82c-.39,8.39-.65,16.82-.65,25.34s.26,17,.65,25.34h178.9Z"/><path class="b" d="M406.81,584.32h-198A503.78,503.78,0,0,0,219.49,635H406.81Z"/><path class="b" d="M443.19,694H239.39a405,405,0,0,0,25.46,50.67H443.19Z"/><path class="b" d="M522.83,803.64H309.05c20.3,21.37,42.83,38.54,67,50.67H522.83Z"/><path class="c" d="M301.93,500c0,207.07,111,374.93,248,374.93s248-167.86,248-374.93-111-374.93-248-374.93S301.93,292.93,301.93,500Z"/><path class="d" d="M399.54,500c0,162.84,72.22,294.85,161.28,294.85S722.11,662.84,722.11,500,649.9,205.15,560.82,205.15,399.54,337.16,399.54,500Z"/><polygon class="c" points="611.42 330.89 611.42 294.1 534.95 294.1 534.95 330.89 534.95 330.89 534.95 658.67 534.95 658.67 534.95 695.46 611.42 695.46 611.42 658.67 611.42 658.67 611.42 330.89 611.42 330.89"/></svg>