<svg xmlns="http://www.w3.org/2000/svg" viewBox="0 0 1000 1000"><defs><style>.a{fill:#ffd02e;}.b{fill:#e19200;}.c{fill:#fbff83;}.d{fill:#ffd35a;}</style></defs><path class="a" d="M539.43,125H461c-30.14,0-59.07,7.46-86.05,21H465v50H308.73a330.59,330.59,0,0,0-44.44,59H407v51H239.09a458.59,458.59,0,0,0-20,59H368v51H206.53a528.28,528.28,0,0,0-6.08,59H382v50H203.72a535.61,535.61,0,0,0,6,59H407v51H221.62a466.44,466.44,0,0,0,19.7,59H443v51H263.86a330.07,330.07,0,0,0,44.4,59H523v50H373.54c27,13.55,55.9,21,86,21h79.84c142.72,0,258.43-167.89,258.43-375S682.15,125,539.43,125Z"/><path class="b" d="M465,146H376c-24.31,12.21-47,29.49-67.42,51H465Z"/><path class="b" d="M407,255H264.13a406.72,406.72,0,0,0-25.6,51H407Z"/><path class="b" d="M368,365H218.62a504.61,504.61,0,0,0-10.75,51H368Z"/><path class="b" d="M382,475H202c-.39,8.44-.66,16.92-.66,25.5s.27,17.06.66,25.5H382Z"/><path class="b" d="M407,584H207.73a506.79,506.79,0,0,0,10.76,51H407Z"/><path class="b" d="M443,694H237.9a408.16,408.16,0,0,0,25.62,51H443Z"/><path class="b" d="M523,803H307.83c20.44,21.51,43.11,38.79,67.42,51H523Z"/><path class="c" d="M301.93,500c0,207.07,111,374.93,248,374.93s248-167.86,248-374.93-111-374.93-248-374.93S301.93,292.93,301.93,500Z"/><path class="d" d="M399.54,500c0,162.84,72.22,294.85,161.28,294.85S722.11,662.84,722.11,500,649.9,205.15,560.82,205.15,399.54,337.16,399.54,500Z"/><polygon class="c" points="611 330.76 611 294 535 294 535 330.76 535 330.76 535 658.24 535 658.24 535 695 611 695 611 658.24 611 658.24 611 330.76 611 330.76"/></svg>