<svg viewBox="0 0 256 256" xmlns="http://www.w3.org/2000/svg"><path d="m75 177.89 83.87-83.86-4.06-4.06-85.39 85.4z" fill="#946440"/><path d="m144.88 103.61-1.05-2.65 1.05-3.86 1.05-1.83.2-2.32 1.25-2.98 4.42-2.5 2.15-.1 2.23-1.97 11.75-4.84z" fill="#939598"/><path d="m144.88 103.61 7.51-7.51 1.56-2.67 1.45-.34 12.53-12.53-3.12 7.6-1.37 1.25-.48 2.23-4.09 7.68-1.46.92-.91 1.33-8.33 3.15z" fill="#bcbec0"/><g fill="#946440"><path d="m148.17 104.72-2.76-8.53.52-.92 3 9.17z"/><path d="m143.83 100.96.26-.96 10.27 2.38-.89.34z"/></g></svg>