<svg viewBox="0 0 256 256" xmlns="http://www.w3.org/2000/svg"><path d="m80.28 177.55-8.38-8.38 44.17-46.42 10.73-.1-.11 10.73z" fill="#e9c89c"/><path d="m76.72 173.77-1.02-1.01 42.62-42.9 3.9-2.61-2.61 3.91z" fill="#bd8648" opacity=".5"/><g fill="#b96e2b"><path d="m75.54 180.59.52-.52-.52-.52z"/><path d="m73.04 177.04-3.64-3.63-1.3 1.3z"/><path d="m64.58 189.86-3.89-7.74-2.67 2.67 6.66 6.66 1.73-1.72z"/></g><path d="m64.65 191.48c-.53.53-2.45-.54-4.28-2.37s-2.91-3.76-2.38-4.29 2.45.53 4.29 2.37 2.9 3.81 2.37 4.29z" fill="#a16733"/><path d="m72.03 165.43h4.82v19.21h-4.82z" fill="#b96e2b" transform="matrix(.70710678 -.70710678 .70710678 .70710678 -101.97 103.9)"/><path d="m81.83 182.43c-.94.94-2 1.43-2.31 1.1s.17-1.36 1.11-2.3 2-1.43 2.3-1.1-.16 1.36-1.1 2.3z" fill="#b96e2b"/><path d="m68.24 168.84c-.94.94-2 1.44-2.3 1.11s.16-1.37 1.1-2.31 2-1.43 2.3-1.1-.16 1.36-1.1 2.3z" fill="#b96e2b"/></svg>