<svg viewBox="0 0 256 256" xmlns="http://www.w3.org/2000/svg"><path d="m64.46 189.78-4-7.97-5.42 5.99 6.59 6.59 5.72-4.82z" fill="#996536"/><path d="m124.87 126.51c-8.57-7.86-16.12 2-16.12 2l-41.49 45.78 8.16 3.86v4.61l47.58-40.09s10.47-8.27 1.87-16.16z" fill="#996536"/><g fill="#6b452d"><path d="m61.61 194.42c-.53.52-2.43-.53-4.25-2.35s-2.87-3.72-2.35-4.25 2.42.53 4.24 2.36 2.88 3.72 2.36 4.24z"/><path d="m103.85 138.5-3.41-6.59 6.58 3.41a3.68 3.68 0 0 1 -1.07 2.1 4.46 4.46 0 0 1 -2.1 1.08z"/><path d="m111.25 130.86-3.41-6.58 6.58 3.41a3.68 3.68 0 0 1 -1.07 2.1 4.35 4.35 0 0 1 -2.1 1.07z"/><path d="m96.45 146.13-3.45-6.59 6.62 3.46a3.68 3.68 0 0 1 -1.07 2.1 4.39 4.39 0 0 1 -2.1 1.03z"/><path d="m117.11 143.4 3.41 6.59-6.58-3.42a3.68 3.68 0 0 1 1.07-2.1 4.46 4.46 0 0 1 2.1-1.07z"/><path d="m109.71 151 3.41 6.59-6.58-3.41a3.68 3.68 0 0 1 1.07-2.1 4.42 4.42 0 0 1 2.1-1.08z"/><path d="m124.51 135.77 3.41 6.58-6.58-3.41a3.68 3.68 0 0 1 1.07-2.1 4.39 4.39 0 0 1 2.1-1.07z"/><circle cx="102.91" cy="148.59" r="1.96"/><circle cx="110.46" cy="140.96" r="1.96"/><circle cx="118.08" cy="133.33" r="1.96"/></g></svg>