<svg viewBox="0 0 256 256" xmlns="http://www.w3.org/2000/svg"><path d="m80 177.71-8.38-8.37 61.17-61.42 9.72-1.1-1.1 9.72z" fill="#f1f2f2"/><path d="m76.44 173.94-1.02-1.02 58.62-58.89 3.9-2.62-2.61 3.91z" fill="#d1d3d4"/><path d="m64.53 189.81-3.9-7.75-4.89 4.89 6.66 6.66 3.94-3.93z" fill="#939598"/><path d="m82.65 180.29-13.58-13.59c-.33-.33-1.37.17-2.31 1.11s-1.43 2-1.1 2.3l3.46 3.46-1.12 1.09 7.45 3.52v2.35l.29-.3 3.47 3.46c.33.33 1.36-.16 2.3-1.1s1.49-1.97 1.14-2.3z" fill="#939598"/><path d="m62.37 193.64c-.52.53-2.44-.53-4.28-2.37s-2.91-3.76-2.38-4.29 2.45.54 4.29 2.38 2.9 3.75 2.37 4.28z" fill="#808285"/></svg>