<svg viewBox="0 0 256 256" xmlns="http://www.w3.org/2000/svg"><path d="m64.51 189.77-3.44-6.82-5.22 5.12 4.53 5.16z" fill="#996536"/><path d="m121.53 128.53c-6.28-3.79-10.73 3.94-10.73 3.94l-41.99 42.53 6.63 3.13v1.4l41.56-38.86s8.65-9.67 4.53-12.14z" fill="#996536"/><path d="m60.35 193.25c-.52.53-1.66.07-3.48-1.75s-1.57-2.88-1-3.4 1.17-.2 3 1.62 2.01 3.01 1.48 3.53z" fill="#6b452d"/><path d="m107.42 130.15 4.05-1.18 5.51 2.08 2.54 1.78 3.39.63 4.2 3.24 3.07 5.83-1.16 3.18 1.58 3.54-3.33 5.49z" fill="#939598"/><path d="m107.42 130.15 9.99 12.06 3.72 2.66.29 2.18 5.85 7.69-4.55 1.62-3.22-1.01-7.71-4.07-1.15-2.27-1.82-1.51-3.49-12.68z" fill="#bcbec0"/><g fill="#946440"><path d="m105.33 134.82 12.92-2.88 1.27.89-13.87 3.15z"/><path d="m111.47 128.97 1.36.52-4.91 14.75-.37-1.35z"/></g></svg>