<svg viewBox="0 0 256 256" xmlns="http://www.w3.org/2000/svg"><path d="m79.48 177.65-8.37-8.37 46.17-48.42 10.72-.1-.1 10.72z" fill="#bcbec0"/><path d="m75.92 173.88-1.02-1.02 44.62-44.89 3.9-2.61-2.61 3.9z" fill="#a7a9ac"/><path d="m64.48 189.78-4.06-8.08-3.2 3.2 6.66 6.66 1.87-1.87z" fill="#6d6e71"/><path d="m71.27 176.18-2.66-2.67-.96.96z" fill="#6d6e71"/><path d="m63.86 191.58c-.53.53-2.45-.53-4.29-2.37s-2.9-3.76-2.38-4.29 2.45.54 4.29 2.38 2.9 3.76 2.38 4.28z" fill="#58595b"/><g fill="#6d6e71"><path d="m71.23 165.53h4.82v19.21h-4.82z" transform="matrix(.70710678 -.70710678 .70710678 .70710678 -102.27 103.37)"/><path d="m81 182.53c-.94.94-2 1.44-2.3 1.11s.16-1.36 1.1-2.31 2-1.43 2.3-1.1-.1 1.36-1.1 2.3z"/><path d="m67.44 169c-.94.94-2 1.43-2.3 1.1s.17-1.36 1.11-2.3 2-1.44 2.3-1.1-.17 1.3-1.11 2.3z"/></g></svg>