<svg viewBox="0 0 512 640" xmlns="http://www.w3.org/2000/svg"><ellipse cx="256" cy="421.29" fill="#231f20" opacity=".15" rx="183.78" ry="72.27"/><path d="m124.61 227.16v-20.6h-25.35v20.6h-23.82v-20.6h-25.35v20.6 47.43h148.37v-47.43z" fill="#948f89"/><path d="m436.56 206.56v20.6h-23.82v-20.6h-25.35v20.6h-23.83v-20.6h-25.35v20.6h-24.67v58.17h148.37v-58.17-20.6z" fill="#948f89"/><path d="m317.93 100v20.6h-23.82v-20.6h-25.35v20.6h-23.83v-20.6h-25.35v20.6h-23.83v-20.6h-25.34v20.6h-23.83v-20.6h-25.35v20.6 47.44h222.05v-47.44-20.6z" fill="#948f89"/><path d="m228.99 48.43h5.53v116.86h-5.53z" fill="#58595b"/><path d="m234.52 67.29v-18.85l63.42 9.42z" fill="#ef4136"/><path d="m234.52 81.23v-18.85l63.42 9.43z" fill="#ef4136"/><path d="m394.53 171.3h5.53v95.92h-5.53z" fill="#58595b"/><path d="m400.06 190.15v-18.85l36.21 9.43z" fill="#ef4136"/><path d="m313.54 299.85h126.24v121.17h-126.24z" fill="#9c896f"/><path d="m313.54 273.89h148.37v25.97h-148.37z" fill="#c5bfb7"/><path d="m338.21 253.29h25.35v20.6h-25.35z" fill="#c5bfb7"/><path d="m387.39 253.29h25.35v20.6h-25.35z" fill="#c5bfb7"/><path d="m436.56 253.29h25.35v20.6h-25.35z" fill="#c5bfb7"/><path d="m72.22 299.82h126.24v121.21h-126.24z" fill="#9c896f"/><path d="m50.09 273.85h148.37v25.97h-148.37z" fill="#c5bfb7"/><path d="m145.4 258.62h25.35v25.97h-25.35z" fill="#9c896f"/><path d="m99.26 253.25h25.35v20.6h-25.35z" fill="#c5bfb7"/><path d="m50.09 253.25h25.35v20.6h-25.35z" fill="#c5bfb7"/><path d="m143.36 190.44h177.78v263.4h-177.78z" fill="#a69680"/><path d="m121.23 164.48h222.05v25.97h-222.05z" fill="#c5bfb7"/><path d="m121.23 143.88h25.35v20.6h-25.35z" fill="#c5bfb7"/><path d="m170.41 143.88h25.35v20.6h-25.35z" fill="#c5bfb7"/><path d="m219.58 143.88h25.35v20.6h-25.35z" fill="#c5bfb7"/><path d="m268.76 143.88h25.35v20.6h-25.35z" fill="#c5bfb7"/><path d="m317.93 143.88h25.35v20.6h-25.35z" fill="#c5bfb7"/><path d="m193.22 224.98-10.54 12.38v34.95h21.08v-34.95z" fill="#58595b"/><path d="m271.29 224.98-10.54 12.38v34.95h21.09v-34.95z" fill="#58595b"/><path d="m377.18 317.91-10.54 12.39v34.94h21.09v-34.94z" fill="#58595b"/><path d="m111.94 317.91-10.55 12.39v34.94h21.09v-34.94z" fill="#58595b"/><path d="m203.04 373.42h58.43v80.13h-58.43z" fill="#8b5e3c"/><path d="m232.26 373.42h29.22v80.13h-29.22z" fill="#946440"/><g fill="#9c896f"><path d="m183.4 360.44h97.72v12.98h-97.72z"/><path d="m261.47 373.42h12.98v80.13h-12.98z"/><path d="m190.77 373.42h12.98v80.13h-12.98z"/><path d="m143.36 289.46h57.17v5.37h-57.17z"/><path d="m291.29 310.55h21.82v5.37h-21.82z"/><path d="m267.96 331.08h53.56v5.37h-53.56z"/><path d="m281.12 206.19h40.03v5.37h-40.03z"/><path d="m158.9 309.99h57.17v5.37h-57.17z"/><path d="m175.18 272.31h40.35v5.37h-40.35z"/><path d="m170.56 289.46h5.37v25.9h-5.37z"/><path d="m292.94 190.44h5.37v18.43h-5.37z"/><path d="m306.36 209.08h5.37v18.43h-5.37z"/><path d="m190.1 313.44h5.37v14.67h-5.37z"/><path d="m281.84 335.06h5.37v14.67h-5.37z"/><path d="m298.45 313.24h5.37v19.98h-5.37z"/><path d="m151.51 277.48h5.37v14.67h-5.37z"/><path d="m183.79 277.48h5.37v14.67h-5.37z"/></g></svg>