<svg viewBox="0 0 512 640" xmlns="http://www.w3.org/2000/svg"><ellipse cx="257.52" cy="449" fill="#231f20" opacity=".15" rx="185.48" ry="60.15"/><path d="m73 152h124v297h-124z" fill="#a69680"/><path d="m113.93 109h-41.15l20.57-44.56z" fill="#ef4136"/><path d="m197.16 109h-41.14l20.57-44.56z" fill="#ef4136"/><path d="m124 385h32v3h-32z" fill="#9c896f"/><path d="m146 373h3v15h-3z" fill="#9c896f"/><path d="m135 387h3v8h-3z" fill="#9c896f"/><path d="m134 163h32v4h-32z" fill="#9c896f"/><path d="m142 167h4v12h-4z" fill="#9c896f"/><path d="m152 152h4v11h-4z" fill="#9c896f"/><path d="m114 126h42v26h-42z" fill="#9c896f"/><path d="m73 109h41v43h-41z" fill="#a69680"/><path d="m156 109h41v43h-41z" fill="#a69680"/><path d="m93.5 117.1-8.5 11.1v23.8h17v-23.8z" fill="#58595b"/><path d="m176.5 117.1-8.5 11.1v23.8h17v-23.8z" fill="#58595b"/><path d="m114 179h42v84h-42z" fill="#9c896f"/><path d="m168 179h17v84h-17z" fill="#9c896f"/><path d="m168 293h17v84h-17z" fill="#9c896f"/><path d="m85 293h17v84h-17z" fill="#9c896f"/><path d="m85 179h17v84h-17z" fill="#9c896f"/><path d="m114 293h42v84h-42z" fill="#9c896f"/><path d="m135 188.4-13.2 18.6v39.87h26.4v-39.87z" fill="#58595b"/><path d="m135 303.4-13.2 18.6v39.87h26.4v-39.87z" fill="#58595b"/><path d="m319 151.76h124v297.24h-124z" fill="#a69680"/><path d="m360.22 108.88h-41.14l20.57-44.44z" fill="#ef4136"/><path d="m443.46 108.88h-41.14l20.57-44.44z" fill="#ef4136"/><g fill="#9c896f"><path d="m404.12 408.32h38.88v3.63h-38.88z"/><path d="m432.07 398.78h3.64v13.17h-3.64z"/><path d="m418.7 410.75h3.64v9.69h-3.64z"/><path d="m319 280.41h41v3.99h-41z"/><path d="m339 280.41h4v11.97h-4z"/><path d="m325 271.43h4v10.97h-4z"/><path d="m348 271.43h4v10.97h-4z"/><path d="m360 125.83h42v25.93h-42z"/></g><path d="m319 108.88h41v42.88h-41z" fill="#a69680"/><path d="m402 108.88h41v42.88h-41z" fill="#a69680"/><path d="m339.5 116.96-8.5 11.06v23.74h17v-23.74z" fill="#58595b"/><path d="m422.5 116.96-8.5 11.06v23.74h17v-23.74z" fill="#58595b"/><path d="m360 178.69h42v83.77h-42z" fill="#9c896f"/><path d="m414 178.69h17v83.77h-17z" fill="#9c896f"/><path d="m414 292.37h17v83.77h-17z" fill="#9c896f"/><path d="m331 292.37h17v83.77h-17z" fill="#9c896f"/><path d="m331 178.69h17v83.77h-17z" fill="#9c896f"/><path d="m360 292.37h42v83.77h-42z" fill="#9c896f"/><path d="m381 188.07-13.2 18.54v39.77h26.4v-39.77z" fill="#58595b"/><path d="m381 302.75-13.2 18.54v39.77h26.4v-39.77z" fill="#58595b"/><path d="m319 319h-122v-58.3l61-20 61 20z" fill="#ef4136"/><path d="m319 419h-122v-123.92l61-16.48 61 16.48z" fill="#9c896f"/><path d="m258 278.96-61 20.04v-38.29l61-20.04z" fill="#be1e2d"/><path d="m235 356h46v63h-46z" fill="#8b5e3c"/><path d="m258 356h23v63h-23z" fill="#946440"/><path d="m220 356h77v-40.24l-38.5-11.82-38.5 11.82z" fill="#a69680"/><path d="m281 356h16v63h-16z" fill="#a69680"/><path d="m220 356h16v63h-16z" fill="#a69680"/><path d="m256.5 340.04h32v3.99h-32z" fill="#9c896f"/><path d="m264.5 344.03h4v11.97h-4z" fill="#9c896f"/><path d="m274.5 329.07h4v10.97h-4z" fill="#9c896f"/></svg>