<svg viewBox="0 0 512 640" xmlns="http://www.w3.org/2000/svg"><ellipse cx="256" cy="445.97" fill="#231f20" opacity=".15" rx="133.16" ry="43.18"/><path d="m168.26 124.1-45.42 66.71v30.29h90.83v-30.29z" fill="#be1e2d"/><path d="m122.84 221.1h90.83v224.87h-90.83z" fill="#a69680"/><path d="m213.67 221.1h-90.83l45.42-97z" fill="#ef4136"/><path d="m183.69 274.01h-30.86l15.43-19.73z" fill="#58595b"/><path d="m213.67 310.61h175.48v135.36h-175.48z" fill="#9c896f"/><path d="m213.67 280.62h175.48v52.47h-175.48z" fill="#ef4136"/><path d="m152.83 274.01h30.86v42.33h-30.86z" fill="#58595b"/><path d="m250.62 359.43-9.18 10.77v30.39h18.35v-30.39z" fill="#58595b"/><path d="m298.83 359.43-9.17 10.77v30.39h18.34v-30.39z" fill="#58595b"/><path d="m347.05 359.43-9.17 10.77v30.39h18.34v-30.39z" fill="#58595b"/><g fill="#9c896f"><path d="m178.18 320.9h35.49v4.41h-35.49z"/><path d="m122.97 412.87h46.96v4.41h-46.96z"/><path d="m155.94 396h4.41v21.27h-4.41z"/><path d="m139.89 415.69h4.41v12.05h-4.41z"/><path d="m187.22 325.31h4.41v12.05h-4.41z"/><path d="m198.68 308.85h4.41v12.05h-4.41z"/><path d="m122.97 230.95h46.96v4.41h-46.96z"/><path d="m145.31 230.95h4.41v13.67h-4.41z"/><path d="m129.66 221.1h4.41v12.05h-4.41z"/><path d="m156.17 221.1h4.41v12.05h-4.41z"/></g></svg>