<svg viewBox="0 0 512 640" xmlns="http://www.w3.org/2000/svg"><path d="m257.78 377.52c-57.91 0-109.38 6.53-142 16.65a53.7 53.7 0 0 0 -8.41-.66c-14.89 0-27 5.91-27 13.2a7.72 7.72 0 0 0 2 5 12.86 12.86 0 0 0 -3.34 8.2c0 23.41 80 50.72 178.75 50.72s178.76-27.31 178.76-50.72-80.04-42.39-178.76-42.39z" fill="#231f20" opacity=".15"/><path d="m106.13 401.45h-20.53l-4.28-8.14v-21.37h29.08v21.37z" fill="#754c29"/><path d="m257.67 211.25h156.96v214.7h-156.96z" fill="#fc6"/><path d="m100.64 314.32h156.96v111.63h-156.96z" fill="#fc6"/><path d="m257.67 190.49h156.96v21.38h-156.96z" fill="#bd974b"/><path d="m314.67 345.55h43.88v21.38h-43.88z" fill="#bd974b"/><path d="m100.64 292.94h156.96v21.38h-156.96z" fill="#bd974b"/><g fill="#e6ac39"><path d="m380.98 244.26h33.65v17.99h-33.65z"/><path d="m364.16 262.25h33.65v17.99h-33.65z"/><path d="m100.64 314.32h33.65v17.99h-33.65z"/><path d="m117.46 332.32h33.65v17.99h-33.65z"/><path d="m184.32 386.29h33.65v17.99h-33.65z"/><path d="m257.67 314.32h33.65v17.99h-33.65z"/><path d="m380.98 389.97h33.65v17.99h-33.65z"/><path d="m291.32 211.87h33.65v17.99h-33.65z"/><path d="m257.67 389.97h16.82v17.99h-16.82z"/><path d="m257.67 332.32h16.82v17.99h-16.82z"/></g><path d="m161.05 341.31h28v35.98h-28z" fill="#58595b"/><path d="m291.32 244.26h28v35.98h-28z" fill="#58595b"/><path d="m314.67 366.93h42.96v59.02h-42.96z" fill="#58595b"/><path d="m352.98 244.26h28v35.98h-28z" fill="#58595b"/><path d="m427.36 425.95h-18.81l-5.14-9.95v-29.71h29.08v29.71z" fill="#a97c50"/><path d="m235.32 425.95h14.88l9.52-13.34v-35.09h-33.92v35.09z" fill="#754c29"/><path d="m259.88 425.95h12.14l7.6-13.3v-25.18h-27.34v25.18z" fill="#a97c50"/><path d="m114.94 425.76h-13.98l-8.73-15.3v-28.97h31.44v28.97z" fill="#a97c50"/><path d="m190.45 269.84h19.89v23.1h-19.89z" fill="#754c29"/><path d="m175.05 277.68h15.4v15.27h-15.4z" fill="#a97c50"/><path d="m257.67 142.4h156.96v48.09h-156.96z" fill="#d4a954"/><path d="m100.64 244.85h156.96v48.09h-156.96z" fill="#d4a954"/></svg>