<svg viewBox="0 0 512 640" xmlns="http://www.w3.org/2000/svg"><path d="m48.99 303.57h64.44v187.42h-64.44z" fill="#adcc33"/><path d="m136.39 303.57h64.44v103.92h-64.44z" fill="#adcc33"/><path d="m136.39 430.59h64.44v60.4h-64.44z" fill="#adcc33"/><path d="m223.78 215.62h64.44v275.36h-64.44z" fill="#adcc33"/><path d="m311.18 215.62h64.44v66.34h-64.44z" fill="#adcc33"/><path d="m311.18 303.58h64.44v187.41h-64.44z" fill="#adcc33"/><path d="m398.57 215.62h64.44v275.36h-64.44z" fill="#adcc33"/><g fill="#72ab44"><path d="m430.46 461.09a10.73 10.73 0 0 0 -10.73-10.73v10.73a10.73 10.73 0 0 0 21.45 0v-10.73a10.72 10.72 0 0 0 -10.72 10.73"/><path d="m343.4 461.09a10.73 10.73 0 0 0 -10.73-10.73v10.73a10.73 10.73 0 0 0 21.45 0v-10.73a10.72 10.72 0 0 0 -10.72 10.73"/><path d="m256 461.09a10.72 10.72 0 0 0 -10.73-10.73v10.73a10.73 10.73 0 0 0 21.46 0v-10.73a10.72 10.72 0 0 0 -10.73 10.73"/><path d="m168.6 461.09a10.72 10.72 0 0 0 -10.72-10.73v10.73a10.73 10.73 0 0 0 21.45 0v-10.73a10.73 10.73 0 0 0 -10.73 10.73"/><path d="m81.21 461.09a10.72 10.72 0 0 0 -10.73-10.73v10.73a10.73 10.73 0 0 0 21.46 0v-10.73a10.72 10.72 0 0 0 -10.73 10.73"/><path d="m430.46 418.88a10.73 10.73 0 0 0 -10.73-10.73v10.73a10.73 10.73 0 1 0 21.45 0v-10.73a10.72 10.72 0 0 0 -10.72 10.73"/><path d="m343.4 418.88a10.73 10.73 0 0 0 -10.73-10.73v10.73a10.73 10.73 0 1 0 21.45 0v-10.73a10.72 10.72 0 0 0 -10.72 10.73"/><path d="m256 418.88a10.72 10.72 0 0 0 -10.73-10.73v10.73a10.73 10.73 0 0 0 21.46 0v-10.73a10.72 10.72 0 0 0 -10.73 10.73"/><path d="m81.21 418.88a10.72 10.72 0 0 0 -10.73-10.73v10.73a10.73 10.73 0 0 0 21.46 0v-10.73a10.72 10.72 0 0 0 -10.73 10.73"/><path d="m430.46 376.67a10.74 10.74 0 0 0 -10.73-10.73v10.73a10.73 10.73 0 1 0 21.45 0v-10.73a10.73 10.73 0 0 0 -10.72 10.73"/><path d="m343.4 376.67a10.74 10.74 0 0 0 -10.73-10.73v10.73a10.73 10.73 0 1 0 21.45 0v-10.73a10.73 10.73 0 0 0 -10.72 10.73"/><path d="m256 376.67a10.73 10.73 0 0 0 -10.73-10.73v10.73a10.73 10.73 0 0 0 21.46 0v-10.73a10.73 10.73 0 0 0 -10.73 10.73"/><path d="m168.6 376.67a10.73 10.73 0 0 0 -10.72-10.73v10.73a10.73 10.73 0 1 0 21.45 0v-10.73a10.74 10.74 0 0 0 -10.73 10.73"/><path d="m81.21 376.67a10.73 10.73 0 0 0 -10.73-10.73v10.73a10.73 10.73 0 0 0 21.46 0v-10.73a10.73 10.73 0 0 0 -10.73 10.73"/><path d="m430.46 334.47a10.73 10.73 0 0 0 -10.73-10.73v10.73a10.73 10.73 0 1 0 21.45 0v-10.73a10.72 10.72 0 0 0 -10.72 10.73"/><path d="m343.4 334.47a10.73 10.73 0 0 0 -10.73-10.73v10.73a10.73 10.73 0 1 0 21.45 0v-10.73a10.72 10.72 0 0 0 -10.72 10.73"/><path d="m256 334.47a10.72 10.72 0 0 0 -10.73-10.73v10.73a10.73 10.73 0 0 0 21.46 0v-10.73a10.72 10.72 0 0 0 -10.73 10.73"/><path d="m168.6 334.47a10.72 10.72 0 0 0 -10.72-10.73v10.73a10.73 10.73 0 1 0 21.45 0v-10.73a10.73 10.73 0 0 0 -10.73 10.73"/><path d="m81.21 334.47a10.72 10.72 0 0 0 -10.73-10.73v10.73a10.73 10.73 0 0 0 21.46 0v-10.73a10.72 10.72 0 0 0 -10.73 10.73"/><path d="m430.46 292.26a10.74 10.74 0 0 0 -10.73-10.73v10.73a10.73 10.73 0 1 0 21.45 0v-10.73a10.73 10.73 0 0 0 -10.72 10.73"/><path d="m256 292.26a10.73 10.73 0 0 0 -10.73-10.73v10.73a10.73 10.73 0 0 0 21.46 0v-10.73a10.73 10.73 0 0 0 -10.73 10.73"/><path d="m430.46 250.06a10.73 10.73 0 0 0 -10.73-10.73v10.73a10.73 10.73 0 0 0 21.45 0v-10.73a10.72 10.72 0 0 0 -10.72 10.73"/><path d="m343.4 250.06a10.73 10.73 0 0 0 -10.73-10.73v10.73a10.73 10.73 0 0 0 21.45 0v-10.73a10.72 10.72 0 0 0 -10.72 10.73"/><path d="m256 250.06a10.72 10.72 0 0 0 -10.73-10.73v10.73a10.73 10.73 0 0 0 21.46 0v-10.73a10.72 10.72 0 0 0 -10.73 10.73"/></g><path d="m152.33 243.67c-2.59 0-5.13 0-7.62.14-9-6.67-25.12-11.11-43.51-11.11-28.23 0-51.12 10.47-51.12 23.38s22.92 23.38 51.12 23.38c18.39 0 34.51-4.44 43.51-11.1q3.73.13 7.62.13c28.23 0 51.12-5.55 51.12-12.41s-22.89-12.41-51.12-12.41z" fill="#231f20" opacity=".15"/><path d="m186.46 192.2h8.9v63.71h-8.9z" fill="#754c29"/><path d="m152.33 192.2h54.03v8.91h-54.03z" fill="#a97c50"/><path d="m50.08 160.54h102.25v95.54h-102.25z" fill="#fc6"/><path d="m50.08 157.55h102.25v13.93h-102.25z" fill="#bd974b"/><path d="m87.21 206.8h27.99v10.83h-27.99z" fill="#bd974b"/><path d="m76.25 171.69h21.92v11.72h-21.92z" fill="#e6ac39"/><path d="m130.41 183.36h21.92v11.72h-21.92z" fill="#e6ac39"/><path d="m65.29 183.27h21.92v11.72h-21.92z" fill="#e6ac39"/><path d="m76.25 244.36h21.92v11.72h-21.92z" fill="#e6ac39"/><path d="m141.37 232.64h10.96v11.72h-10.96z" fill="#e6ac39"/><path d="m141.37 195.08h10.96v11.72h-10.96z" fill="#e6ac39"/><path d="m87.21 217.63h27.99v38.45h-27.99z" fill="#58595b"/><path d="m236.52 188.07h12.17l2.54-4.82v-12.68h-17.25v12.68z" fill="#754c29"/><path d="m228.96 187.96h8.29l5.18-9.07v-17.18h-18.65v17.18z" fill="#a97c50"/><path d="m50.08 126.22h102.25v31.33h-102.25z" fill="#d4a954"/><path d="m152.47 174.89h53.88v17.31h-53.88z" fill="#c49a6c"/></svg>