<svg viewBox="0 0 512 640" xmlns="http://www.w3.org/2000/svg"><path d="m413 415.37a50.54 50.54 0 0 0 -8.42.69c-14.7-5.06-51.24-6.32-68.32-8.4-35.05-4.26-93.61-17-140.2-17-72.69 0-131.62 17.7-131.62 39.55s58.93 39.55 131.62 39.55c55.48 0 105.1-18.67 140.2-24.47 13.84-2.29 41.22-1.91 55.87-5 5.11 3.09 12.56 5 20.87 5 15.4 0 27.89-6.7 27.89-15s-12.5-14.92-27.89-14.92z" fill="#231f20" opacity=".15"/><path d="m286.66 287.55h2.52v21.59h-2.52z" fill="#8b5e3c"/><path d="m321.04 284.84h2.52v21.59h-2.52z" fill="#8b5e3c"/><path d="m287.92 314c-4.59 2.26-7.91 8.84-7.91 16.6s3.32 14.35 7.91 16.6z" fill="#4b8abc"/><path d="m287.92 314v33.2c4.59-2.25 7.92-8.83 7.92-16.6s-3.33-14.35-7.92-16.6z" fill="#4ba9bc"/><path d="m282.56 308.06c.15 5.05 2.35 9.27 5.36 10.75v-10.75z" fill="#4b8abc"/><path d="m293.28 308.06c-.14 5.05-2.34 9.27-5.36 10.75v-10.75z" fill="#4b8abc"/><path d="m354.09 286.04h2.52v38.92h-2.52z" fill="#8b5e3c"/><path d="m355.35 329.81c-4.59 2.25-7.91 8.83-7.91 16.6s3.32 14.34 7.91 16.59z" fill="#4b8abc"/><path d="m355.35 329.81v33.19c4.59-2.25 7.92-8.83 7.92-16.59s-3.33-14.35-7.92-16.6z" fill="#4ba9bc"/><path d="m350 323.87c.14 5.05 2.34 9.28 5.35 10.76v-10.76z" fill="#4b8abc"/><path d="m360.71 323.87c-.14 5.05-2.34 9.28-5.36 10.76v-10.76z" fill="#4b8abc"/><path d="m322.3 303.42c-4.59 2.25-7.92 8.83-7.92 16.6s3.33 14.35 7.92 16.6z" fill="#4b8abc"/><path d="m322.3 303.42v33.2c4.59-2.25 7.91-8.83 7.91-16.6s-3.32-14.35-7.91-16.6z" fill="#4ba9bc"/><path d="m316.94 297.48c.14 5 2.34 9.28 5.36 10.76v-10.76z" fill="#4b8abc"/><path d="m327.66 297.48c-.14 5-2.35 9.28-5.36 10.76v-10.76z" fill="#4b8abc"/><path d="m395.02 289.81h14.7v139.27h-14.7z" fill="#754c29"/><path d="m254.23 275.11h173.63v14.7h-173.63z" fill="#a97c50"/><path d="m85.43 198.44h168.8v230.9h-168.8z" fill="#fc6"/><path d="m85.43 193.51h168.8v23h-168.8z" fill="#bd974b"/><path d="m145.75 342.87h47.19v23h-47.19z" fill="#bd974b"/><path d="m85.43 251.33h36.19v19.35h-36.19z" fill="#e6ac39"/><path d="m103.53 270.68h36.19v19.35h-36.19z" fill="#e6ac39"/><path d="m218.04 309.29h36.19v19.35h-36.19z" fill="#e6ac39"/><path d="m85.43 309.14h36.19v19.35h-36.19z" fill="#e6ac39"/><path d="m181.85 216.51h36.19v19.35h-36.19z" fill="#e6ac39"/><path d="m236.14 390.65h18.09v19.35h-18.09z" fill="#e6ac39"/><path d="m236.14 328.64h18.09v19.35h-18.09z" fill="#e6ac39"/><path d="m187.92 251.33h30.12v38.7h-30.12z" fill="#58595b"/><path d="m146.73 365.87h46.2v63.47h-46.2z" fill="#58595b"/><path d="m121.62 251.33h30.12v38.7h-30.12z" fill="#58595b"/><path d="m71.07 429.34h25.5l6.96-13.48v-40.28h-39.42v40.28z" fill="#8b5e3c"/><path d="m408.48 429.34h29.3l6.11-11.61v-30.52h-41.52v30.52z" fill="#754c29"/><path d="m390.3 429.07h19.95l12.47-21.84v-41.36h-44.9v41.36z" fill="#a97c50"/><g fill="#d1d3d4"><path d="m270.87 380.58v13.8h13.8v-13.13l-.6-.67z"/><path d="m270.87 376.6h9.64l-9.64-10.79z"/><path d="m288.66 398.36v13.8h13.79v-11.02l-2.48-2.78z"/><path d="m312.3 412.16-5.86-6.56v6.56z"/><path d="m288.66 394.38h7.75l-7.75-8.67z"/><path d="m254.23 362.38h12.66v14.21h-12.66z"/><path d="m327.66 429.34-11.8-13.19h-9.42v12.92h-3.99v-12.92h-13.79v12.92h-3.99v-12.92h-13.8v12.92h-3.98v-12.92h-12.66v13.19z"/><path d="m254.23 347.19v11.21h10.02z"/><path d="m254.23 398.36h12.66v13.8h-12.66z"/><path d="m254.23 380.58h12.66v13.8h-12.66z"/><path d="m270.87 398.36h13.8v13.8h-13.8z"/></g><path d="m85.43 141.79h168.8v51.72h-168.8z" fill="#d4a954"/><path d="m254.47 246.52h173.39v28.58h-173.39z" fill="#c49a6c"/></svg>