<svg viewBox="0 0 512 640" xmlns="http://www.w3.org/2000/svg"><g fill="#946440"><path d="m165.92 247.52h20.81v96.51h-20.81z"/><path d="m176.06 273.29-9.82 7.95-22.71-33.72h9.82z"/><path d="m176.53 291.26 9.82 7.95 22.71-33.72h-9.82z"/></g><path d="m233.65 224.25a15.48 15.48 0 0 0 -12.34-15.16 19.13 19.13 0 0 0 -34-17.47 22.62 22.62 0 0 0 -34.95 6.77 13.82 13.82 0 0 0 -1.58-.09 14.63 14.63 0 0 0 -14.64 14.63v.75a19.45 19.45 0 0 0 -7.08 28.9 13.41 13.41 0 1 0 21.55 12.3 20.46 20.46 0 0 0 4.72.57 20.69 20.69 0 0 0 15.43-6.92 16.55 16.55 0 0 0 10.4 4.64 10.89 10.89 0 0 0 9.89 8.34 12.71 12.71 0 0 0 24.57-1.16 13.47 13.47 0 0 0 1.56.09 14.49 14.49 0 0 0 10.82-24.2 15.43 15.43 0 0 0 5.65-11.99z" fill="#00803b"/><path d="m157.33 344.02h10.49v-10.21z" fill="#946440"/><path d="m196.28 344.02h-10.49v-12.02z" fill="#946440"/><path d="m148.78 236.09a10.54 10.54 0 0 1 10-10.52 10.4 10.4 0 0 1 -.23-2.18 10.67 10.67 0 0 1 10.66-10.67h.72c0-.22 0-.44 0-.66a8.25 8.25 0 0 1 11.83-7.44 8.13 8.13 0 0 0 -16.11.79 15.18 15.18 0 0 0 -22 13.59 15.42 15.42 0 0 0 .38 3.35 12.39 12.39 0 1 0 9.69 22.65 10.54 10.54 0 0 1 -4.94-8.91z" fill="#006838" opacity=".5"/><path d="m216.44 213.05a10.72 10.72 0 0 0 -13.38 10.48 9.2 9.2 0 0 0 -1.19-.39 9.55 9.55 0 0 0 -6 18.09 9.33 9.33 0 0 1 8.77-12.23 10.68 10.68 0 0 0 5.07 4.31 10.33 10.33 0 0 1 -.18-5.84 10.47 10.47 0 0 1 12.75-7.47 10.21 10.21 0 0 1 1.83.66 10.68 10.68 0 0 0 -7.67-7.61z" fill="#006838" opacity=".5"/><path d="m318.49 273.64h23.56v109.23h-23.56z" fill="#946440"/><path d="m330.5 301.92 11.11 7.71 23.38-41.11-9.93 1.33z" fill="#946440"/><path d="m328.29 310.18-9.44 13.47-22.1-36.56 8.3-2.73z" fill="#946440"/><path d="m371.71 242.08a17.9 17.9 0 0 0 -9.37-23.27 14.21 14.21 0 0 0 .17-2.07 13.44 13.44 0 0 0 -19.71-11.9 17.78 17.78 0 0 0 -34.53 4.16 20.48 20.48 0 0 0 -25.27 27.89 16.12 16.12 0 0 0 -1.85-.11 16.31 16.31 0 0 0 -4 32.13 17.89 17.89 0 1 0 31 12.14c0-.08 0-.16 0-.24a12.53 12.53 0 0 0 16.2-1.65 12.76 12.76 0 0 0 14.23-.58 14.68 14.68 0 0 0 2.76.26 14.93 14.93 0 0 0 12.2-6.32 18.61 18.61 0 1 0 18.14-30.44z" fill="#00803b"/><path d="m360.46 382.86h-18.41v-12.84z" fill="#946440"/><path d="m300.09 382.86h18.4v-12.84z" fill="#946440"/><path d="m342.85 261.34a13.4 13.4 0 0 1 13.4-13.4 13.54 13.54 0 0 1 2.48.23 13.71 13.71 0 1 0 -13.79 20.35 13.35 13.35 0 0 1 -2.09-7.18z" fill="#006838" opacity=".5"/><path d="m334.3 212.91a12.53 12.53 0 0 0 -23.21 6.57 12.77 12.77 0 0 0 -14.77 16.22 14 14 0 0 0 -11.32 13.75 13.77 13.77 0 0 0 1.5 6.27 14.67 14.67 0 0 0 11.2 21 14.38 14.38 0 0 1 14.8-21.84 14.74 14.74 0 0 0 -8.73-6.87 11 11 0 0 1 7.1-9.72 10.34 10.34 0 0 1 -.26-2.25 10 10 0 0 1 12.88-9.67c0-.25 0-.5 0-.76a12.85 12.85 0 0 1 10.81-12.7z" fill="#006838" opacity=".5"/><path d="m94.77 287.99h23.56v109.23h-23.56z" fill="#946440"/><path d="m106.77 316.27 11.11 7.71 23.38-41.11-9.92 1.33z" fill="#946440"/><path d="m104.56 324.53-9.43 13.47-22.11-36.56 8.31-2.73z" fill="#946440"/><path d="m148 256.43a17.63 17.63 0 0 0 1.38-6.87 17.9 17.9 0 0 0 -10.75-16.4 13 13 0 0 0 .18-2.07 13.45 13.45 0 0 0 -19.72-11.9 17.78 17.78 0 0 0 -34.52 4.15 20.47 20.47 0 0 0 -25.23 27.9 16.31 16.31 0 0 0 -5.88 32 17.89 17.89 0 1 0 31 12.14 1.94 1.94 0 0 0 0-.24 12.53 12.53 0 0 0 16.2-1.65 12.76 12.76 0 0 0 14.23-.58 14.91 14.91 0 0 0 15-6.06 18.61 18.61 0 1 0 18.11-30.42z" fill="#009444"/><path d="m136.73 397.21h-18.4v-12.84z" fill="#946440"/><path d="m76.36 397.21h18.41v-12.84z" fill="#946440"/><path d="m119.12 275.69a13.41 13.41 0 0 1 15.88-13.17 13.71 13.71 0 1 0 -13.79 20.35 13.33 13.33 0 0 1 -2.09-7.18z" fill="#006838" opacity=".5"/><path d="m110.58 227.26a12.54 12.54 0 0 0 -23.22 6.57 12.6 12.6 0 0 0 -2.55-.26 12.77 12.77 0 0 0 -12.81 12.8 13 13 0 0 0 .55 3.71 14 14 0 0 0 -9.87 20 14.69 14.69 0 0 0 11.21 21 14.38 14.38 0 0 1 12.18-22.08 14.54 14.54 0 0 1 2.66.25 14.77 14.77 0 0 0 -8.73-6.89 11 11 0 0 1 7.1-9.72 9.76 9.76 0 0 1 -.26-2.25 10 10 0 0 1 12.88-9.67c0-.25 0-.5 0-.76a12.86 12.86 0 0 1 10.86-12.7z" fill="#006838" opacity=".5"/><path d="m249.23 325.45h23.56v109.23h-23.56z" fill="#946440"/><path d="m260.7 354.62-11.11 9-25.7-38.17h11.11z" fill="#946440"/><path d="m261.24 374.97 11.11 8.99 25.7-38.16h-11.11z" fill="#946440"/><path d="m325.89 299.11a17.53 17.53 0 0 0 -14-17.15 21.66 21.66 0 0 0 -38.52-19.77 25.61 25.61 0 0 0 -39.56 7.66 15.1 15.1 0 0 0 -1.79-.1 16.55 16.55 0 0 0 -16.56 16.56v.84a22 22 0 0 0 -8 32.71 15.18 15.18 0 1 0 24.39 13.93 23.6 23.6 0 0 0 5.35.64 23.34 23.34 0 0 0 17.45-7.84 18.78 18.78 0 0 0 11.78 5.26 12.32 12.32 0 0 0 11.19 9.44 14.4 14.4 0 0 0 27.88-1.29 16.82 16.82 0 0 0 1.76.1 16.39 16.39 0 0 0 12.17-27.39 17.47 17.47 0 0 0 6.46-13.6z" fill="#009444"/><path d="m239.5 434.68h11.88v-11.56z" fill="#946440"/><path d="m283.59 434.68h-11.87v-13.61z" fill="#946440"/><path d="m229.83 312.51a11.91 11.91 0 0 1 11.28-11.89 11.92 11.92 0 0 1 -.26-2.48 12.07 12.07 0 0 1 12.07-12.07h.81c0-.24 0-.49 0-.74a9.35 9.35 0 0 1 9.27-9.33 9.26 9.26 0 0 1 4 .93 9.2 9.2 0 0 0 -18.24.9 17.17 17.17 0 0 0 -24.36 19.17 14 14 0 1 0 11 25.6 11.92 11.92 0 0 1 -5.57-10.09z" fill="#006838" opacity=".5"/><path d="m306.41 286.44a12.12 12.12 0 0 0 -14.76 8.71 11.88 11.88 0 0 0 -.38 3.16 10.68 10.68 0 0 0 -1.35-.45 10.81 10.81 0 0 0 -6.8 20.47 10.57 10.57 0 0 1 9.93-13.82 12 12 0 0 0 5.74 4.88 11.84 11.84 0 0 1 14.21-15.13 13 13 0 0 1 2.07.74 12.12 12.12 0 0 0 -8.66-8.56z" fill="#006838" opacity=".5"/><path d="m409.89 297.56h16.06v109.23h-16.06z" fill="#946440" transform="matrix(-1 0 0 -1 835.85 704.35)"/><path d="m412.92 335.84-2.12 19.28-19.23-41.72 5.97-3.85z" fill="#946440"/><path d="m422.83 325.89 2.77 15.98 24.02-39.87-9.21 2.85z" fill="#946440"/><path d="m470.78 293a14.33 14.33 0 0 0 -7.08-12.36 17 17 0 0 0 -7.53-30.76 19.79 19.79 0 0 0 .17-2.46 19 19 0 0 0 -19-19h-.36a17.33 17.33 0 0 0 -30.7.49 14.42 14.42 0 0 0 -13.56 24.52 20.32 20.32 0 0 0 -3.9 7.61 11.82 11.82 0 0 0 -5.11-1.16 11.95 11.95 0 0 0 -10.8 17.12 16.86 16.86 0 0 0 -1.25 27.35 17.23 17.23 0 1 0 28.34 2.91 15.81 15.81 0 0 0 11.46-6.95 12.32 12.32 0 0 0 12.74 2.38 14.25 14.25 0 0 0 19.1 11.87 12.69 12.69 0 1 0 22.86-11 14.25 14.25 0 0 0 4.62-10.56z" fill="#009444"/><path d="m437.94 406.79h-11.98v-11.55z" fill="#946440"/><path d="m402.84 406.79h8.12v-23.12z" fill="#946440"/><path d="m433.65 298.78a7.52 7.52 0 0 1 5.07-9.33 7.39 7.39 0 0 1 2.06-.3 7.76 7.76 0 0 1 2.79-8.36 7.24 7.24 0 0 1 -.63-1.48 7.12 7.12 0 0 1 4.82-8.85 6.78 6.78 0 0 1 2-.29c-.06-.17-.13-.33-.18-.51a9.08 9.08 0 0 1 4.85-10.79 8.86 8.86 0 0 0 -14.43 9.13 9.38 9.38 0 0 0 -1.79.33 9 9 0 0 0 -5 13.63 9.87 9.87 0 0 0 .88 18 7.51 7.51 0 0 1 -.44-1.18z" fill="#006838" opacity=".5"/><path d="m427.92 232.52a6.56 6.56 0 0 0 -5.89 3.69 8.94 8.94 0 0 0 -15.12 9.45 9.76 9.76 0 0 0 -7.88 15 10.35 10.35 0 0 0 -4.08 5.21 8.87 8.87 0 0 0 -4.77 10.55 9.38 9.38 0 0 0 -1.79.33 9 9 0 0 0 -5 13.63 9.87 9.87 0 0 0 .88 18 8.71 8.71 0 0 1 -.45-1.14 7.52 7.52 0 0 1 5.07-9.33 7.39 7.39 0 0 1 2.06-.3 7.77 7.77 0 0 1 2.79-8.36 7.84 7.84 0 0 1 -.63-1.48 7.12 7.12 0 0 1 4.82-8.85 6.78 6.78 0 0 1 2-.29l-.05-.14a10.17 10.17 0 0 0 7.4.83 7.52 7.52 0 0 1 2.64-13 8.34 8.34 0 1 1 13.91-9.16 7.08 7.08 0 0 0 1.13.09 7.86 7.86 0 0 0 5.72-2.47 8 8 0 0 1 2.32-15.65 8.29 8.29 0 0 1 1.5.14c0-.06 0-.13 0-.19a6.56 6.56 0 0 0 -6.58-6.56z" fill="#006838" opacity=".5"/></svg>