<svg viewBox="0 0 512 640" xmlns="http://www.w3.org/2000/svg"><g fill="#946440"><path d="m161.71 189.86h19.44v90.12h-19.44z"/><path d="m171.17 213.93-9.17 7.42-21.2-31.49h9.16z"/><path d="m171.61 230.72 9.17 7.42 21.2-31.49h-9.17z"/></g><path d="m225 168.13a14.47 14.47 0 0 0 -11.57-14.13 17.87 17.87 0 0 0 -31.78-16.31 21.14 21.14 0 0 0 -32.65 6.31 14.52 14.52 0 0 0 -1.48-.08 13.67 13.67 0 0 0 -13.67 13.67v.69a18.17 18.17 0 0 0 -6.61 27 12.52 12.52 0 1 0 20.12 11.49 19.52 19.52 0 0 0 4.42.53 19.28 19.28 0 0 0 14.4-6.47 15.43 15.43 0 0 0 9.72 4.34 10.16 10.16 0 0 0 9.23 7.79 11.88 11.88 0 0 0 22.95-1.08 13.79 13.79 0 0 0 1.45.08 13.53 13.53 0 0 0 10-22.6 14.44 14.44 0 0 0 5.47-11.23z" fill="#00803b"/><path d="m153.68 279.98h9.79v-9.53z" fill="#946440"/><path d="m190.06 279.98h-9.8v-11.23z" fill="#946440"/><path d="m145.7 179.19a9.83 9.83 0 0 1 9.3-9.82 9.8 9.8 0 0 1 -.21-2 10 10 0 0 1 10-10h.66c0-.2 0-.4 0-.61a7.71 7.71 0 0 1 11.05-6.95 7.59 7.59 0 0 0 -15.05.74 14.17 14.17 0 0 0 -20.52 12.69 14 14 0 0 0 .36 3.12 11.57 11.57 0 1 0 9.09 21.13 9.84 9.84 0 0 1 -4.68-8.3z" fill="#006838" opacity=".5"/><path d="m208.88 157.67a10 10 0 0 0 -12.18 7.19 10.15 10.15 0 0 0 -.31 2.6 9.79 9.79 0 0 0 -1.12-.37 8.92 8.92 0 0 0 -5.61 16.9 8.83 8.83 0 0 1 -.15-4.87 8.74 8.74 0 0 1 8.35-6.54 10 10 0 0 0 4.73 4 9.78 9.78 0 0 1 13.41-11.84 10 10 0 0 0 -7.12-7.07z" fill="#006838" opacity=".5"/><path d="m310.42 195.78h22v102h-22z" fill="#946440"/><path d="m321.63 222.19 10.38 7.2 21.83-38.39-9.27 1.24z" fill="#946440"/><path d="m319.57 229.91-8.81 12.57-20.64-34.14 7.75-2.54z" fill="#946440"/><path d="m360.12 166.31a16.7 16.7 0 0 0 -8.76-21.73 12.54 12.54 0 0 0 -18.24-13.05 16.6 16.6 0 0 0 -32.24 3.88 18.92 18.92 0 0 0 -6.14-1 19.13 19.13 0 0 0 -17.42 27.08 16.56 16.56 0 0 0 -1.73-.1 15.24 15.24 0 0 0 -3.76 30 16.71 16.71 0 1 0 29 11.33c0-.07 0-.14 0-.22a11.7 11.7 0 0 0 15.13-1.55 11.88 11.88 0 0 0 13.28-.54 13.76 13.76 0 0 0 2.58.25 13.94 13.94 0 0 0 11.4-5.9 17.38 17.38 0 1 0 16.94-28.43z" fill="#00803b"/><path d="m349.61 297.78h-17.19v-11.99z" fill="#946440"/><path d="m293.23 297.78h17.19v-11.99z" fill="#946440"/><path d="m333.17 184.3a12.54 12.54 0 0 1 14.83-12.3 12.8 12.8 0 1 0 -12.87 19 12.48 12.48 0 0 1 -1.96-6.7z" fill="#006838" opacity=".5"/><path d="m325.19 139.07a11.71 11.71 0 0 0 -21.68 6.13 12.5 12.5 0 0 0 -2.39-.24 11.94 11.94 0 0 0 -11.41 15.39 13 13 0 0 0 -10.61 12.81 12.82 12.82 0 0 0 1.4 5.86 13.55 13.55 0 0 0 -1.4 6 13.74 13.74 0 0 0 11.9 13.64 13.43 13.43 0 0 1 13.82-20.4 13.76 13.76 0 0 0 -8.15-6.41 10.28 10.28 0 0 1 6.63-9.08 9.65 9.65 0 0 1 -.24-2.1 9.39 9.39 0 0 1 12-9c0-.24 0-.47 0-.71a12 12 0 0 1 10.13-11.89z" fill="#006838" opacity=".5"/><path d="m103.93 204h22v102h-22z" fill="#946440"/><path d="m115.14 230.41 10.38 7.2 21.83-38.39-9.27 1.24z" fill="#946440"/><path d="m113.08 238.13-8.81 12.57-20.64-34.14 7.75-2.55z" fill="#946440"/><path d="m153.63 174.53a16.7 16.7 0 0 0 -8.76-21.73 12.54 12.54 0 0 0 -18.24-13.05 16.6 16.6 0 0 0 -32.24 3.87 19.13 19.13 0 0 0 -23.56 26.06 16.56 16.56 0 0 0 -1.73-.1 15.24 15.24 0 0 0 -3.76 30 16.7 16.7 0 1 0 29 11.33c0-.07 0-.15 0-.22a11.7 11.7 0 0 0 15.13-1.55 11.88 11.88 0 0 0 13.28-.54 13.76 13.76 0 0 0 2.58.25 14 14 0 0 0 11.4-5.91 17.38 17.38 0 1 0 16.94-28.42z" fill="#009444"/><path d="m143.12 306h-17.19v-11.99z" fill="#946440"/><path d="m86.74 306h17.19v-11.99z" fill="#946440"/><path d="m126.68 192.51a12.54 12.54 0 0 1 14.82-12.3 12.8 12.8 0 1 0 -12.87 19 12.41 12.41 0 0 1 -1.95-6.7z" fill="#006838" opacity=".5"/><path d="m118.69 147.29a11.7 11.7 0 0 0 -21.69 6.13 12.5 12.5 0 0 0 -2.39-.24 11.94 11.94 0 0 0 -11.39 15.42 13 13 0 0 0 -9.22 18.67 13.72 13.72 0 0 0 10.47 19.61 13.43 13.43 0 0 1 13.82-20.4 13.79 13.79 0 0 0 -8.15-6.41 10.27 10.27 0 0 1 6.63-9.07 9.14 9.14 0 0 1 -.24-2.1 9.41 9.41 0 0 1 12-9c0-.23 0-.46 0-.7a12 12 0 0 1 10.16-11.91z" fill="#006838" opacity=".5"/><path d="m237.88 222.84h22v102h-22z" fill="#946440"/><path d="m248.59 250.08-10.38 8.4-24-35.64h10.38z" fill="#946440"/><path d="m249.09 269.08 10.37 8.4 24-35.64h-10.37z" fill="#946440"/><path d="m309.46 198.25a16.36 16.36 0 0 0 -13-16 20.22 20.22 0 0 0 -36-18.46 23.9 23.9 0 0 0 -36.94 7.15 15.28 15.28 0 0 0 -1.67-.1 15.47 15.47 0 0 0 -15.47 15.47v.79a20.57 20.57 0 0 0 -7.48 30.55 14.18 14.18 0 1 0 22.78 13 21.65 21.65 0 0 0 21.32-6.74 17.55 17.55 0 0 0 11 4.91 11.52 11.52 0 0 0 10.46 8.82 13.44 13.44 0 0 0 26-1.23 14.75 14.75 0 0 0 1.64.09 15.3 15.3 0 0 0 11.37-25.57 16.31 16.31 0 0 0 5.99-12.68z" fill="#009444"/><path d="m228.79 324.84h11.09v-10.78z" fill="#946440"/><path d="m269.96 324.84h-11.08v-12.7z" fill="#946440"/><path d="m219.75 210.76a11.14 11.14 0 0 1 10.54-11.11 11 11 0 0 1 -.24-2.31 11.27 11.27 0 0 1 11.27-11.27h.75c0-.23 0-.46 0-.69a8.72 8.72 0 0 1 12.5-7.87 8.59 8.59 0 0 0 -17 .84 16 16 0 0 0 -23.23 14.36 16.46 16.46 0 0 0 .4 3.53 13.1 13.1 0 1 0 10.26 23.95 11.11 11.11 0 0 1 -5.25-9.43z" fill="#006838" opacity=".5"/><path d="m291.27 186.41a11.33 11.33 0 0 0 -13.79 8.14 11.47 11.47 0 0 0 -.35 2.94 10.9 10.9 0 0 0 -1.26-.41 10.1 10.1 0 0 0 -6.35 19.12 9.86 9.86 0 0 1 9.28-12.91 11.25 11.25 0 0 0 5.35 4.56 11.08 11.08 0 0 1 15.22-13.44 11.3 11.3 0 0 0 -8.1-8z" fill="#006838" opacity=".5"/><path d="m401.22 206.85h15v102h-15z" fill="#946440" transform="matrix(-1 0 0 -1 817.43 515.69)"/><path d="m404.04 242.59-1.98 18-17.95-38.95 5.57-3.6z" fill="#946440"/><path d="m413.3 233.3 2.58 14.93 22.44-37.24-8.6 2.66z" fill="#946440"/><path d="m458.08 202.58a13.37 13.37 0 0 0 -6.62-11.58 15.91 15.91 0 0 0 -7-28.72 17.42 17.42 0 0 0 .16-2.3 17.74 17.74 0 0 0 -17.74-17.74h-.34a16.18 16.18 0 0 0 -28.67.46 13.09 13.09 0 0 0 -3.5-.48 13.47 13.47 0 0 0 -9.16 23.37 19 19 0 0 0 -3.65 7.11 11 11 0 0 0 -4.76-1.08 11.17 11.17 0 0 0 -11.17 11.16 11 11 0 0 0 1.08 4.76 15.74 15.74 0 0 0 -1.17 25.54 16.09 16.09 0 1 0 26.46 2.82 14.72 14.72 0 0 0 10.7-6.49 11.53 11.53 0 0 0 7.76 3 11.41 11.41 0 0 0 4.14-.78 13.3 13.3 0 0 0 17.83 11.09 11.86 11.86 0 0 0 22.62-5 11.67 11.67 0 0 0 -1.27-5.3 13.33 13.33 0 0 0 4.3-9.84z" fill="#009444"/><path d="m427.4 308.85h-11.18v-10.79z" fill="#946440"/><path d="m394.63 308.85h7.59v-21.59z" fill="#946440"/><path d="m423.4 208a7 7 0 0 1 4.74-8.71 6.71 6.71 0 0 1 1.92-.28 7.25 7.25 0 0 1 2.61-7.81 6 6 0 0 1 -.59-1.38 6.66 6.66 0 0 1 4.49-8.27 7 7 0 0 1 1.85-.27c-.05-.15-.11-.3-.16-.47a8.48 8.48 0 0 1 4.52-10.08 8.27 8.27 0 0 0 -13.47 8.51 8 8 0 0 0 -1.67.31 8.41 8.41 0 0 0 -4.64 12.72 9.21 9.21 0 0 0 .82 16.77 7.54 7.54 0 0 1 -.42-1.04z" fill="#006838" opacity=".5"/><path d="m418.05 146.11a6.12 6.12 0 0 0 -5.5 3.44 8.34 8.34 0 0 0 -14.12 8.82 9.12 9.12 0 0 0 -7.36 14 9.68 9.68 0 0 0 -3.81 4.86 8.28 8.28 0 0 0 -4.45 9.85 8.81 8.81 0 0 0 -1.66.31 8.44 8.44 0 0 0 -5.7 10.48 8.57 8.57 0 0 0 1 2.25 9.21 9.21 0 0 0 .83 16.77 6.26 6.26 0 0 1 -.42-1.07 7 7 0 0 1 4.73-8.71 7.13 7.13 0 0 1 1.92-.28 7.29 7.29 0 0 1 2.61-7.81 6.74 6.74 0 0 1 -.59-1.37 6.65 6.65 0 0 1 6.35-8.54v-.13a9.47 9.47 0 0 0 6.91.77 7 7 0 0 1 2.46-12.13 7.79 7.79 0 1 1 13-8.55 7.14 7.14 0 0 0 6.39-2.22 7.45 7.45 0 0 1 2.13-14.58 8.22 8.22 0 0 1 1.41.13c0-.06 0-.12 0-.18a6.12 6.12 0 0 0 -6.13-6.11z" fill="#006838" opacity=".5"/></svg>