<svg viewBox="0 0 512 640" xmlns="http://www.w3.org/2000/svg"><g fill="#946440"><path d="m309.94 368.51h22.13v102.6h-22.13z"/><path d="m320.71 395.91-10.44 8.45-24.14-35.85h10.44z"/><path d="m321.21 415.02 10.44 8.45 24.14-35.84h-10.44z"/></g><path d="m381.94 343.78a16.46 16.46 0 0 0 -13.12-16.12 20.34 20.34 0 0 0 -36.18-18.57 24.07 24.07 0 0 0 -37.16 7.2 15.48 15.48 0 0 0 -17.24 15.46v.79a20.68 20.68 0 0 0 -7.52 30.73 14.26 14.26 0 1 0 22.91 13.08 21.81 21.81 0 0 0 21.42-6.76 17.58 17.58 0 0 0 11.06 4.93 11.6 11.6 0 0 0 10.51 8.88 13.52 13.52 0 0 0 26.13-1.24 14.93 14.93 0 0 0 1.65.09 15.4 15.4 0 0 0 11.44-25.72 16.45 16.45 0 0 0 6.1-12.75z" fill="#00803b"/><path d="m300.8 471.11h11.15v-10.85z" fill="#946440"/><path d="m342.21 471.11h-11.15v-12.78z" fill="#946440"/><path d="m291.71 356.36a11.19 11.19 0 0 1 10.6-11.17 11.16 11.16 0 0 1 -.24-2.33 11.34 11.34 0 0 1 11.33-11.34h.76q0-.35 0-.69a8.76 8.76 0 0 1 12.54-7.83 8.64 8.64 0 0 0 -17.13.84 16.14 16.14 0 0 0 -23 18 13.17 13.17 0 1 0 10.43 24.01 11.2 11.2 0 0 1 -5.29-9.49z" fill="#006838" opacity=".5"/><path d="m363.65 331.87a11.39 11.39 0 0 0 -13.87 8.19 11.16 11.16 0 0 0 -.36 3 9 9 0 0 0 -1.27-.42 10.15 10.15 0 0 0 -6.38 19.23 9.82 9.82 0 0 1 -.17-5.54 9.92 9.92 0 0 1 9.5-7.44 11.31 11.31 0 0 0 5.38 4.58 11.13 11.13 0 0 1 13.37-14.21 10.4 10.4 0 0 1 1.94.7 11.39 11.39 0 0 0 -8.14-8.09z" fill="#006838" opacity=".5"/><path d="m403.26 382.5h25.5v118.21h-25.5z" fill="#946440"/><path d="m416.25 413.11 12.03 8.35 25.3-44.49-10.74 1.44z" fill="#946440"/><path d="m413.86 422.06-10.21 14.57-23.92-39.57 8.99-2.95z" fill="#946440"/><path d="m460.86 348.35a19.38 19.38 0 0 0 -10.15-25.19 13.72 13.72 0 0 0 .19-2.24 14.54 14.54 0 0 0 -21.33-12.87 19.24 19.24 0 0 0 -37.37 4.49 22.16 22.16 0 0 0 -27.3 30.2 16.68 16.68 0 0 0 -2-.13 17.66 17.66 0 0 0 -4.35 34.78 19.36 19.36 0 1 0 33.57 13.14c0-.09 0-.17 0-.26a13.56 13.56 0 0 0 17.53-1.79 13.78 13.78 0 0 0 15.4-.63 16.38 16.38 0 0 0 3 .29 16.17 16.17 0 0 0 13.2-6.84 20.15 20.15 0 1 0 19.64-32.95z" fill="#009444"/><path d="m448.68 500.71h-19.92v-13.89z" fill="#946440"/><path d="m383.34 500.71h19.92v-13.89z" fill="#946440"/><path d="m429.62 369.2a14.51 14.51 0 0 1 14.51-14.51 14.76 14.76 0 0 1 2.68.25 14.84 14.84 0 1 0 -14.93 22 14.51 14.51 0 0 1 -2.26-7.74z" fill="#006838" opacity=".5"/><path d="m420.37 316.78a13.56 13.56 0 0 0 -25.12 7.11 14 14 0 0 0 -2.76-.27 13.81 13.81 0 0 0 -13.82 13.82 14 14 0 0 0 .59 4 15.09 15.09 0 0 0 -10.68 21.63 15.89 15.89 0 0 0 12.13 22.73 15.57 15.57 0 0 1 13.14-23.91 16 16 0 0 1 2.88.27 16 16 0 0 0 -9.45-7.43 11.91 11.91 0 0 1 7.72-10.48 10.89 10.89 0 0 1 10.63-13.34 11.2 11.2 0 0 1 3 .43c0-.27 0-.54 0-.81a13.92 13.92 0 0 1 11.74-13.75z" fill="#006838" opacity=".5"/><path d="m244.7 418.65h25.05v116.12h-25.05z" fill="#946440"/><path d="m256.89 449.66-11.82 9.56-27.32-40.57h11.82z" fill="#946440"/><path d="m257.46 471.29 11.81 9.56 27.32-40.57h-11.81z" fill="#946440"/><path d="m326.19 390.65a18.63 18.63 0 0 0 -14.85-18.24 23 23 0 0 0 -40.95-21 27.24 27.24 0 0 0 -42.06 8.14c-.62-.06-1.26-.1-1.9-.1a17.61 17.61 0 0 0 -17.61 17.55c0 .3 0 .6.05.89a23.41 23.41 0 0 0 -8.52 34.78 16.14 16.14 0 1 0 25.93 14.8 24.68 24.68 0 0 0 24.24-7.65 20 20 0 0 0 12.48 5.63 13.12 13.12 0 0 0 11.9 10 15.3 15.3 0 0 0 29.57-1.39c.61.06 1.24.1 1.87.1a17.42 17.42 0 0 0 12.94-29.12 18.57 18.57 0 0 0 6.91-14.39z" fill="#009444"/><path d="m234.35 534.77h12.62v-12.28z" fill="#946440"/><path d="m281.22 534.77h-12.62v-14.47z" fill="#946440"/><path d="m224.07 404.89a12.68 12.68 0 0 1 12-12.65 12.54 12.54 0 0 1 -.27-2.63 12.83 12.83 0 0 1 12.83-12.83h.85c0-.26 0-.52 0-.78a9.94 9.94 0 0 1 9.94-9.94 9.81 9.81 0 0 1 4.3 1 9.78 9.78 0 0 0 -19.39 1 18.26 18.26 0 0 0 -26.45 16.34 18.44 18.44 0 0 0 .46 4 14.91 14.91 0 1 0 11.66 27.23 12.67 12.67 0 0 1 -5.93-10.74z" fill="#006838" opacity=".5"/><path d="m305.48 377.17a12.9 12.9 0 0 0 -15.7 9.27 13.28 13.28 0 0 0 -.4 3.35 11.49 11.49 0 0 0 -8.66 21.29 11.11 11.11 0 0 1 -.19-6.27 11.22 11.22 0 0 1 10.75-8.42 12.85 12.85 0 0 0 6.1 5.19 12.6 12.6 0 0 1 15.13-16.09 13.36 13.36 0 0 1 2.2.79 12.91 12.91 0 0 0 -9.23-9.11z" fill="#006838" opacity=".5"/><path d="m82.96 386.43h17.08v116.12h-17.08z" fill="#946440" transform="matrix(-1 0 0 -1 183 888.99)"/><path d="m86.17 427.13-2.25 20.49-20.44-44.35 6.35-4.1z" fill="#946440"/><path d="m96.72 416.55 2.94 16.99 25.54-42.39-9.79 3.03z" fill="#946440"/><path d="m147.69 381.58a15.24 15.24 0 0 0 -7.53-13.14 18.1 18.1 0 0 0 -8-32.69 18.9 18.9 0 0 0 .19-2.62 20.2 20.2 0 0 0 -20.2-20.2h-.38a18.43 18.43 0 0 0 -32.64.52 15.33 15.33 0 0 0 -14.43 26.08 21.88 21.88 0 0 0 -4.15 8.1 12.69 12.69 0 0 0 -16.91 16.9 17.92 17.92 0 0 0 -1.32 29.07 18.31 18.31 0 1 0 30.1 3.14 16.76 16.76 0 0 0 12.17-7.39 13.17 13.17 0 0 0 8.84 3.41 13.4 13.4 0 0 0 4.71-.87 15.13 15.13 0 0 0 20.3 12.61 13.49 13.49 0 1 0 24.31-11.7 15.2 15.2 0 0 0 4.94-11.22z" fill="#00803b"/><path d="m112.78 502.55h-12.74v-12.28z" fill="#946440"/><path d="m75.46 502.55h8.64v-24.57z" fill="#946440"/><path d="m108.22 387.73a8 8 0 0 1 5.39-9.92 7.52 7.52 0 0 1 2.18-.32 8.29 8.29 0 0 1 3-8.89 7.59 7.59 0 0 1 4.45-11 7.39 7.39 0 0 1 2.11-.31c-.06-.18-.13-.35-.19-.53a9.69 9.69 0 0 1 5.15-11.49 9.43 9.43 0 0 0 -15.37 9.73 9.59 9.59 0 0 0 -7.19 14.84 10.5 10.5 0 0 0 .93 19.1 8.42 8.42 0 0 1 -.46-1.21z" fill="#006838" opacity=".5"/><path d="m102.13 317.29a7 7 0 0 0 -6.26 3.92 9.5 9.5 0 0 0 -16.08 10 10.39 10.39 0 0 0 -8.38 15.92 11.11 11.11 0 0 0 -4.34 5.54 9.42 9.42 0 0 0 -5.07 11.25 10.76 10.76 0 0 0 -1.9.36 9.59 9.59 0 0 0 -5.29 14.48 10.5 10.5 0 0 0 .93 19.1 8.42 8.42 0 0 1 -.47-1.21 8 8 0 0 1 5.39-9.92 7.88 7.88 0 0 1 2.18-.32 8.29 8.29 0 0 1 3-8.89 8.15 8.15 0 0 1 -.67-1.57 7.58 7.58 0 0 1 5.12-9.41 7.7 7.7 0 0 1 2.11-.31c0-.05 0-.1 0-.14a10.84 10.84 0 0 0 7.86.88 8 8 0 0 1 2.74-13.8 8.86 8.86 0 1 1 14.79-9.73 7.88 7.88 0 0 0 1.2.1 8.38 8.38 0 0 0 6.08-2.63 8.47 8.47 0 0 1 4-16.44c0-.07 0-.14 0-.21a7 7 0 0 0 -6.94-6.97z" fill="#006838" opacity=".5"/></svg>