<svg viewBox="0 0 512 640" xmlns="http://www.w3.org/2000/svg"><g fill="#946440"><path d="m149.64 161.67h21.93v101.66h-21.93z"/><path d="m160.31 188.82-10.34 8.37-23.92-35.52h10.34z"/><path d="m160.81 207.76 10.34 8.37 23.92-35.52h-10.34z"/></g><path d="m221 137.16a16.32 16.32 0 0 0 -13-16 20.15 20.15 0 0 0 -35.85-18.4 23.84 23.84 0 0 0 -36.82 7.13 15.11 15.11 0 0 0 -1.66-.09 15.42 15.42 0 0 0 -15.42 15.42v.78a20.49 20.49 0 0 0 -7.45 30.44 14.13 14.13 0 1 0 22.7 13 22 22 0 0 0 5 .59 21.78 21.78 0 0 0 16.25-7.29 17.48 17.48 0 0 0 11 4.89 11.49 11.49 0 0 0 10.42 8.79 13.39 13.39 0 0 0 25.83-1.22c.54.05 1.08.09 1.64.09a15.26 15.26 0 0 0 11.36-25.49 16.29 16.29 0 0 0 6-12.64z" fill="#00803b"/><path d="m140.58 263.33h11.05v-10.75z" fill="#946440"/><path d="m181.62 263.33h-11.05v-12.67z" fill="#946440"/><path d="m131.58 149.63a11.1 11.1 0 0 1 10.5-11.07 10.88 10.88 0 0 1 -.24-2.3 11.23 11.23 0 0 1 11.23-11.26h.75q0-.34 0-.69a8.69 8.69 0 0 1 12.46-7.84 8.57 8.57 0 0 0 -17 .84 16 16 0 0 0 -23.15 14.31 16.3 16.3 0 0 0 .4 3.52 13.05 13.05 0 1 0 10.25 23.86 11.09 11.09 0 0 1 -5.2-9.37z" fill="#006838" opacity=".5"/><path d="m202.85 125.36a11.27 11.27 0 0 0 -14.09 11 12.4 12.4 0 0 0 -1.26-.42 10.07 10.07 0 0 0 -6.33 19.06 9.82 9.82 0 0 1 9.25-12.86 11.24 11.24 0 0 0 5.34 4.54 10.87 10.87 0 0 1 -.19-6.15 11 11 0 0 1 13.43-7.88 10.28 10.28 0 0 1 1.93.69 11.29 11.29 0 0 0 -8.08-7.98z" fill="#006838" opacity=".5"/><path d="m317.39 168.35h24.82v115.06h-24.82z" fill="#946440"/><path d="m330.03 198.14 11.71 8.12 24.63-43.3-10.46 1.4z" fill="#946440"/><path d="m327.7 206.84-9.94 14.19-23.28-38.52 8.75-2.86z" fill="#946440"/><path d="m373.44 135.11a18.84 18.84 0 0 0 -9.87-24.52 14.16 14.16 0 0 0 -20.57-14.71 18.73 18.73 0 0 0 -36.37 4.37 21.37 21.37 0 0 0 -6.92-1.15 21.61 21.61 0 0 0 -21.61 21.6 21.33 21.33 0 0 0 2 8.94 18.25 18.25 0 0 0 -2-.12 17.19 17.19 0 0 0 -4.23 33.85 18.84 18.84 0 1 0 32.68 12.79 2 2 0 0 0 0-.25 13.22 13.22 0 0 0 17.07-1.75 13.41 13.41 0 0 0 15-.6 16.49 16.49 0 0 0 2.91.27 15.74 15.74 0 0 0 12.86-6.66 19.6 19.6 0 1 0 19.1-32.06z" fill="#00803b"/><path d="m361.59 283.4h-19.39v-13.52z" fill="#946440"/><path d="m298 283.4h19.39v-13.52z" fill="#946440"/><path d="m343 155.4a14.14 14.14 0 0 1 16.73-13.88 14.44 14.44 0 1 0 -14.49 21.48 14.06 14.06 0 0 1 -2.24-7.6z" fill="#006838" opacity=".5"/><path d="m334 104.38a13.2 13.2 0 0 0 -24.45 6.92 14 14 0 0 0 -2.69-.27 13.45 13.45 0 0 0 -13.45 13.45 13.31 13.31 0 0 0 .58 3.91 14.7 14.7 0 0 0 -10.4 21.05 15.48 15.48 0 0 0 11.81 22.13 15.15 15.15 0 0 1 15.59-23 15.51 15.51 0 0 0 -9.2-7.23 11.58 11.58 0 0 1 7.48-10.24 10.38 10.38 0 0 1 -.28-2.37 10.62 10.62 0 0 1 10.62-10.62 10.32 10.32 0 0 1 3 .43c0-.27 0-.53 0-.8a13.54 13.54 0 0 1 11.39-13.36z" fill="#006838" opacity=".5"/><path d="m84.47 177.62h24.82v115.06h-24.82z" fill="#946440"/><path d="m97.11 207.41 11.71 8.12 24.62-43.3-10.45 1.4z" fill="#946440"/><path d="m94.78 216.11-9.94 14.19-23.28-38.51 8.75-2.87z" fill="#946440"/><path d="m140.52 144.38a18.84 18.84 0 0 0 -9.87-24.52 14.16 14.16 0 0 0 -20.58-14.71 18.73 18.73 0 0 0 -36.37 4.37 21.37 21.37 0 0 0 -6.92-1.15 21.61 21.61 0 0 0 -21.61 21.63 21.33 21.33 0 0 0 2 8.94 18.25 18.25 0 0 0 -2-.12 17.19 17.19 0 0 0 -4.23 33.85 18.84 18.84 0 1 0 32.68 12.79 2 2 0 0 0 0-.25 13.22 13.22 0 0 0 17.07-1.75 13.41 13.41 0 0 0 15-.6 16.49 16.49 0 0 0 2.91.28 15.75 15.75 0 0 0 12.86-6.67 19.6 19.6 0 1 0 19.1-32.06z" fill="#009444"/><path d="m128.67 292.67h-19.39v-13.52z" fill="#946440"/><path d="m65.08 292.67h19.39v-13.52z" fill="#946440"/><path d="m110.12 164.67a14.14 14.14 0 0 1 16.73-13.88 14.44 14.44 0 1 0 -14.53 21.44 14.06 14.06 0 0 1 -2.2-7.56z" fill="#006838" opacity=".5"/><path d="m101.12 113.65a13.2 13.2 0 0 0 -24.45 6.92 14 14 0 0 0 -2.69-.27 13.45 13.45 0 0 0 -13.45 13.45 13.31 13.31 0 0 0 .58 3.91 14.71 14.71 0 0 0 -10.4 21.06 15.47 15.47 0 0 0 11.81 22.12 15.15 15.15 0 0 1 12.79-23.24 15.19 15.19 0 0 1 2.8.26 15.51 15.51 0 0 0 -9.2-7.23 11.58 11.58 0 0 1 7.48-10.24 10.38 10.38 0 0 1 -.28-2.37 10.58 10.58 0 0 1 13.57-10.19c0-.27 0-.53 0-.8a13.54 13.54 0 0 1 11.44-13.38z" fill="#006838" opacity=".5"/><path d="m235.56 198.88h24.82v115.06h-24.82z" fill="#946440"/><path d="m247.64 229.6-11.71 9.48-27.07-40.2h11.71z" fill="#946440"/><path d="m248.2 251.04 11.7 9.47 27.08-40.2h-11.71z" fill="#946440"/><path d="m316.3 171.14a18.47 18.47 0 0 0 -14.71-18.08 22.81 22.81 0 0 0 -40.59-20.82 27 27 0 0 0 -41.67 8.07 16.65 16.65 0 0 0 -1.88-.11 17.45 17.45 0 0 0 -17.45 17.45c0 .3 0 .59.05.89a23.18 23.18 0 0 0 -8.43 34.46 16 16 0 1 0 25.69 14.67 24.3 24.3 0 0 0 5.63.67 24.57 24.57 0 0 0 18.39-8.25 19.77 19.77 0 0 0 12.41 5.54 13 13 0 0 0 11.79 9.95 15.16 15.16 0 0 0 29.29-1.39 16.3 16.3 0 0 0 1.86.11 17.27 17.27 0 0 0 12.82-28.85 18.41 18.41 0 0 0 6.8-14.31z" fill="#009444"/><path d="m225.31 313.93h12.5v-12.17z" fill="#946440"/><path d="m271.75 313.93h-12.51v-14.33z" fill="#946440"/><path d="m215.12 185.25a12.55 12.55 0 0 1 11.88-12.53 12.49 12.49 0 0 1 -.27-2.61 12.71 12.71 0 0 1 12.71-12.71h.85c0-.26 0-.52 0-.78a9.83 9.83 0 0 1 14.11-8.87 9.7 9.7 0 0 0 -19.22.94 18.09 18.09 0 0 0 -26.2 16.2 18.14 18.14 0 0 0 .46 4 14.77 14.77 0 1 0 11.61 27 12.54 12.54 0 0 1 -5.93-10.64z" fill="#006838" opacity=".5"/><path d="m295.79 157.78a12.78 12.78 0 0 0 -15.56 9.22 13.16 13.16 0 0 0 -.4 3.32 12.43 12.43 0 0 0 -1.42-.47 11.39 11.39 0 0 0 -7.16 21.57 11.13 11.13 0 0 1 10.47-14.56 12.75 12.75 0 0 0 6 5.15 12.5 12.5 0 0 1 15-15.95 12.71 12.71 0 0 1 2.17.79 12.75 12.75 0 0 0 -9.1-9.07z" fill="#006838" opacity=".5"/><path d="m419.8 180.83h16.92v115.06h-16.92z" fill="#946440" transform="matrix(-1 0 0 -1 856.52 476.72)"/><path d="m422.99 221.15-2.23 20.31-20.26-43.94 6.29-4.06z" fill="#946440"/><path d="m433.43 210.67 2.91 16.84 25.31-42.01-9.7 3.01z" fill="#946440"/><path d="m483.94 176a15.07 15.07 0 0 0 -7.46-13 17.95 17.95 0 0 0 -7.94-32.4 19.87 19.87 0 0 0 -19.82-22.6h-.39a18.25 18.25 0 0 0 -32.33.52 15.19 15.19 0 0 0 -14.29 25.82 21.61 21.61 0 0 0 -4.11 8 12.58 12.58 0 0 0 -16.76 16.75 17.77 17.77 0 0 0 -1.31 28.81 18.15 18.15 0 1 0 29.82 3.1 16.58 16.58 0 0 0 12.07-7.32 13 13 0 0 0 13.42 2.51 15 15 0 0 0 14.94 13.44 14.83 14.83 0 0 0 5.18-.94 13.36 13.36 0 1 0 24.04-11.55 15 15 0 0 0 4.94-11.14z" fill="#009444"/><path d="m449.34 295.89h-12.62v-12.17z" fill="#946440"/><path d="m412.37 295.89h8.56v-24.35z" fill="#946440"/><path d="m444.83 182.11a7.9 7.9 0 0 1 5.34-9.82 7.74 7.74 0 0 1 2.16-.32 8.2 8.2 0 0 1 2.95-8.81 8 8 0 0 1 -.67-1.55 7.52 7.52 0 0 1 5.07-9.33 7.24 7.24 0 0 1 2.09-.3c-.06-.18-.13-.35-.18-.53a9.58 9.58 0 0 1 5.1-11.38 9.34 9.34 0 0 0 -15.2 9.6 9.48 9.48 0 0 0 -8.3 12.17 9.44 9.44 0 0 0 1.17 2.53 10.4 10.4 0 0 0 .93 18.92 7 7 0 0 1 -.46-1.18z" fill="#006838" opacity=".5"/><path d="m438.79 112.32a6.9 6.9 0 0 0 -6.2 3.89 9.41 9.41 0 0 0 -15.93 10 10.28 10.28 0 0 0 -8.3 15.77 11 11 0 0 0 -4.3 5.48 9.34 9.34 0 0 0 -5 11.11 9.7 9.7 0 0 0 -1.88.35 9.52 9.52 0 0 0 -6.42 11.82 9.16 9.16 0 0 0 1.18 2.53 10.39 10.39 0 0 0 .92 18.92 9.06 9.06 0 0 1 -.47-1.2 7.89 7.89 0 0 1 5.34-9.82 7.41 7.41 0 0 1 2.17-.32 8.19 8.19 0 0 1 2.94-8.81 7.38 7.38 0 0 1 -.66-1.55 7.5 7.5 0 0 1 5.07-9.33 7.24 7.24 0 0 1 2.09-.3.88.88 0 0 1 -.05-.15 10.76 10.76 0 0 0 5 1.24 10.45 10.45 0 0 0 2.76-.37 7.92 7.92 0 0 1 2.78-13.68 8.79 8.79 0 1 1 14.66-9.65 7.62 7.62 0 0 0 1.18.1 8.24 8.24 0 0 0 6-2.6 8.4 8.4 0 0 1 2.41-16.45 9.1 9.1 0 0 1 1.58.15c0-.07 0-.13 0-.2a6.91 6.91 0 0 0 -6.87-6.93z" fill="#006838" opacity=".5"/></svg>