<svg viewBox="0 0 512 640" xmlns="http://www.w3.org/2000/svg"><ellipse cx="256" cy="390.52" fill="#231f20" opacity=".15" rx="217.45" ry="83.73"/><path d="m473.45 194.5h-22.49v-21.81h-389.92v21.81h-22.49v47.08h22.49v77.6h-22.49v53.94h434.9v-53.94h-22.49v-77.6h22.49z" fill="#d1d3d4"/><path d="m450.96 364.41v-77.6h22.49v-25.02h-434.9v25.02h22.49v77.6h-22.49v25.99h434.9v-25.99z" fill="#a7a9ac"/><g fill="#58595b"><path d="m61.04 286.81h25.26v77.6h-25.26z"/><path d="m104.45 286.81h25.26v77.6h-25.26z"/><path d="m382.29 286.81h25.26v77.6h-25.26z"/><path d="m425.7 286.81h25.26v77.6h-25.26z"/></g><path d="m38.55 239.74h434.9v21.82h-434.9z" fill="#e6e7e8"/><path d="m61.04 217.92h389.91v21.82h-389.91z" fill="#e6e7e8"/><path d="m401.37 390.52v-12.85h-13.02v-12.85h-20.31v-129.03h20.31v-63.07l-132.35-98.71-132.35 98.71v63.07h24.5v129.03h-24.5v12.85h-13.02v12.85h-13.91v44.26h318.56v-44.26z" fill="#f1f2f2"/><path d="m162.96 240.3h190.25v161.9h-190.25z" fill="#58595b"/><path d="m148.14 240.3h32.48v161.9h-32.48z" fill="#e6e7e8"/><path d="m214.28 240.3h32.48v161.9h-32.48z" fill="#e6e7e8"/><path d="m274.85 240.3h32.48v161.9h-32.48z" fill="#e6e7e8"/><path d="m335.55 240.3h32.48v161.9h-32.48z" fill="#e6e7e8"/><path d="m123.65 230.1h264.71v16.15h-264.71z" fill="#d1d3d4"/><path d="m123.65 402.21h264.71v25.7h-264.71z" fill="#d1d3d4"/><path d="m110.63 415.06h290.75v12.85h-290.75z" fill="#d1d3d4"/><path d="m110.63 415.06h290.75v12.85h-290.75z" fill="#fff" opacity=".2"/><path d="m96.72 427.91h318.57v12.85h-318.57z" fill="#d1d3d4"/><path d="m388.35 230.1h-264.7l132.35-98.7z" fill="#e6e7e8"/><path d="m328.48 211.36h-144.95l72.47-54.05z" fill="#d1d3d4"/><path d="m123.65 230.1 132.35-98.7v-57.39l-132.35 98.71z" fill="#d1d3d4"/><path d="m123.65 364.82h24.5v37.38h-24.5z" fill="#bcbec0"/><path d="m110.63 377.67h13.02v37.38h-13.02z" fill="#bcbec0"/><path d="m96.72 390.52h13.91v37.38h-13.91z" fill="#bcbec0"/><path d="m388.35 377.67h13.02v37.38h-13.02z" fill="#f1f2f2"/></svg>