<svg viewBox="0 0 512 640" xmlns="http://www.w3.org/2000/svg"><path d="m48.99 303.57h64.44v187.42h-64.44z" fill="#adcc33"/><path d="m136.39 303.57h64.44v103.92h-64.44z" fill="#adcc33"/><path d="m136.39 430.59h64.44v60.4h-64.44z" fill="#adcc33"/><path d="m223.78 215.62h64.44v275.36h-64.44z" fill="#adcc33"/><path d="m311.18 215.62h64.44v66.34h-64.44z" fill="#adcc33"/><path d="m311.18 303.58h64.44v187.41h-64.44z" fill="#adcc33"/><path d="m398.57 215.62h64.44v275.36h-64.44z" fill="#adcc33"/><g fill="#72ab44"><path d="m430.46 461.09a10.73 10.73 0 0 0 -10.73-10.73v10.73a10.73 10.73 0 0 0 21.45 0v-10.73a10.72 10.72 0 0 0 -10.72 10.73"/><path d="m343.4 461.09a10.73 10.73 0 0 0 -10.73-10.73v10.73a10.73 10.73 0 0 0 21.45 0v-10.73a10.72 10.72 0 0 0 -10.72 10.73"/><path d="m256 461.09a10.72 10.72 0 0 0 -10.73-10.73v10.73a10.73 10.73 0 0 0 21.46 0v-10.73a10.72 10.72 0 0 0 -10.73 10.73"/><path d="m168.6 461.09a10.72 10.72 0 0 0 -10.72-10.73v10.73a10.73 10.73 0 0 0 21.45 0v-10.73a10.73 10.73 0 0 0 -10.73 10.73"/><path d="m81.21 461.09a10.72 10.72 0 0 0 -10.73-10.73v10.73a10.73 10.73 0 0 0 21.46 0v-10.73a10.72 10.72 0 0 0 -10.73 10.73"/><path d="m430.46 418.88a10.73 10.73 0 0 0 -10.73-10.73v10.73a10.73 10.73 0 1 0 21.45 0v-10.73a10.72 10.72 0 0 0 -10.72 10.73"/><path d="m343.4 418.88a10.73 10.73 0 0 0 -10.73-10.73v10.73a10.73 10.73 0 1 0 21.45 0v-10.73a10.72 10.72 0 0 0 -10.72 10.73"/><path d="m256 418.88a10.72 10.72 0 0 0 -10.73-10.73v10.73a10.73 10.73 0 0 0 21.46 0v-10.73a10.72 10.72 0 0 0 -10.73 10.73"/><path d="m81.21 418.88a10.72 10.72 0 0 0 -10.73-10.73v10.73a10.73 10.73 0 0 0 21.46 0v-10.73a10.72 10.72 0 0 0 -10.73 10.73"/><path d="m430.46 376.67a10.74 10.74 0 0 0 -10.73-10.73v10.73a10.73 10.73 0 1 0 21.45 0v-10.73a10.73 10.73 0 0 0 -10.72 10.73"/><path d="m343.4 376.67a10.74 10.74 0 0 0 -10.73-10.73v10.73a10.73 10.73 0 1 0 21.45 0v-10.73a10.73 10.73 0 0 0 -10.72 10.73"/><path d="m256 376.67a10.73 10.73 0 0 0 -10.73-10.73v10.73a10.73 10.73 0 0 0 21.46 0v-10.73a10.73 10.73 0 0 0 -10.73 10.73"/><path d="m168.6 376.67a10.73 10.73 0 0 0 -10.72-10.73v10.73a10.73 10.73 0 1 0 21.45 0v-10.73a10.74 10.74 0 0 0 -10.73 10.73"/><path d="m81.21 376.67a10.73 10.73 0 0 0 -10.73-10.73v10.73a10.73 10.73 0 0 0 21.46 0v-10.73a10.73 10.73 0 0 0 -10.73 10.73"/><path d="m430.46 334.47a10.73 10.73 0 0 0 -10.73-10.73v10.73a10.73 10.73 0 1 0 21.45 0v-10.73a10.72 10.72 0 0 0 -10.72 10.73"/><path d="m343.4 334.47a10.73 10.73 0 0 0 -10.73-10.73v10.73a10.73 10.73 0 1 0 21.45 0v-10.73a10.72 10.72 0 0 0 -10.72 10.73"/><path d="m256 334.47a10.72 10.72 0 0 0 -10.73-10.73v10.73a10.73 10.73 0 0 0 21.46 0v-10.73a10.72 10.72 0 0 0 -10.73 10.73"/><path d="m168.6 334.47a10.72 10.72 0 0 0 -10.72-10.73v10.73a10.73 10.73 0 1 0 21.45 0v-10.73a10.73 10.73 0 0 0 -10.73 10.73"/><path d="m81.21 334.47a10.72 10.72 0 0 0 -10.73-10.73v10.73a10.73 10.73 0 0 0 21.46 0v-10.73a10.72 10.72 0 0 0 -10.73 10.73"/><path d="m430.46 292.26a10.74 10.74 0 0 0 -10.73-10.73v10.73a10.73 10.73 0 1 0 21.45 0v-10.73a10.73 10.73 0 0 0 -10.72 10.73"/><path d="m256 292.26a10.73 10.73 0 0 0 -10.73-10.73v10.73a10.73 10.73 0 0 0 21.46 0v-10.73a10.73 10.73 0 0 0 -10.73 10.73"/><path d="m430.46 250.06a10.73 10.73 0 0 0 -10.73-10.73v10.73a10.73 10.73 0 0 0 21.45 0v-10.73a10.72 10.72 0 0 0 -10.72 10.73"/><path d="m343.4 250.06a10.73 10.73 0 0 0 -10.73-10.73v10.73a10.73 10.73 0 0 0 21.45 0v-10.73a10.72 10.72 0 0 0 -10.72 10.73"/><path d="m256 250.06a10.72 10.72 0 0 0 -10.73-10.73v10.73a10.73 10.73 0 0 0 21.46 0v-10.73a10.72 10.72 0 0 0 -10.73 10.73"/></g><ellipse cx="101.2" cy="256.08" fill="#231f20" opacity=".15" rx="51.13" ry="23.38"/><path d="m50.08 160.54h102.25v95.54h-102.25z" fill="#fc6"/><path d="m50.08 157.55h102.25v13.93h-102.25z" fill="#bd974b"/><path d="m87.21 206.8h27.99v10.83h-27.99z" fill="#bd974b"/><path d="m76.25 171.69h21.92v11.72h-21.92z" fill="#e6ac39"/><path d="m130.41 183.36h21.92v11.72h-21.92z" fill="#e6ac39"/><path d="m65.29 183.27h21.92v11.72h-21.92z" fill="#e6ac39"/><path d="m76.25 244.36h21.92v11.72h-21.92z" fill="#e6ac39"/><path d="m141.37 232.64h10.96v11.72h-10.96z" fill="#e6ac39"/><path d="m141.37 195.08h10.96v11.72h-10.96z" fill="#e6ac39"/><path d="m87.21 217.63h27.99v38.45h-27.99z" fill="#58595b"/><path d="m50.08 126.22h102.25v31.33h-102.25z" fill="#d4a954"/><path d="m463.01 419.28-119.62-30-119.61 30v71.71h239.23z" fill="#b3dde5" opacity=".75"/><path d="m463.01 143.87-119.62-20-119.61 20v275.42l119.61-30 119.62 30z" fill="#d1f7ff" opacity=".5"/><path d="m463.01 143.87-119.62-30-119.61 30v71.72h239.23z" fill="#73bfe5" opacity=".5"/><path d="m463.01 143.87-119.62-30-119.61 30v13.72l119.61-30.01 119.62 30.01z" fill="#a7a9ac"/><path d="m463.01 406.82-119.62-30-119.61 30v13.71l119.61-30 119.62 30z" fill="#a7a9ac"/><path d="m463.01 319.17-119.62-30-119.61 30v13.71l119.61-30 119.62 30z" fill="#a7a9ac"/><path d="m463.01 231.52-119.62-30-119.61 30v13.71l119.61-30 119.62 30z" fill="#a7a9ac"/><path d="m463.01 143.87-119.62-30v13.71l119.62 30.01z" fill="#d1d3d4"/><path d="m463.01 406.82-119.62-30v13.71l119.62 30z" fill="#d1d3d4"/><path d="m463.01 319.17-119.62-30v13.71l119.62 30z" fill="#d1d3d4"/><path d="m463.01 231.52-119.62-30v13.71l119.62 30z" fill="#d1d3d4"/><path d="m311.18 430.59h64.44v60.45h-64.44z" fill="#808285"/><path d="m311.18 420.13h64.44v10.46h-64.44z" fill="#a7a9ac"/><path d="m90.94 134.12h36.81v12.22h-36.81z" fill="#d1d3d4"/><path d="m90.94 146.34h36.81v3.1h-36.81z" fill="#a7a9ac"/><path d="m137.73 110.54c8.39 8.4 10.8 19.61 5.36 25s-23.72 10.1-32.11 1.7-3.73-26.68 1.7-32.11 16.65-2.98 25.05 5.41z" fill="#a7a9ac"/><ellipse cx="128.8" cy="119.47" fill="#d1d3d4" rx="13.92" ry="21.5" transform="matrix(.70710678 -.70710678 .70710678 .70710678 -46.75 126.07)"/><path d="m120.76 112.98h24.49v4.56h-24.49z" fill="#a7a9ac" transform="matrix(.70710678 -.70710678 .70710678 .70710678 -42.54 127.81)"/><circle cx="141.67" cy="106.6" fill="#a7a9ac" r="4.07"/><path d="m176.97 211.15h23.33v32.84h-23.33z" fill="#a7a9ac"/><path d="m191.5 208.31h5.79v2.84h-5.79z" fill="#939598"/><path d="m176.97 218.93h23.33v2.84h-23.33z" fill="#939598"/><path d="m176.97 233.37h23.33v2.84h-23.33z" fill="#939598"/><path d="m164.33 223.5h23.33v32.84h-23.33z" fill="#d1d3d4" transform="matrix(-1 0 0 -1 351.98 479.84)"/><path d="m167.34 220.66h5.79v2.84h-5.79z" fill="#a7a9ac" transform="matrix(-1 0 0 -1 340.46 444.16)"/><path d="m164.33 231.28h23.33v2.84h-23.33z" fill="#a7a9ac" transform="matrix(-1 0 0 -1 351.98 465.4)"/><path d="m164.33 245.72h23.33v2.84h-23.33z" fill="#a7a9ac" transform="matrix(-1 0 0 -1 351.98 494.28)"/></svg>