<svg viewBox="0 0 512 640" xmlns="http://www.w3.org/2000/svg"><ellipse cx="251.5" cy="445.81" fill="#231f20" opacity=".15" rx="123.5" ry="45.5"/><path d="m372 264.31v21h-24v-21h-25v21h-24v-21h-25v21h-25v48h148v-48-21z" fill="#948f89"/><path d="m329 214.31h6v96h-6z" fill="#58595b"/><path d="m335 233.35v-18.85l36.21 9.43z" fill="#ef4136"/><path d="m249 343.31h126v101h-126z" fill="#9c896f"/><path d="m249 317.31h148v26h-148z" fill="#c5bfb7"/><path d="m274 296.31h25v21h-25z" fill="#c5bfb7"/><path d="m323 296.31h25v21h-25z" fill="#c5bfb7"/><path d="m372 296.31h25v21h-25z" fill="#c5bfb7"/><path d="m298.7 363.31-9.37 11.05v24.95h18.74v-24.95z" fill="#58595b"/><path d="m345.3 363.31-9.37 11.05v24.95h18.74v-24.95z" fill="#58595b"/><path d="m270.6 444.31h-142.46l18.22-196h103.71z" fill="#a69680"/><path d="m196.86 53.31h5v66h-5z" fill="#58595b"/><path d="m260.86 62.08-59-8.77v12.97 4.57 12.97l59-8.77-43.62-6.49z" fill="#ef4136"/><path d="m186 381.31h27v63h-27z" fill="#946440"/><path d="m163 369.31h73v12h-73z" fill="#9c896f"/><path d="m214 369.31h12v75h-12z" fill="#9c896f"/><path d="m174 369.31h12v75h-12z" fill="#9c896f"/><path d="m115 229.31h169v20h-169z" fill="#c5bfb7"/><path d="m115 167.31h169v62h-169z" fill="#9c896f"/><path d="m284 167.31h-169l84.5-61.91z" fill="#8b5e3c"/><path d="m141 181.26-10 11.52v22.53h20v-22.53z" fill="#58595b"/><path d="m181 181.26-10 11.52v22.53h20v-22.53z" fill="#58595b"/><path d="m220 181.26-10 11.52v22.53h20v-22.53z" fill="#58595b"/><path d="m260 181.26-10 11.52v22.53h20v-22.53z" fill="#58595b"/><g fill="#9c896f"><path d="m143 287.31h53v5h-53z"/><path d="m157 306.31h53v5h-53z"/><path d="m218 346.31h42v5h-42z"/><path d="m168 287.31h5v24h-5z"/><path d="m186 309.31h5v14h-5z"/><path d="m243 334.31h5v14h-5z"/><path d="m228 349.31h5v9h-5z"/><path d="m255 349.31h5v14h-5z"/><path d="m151 276.31h5v14h-5z"/><path d="m181 276.31h5v14h-5z"/></g></svg>