<svg viewBox="0 0 512 640" xmlns="http://www.w3.org/2000/svg"><path d="m426.83 229.03h-17.67v-17.14h-66.47v-10.26h12.53v-14.89-27.15h-17.37v-27.15h-163.7v27.15h-17.37v27.15 14.89h16.38v10.26h-70.32v17.14h-17.67v36.99h17.67v99.83h-17.67v42.37h341.66v-42.37h-17.67v-99.83h17.67z" fill="#d1d3d4"/><ellipse cx="256" cy="421.73" fill="#231f20" opacity=".15" rx="170.83" ry="43.27"/><path d="m409.16 401.38v-99.83h17.67v-19.66h-341.66v19.66h17.67v99.83h-17.67v20.42h341.66v-20.42z" fill="#a7a9ac"/><g fill="#58595b"><path d="m102.84 301.55h19.84v99.83h-19.84z"/><path d="m136.94 301.55h19.84v99.83h-19.84z"/><path d="m355.22 301.55h19.84v99.83h-19.84z"/><path d="m389.32 301.55h19.84v99.83h-19.84z"/></g><path d="m85.17 264.57h341.66v17.14h-341.66z" fill="#e6e7e8"/><path d="m102.84 247.43h306.31v17.14h-306.31z" fill="#e6e7e8"/><path d="m188.12 231.68h139.6v154.61h-139.6z" fill="#58595b"/><path d="m173.16 231.68h29.93v154.61h-29.93z" fill="#e6e7e8"/><path d="m241.04 231.68h29.93v154.61h-29.93z" fill="#e6e7e8"/><path d="m312.76 231.68h29.93v154.61h-29.93z" fill="#e6e7e8"/><path d="m156.78 222.28h198.43v14.88h-198.43z" fill="#bcbec0"/><path d="m156.78 195.13h198.43v27.15h-198.43z" fill="#e6e7e8"/><path d="m174.15 167.98h163.71v27.15h-163.71z" fill="#e6e7e8"/><path d="m157.24 386.28h197.53v23.68h-197.53z" fill="#e6e7e8"/><path d="m147.52 398.12h216.96v11.84h-216.96z" fill="#d1d3d4"/><path d="m137.14 409.96h237.72v11.84h-237.72z" fill="#e6e7e8"/></svg>