<svg viewBox="0 0 512 640" xmlns="http://www.w3.org/2000/svg" xmlns:xlink="http://www.w3.org/1999/xlink"><clipPath id="a"><ellipse cx="172.24" cy="251.83" rx="91.89" ry="43.66"/></clipPath><path d="m398.76 254.73h-2.87c-8.76-9.66-36.64-16.73-69.68-16.73-28.8 0-53.69 5.37-65.4 13.15-.5 0-1 0-1.51 0-11.41 0-20.65 4.52-20.65 10.09s9.24 10.08 20.65 10.08h1.51c26.69 14 67.32 2.9 68.27 2.89 8.76 9.66 36.64 13.73 69.68 13.73 40.06 0 72.54-7.39 72.54-20.21s-32.48-13-72.54-13z" fill="#231f20" opacity=".15"/><ellipse cx="232.41" cy="225.65" fill="#231f20" opacity=".15" rx="72.55" ry="24.28"/><ellipse cx="421.18" cy="486.3" fill="#231f20" opacity=".15" rx="33.22" ry="11.95"/><path d="m161.39 171.29h92.77v18.28h-92.77z" fill="#946440"/><path d="m264.13 188.95h62.08v24.81h-62.08z" fill="#946440"/><path d="m337.3 212.13h124.03v16.29h-124.03z" fill="#946440"/><path d="m343.67 166.19h138.53v-36.26l-12.03-12.95h-84.25-42.25z" fill="#2bb673"/><path d="m482.2 160.06-12.03-12.95v-30.13l12.03 12.95z" fill="#fff" opacity=".3"/><path d="m370.02 202.48h9.1v22.17h-9.1z" fill="#594a42" transform="matrix(.7602926 -.64958075 .64958075 .7602926 -48.94 294.51)"/><path d="m441.38 212.13a9.78 9.78 0 1 1 -9.78-9.78 9.78 9.78 0 0 1 9.78 9.78z" fill="#009444"/><path d="m455.44 214.79a9.78 9.78 0 1 1 -9.78-9.78 9.78 9.78 0 0 1 9.78 9.78z" fill="#39b54a"/><path d="m185.21 173.74a7 7 0 1 1 -7-7 7 7 0 0 1 7 7z" fill="#be1e2d"/><path d="m203.81 172.66a7 7 0 1 1 -7-7 7 7 0 0 1 7 7z" fill="#be1e2d"/><path d="m250.44 170.06a7.53 7.53 0 1 1 -7.53-7.53 7.53 7.53 0 0 1 7.53 7.53z" fill="#be1e2d"/><path d="m261.69 172.17a7.53 7.53 0 1 1 -7.53-7.52 7.53 7.53 0 0 1 7.53 7.52z" fill="#be1e2d"/><path d="m215.76 172.44a7 7 0 1 1 -7-7 7 7 0 0 1 7 7z" fill="#be1e2d"/><path d="m206.52 176.5a7 7 0 1 1 -7-7 7 7 0 0 1 7 7z" fill="#ef4136"/><path d="m161.39 189.57h92.6v35.6h-92.6z" fill="#a97c50"/><path d="m338.25 228.41h120.89v38.04h-120.89z" fill="#a97c50"/><path d="m265.76 213.31h60.45v50.7h-60.45z" fill="#a97c50"/><path d="m326.21 137.78h12.04v139.67h-12.04z" fill="#754c29"/><path d="m459.14 160.22h12.04v106.23h-12.04z" fill="#754c29"/><path d="m253.99 137.78h12.04v136.47h-12.04z" fill="#754c29"/><path d="m338.25 178.78h143.95v-18.99l-11.56-12.95h-132.39z" fill="#2bb673"/><g fill="#f15a29"><path d="m338.25 116.8h12.04v61.98h-12.04z"/><path d="m362.32 116.8h12.04v61.98h-12.04z"/><path d="m386.39 116.8h12.04v61.98h-12.04z"/><path d="m410.46 116.8h12.04v61.98h-12.04z"/><path d="m434.53 116.8h12.04v61.98h-12.04z"/><path d="m458.61 116.8h12.04v61.98h-12.04z"/></g><path d="m347.56 215.16h22.17v9.1h-22.17z" fill="#594a42"/><path d="m342.56 206.06h22.17v9.1h-22.17z" fill="#a97c50"/><path d="m310 184.71a3.08 3.08 0 0 1 .07.68 3.3 3.3 0 1 1 -6.6 0 3.82 3.82 0 0 1 .07-.68h-17.75v12.44h15.72a3.11 3.11 0 1 1 5 0h6.13v-12.44zm-17.87 9.77a2.45 2.45 0 1 1 2.45-2.45 2.45 2.45 0 0 1 -2.49 2.45z" fill="#de9c39"/><path d="m309.46 200.61a2.32 2.32 0 0 1 .45 1.37 2.37 2.37 0 0 1 -4.74 0l-3.48 1.15v5.45h22v-12.65zm9.2 5.4a1.87 1.87 0 1 1 1.87-1.86 1.87 1.87 0 0 1 -1.87 1.85z" fill="#fbb040"/><path d="m238.65 240.74h41.31v33.51h-41.31z" fill="#8b5e3c"/><path d="m264.13 253.06h40.95v21.19h-40.95z" fill="#754c29"/><path d="m413.1 452.79h41.31v33.51h-41.31z" fill="#8b5e3c"/><path d="m387.96 465.11h40.95v21.19h-40.95z" fill="#754c29"/><path d="m278.98 137.09h2.06v17.67h-2.06z" fill="#8b5e3c"/><path d="m298.93 134.44h2.06v17.67h-2.06z" fill="#8b5e3c"/><path d="m280 158.74c-3.76 1.84-6.48 7.23-6.48 13.59s2.72 11.74 6.48 13.59z" fill="#4b8abc"/><path d="m280 158.74v27.18c3.76-1.85 6.48-7.23 6.48-13.59s-2.71-11.75-6.48-13.59z" fill="#4ba9bc"/><path d="m275.63 153.88c.11 4.13 1.92 7.59 4.38 8.8v-8.8z" fill="#4b8abc"/><path d="m284.4 153.88c-.12 4.13-1.92 7.59-4.39 8.8v-8.8z" fill="#4b8abc"/><path d="m300 149.65c-3.76 1.84-6.48 7.23-6.48 13.59s2.68 11.76 6.48 13.59z" fill="#4b8abc"/><path d="m300 149.65v27.18c3.76-1.85 6.48-7.23 6.48-13.59s-2.76-11.75-6.48-13.59z" fill="#4ba9bc"/><path d="m295.57 144.79c.12 4.13 1.92 7.59 4.39 8.8v-8.8z" fill="#4b8abc"/><path d="m304.35 144.79c-.12 4.13-1.92 7.59-4.39 8.8v-8.8z" fill="#4b8abc"/><path d="m338.25 116.8h132.4v30.31h-132.4z" fill="#fff" opacity=".2"/><path d="m427.17 214.9a9.78 9.78 0 1 1 -9.78-9.78 9.78 9.78 0 0 1 9.78 9.78z" fill="#39b54a"/><path d="m194.71 176.78a7 7 0 1 1 -7-7 7 7 0 0 1 7 7z" fill="#ef4136"/><path d="m251.81 175a7.53 7.53 0 1 1 -7.53-7.52 7.53 7.53 0 0 1 7.53 7.52z" fill="#ef4136"/><path d="m239.93 173.59a7.53 7.53 0 1 1 -7.52-7.53 7.52 7.52 0 0 1 7.52 7.53z" fill="#ef4136"/><path d="m269.59 193.6v15h6.13a3.07 3.07 0 0 1 -.6-1.81 3.12 3.12 0 1 1 6.23 0 3.06 3.06 0 0 1 -.59 1.81h15.72v-15h-17.72a3 3 0 0 1 .07.68 3.3 3.3 0 0 1 -6.6 0 3.64 3.64 0 0 1 .07-.68zm18.14 9.91a2.45 2.45 0 1 1 2.45 2.44 2.45 2.45 0 0 1 -2.45-2.44z" fill="#fbb040"/><path d="m241.96 138.43h108.32v-18.99l-12.03-12.95h-84.26l-12.03 12.95z" fill="#2bb673"/><path d="m241.96 125.57h108.32v-36.26l-12.03-12.94h-84.26l-12.03 12.94z" fill="#2bb673"/><path d="m253.99 76.37h12.04v62.06h-12.04z" fill="#f15a29"/><path d="m278.07 76.37h12.04v62.06h-12.04z" fill="#f15a29"/><path d="m302.14 76.37h12.04v62.06h-12.04z" fill="#f15a29"/><path d="m326.21 76.37h12.04v62.06h-12.04z" fill="#f15a29"/><path d="m350.28 119.44-12.03-12.95v-30.12l12.03 12.94z" fill="#fff" opacity=".3"/><path d="m241.96 119.44 12.03-12.95v-30.12l-12.03 12.94z" fill="#231f20" opacity=".2"/><path d="m253.99 76.18h84.25v30.31h-84.25z" fill="#fff" opacity=".2"/><ellipse cx="406.45" cy="440.13" fill="#231f20" opacity=".15" rx="87.12" ry="17.58"/><path d="m297.59 242.03h78.89v105.95h-78.89z" fill="#fc6"/><path d="m297.59 227.68h78.89v14.35h-78.89z" fill="#bd974b"/><path d="m297.59 242.03h22.58v12.07h-22.58z" fill="#e6ac39"/><path d="m306.68 254.1h22.58v12.07h-22.58z" fill="#e6ac39"/><path d="m320.17 253.67h43.42v18.5h-43.42z" fill="#73bfe5"/><path d="m357.85 212.18h13.35v15.5h-13.35z" fill="#754c29"/><path d="m347.52 217.44h10.33v10.24h-10.33z" fill="#a97c50"/><path d="m297.59 173.41h78.89v54.27h-78.89z" fill="#d4a954"/><path d="m296.39 453.62c9.49-9.61 14.84-20.51 14.84-32.06 0-38.82-60.49-70.29-135.11-70.29s-135.12 31.47-135.12 70.29 60.49 70.28 135.11 70.28q3.63 0 7.2-.1c11.51 12.45 46.61 21.51 88.14 21.51 50.88 0 92.13-13.6 92.13-30.38.01-13.93-28.42-25.66-67.19-29.25z" fill="#231f20" opacity=".15"/><ellipse cx="174.93" cy="405.5" fill="#fc6" rx="133.59" ry="63.48"/><path d="m41.34 270.57h267.18v134.93h-267.18z" fill="#fc6"/><path d="m397.29 392.3h96.29v21.96h-96.29z" fill="#946440"/><path d="m397.29 414.06h96.29v26.08h-96.29z" fill="#a97c50"/><path d="m472.18 363.98h10.7v50.07h-10.7z" fill="#754c29"/><path d="m407.99 363.98h10.7v50.27h-10.7z" fill="#754c29"/><path d="m397.29 364.77h96.29v-16.88l-10.7-11.51h-74.89l-10.7 11.51z" fill="#2bb673"/><path d="m397.29 353.34h96.29v-32.23l-10.7-11.51h-74.89l-10.7 11.51z" fill="#2bb673"/><path d="m407.99 309.6h10.7v55.17h-10.7z" fill="#f15a29"/><path d="m429.39 309.6h10.7v55.17h-10.7z" fill="#f15a29"/><path d="m450.78 309.6h10.7v55.17h-10.7z" fill="#f15a29"/><path d="m472.18 309.6h10.7v55.17h-10.7z" fill="#f15a29"/><path d="m407.99 309.44h74.89v26.94h-74.89z" fill="#fff" opacity=".2"/><path d="m493.58 347.89-10.7-11.51v-26.78l10.7 11.51z" fill="#fff" opacity=".3"/><path d="m397.74 347.89 10.7-11.51v-26.78l-10.7 11.51z" fill="#231f20" opacity=".2"/><path d="m363.59 365.23h78.89v74.9h-78.89z" fill="#fc6"/><path d="m363.59 350.88h78.89v14.35h-78.89z" fill="#bd974b"/><path d="m363.59 365.23h22.58v12.07h-22.58z" fill="#e6ac39"/><path d="m374.88 377.3h22.58v12.07h-22.58z" fill="#e6ac39"/><path d="m419.74 413.52h22.58v12.07h-22.58z" fill="#e6ac39"/><path d="m363.59 383.34h59.33v19.01h-59.33z" fill="#73bfe5"/><path d="m423.85 335.38h13.35v15.5h-13.35z" fill="#754c29"/><path d="m413.52 340.64h10.33v10.24h-10.33z" fill="#a97c50"/><path d="m363.59 296.61h78.89v54.27h-78.89z" fill="#d4a954"/><path d="m179.33 409.23h78.89v74.9h-78.89z" fill="#fc6"/><path d="m179.33 394.88h78.89v14.35h-78.89z" fill="#bd974b"/><path d="m179.33 459.99h22.58v12.07h-22.58z" fill="#e6ac39"/><path d="m195.53 423.09h50.64v18.28h-50.64z" fill="#73bfe5"/><path d="m213.16 379.38h13.35v15.5h-13.35z" fill="#754c29"/><path d="m202.83 384.64h10.33v10.24h-10.33z" fill="#a97c50"/><path d="m179.33 349.41h78.89v45.47h-78.89z" fill="#d4a954"/><path d="m258.27 382.97h105.32v101.16h-105.32z" fill="#fc6"/><path d="m258.27 364.64h105.32v28.62h-105.32z" fill="#bd974b"/><path d="m296.51 425.65h29.44v18.89h-29.44z" fill="#bd974b"/><path d="m258.27 409.23h22.58v12.07h-22.58z" fill="#e6ac39"/><path d="m341.01 459.99h22.58v12.07h-22.58z" fill="#e6ac39"/><path d="m258.27 459.99h11.29v12.07h-11.29z" fill="#e6ac39"/><path d="m258.27 421.3h11.29v12.07h-11.29z" fill="#e6ac39"/><path d="m296.51 444.53h28.83v39.6h-28.83z" fill="#58595b"/><path d="m363.59 296.61h-38.25l-67.13 52.8.06 15.23h105.32z" fill="#d4a954"/><path d="m409.34 448.4h-12.62l-3.45-6.68v-19.94h19.52v19.94z" fill="#a97c50"/><path d="m222.53 480.5h18.41v14.35h-18.41z" fill="#754c29"/><path d="m205.93 475.4h20v19.44h-20z" fill="#a97c50"/><path d="m340.01 400.11h11.87v97.51h-11.87z" fill="#754c29"/><path d="m269.92 402.35h11.71v95.27h-11.71z" fill="#754c29"/><path d="m258.21 429.7h105.38v-18.47l-11.71-12.6h-81.96l-11.71 12.6z" fill="#2bb673"/><path d="m258.21 417.19h105.38v-35.26l-11.71-12.6h-81.96l-11.71 12.6z" fill="#2bb673"/><path d="m269.92 369.33h11.71v60.37h-11.71z" fill="#f15a29"/><path d="m293.34 369.33h11.71v60.37h-11.71z" fill="#f15a29"/><path d="m316.76 369.33h11.71v60.37h-11.71z" fill="#f15a29"/><path d="m340.17 369.33h11.71v60.37h-11.71z" fill="#f15a29"/><path d="m269.92 369.33h81.96v29.3h-81.96z" fill="#fff" opacity=".2"/><path d="m258.21 411.23 11.71-12.6v-29.3l-11.71 12.6z" fill="#231f20" opacity=".2"/><ellipse cx="174.93" cy="270.57" fill="#bd974b" rx="133.59" ry="63.48"/><path d="m41.34 251.51h267.18v19.06h-267.18z" fill="#bd974b"/><ellipse cx="174.93" cy="251.51" fill="#d4a954" rx="133.59" ry="63.48"/><g clip-path="url(#a)"><ellipse cx="172.24" cy="251.83" fill="#73bfe5" rx="91.89" ry="43.66"/><ellipse cx="172.24" cy="268.25" fill="#b3dde5" rx="91.89" ry="43.66"/><ellipse cx="172.24" cy="291.11" fill="#73bfe5" rx="91.89" ry="43.66"/><ellipse cx="172.24" cy="309.68" fill="#b3dde5" rx="91.89" ry="43.66"/><ellipse cx="172.24" cy="328.75" fill="#73bfe5" rx="91.89" ry="43.66"/></g><path d="m159.86 354.18c-66.68-3.56-118.52-30.44-118.52-63.07v19.06c0 32.63 51.84 59.51 118.52 63.07z" fill="#73bfe5"/><path d="m159.86 392.68c-66.68-3.56-118.52-30.44-118.52-63.07v19.06c0 32.63 51.84 59.51 118.52 63.07z" fill="#73bfe5"/><path d="m159.86 431.18c-66.68-3.56-118.52-30.44-118.52-63.07v19.06c0 32.63 51.84 59.51 118.52 63.07z" fill="#73bfe5"/><ellipse cx="78.95" cy="524.35" fill="#231f20" opacity=".15" rx="42.15" ry="17.58"/><path d="m36.85 465.63h84.25v24.7h-84.25z" fill="#946440"/><path d="m36.85 489.72h84.25v34.63h-84.25z" fill="#a97c50"/><path d="m109.06 446.13h12.04v78.22h-12.04z" fill="#754c29"/><path d="m36.85 446.13h12.04v78.22h-12.04z" fill="#754c29"/><path d="m24.81 447.01h108.33v-18.99l-12.04-12.95h-84.25l-12.04 12.95z" fill="#2bb673"/><path d="m24.81 434.15h108.33v-36.25l-12.04-12.95h-84.25l-12.04 12.95z" fill="#2bb673"/><path d="m36.85 384.95h12.04v62.06h-12.04z" fill="#f15a29"/><path d="m60.92 384.95h12.04v62.06h-12.04z" fill="#f15a29"/><path d="m84.99 384.95h12.04v62.06h-12.04z" fill="#f15a29"/><path d="m109.06 384.95h12.04v62.06h-12.04z" fill="#f15a29"/><path d="m36.85 384.95h84.25v30.12h-84.25z" fill="#fff" opacity=".2"/><path d="m24.81 428.02 12.04-12.95v-30.12l-12.04 12.95z" fill="#231f20" opacity=".2"/><path d="m58.34 468.85h14.61v6.46h-14.61z" fill="#c2b59b"/><path d="m62.55 478.46h14.61v6.46h-14.61z" fill="#c2b59b"/><path d="m75.93 468.85h14.61v6.46h-14.61z" fill="#c2b59b"/><path d="m86.29 478.46h14.61v6.46h-14.61z" fill="#c2b59b"/></svg>