<svg viewBox="0 0 512 640" xmlns="http://www.w3.org/2000/svg"><ellipse cx="196.04" cy="283.87" fill="#231f20" opacity=".15" rx="131.57" ry="30.38"/><path d="m248.73 210.23h78.89v74.9h-78.89z" fill="#fc6"/><path d="m248.73 195.88h78.89v14.35h-78.89z" fill="#bd974b"/><path d="m248.73 210.23h22.58v12.07h-22.58z" fill="#e6ac39"/><path d="m260.02 222.3h22.58v12.07h-22.58z" fill="#e6ac39"/><path d="m304.88 258.52h22.58v12.07h-22.58z" fill="#e6ac39"/><path d="m289.27 228.34h18.79v24.14h-18.79z" fill="#58595b"/><path d="m308.99 180.38h13.35v15.5h-13.35z" fill="#754c29"/><path d="m298.66 185.64h10.33v10.24h-10.33z" fill="#a97c50"/><path d="m248.73 163.61h78.89v32.27h-78.89z" fill="#d4a954"/><path d="m64.47 210.23h78.89v74.9h-78.89z" fill="#fc6"/><path d="m64.47 195.88h78.89v14.35h-78.89z" fill="#bd974b"/><path d="m94.19 256.32h22.58v12.07h-22.58z" fill="#e6ac39"/><path d="m117.19 222.84h18.79v24.14h-18.79z" fill="#58595b"/><path d="m80.67 222.84h18.79v24.14h-18.79z" fill="#58595b"/><path d="m98.3 180.38h13.35v15.5h-13.35z" fill="#754c29"/><path d="m87.97 185.64h10.33v10.24h-10.33z" fill="#a97c50"/><path d="m64.47 163.61h78.89v32.27h-78.89z" fill="#d4a954"/><path d="m143.41 183.97h105.32v101.16h-105.32z" fill="#fc6"/><path d="m143.41 165.64h105.32v28.62h-105.32z" fill="#bd974b"/><path d="m181.66 226.65h29.44v18.89h-29.44z" fill="#bd974b"/><path d="m143.41 210.23h22.58v12.07h-22.58z" fill="#e6ac39"/><path d="m226.15 260.99h22.58v12.07h-22.58z" fill="#e6ac39"/><path d="m143.41 260.99h11.29v12.07h-11.29z" fill="#e6ac39"/><path d="m143.41 222.3h11.29v12.07h-11.29z" fill="#e6ac39"/><path d="m181.66 245.53h28.83v39.6h-28.83z" fill="#58595b"/><path d="m143.41 133.37h105.32v32.27h-105.32z" fill="#d4a954"/><path d="m106.71 289.2h-13.77l-2.87-5.46v-14.34h19.51v14.34z" fill="#754c29"/><path d="m291.46 290.83h-12.63l-3.44-6.67v-19.94h19.51v19.94z" fill="#a97c50"/><path d="m314.37 290.83h-12.63l-3.44-6.67v-19.94h19.51v19.94z" fill="#a97c50"/><path d="m88.7 290.7h-9.38l-5.86-10.26v-19.44h21.1v19.44z" fill="#a97c50"/><path d="m225.15 201.11h11.87v97.51h-11.87z" fill="#754c29"/><path d="m155.06 203.35h11.71v95.27h-11.71z" fill="#754c29"/><path d="m143.36 230.7h105.37v-18.47l-11.71-12.6h-81.96l-11.7 12.6z" fill="#2bb673"/><path d="m143.36 218.19h105.37v-35.26l-11.71-12.6h-81.96l-11.7 12.6z" fill="#2bb673"/><path d="m155.06 170.33h11.71v60.37h-11.71z" fill="#f15a29"/><path d="m178.48 170.33h11.71v60.37h-11.71z" fill="#f15a29"/><path d="m201.9 170.33h11.71v60.37h-11.71z" fill="#f15a29"/><path d="m225.31 170.33h11.71v60.37h-11.71z" fill="#f15a29"/><path d="m155.06 170.33h81.96v29.3h-81.96z" fill="#fff" opacity=".2"/><g fill="#231f20"><path d="m143.36 212.23 11.7-12.6v-29.3l-11.7 12.6z" opacity=".2"/><path d="m397.88 452.46h-2.87c-8.76-9.67-36.64-16.73-69.68-16.73-28.8 0-53.68 5.37-65.4 13.15-.5 0-1 0-1.51 0-11.41 0-20.65 4.51-20.65 10.08s9.23 10.04 20.65 10.04h1.51c26.69 14 67.32 2.9 68.27 2.89 8.76 9.66 36.64 16.72 69.68 16.72 40.07 0 72.55-10.38 72.55-23.2s-32.43-12.95-72.55-12.95z" opacity=".15"/><ellipse cx="231.53" cy="412.38" opacity=".15" rx="72.55" ry="24.28"/><ellipse cx="427.68" cy="381.21" opacity=".15" rx="54.21" ry="17.58"/><ellipse cx="95.3" cy="501.03" opacity=".15" rx="33.22" ry="11.95"/><path d="m200.58 483.58c-5.41 0-9.8 3.42-9.8 7.64s4.39 7.64 9.8 7.64 9.8-3.42 9.8-7.64-4.38-7.64-9.8-7.64z" opacity=".15"/><ellipse cx="387.11" cy="255" opacity=".15" rx="20.65" ry="8.32"/></g><path d="m366.46 221.49h41.31v33.51h-41.31z" fill="#8b5e3c"/><path d="m352.9 261.22c4.17 0 7.56-2.79 7.56-6.22s-3.39-6.22-7.56-6.22-7.55 2.78-7.55 6.22 3.38 6.22 7.55 6.22z" fill="#231f20" opacity=".15"/><path d="m345.17 255h15.29l3.18-6.06v-15.92h-21.65v15.92z" fill="#8b5e3c"/><path d="m373.48 295.92h108.32v24.7h-108.32z" fill="#946440"/><path d="m373.48 332.75h107.85v45.83h-107.85z" fill="#a97c50"/><path d="m457.73 276.42h12.04v80.37h-12.04z" fill="#754c29"/><path d="m385.51 276.42h12.04v73.16h-12.04z" fill="#754c29"/><path d="m373.48 277.3h108.32v-18.99l-12.04-12.95h-84.25l-12.03 12.95z" fill="#2bb673"/><path d="m373.48 264.44h108.32v-36.25l-12.04-12.95h-84.25l-12.03 12.95z" fill="#2bb673"/><path d="m385.51 215.24h12.04v62.06h-12.04z" fill="#f15a29"/><path d="m409.58 215.24h12.04v62.06h-12.04z" fill="#f15a29"/><path d="m433.66 215.24h12.04v62.06h-12.04z" fill="#f15a29"/><path d="m457.73 215.24h12.04v62.06h-12.04z" fill="#f15a29"/><path d="m385.51 215.06h84.25v30.31h-84.25z" fill="#fff" opacity=".2"/><path d="m160.51 358.01h92.77v18.28h-92.77z" fill="#946440"/><path d="m263.26 375.68h62.08v24.81h-62.08z" fill="#946440"/><path d="m336.42 398.86h124.03v16.29h-124.03z" fill="#946440"/><path d="m342.79 352.91h138.54v-36.25l-12.04-12.95h-84.25-42.25z" fill="#2bb673"/><path d="m481.33 346.78-12.04-12.95v-30.12l12.04 12.95z" fill="#fff" opacity=".3"/><path d="m369.15 389.21h9.1v22.17h-9.1z" fill="#594a42" transform="matrix(.7602926 -.64958075 .64958075 .7602926 -170.45 338.7)"/><path d="m440.5 398.86a9.78 9.78 0 1 1 -9.78-9.78 9.77 9.77 0 0 1 9.78 9.78z" fill="#009444"/><path d="m454.56 401.52a9.78 9.78 0 1 1 -9.78-9.78 9.78 9.78 0 0 1 9.78 9.78z" fill="#39b54a"/><path d="m184.33 360.46a7 7 0 1 1 -7-7 7 7 0 0 1 7 7z" fill="#be1e2d"/><path d="m202.93 359.39a7 7 0 1 1 -7-7 7 7 0 0 1 7 7z" fill="#be1e2d"/><path d="m249.56 356.78a7.53 7.53 0 1 1 -7.53-7.52 7.53 7.53 0 0 1 7.53 7.52z" fill="#be1e2d"/><path d="m260.81 358.9a7.53 7.53 0 1 1 -7.53-7.53 7.53 7.53 0 0 1 7.53 7.53z" fill="#be1e2d"/><path d="m214.88 359.17a7 7 0 1 1 -7-7 7 7 0 0 1 7 7z" fill="#be1e2d"/><path d="m205.64 363.23a7 7 0 1 1 -7-7 7 7 0 0 1 7 7z" fill="#ef4136"/><path d="m160.51 376.3h92.6v35.6h-92.6z" fill="#a97c50"/><path d="m337.37 415.14h120.89v49.04h-120.89z" fill="#a97c50"/><path d="m264.88 400.04h60.45v50.7h-60.45z" fill="#a97c50"/><path d="m157.58 422.13h15.29l3.19-6.05v-15.93h-21.66v15.93z" fill="#8b5e3c"/><path d="m182.89 422.13h21.13l4.4-8.37v-22h-29.93v22z" fill="#754c29"/><path d="m210.38 491.35h-19.14l-3.99-7.59v-19.93h27.12v19.93z" fill="#8b5e3c"/><path d="m443.7 474.42h-19.15l-3.98-7.59v-19.93h27.12v19.93z" fill="#8b5e3c"/><path d="m408.96 474.42h-8.23l-7.02-14.21v-21.7h22.28v21.7z" fill="#754c29"/><path d="m325.33 324.51h12.04v139.67h-12.04z" fill="#754c29"/><path d="m458.26 346.95h12.04v117.23h-12.04z" fill="#754c29"/><path d="m253.11 324.51h12.04v136.47h-12.04z" fill="#754c29"/><path d="m337.37 365.51h143.96v-18.99l-11.57-12.95h-132.39z" fill="#2bb673"/><path d="m337.37 303.53h12.04v61.98h-12.04z" fill="#f15a29"/><path d="m361.44 303.53h12.04v61.98h-12.04z" fill="#f15a29"/><path d="m385.51 303.53h12.04v61.98h-12.04z" fill="#f15a29"/><path d="m409.58 303.53h12.04v61.98h-12.04z" fill="#f15a29"/><path d="m433.66 303.53h12.04v61.98h-12.04z" fill="#f15a29"/><path d="m457.73 303.53h12.04v61.98h-12.04z" fill="#f15a29"/><path d="m346.68 401.89h22.17v9.1h-22.17z" fill="#594a42"/><path d="m341.68 392.79h22.17v9.1h-22.17z" fill="#a97c50"/><path d="m309.08 371.44a3.08 3.08 0 0 1 .07.68 3.3 3.3 0 1 1 -6.6 0 3.08 3.08 0 0 1 .08-.68h-17.72v12.44h15.72a3.11 3.11 0 1 1 5 0h6.13v-12.44zm-17.87 9.77a2.45 2.45 0 1 1 2.45-2.45 2.45 2.45 0 0 1 -2.45 2.45z" fill="#de9c39"/><path d="m308.59 387.33a2.41 2.41 0 0 1 .44 1.38 2.37 2.37 0 0 1 -4.74 0l-3.48 1.14v5.46h22v-12.65zm9.19 5.41a1.87 1.87 0 1 1 1.87-1.87 1.87 1.87 0 0 1 -1.87 1.87z" fill="#fbb040"/><path d="m237.77 427.46h41.31v33.51h-41.31z" fill="#8b5e3c"/><path d="m263.26 439.78h40.95v21.19h-40.95z" fill="#754c29"/><path d="m87.22 467.51h41.31v33.51h-41.31z" fill="#8b5e3c"/><path d="m62.08 479.84h40.95v21.19h-40.95z" fill="#754c29"/><path d="m278.1 323.81h2.06v17.67h-2.06z" fill="#8b5e3c"/><path d="m298.05 321.16h2.06v17.67h-2.06z" fill="#8b5e3c"/><path d="m279.13 345.46c-3.75 1.85-6.48 7.23-6.48 13.59s2.73 11.75 6.48 13.59z" fill="#4b8abc"/><path d="m279.13 345.46v27.18c3.76-1.84 6.49-7.23 6.49-13.59s-2.73-11.74-6.49-13.59z" fill="#4ba9bc"/><path d="m274.75 340.6c.11 4.14 1.92 7.6 4.38 8.81v-8.81z" fill="#4b8abc"/><path d="m283.52 340.6c-.11 4.14-1.92 7.6-4.39 8.81v-8.81z" fill="#4b8abc"/><path d="m299.08 336.37c-3.76 1.85-6.48 7.23-6.48 13.59s2.72 11.75 6.48 13.59z" fill="#4b8abc"/><path d="m299.08 336.37v27.18c3.76-1.84 6.48-7.23 6.48-13.59s-2.72-11.74-6.48-13.59z" fill="#4ba9bc"/><path d="m294.69 331.51c.12 4.14 1.92 7.6 4.39 8.81v-8.81z" fill="#4b8abc"/><path d="m303.47 331.51c-.12 4.14-1.92 7.6-4.39 8.81v-8.81z" fill="#4b8abc"/><path d="m337.37 303.53h132.4v30.31h-132.4z" fill="#fff" opacity=".2"/><path d="m426.29 401.62a9.78 9.78 0 1 1 -9.78-9.78 9.78 9.78 0 0 1 9.78 9.78z" fill="#39b54a"/><path d="m193.83 363.51a7 7 0 1 1 -7-7 7 7 0 0 1 7 7z" fill="#ef4136"/><path d="m250.93 361.72a7.53 7.53 0 1 1 -7.52-7.52 7.53 7.53 0 0 1 7.52 7.52z" fill="#ef4136"/><path d="m239.06 360.31a7.53 7.53 0 1 1 -7.53-7.53 7.53 7.53 0 0 1 7.53 7.53z" fill="#ef4136"/><path d="m268.71 380.32v15h6.13a3.11 3.11 0 1 1 5 0h15.76v-15h-17.72a3.08 3.08 0 0 1 .07.68 3.3 3.3 0 0 1 -6.6 0 3.82 3.82 0 0 1 .07-.68zm18.14 9.91a2.45 2.45 0 1 1 2.45 2.45 2.44 2.44 0 0 1 -2.45-2.45z" fill="#fbb040"/><path d="m241.08 325.15h108.32v-18.99l-12.03-12.94h-84.26l-12.03 12.94z" fill="#2bb673"/><path d="m241.08 312.3h108.32v-36.26l-12.03-12.95h-84.26l-12.03 12.95z" fill="#2bb673"/><path d="m253.11 263.09h12.04v62.06h-12.04z" fill="#f15a29"/><path d="m277.19 263.09h12.04v62.06h-12.04z" fill="#f15a29"/><path d="m301.26 263.09h12.04v62.06h-12.04z" fill="#f15a29"/><path d="m325.33 263.09h12.04v62.06h-12.04z" fill="#f15a29"/><path d="m349.4 306.16-12.03-12.94v-30.13l12.03 12.95z" fill="#fff" opacity=".3"/><path d="m241.08 306.16 12.03-12.94v-30.13l-12.03 12.95z" fill="#231f20" opacity=".2"/><path d="m253.11 262.91h84.25v30.31h-84.25z" fill="#fff" opacity=".2"/><path d="m481.8 258.31-12.04-12.95v-30.12l12.04 12.95z" fill="#fff" opacity=".3"/><path d="m373.48 258.31 12.03-12.95v-30.12l-12.03 12.95z" fill="#231f20" opacity=".2"/><ellipse cx="84.25" cy="411.04" fill="#231f20" opacity=".15" rx="42.15" ry="17.58"/><path d="m42.14 350.12h84.25v24.7h-84.25z" fill="#946440"/><path d="m42.14 374.21h84.25v36.83h-84.25z" fill="#a97c50"/><path d="m114.36 330.62h12.04v80.42h-12.04z" fill="#754c29"/><path d="m42.14 330.62h12.04v80.42h-12.04z" fill="#754c29"/><path d="m30.11 331.5h108.32v-18.99l-12.04-12.95h-84.25l-12.03 12.95z" fill="#2bb673"/><path d="m30.11 318.64h108.32v-36.25l-12.04-12.95h-84.25l-12.03 12.95z" fill="#2bb673"/><path d="m42.14 269.44h12.04v62.06h-12.04z" fill="#f15a29"/><path d="m66.21 269.44h12.04v62.06h-12.04z" fill="#f15a29"/><path d="m90.29 269.44h12.04v62.06h-12.04z" fill="#f15a29"/><path d="m114.36 269.44h12.04v62.06h-12.04z" fill="#f15a29"/><path d="m42.14 269.44h84.25v30.12h-84.25z" fill="#fff" opacity=".2"/><path d="m30.11 312.51 12.03-12.95v-30.12l-12.03 12.95z" fill="#231f20" opacity=".2"/><path d="m63.64 353.34h14.61v6.46h-14.61z" fill="#c2b59b"/><path d="m67.85 362.95h14.61v6.46h-14.61z" fill="#c2b59b"/><path d="m81.22 353.34h14.61v6.46h-14.61z" fill="#c2b59b"/><path d="m91.59 362.95h14.61v6.46h-14.61z" fill="#c2b59b"/></svg>