<svg viewBox="0 0 512 640" xmlns="http://www.w3.org/2000/svg"><g fill="#231f20"><path d="m336.51 434.22h-3.47c-10.62-11.68-44.39-20.22-84.42-20.22-34.89 0-65 6.5-79.23 15.93-.6 0-1.21 0-1.83 0-13.82 0-25 5.47-25 12.22s11.2 12.22 25 12.22h1.83c14.19 9.42 44.34 15.93 79.23 15.93h3.47c10.62 11.71 44.39 20.27 84.42 20.27 48.54 0 87.89-12.59 87.89-28.11s-39.35-28.24-87.89-28.24z" opacity=".15"/><ellipse cx="134.98" cy="398.07" opacity=".15" rx="87.89" ry="29.42"/><ellipse cx="372.62" cy="347.9" opacity=".15" rx="65.67" ry="21.3"/><ellipse cx="337.18" cy="518.9" opacity=".15" rx="40.24" ry="14.48"/><path d="m97.49 471.92c-6.55 0-11.87 4.15-11.87 9.26s5.32 9.26 11.87 9.26 11.87-4.15 11.87-9.26-5.31-9.26-11.87-9.26z" opacity=".15"/><path d="m454 435.28c-6.56 0-11.87 4.15-11.87 9.26s5.31 9.26 11.87 9.26 11.87-4.15 11.87-9.26-5.29-9.26-11.87-9.26z" opacity=".15"/><ellipse cx="103.86" cy="280.82" opacity=".15" rx="24.79" ry="10.08"/><path d="m62.18 285.81c5.05 0 9.15-3.37 9.15-7.53s-4.1-7.54-9.15-7.54-9.18 3.37-9.18 7.54 4.12 7.53 9.18 7.53z" opacity=".15"/></g><path d="m306.95 244.58h131.23v29.92h-131.23z" fill="#946440"/><path d="m306.95 289.2h130.66v55.53h-130.66z" fill="#a97c50"/><path d="m48.95 319.81h112.39v22.15h-112.39z" fill="#946440"/><path d="m173.42 341.21h75.2v30.06h-75.2z" fill="#946440"/><path d="m262.06 369.28h150.26v19.73h-150.26z" fill="#946440"/><path d="m269.77 313.63h167.83v-43.92l-14.58-15.69h-102.07-51.18z" fill="#2bb673"/><path d="m437.6 306.2-14.58-15.69v-36.49l14.58 15.69z" fill="#fff" opacity=".3"/><path d="m301.7 357.6h11.02v26.86h-11.02z" fill="#594a42" transform="matrix(.7602926 -.64958075 .64958075 .7602926 -167.37 288.5)"/><path d="m388.14 369.28a11.85 11.85 0 1 1 -11.84-11.84 11.84 11.84 0 0 1 11.84 11.84z" fill="#009444"/><path d="m405.17 372.51a11.85 11.85 0 1 1 -11.84-11.85 11.84 11.84 0 0 1 11.84 11.85z" fill="#39b54a"/><path d="m77.81 322.78a8.52 8.52 0 1 1 -8.52-8.53 8.53 8.53 0 0 1 8.52 8.53z" fill="#be1e2d"/><path d="m100.34 321.47a8.53 8.53 0 1 1 -8.52-8.47 8.53 8.53 0 0 1 8.52 8.47z" fill="#be1e2d"/><path d="m156.83 318.32a9.12 9.12 0 1 1 -9.12-9.12 9.12 9.12 0 0 1 9.12 9.12z" fill="#be1e2d"/><path d="m170.46 320.88a9.12 9.12 0 1 1 -9.12-9.12 9.12 9.12 0 0 1 9.12 9.12z" fill="#be1e2d"/><path d="m114.81 321.21a8.52 8.52 0 1 1 -8.52-8.53 8.52 8.52 0 0 1 8.52 8.53z" fill="#be1e2d"/><path d="m103.62 326.12a8.52 8.52 0 1 1 -8.52-8.52 8.52 8.52 0 0 1 8.52 8.52z" fill="#ef4136"/><path d="m48.95 341.96h112.18v55.53h-112.18z" fill="#a97c50"/><path d="m263.2 389.01h146.46v71.81h-146.46z" fill="#a97c50"/><path d="m175.39 370.71h73.23v73.83h-73.23z" fill="#a97c50"/><path d="m45.4 397.48h18.52l3.86-7.33v-19.29h-26.23v19.29z" fill="#8b5e3c"/><path d="m52.81 278.28h18.52l3.86-7.34v-19.29h-26.24v19.29z" fill="#8b5e3c"/><path d="m76.07 397.48h25.59l5.33-10.14v-26.65h-36.26v26.65z" fill="#754c29"/><path d="m465.62 444.54h-23.19l-4.83-9.19v-24.15h32.85v24.15z" fill="#8b5e3c"/><path d="m109.36 481.33h-23.19l-4.83-9.18v-24.16h32.85v24.16z" fill="#8b5e3c"/><path d="m392.02 460.82h-23.19l-4.84-9.18v-24.16h32.86v24.16z" fill="#8b5e3c"/><path d="m349.94 460.82h-9.97l-8.51-17.21v-26.29h26.99v26.29z" fill="#754c29"/><path d="m248.62 279.21h14.58v181.61h-14.58z" fill="#754c29"/><path d="m409.66 306.4h14.58v154.42h-14.58z" fill="#754c29"/><path d="m161.13 279.21h14.58v165.33h-14.58z" fill="#754c29"/><path d="m409.01 220.96h14.58v97.36h-14.58z" fill="#754c29"/><path d="m321.53 220.96h14.58v88.63h-14.58z" fill="#754c29"/><path d="m263.2 328.88h174.4v-23l-14-15.69h-160.4z" fill="#2bb673"/><path d="m263.2 253.8h14.58v75.09h-14.58z" fill="#f15a29"/><path d="m292.37 253.8h14.58v75.09h-14.58z" fill="#f15a29"/><path d="m321.53 253.8h14.58v75.09h-14.58z" fill="#f15a29"/><path d="m350.69 253.8h14.58v75.09h-14.58z" fill="#f15a29"/><path d="m379.85 253.8h14.58v75.09h-14.58z" fill="#f15a29"/><path d="m409.01 253.8h14.58v75.09h-14.58z" fill="#f15a29"/><path d="m274.49 372.96h26.86v11.02h-26.86z" fill="#594a42"/><path d="m268.43 361.94h26.86v11.02h-26.86z" fill="#a97c50"/><path d="m228.94 336.07a4.47 4.47 0 0 1 .08.82 4 4 0 1 1 -8 0 4.47 4.47 0 0 1 .08-.82h-21.45v15.07h19a3.81 3.81 0 0 1 -.72-2.2 3.78 3.78 0 1 1 6.83 2.2h7.43v-15.07zm-21.65 11.83a3 3 0 1 1 3-3 3 3 0 0 1 -3 3z" fill="#de9c39"/><path d="m228.34 355.33a2.87 2.87 0 1 1 -5.21 1.71l-4.22 1.39v6.57h26.63v-15.34zm11.13 6.55a2.27 2.27 0 1 1 2.26-2.27 2.27 2.27 0 0 1 -2.26 2.27z" fill="#fbb040"/><path d="m142.54 403.94h50.04v40.6h-50.04z" fill="#8b5e3c"/><path d="m173.42 418.87h49.61v25.67h-49.61z" fill="#754c29"/><path d="m327.39 478.3h50.04v40.6h-50.04z" fill="#8b5e3c"/><path d="m78.6 237.68h50.04v40.6h-50.04z" fill="#8b5e3c"/><path d="m296.94 493.23h49.61v25.67h-49.61z" fill="#754c29"/><path d="m191.41 278.37h2.5v21.41h-2.5z" fill="#8b5e3c"/><path d="m215.57 275.16h2.5v21.41h-2.5z" fill="#8b5e3c"/><path d="m192.66 304.6c-4.56 2.24-7.85 8.76-7.85 16.47s3.29 14.23 7.85 16.46z" fill="#4b8abc"/><path d="m192.66 304.6v32.93c4.55-2.23 7.85-8.76 7.85-16.46s-3.3-14.23-7.85-16.47z" fill="#4ba9bc"/><path d="m187.34 298.71c.14 5 2.33 9.21 5.32 10.67v-10.67z" fill="#4b8abc"/><path d="m198 298.71c-.14 5-2.32 9.21-5.31 10.67v-10.67z" fill="#4b8abc"/><path d="m216.82 293.59c-4.55 2.24-7.85 8.76-7.85 16.46s3.3 14.23 7.85 16.47z" fill="#4b8abc"/><path d="m216.82 293.59v32.93c4.55-2.24 7.85-8.76 7.85-16.47s-3.3-14.22-7.85-16.46z" fill="#4ba9bc"/><path d="m211.5 287.7c.15 5 2.33 9.2 5.32 10.67v-10.67z" fill="#4b8abc"/><path d="m222.14 287.7c-.14 5-2.33 9.2-5.32 10.67v-10.67z" fill="#4b8abc"/><path d="m263.2 253.8h160.39v36.71h-160.39z" fill="#fff" opacity=".2"/><path d="m370.93 372.64a11.85 11.85 0 1 1 -11.84-11.85 11.84 11.84 0 0 1 11.84 11.85z" fill="#39b54a"/><path d="m89.31 326.46a8.52 8.52 0 1 1 -8.52-8.52 8.52 8.52 0 0 1 8.52 8.52z" fill="#ef4136"/><path d="m158.49 324.3a9.12 9.12 0 1 1 -9.12-9.12 9.12 9.12 0 0 1 9.12 9.12z" fill="#ef4136"/><path d="m144.1 322.59a9.12 9.12 0 1 1 -9.11-9.12 9.11 9.11 0 0 1 9.11 9.12z" fill="#ef4136"/><path d="m180 346.83v18.17h7.42a3.74 3.74 0 0 1 -.72-2.2 3.78 3.78 0 1 1 7.55 0 3.74 3.74 0 0 1 -.72 2.2h19v-18.17h-21.39a4.49 4.49 0 0 1 .08.83 4 4 0 0 1 -8 0 3.77 3.77 0 0 1 .09-.83zm22 12a3 3 0 1 1 3 3 3 3 0 0 1 -3-2.99z" fill="#fbb040"/><path d="m146.55 280h131.23v-23.01l-14.58-15.68h-102.07l-14.58 15.68z" fill="#2bb673"/><path d="m146.55 264.42h131.23v-43.92l-14.58-15.69h-102.07l-14.58 15.69z" fill="#2bb673"/><path d="m161.13 204.82h14.58v75.18h-14.58z" fill="#f15a29"/><path d="m190.3 204.82h14.58v75.18h-14.58z" fill="#f15a29"/><path d="m219.46 204.82h14.58v75.18h-14.58z" fill="#f15a29"/><path d="m248.62 204.82h14.58v75.18h-14.58z" fill="#f15a29"/><path d="m277.78 256.99-14.58-15.68v-36.5l14.58 15.69z" fill="#fff" opacity=".3"/><path d="m146.55 256.99 14.58-15.68v-36.5l-14.58 15.69z" fill="#231f20" opacity=".2"/><path d="m161.13 204.59h102.07v36.71h-102.07z" fill="#fff" opacity=".2"/><path d="m306.95 222.03h131.23v-23.01l-14.58-15.68h-102.07l-14.58 15.68z" fill="#2bb673"/><path d="m306.95 206.45h131.23v-43.92l-14.58-15.69h-102.07l-14.58 15.69z" fill="#2bb673"/><path d="m321.53 146.84h14.58v75.18h-14.58z" fill="#f15a29"/><path d="m350.69 146.84h14.58v75.18h-14.58z" fill="#f15a29"/><path d="m379.85 146.84h14.58v75.18h-14.58z" fill="#f15a29"/><path d="m409.01 146.84h14.58v75.18h-14.58z" fill="#f15a29"/><path d="m438.18 199.02-14.58-15.68v-36.5l14.58 15.69z" fill="#fff" opacity=".3"/><path d="m306.95 199.02 14.58-15.68v-36.5l-14.58 15.69z" fill="#231f20" opacity=".2"/><path d="m321.53 146.62h102.07v36.71h-102.07z" fill="#fff" opacity=".2"/></svg>