<svg viewBox="0 0 512 640" xmlns="http://www.w3.org/2000/svg"><ellipse cx="255.52" cy="431.1" fill="#231f20" opacity=".15" rx="178.65" ry="58.05"/><path d="m123.22 109.1-45.45 66.71v30.29h90.9v-30.29z" fill="#be1e2d"/><path d="m77.77 206.1h90.9v225h-90.9z" fill="#a69680"/><path d="m168.23 206.1h-90.83l45.41-97z" fill="#ef4136"/><path d="m138.25 259.2h-30.87l15.43-19.73z" fill="#58595b"/><path d="m168.67 296.1h175.5v135h-175.5z" fill="#9c896f"/><path d="m168.67 265.5h175.5v52.2h-175.5z" fill="#ef4136"/><path d="m107.47 259.2h30.6v42.3h-30.6z" fill="#58595b"/><path d="m205.57 344.04-9 10.77v30.39h18v-30.39z" fill="#58595b"/><path d="m253.27 344.04-9 10.77v30.39h18v-30.39z" fill="#58595b"/><path d="m301.87 344.04-9 10.77v30.39h18v-30.39z" fill="#58595b"/><g fill="#9c896f"><path d="m77.77 397.8h46.8v4.5h-46.8z"/><path d="m110.17 380.7h4.5v21.6h-4.5z"/><path d="m93.97 400.5h4.5v11.7h-4.5z"/><path d="m132.67 306h35.1v4.5h-35.1z"/><path d="m141.67 310.5h4.5v11.7h-4.5z"/><path d="m153.37 294.3h4.5v11.7h-4.5z"/><path d="m77.77 216h46.8v4.5h-46.8z"/><path d="m99.37 216h4.5v13.5h-4.5z"/><path d="m84.07 206.1h4.5v11.7h-4.5z"/><path d="m111.07 206.1h4.5v11.7h-4.5z"/></g><path d="m388.72 109.1-45.45 66.71v30.29h90.9v-30.29z" fill="#be1e2d"/><path d="m343.27 206.1h90.9v225h-90.9z" fill="#a69680"/><path d="m434.54 206.1h-90.83l45.42-97z" fill="#ef4136"/><path d="m404.56 259.2h-30.87l15.44-19.73z" fill="#58595b"/><path d="m373.87 259.2h30.6v42.3h-30.6z" fill="#58595b"/><path d="m344.17 397.8h46.8v4.5h-46.8z" fill="#9c896f"/><path d="m376.57 380.7h4.5v21.6h-4.5z" fill="#9c896f"/><path d="m360.37 400.5h4.5v11.7h-4.5z" fill="#9c896f"/><path d="m399.07 306h35.1v4.5h-35.1z" fill="#9c896f"/><path d="m408.07 310.5h4.5v11.7h-4.5z" fill="#9c896f"/><path d="m419.77 294.3h4.5v11.7h-4.5z" fill="#9c896f"/><path d="m344.17 216h46.8v4.5h-46.8z" fill="#9c896f"/><path d="m365.77 216h4.5v13.5h-4.5z" fill="#9c896f"/><path d="m350.47 206.1h4.5v11.7h-4.5z" fill="#9c896f"/><path d="m376.57 206.1h4.5v11.7h-4.5z" fill="#9c896f"/></svg>