<svg viewBox="0 0 512 640" xmlns="http://www.w3.org/2000/svg"><path d="m447.29 391.16c0-25.77-85.64-46.65-191.29-46.65s-191.29 20.88-191.29 46.65c0 6 4.67 11.77 13.17 17a13.54 13.54 0 0 0 -1.32 5.73c0 14.1 23.76 26.74 61.33 35.3 14 19.88 61.56 34.53 118.11 34.53 57.7 0 106.06-15.25 118.93-35.76 34.56-8.51 56.16-20.63 56.16-34.07a13.13 13.13 0 0 0 -.54-3.66c10.76-5.78 16.74-12.23 16.74-19.07z" fill="#231f20" opacity=".15"/><path d="m442.74 381.12.36-9.05-4 1.58-1.03-19.42-7.23 8.51-2.18-8.62-7.23 3.77-2.24-18.13-5.4-8.4-8.02 4.31-2.37-5.1-3.27-4.81.12-12.71-7.77 2.58-2.82-4.6-10.11-11.56-2.73 10.99-13.11-9.05-5.83-12.06-30.17 20.29-3.32-10.17-2.73 10.99-13.12-9.05-5.82-12.06-24.82 16.69-1.78-4.84-3.33 8.28-.18.12-5.6-25.42-2.73 4.74-10.93-12.5 2.73 31.24-3.82-6.46-3.55 6.4-.99-2.96-2.26.85-5.04-6.23-6.55 7.32-4.19-9.04-7.89 5.92-.84-2.26-1.11 2.77-3.82-6.87-1 1.5-3.17-14.42-2.73 4.74-10.93-12.5 1.96 22.46-2.11 3.91-.94-1.59-1.22 2.19-6.99-4.13-1.55 2.57-2.08-2.57-6.56 7.32-4.18-9.04-9.47 7.1-4.19-7.54-4.74 7.11-3.82-7.11-2.37 6.47-3.28-7.76-4.55 8.4-22.59.82-3.45 15.34-15.48-6.46-1.89 17.82-6.3 14.71-8.75 2.85-1.27 19.34-6.37 12.49-6.74-2.15-4.55 12.46h55.16 270.38 55.16l1.88-8.86z" fill="#456b4d"/><path d="m78.88 418.2h352.21l2.03-8.24-4.92-1.34.39-8.42-5.44-16.61-7.82 7.92-2.37-8.01-10.24-13.37-5.78 3.48-.07-11.29-8.67 4-2.56-4.74-3.54-4.48.13-11.82-11.46-1.88-5.22 4.29-5.72-15.04-2.95 10.22-14.19-8.41-6.3-11.23-40.2 23.25-1.18-2.8-5.32 6.61 3.75.6-11.04.8-5.52-14.23-24.23 7.82-4.73-11.03-3.74 8.02-6.11-23.85-2.95 4.41-11.83-11.62 2.96 29.06-4.14-6.02-4.53 7.02-8.27-8.82-7.1 6.82-4.53-8.42-10.24 6.61-4.54-7.01-5.12 6.61-4.14-6.61-2.56 6.01-3.54-7.21-13.99 3.2-6.9 9.82-8.48-4.45-3.73 14.27-16.75-6.01-2.05 16.58-6.09 1.59-.73 12.1-9.46 2.65-6.89 15.79-1.38 13.83-7.29-2.01z" fill="#4c8c59"/><path d="m186.16 241.49h143.64v159.07h-143.64z" fill="#58595b"/><g fill="#e6e7e8"><path d="m170.77 241.49h30.79v159.07h-30.79z"/><path d="m240.6 241.49h30.79v159.07h-30.79z"/><path d="m314.4 241.49h30.79v159.07h-30.79z"/></g><path d="m153.92 231.82h204.16v15.31h-204.16z" fill="#d1d3d4"/><path d="m153.92 213.95h204.16v17.88h-204.16z" fill="#e6e7e8"/><path d="m154.38 400.56h203.23v24.36h-203.23z" fill="#d1d3d4"/><path d="m144.39 412.75h223.23v12.18h-223.23z" fill="#e6e7e8"/><path d="m133.71 424.93h244.58v12.18h-244.58z" fill="#d1d3d4"/><path d="m358.5 213.95h-204.58l102.29-93.58z" fill="#e6e7e8"/><path d="m312.22 196.18h-112.03l56.02-51.24z" fill="#d1d3d4"/><path d="m358.08 181.17-101.87-93.58v32.78l101.87 93.58z" fill="#f1f2f2"/><path d="m154.34 181.17 101.87-93.58v32.78l-101.87 93.58z" fill="#d1d3d4"/></svg>