<svg viewBox="0 0 512 640" xmlns="http://www.w3.org/2000/svg"><path d="m136.39 430.59h64.44v60.4h-64.44z" fill="#adcc33"/><path d="m168.6 461.09a10.72 10.72 0 0 0 -10.72-10.73v10.73a10.73 10.73 0 0 0 21.45 0v-10.73a10.73 10.73 0 0 0 -10.73 10.73" fill="#72ab44"/><path d="m136.39 303.57h64.44v103.92h-64.44z" fill="#adcc33"/><path d="m168.6 376.67a10.73 10.73 0 0 0 -10.72-10.73v10.73a10.73 10.73 0 1 0 21.45 0v-10.73a10.74 10.74 0 0 0 -10.73 10.73" fill="#72ab44"/><path d="m168.6 334.47a10.72 10.72 0 0 0 -10.72-10.73v10.73a10.73 10.73 0 1 0 21.45 0v-10.73a10.73 10.73 0 0 0 -10.73 10.73" fill="#72ab44"/><path d="m398.57 215.62h64.44v275.36h-64.44z" fill="#adcc33"/><path d="m430.46 461.09a10.73 10.73 0 0 0 -10.73-10.73v10.73a10.73 10.73 0 0 0 21.45 0v-10.73a10.72 10.72 0 0 0 -10.72 10.73" fill="#72ab44"/><path d="m430.46 418.88a10.73 10.73 0 0 0 -10.73-10.73v10.73a10.73 10.73 0 1 0 21.45 0v-10.73a10.72 10.72 0 0 0 -10.72 10.73" fill="#72ab44"/><path d="m430.46 376.67a10.74 10.74 0 0 0 -10.73-10.73v10.73a10.73 10.73 0 1 0 21.45 0v-10.73a10.73 10.73 0 0 0 -10.72 10.73" fill="#72ab44"/><path d="m430.46 334.47a10.73 10.73 0 0 0 -10.73-10.73v10.73a10.73 10.73 0 1 0 21.45 0v-10.73a10.72 10.72 0 0 0 -10.72 10.73" fill="#72ab44"/><path d="m430.46 292.26a10.74 10.74 0 0 0 -10.73-10.73v10.73a10.73 10.73 0 1 0 21.45 0v-10.73a10.73 10.73 0 0 0 -10.72 10.73" fill="#72ab44"/><path d="m430.46 250.06a10.73 10.73 0 0 0 -10.73-10.73v10.73a10.73 10.73 0 0 0 21.45 0v-10.73a10.72 10.72 0 0 0 -10.72 10.73" fill="#72ab44"/><path d="m311.18 303.58h64.44v187.41h-64.44z" fill="#adcc33"/><path d="m343.4 461.09a10.73 10.73 0 0 0 -10.73-10.73v10.73a10.73 10.73 0 0 0 21.45 0v-10.73a10.72 10.72 0 0 0 -10.72 10.73" fill="#72ab44"/><path d="m343.4 418.88a10.73 10.73 0 0 0 -10.73-10.73v10.73a10.73 10.73 0 1 0 21.45 0v-10.73a10.72 10.72 0 0 0 -10.72 10.73" fill="#72ab44"/><path d="m343.4 376.67a10.74 10.74 0 0 0 -10.73-10.73v10.73a10.73 10.73 0 1 0 21.45 0v-10.73a10.73 10.73 0 0 0 -10.72 10.73" fill="#72ab44"/><path d="m343.4 334.47a10.73 10.73 0 0 0 -10.73-10.73v10.73a10.73 10.73 0 1 0 21.45 0v-10.73a10.72 10.72 0 0 0 -10.72 10.73" fill="#72ab44"/><path d="m48.99 215.62h64.44v275.36h-64.44z" fill="#adcc33"/><path d="m81.21 461.09a10.72 10.72 0 0 0 -10.73-10.73v10.73a10.73 10.73 0 0 0 21.46 0v-10.73a10.72 10.72 0 0 0 -10.73 10.73" fill="#72ab44"/><path d="m81.21 418.88a10.72 10.72 0 0 0 -10.73-10.73v10.73a10.73 10.73 0 0 0 21.46 0v-10.73a10.72 10.72 0 0 0 -10.73 10.73" fill="#72ab44"/><path d="m81.21 376.67a10.73 10.73 0 0 0 -10.73-10.73v10.73a10.73 10.73 0 0 0 21.46 0v-10.73a10.73 10.73 0 0 0 -10.73 10.73" fill="#72ab44"/><path d="m81.21 334.47a10.72 10.72 0 0 0 -10.73-10.73v10.73a10.73 10.73 0 0 0 21.46 0v-10.73a10.72 10.72 0 0 0 -10.73 10.73" fill="#72ab44"/><path d="m81.21 292.26a10.73 10.73 0 0 0 -10.73-10.73v10.73a10.73 10.73 0 0 0 21.46 0v-10.73a10.73 10.73 0 0 0 -10.73 10.73" fill="#72ab44"/><path d="m81.21 250.06a10.72 10.72 0 0 0 -10.73-10.73v10.73a10.73 10.73 0 0 0 21.46 0v-10.73a10.72 10.72 0 0 0 -10.73 10.73" fill="#72ab44"/><path d="m90.93 195.88h7.56l4.84-6.77v-17.82h-17.23v17.82z" fill="#754c29"/><path d="m103.4 195.88h6.17l3.86-6.75v-12.79h-13.88v12.79z" fill="#a97c50"/><ellipse cx="256" cy="264.36" fill="#231f20" opacity=".15" rx="119.61" ry="27.62"/><path d="m303.9 197.41h71.72v68.09h-71.72z" fill="#fc6"/><path d="m303.9 184.37h71.72v13.04h-71.72z" fill="#bd974b"/><path d="m303.9 197.41h20.53v10.97h-20.53z" fill="#e6ac39"/><path d="m314.16 208.39h20.53v10.97h-20.53z" fill="#e6ac39"/><path d="m354.94 241.31h20.53v10.97h-20.53z" fill="#e6ac39"/><path d="m340.75 213.87h17.08v21.95h-17.08z" fill="#58595b"/><path d="m358.68 170.28h12.13v14.09h-12.13z" fill="#754c29"/><path d="m349.29 175.06h9.39v9.31h-9.39z" fill="#a97c50"/><path d="m303.9 155.03h71.72v29.34h-71.72z" fill="#d4a954"/><path d="m136.39 197.41h71.72v68.09h-71.72z" fill="#fc6"/><path d="m136.39 184.37h71.72v13.04h-71.72z" fill="#bd974b"/><path d="m163.41 241.31h20.53v10.97h-20.53z" fill="#e6ac39"/><path d="m154.02 213.87h17.08v21.95h-17.08z" fill="#58595b"/><path d="m167.14 170.28h12.13v14.09h-12.13z" fill="#754c29"/><path d="m157.75 175.06h9.39v9.31h-9.39z" fill="#a97c50"/><path d="m136.39 155.03h71.72v29.34h-71.72z" fill="#d4a954"/><path d="m208.15 134.54h95.74v130.97h-95.74z" fill="#fc6"/><path d="m208.15 121.87h95.74v13.04h-95.74z" fill="#bd974b"/><path d="m242.92 216.46h26.76v13.04h-26.76z" fill="#bd974b"/><g fill="#e6ac39"><path d="m283.37 154.67h20.53v10.97h-20.53z"/><path d="m273.11 165.64h20.53v10.97h-20.53z"/><path d="m208.15 197.41h20.53v10.97h-20.53z"/><path d="m283.37 243.56h20.53v10.97h-20.53z"/><path d="m228.68 134.92h20.53v10.97h-20.53z"/><path d="m208.15 243.56h10.26v10.97h-10.26z"/><path d="m208.15 208.39h10.26v10.97h-10.26z"/></g><path d="m228.68 154.67h17.08v21.95h-17.08z" fill="#58595b"/><path d="m242.92 229.5h26.21v36h-26.21z" fill="#58595b"/><path d="m266.29 154.67h17.08v21.95h-17.08z" fill="#58595b"/><path d="m208.15 92.54h95.74v29.34h-95.74z" fill="#d4a954"/><path d="m174.79 269.2h-12.52l-2.61-4.96v-13.04h17.74v13.04z" fill="#754c29"/><path d="m342.74 270.69h-11.48l-3.13-6.07v-18.13h17.74v18.13z" fill="#a97c50"/><path d="m363.57 270.69h-11.48l-3.13-6.07v-18.13h17.74v18.13z" fill="#a97c50"/><path d="m158.41 270.57h-8.52l-5.33-9.33v-17.68h19.18v17.68z" fill="#a97c50"/></svg>