<svg viewBox="0 0 512 640" xmlns="http://www.w3.org/2000/svg"><ellipse cx="256.03" cy="446.79" fill="#231f20" opacity=".15" rx="220.23" ry="74.45"/><path d="m256.9 446.79h219.36v-118.2l-220.21-211.25z" fill="#fd9"/><path d="m256.05 117.34-220.26 211.25v118.2h221.11z" fill="#e6ac39"/><path d="m256 117.34-220.26 329.45h440.52z" fill="#fc6"/><path d="m256 117.34-49.73 74.38h99.46z" fill="#f26522"/><path d="m256.05 117.34 49.28 74.38.4-20.59z" fill="#f26522" opacity=".6"/><path d="m197.4 335.16h117.2v24.49h-117.2z" fill="#bd974b"/><path d="m214.95 359.65h20.99v87.14h-20.99z" fill="#bd974b"/><path d="m276.17 359.65h20.99v87.14h-20.99z" fill="#bd974b"/><path d="m235.94 359.65h40.23v87.14h-40.23z" fill="#58595b"/><g fill="#e6ac39"><path d="m197.4 249.7h38.54v20.6h-38.54z"/><path d="m216.67 229.1h38.54v20.6h-38.54z"/><path d="m255.2 191.72h38.54v18.13h-38.54z"/><path d="m97.24 426.19h38.54v20.6h-38.54z"/><path d="m135.78 384.98h38.54v20.6h-38.54z"/><path d="m256.9 293.95h38.54v20.6h-38.54z"/><path d="m97.24 405.58h-33.95l13.77-20.6h20.18z"/><path d="m116.51 384.98h-39.45l13.78-20.6h25.67z"/><path d="m341.06 426.19h38.54v20.6h-38.54z"/><path d="m360.33 405.58h38.54v20.6h-38.54z"/></g><path d="m255.98 117.34-49.28 74.38v-20.47z" fill="#f26522" opacity=".6"/><path d="m77.06 368.14-13.77 17.73v19.71l13.77-20.41z" fill="#bd974b"/><path d="m90.84 286.8-13.78 14.51v28.31l13.78-20.42z" fill="#bd974b"/><path d="m153.23 235.18-13.77 18.26v21.87l13.77-19.34z" fill="#bd974b"/><path d="m103.67 263.56-13.77 13.44v19.71l13.77-17.73z" fill="#bd974b"/><path d="m436.74 370.56 13.77 17.73v19.72l-13.77-20.42z" fill="#fc6"/><path d="m422.96 289.22 13.78 14.51v28.31l-13.78-20.41z" fill="#fc6"/><path d="m360.56 237.6 13.78 18.27v21.86l-13.78-19.34z" fill="#fc6"/><path d="m410.12 265.99 13.78 13.43v19.71l-13.78-17.73z" fill="#fc6"/></svg>