<svg viewBox="0 0 512 640" xmlns="http://www.w3.org/2000/svg"><g fill="#231f20" opacity=".15"><ellipse cx="159.56" cy="261.67" rx="91.12" ry="32.85"/><path d="m461.76 282.38c0 5.87-17.55 11-39.19 11s-39.19-7.48-39.19-11c0-15.44 17.54-28 39.19-28s39.19 12.56 39.19 28z"/><ellipse cx="264.18" cy="361.06" rx="145.14" ry="50.73"/><ellipse cx="114.19" cy="422.49" rx="63.95" ry="20.35"/><ellipse cx="189.25" cy="459.8" rx="55.58" ry="24.43"/><ellipse cx="250.67" cy="472.86" rx="35.2" ry="16.59"/><ellipse cx="413.66" cy="370.51" rx="43.17" ry="13.64"/></g><path d="m138.83 260.01h-70.39l12.28-44.09 33.55 22.28z" fill="#b3b3b3"/><path d="m120.59 219.78 18.24 40.23-24.56-21.81-33.55-22.28z" fill="#ccc"/><path d="m101.99 260.01h-33.55l6.99-25.08z" fill="#a6a6a6"/><path d="m260.02 277.21h-146.86l19.87-65.14 75.75-14.21z" fill="#b3b3b3"/><path d="m210.03 182.54 49.99 94.67-63.48-64.81-63.51-.33 23.67-29.53z" fill="#ccc"/><path d="m193.57 277.21h-80.41l10.63-34.84z" fill="#a6a6a6"/><path d="m307.99 152.36h10.98v113.17h-10.98z" fill="#754c29"/><path d="m361.42 152.36h10.98v113.17h-10.98z" fill="#754c29"/><path d="m334.71 114.67h10.98v64.41h-10.98z" fill="#754c29" transform="matrix(0 1 -1 0 487.07 -193.32)"/><path d="m325.58 94.57h29.23v64.41h-29.23z" fill="#997645" transform="matrix(0 1 -1 0 466.96 -213.42)"/><path d="m318.97 170.91h42.45v4.55h-42.45z" fill="#754c29"/><path d="m318.97 193.86h42.45v4.55h-42.45z" fill="#754c29"/><path d="m318.97 216.82h42.45v4.55h-42.45z" fill="#754c29"/><path d="m318.97 239.77h42.45v4.55h-42.45z" fill="#754c29"/><path d="m207.44 162.02h65.81v28.16h-65.81z" fill="#997645"/><path d="m207.44 190.02h65.81v4.89h-65.81z" fill="#754c29"/><path d="m213.84 168.28h19.55v15.64h-19.55z" fill="#a6a6a6"/><path d="m213.84 168.28h19.55v9.9h-19.55z" fill="#ccc"/><path d="m236.49 157.59h19.55v15.64h-19.55z" fill="#a6a6a6"/><path d="m236.49 157.59h19.55v9.9h-19.55z" fill="#ccc"/><path d="m246.26 170.36h19.55v15.64h-19.55z" fill="#a6a6a6"/><path d="m246.26 170.36h19.55v9.9h-19.55z" fill="#ccc"/><path d="m244.15 119.94h-4.67l-32.04 42.07h4.67z" fill="#c2b59b"/><path d="m239.48 119.94h4.67l29.1 42.07h-4.67z" fill="#c2b59b"/><path d="m244.15 119.94h-4.67l-32.04 70.24h4.67z" fill="#c2b59b"/><path d="m239.48 119.94h4.67l29.1 70.24h-4.67z" fill="#c2b59b"/><path d="m239.48 79.34h4.67v40.61h-4.67z" fill="#c2b59b"/><path d="m361.42 112.78h-42.42l9.12-29.11a12.68 12.68 0 0 1 12.1-8.89 12.67 12.67 0 0 1 12.1 8.89z" fill="#997645"/><path d="m361.42 118.43h-42.42l9.12-29.11a12.68 12.68 0 0 1 12.1-8.89 12.67 12.67 0 0 1 12.1 8.89z" fill="#754c29"/><path d="m225.29 87.05h198.26v19.11h-198.26z" fill="#754c29" transform="matrix(.97050647 .24107506 -.24107506 .97050647 32.85 -75.34)"/><path d="m361.42 128.3h-42.42l9.12-29.11a12.68 12.68 0 0 1 12.1-8.89 12.67 12.67 0 0 1 12.1 8.89z" fill="#997645"/><path d="m361.42 134h-42.42l9.12-29.12a12.68 12.68 0 0 1 12.1-8.89 12.67 12.67 0 0 1 12.1 8.89z" fill="#754c29"/><circle cx="340.19" cy="107.82" fill="#997645" r="5.81"/><path d="m405.12 230.15h35.88v28.7h-35.88z" fill="#a6a6a6"/><path d="m405.12 230.15h35.88v18.17h-35.88z" fill="#ccc"/><path d="m405.12 216.19h35.88v28.7h-35.88z" fill="#a6a6a6"/><path d="m405.12 216.19h35.88v18.17h-35.88z" fill="#ccc"/><path d="m405.12 201.83h35.88v28.7h-35.88z" fill="#a6a6a6"/><path d="m405.12 201.83h35.88v18.17h-35.88z" fill="#ccc"/><path d="m383.38 253.68h35.88v28.7h-35.88z" fill="#a6a6a6"/><path d="m383.38 253.68h35.88v18.17h-35.88z" fill="#ccc"/><path d="m383.38 239.72h35.88v28.7h-35.88z" fill="#a6a6a6"/><path d="m383.38 239.72h35.88v18.17h-35.88z" fill="#ccc"/><path d="m383.38 225.37h35.88v28.7h-35.88z" fill="#a6a6a6"/><path d="m383.38 225.37h35.88v18.17h-35.88z" fill="#ccc"/><path d="m425.88 253.68h35.88v28.7h-35.88z" fill="#a6a6a6"/><path d="m425.88 253.68h35.88v18.17h-35.88z" fill="#ccc"/><path d="m425.88 239.72h35.88v28.7h-35.88z" fill="#a6a6a6"/><path d="m425.88 239.72h35.88v18.17h-35.88z" fill="#ccc"/><path d="m425.88 225.37h35.88v28.7h-35.88z" fill="#a6a6a6"/><path d="m425.88 225.37h35.88v18.17h-35.88z" fill="#ccc"/><path d="m276.53 299.63-83.39-2.34-63.77 27.19 30.47-66.05 68.84-30.69h60.49l85.35 9.79-15.15 15.85z" fill="#ccc"/><path d="m219.33 377.3-26.19-80.01-63.77 27.19-10.34 30.87z" fill="#999"/><path d="m359.37 253.38 9.95 103.46-47.43 20.46-45.36-77.67z" fill="#b3b3b3"/><path d="m219.33 377.3h69.03l-11.83-77.67-83.39-2.34" fill="#a6a6a6"/><path d="m369.32 356.84 40-21.4-34.8-97.91-15.15 15.85-18.45 10.3 21.27 19.03z" fill="#ccc"/><g fill="#b3b3b3"><path d="m321.89 377.3 2.74-104.53-48.1 26.86 11.83 77.67z"/><path d="m200.21 284.67-16.57-20.54 31.63 5.64 46.7 15.11z"/><path d="m310.5 243.48 43.91-2.77-43.66 22.63-17.2-8.92z"/><path d="m159.84 258.43-30.47 66.05 63.77-27.19z"/><path d="m164.89 423.27h-114.65l20-58.02 54.65 22.5z"/></g><path d="m135.17 365.25 29.72 58.02-40-35.52-54.65-22.5z" fill="#ccc"/><path d="m104.88 423.27h-54.64l20-58.02z" fill="#a6a6a6"/><path d="m366.11 398.26h-70.4l12.28-34.1 33.55 12.28z" fill="#b3b3b3"/><path d="m347.86 358.02 18.25 40.24-24.57-21.82-33.55-12.28z" fill="#ccc"/><path d="m329.26 398.26h-33.55l12.28-34.1z" fill="#a6a6a6"/><path d="m456.83 370.51h-86.33l15.06-60.19 41.15 3.31z" fill="#b3b3b3"/><path d="m408.69 294.52 25.12 9.59 23.02 66.4-37.31-46.45-33.96-13.74z" fill="#ccc"/><path d="m417.77 370.51h-47.27l6.25-24.97z" fill="#a6a6a6"/><path d="m248.32 459.55h-114.65l20-95.53 54.65 20z" fill="#b3b3b3"/><path d="m196.53 358.02 28.06 12.49 23.73 89.04-40-75.53-54.65-20z" fill="#ccc"/><path d="m188.31 459.55h-54.64l13.99-66.8z" fill="#a6a6a6"/><path d="m285.87 472.67h-70.39l12.28-34.1 33.55 12.29z" fill="#b3b3b3"/><path d="m267.63 432.44 18.24 40.23-24.56-21.81-33.55-12.29z" fill="#ccc"/><path d="m249.02 472.67h-33.54l12.28-34.1z" fill="#a6a6a6"/><ellipse cx="369.65" cy="417.1" fill="#231f20" opacity=".15" rx="18.69" ry="10.58"/><ellipse cx="431.64" cy="421.47" fill="#231f20" opacity=".15" rx="18.69" ry="10.58"/><ellipse cx="412.95" cy="396.66" fill="#231f20" opacity=".15" rx="18.69" ry="10.58"/><path d="m350.96 387.59h37.38v29.91h-37.38z" fill="#a6a6a6"/><path d="m350.96 387.59h37.38v18.93h-37.38z" fill="#ccc"/><path d="m394.26 367.15h37.38v29.91h-37.38z" fill="#a6a6a6"/><path d="m394.26 367.15h37.38v18.93h-37.38z" fill="#ccc"/><path d="m412.95 391.57h37.38v29.91h-37.38z" fill="#a6a6a6"/><path d="m412.95 391.57h37.38v18.93h-37.38z" fill="#ccc"/><path d="m100.81 266.05h47.08v7.44h-47.08z" fill="#754c29" transform="matrix(.89993862 -.43601661 .43601661 .89993862 -105.18 81.21)"/><path d="m141.9 260.31c-3.91-8.07-15.76-12-15.76-12l-1.51.73 1.44 3s7.18 8.2 10.12 12.93c1.89 5.23 3.87 16 3.87 16l1.44 3 1.52-.73s4.52-11.14.32-19.82z" fill="#a6a6a6"/><path d="m141.58 280.13-1.52.74s-2.45-13.27-4.5-17.49-10.93-14.38-10.93-14.38l1.51-.73s11.85 4 15.76 12c4.21 8.73-.32 19.86-.32 19.86z" fill="#ccc"/><ellipse cx="103.26" cy="279.98" fill="#997645" rx="1.78" ry="3.72" transform="matrix(.89993862 -.43601661 .43601661 .89993862 -111.74 73.04)"/><ellipse cx="145.53" cy="259.5" fill="#754c29" rx="1.78" ry="3.72" transform="matrix(.89993862 -.43601661 .43601661 .89993862 -98.58 89.42)"/></svg>