<svg viewBox="0 0 512 640" xmlns="http://www.w3.org/2000/svg"><path d="m140.26 260.62c-34.1 0-64.41 3.84-83.65 9.8a31.36 31.36 0 0 0 -5-.38c-8.77 0-15.88 3.48-15.88 7.77a4.55 4.55 0 0 0 1.27 2.94 7.6 7.6 0 0 0 -2 4.83c0 13.79 47.12 29.87 105.26 29.87s105.27-16.08 105.27-29.87-47.13-24.96-105.27-24.96z" fill="#231f20" opacity=".15"/><path d="m50.95 274.71h-12.08l-2.52-4.79v-12.59h17.12v12.59z" fill="#754c29"/><path d="m140.2 202.71h92.43v86.43h-92.43z" fill="#fc6"/><path d="m47.72 223.4h92.43v65.74h-92.43z" fill="#fc6"/><path d="m140.2 190.48h92.43v12.59h-92.43z" fill="#bd974b"/><path d="m173.76 241.79h25.84v12.59h-25.84z" fill="#bd974b"/><path d="m47.72 210.81h92.43v12.59h-92.43z" fill="#bd974b"/><g fill="#e6ac39"><path d="m47.72 223.4h19.82v10.59h-19.82z"/><path d="m57.63 234h19.82v10.59h-19.82z"/><path d="m97 265.78h19.82v10.59h-19.82z"/><path d="m140.2 223.4h19.82v10.59h-19.82z"/><path d="m212.81 267.95h19.82v10.59h-19.82z"/><path d="m140.2 267.95h9.91v10.59h-9.91z"/><path d="m140.2 234h9.91v10.59h-9.91z"/></g><path d="m83.3 239.3h16.49v21.19h-16.49z" fill="#58595b"/><path d="m173.76 254.38h25.3v34.76h-25.3z" fill="#58595b"/><path d="m240.13 289.14h-11.09l-3.02-5.86v-17.5h17.13v17.5z" fill="#a97c50"/><path d="m127.03 305.3h8.77l5.61-7.86v-20.67h-19.98v20.67z" fill="#754c29"/><path d="m141.49 305.3h7.16l4.47-7.83v-14.84h-16.1v14.84z" fill="#a97c50"/><path d="m56.15 289.03h-8.24l-5.14-9.01v-17.06h18.52v17.06z" fill="#a97c50"/><path d="m100.61 197.21h11.71v13.6h-11.71z" fill="#754c29"/><path d="m91.54 201.82h9.07v8.99h-9.07z" fill="#a97c50"/><path d="m140.2 162.16h92.43v28.32h-92.43z" fill="#d4a954"/><path d="m47.72 182.49h92.43v28.32h-92.43z" fill="#d4a954"/><path d="m458.81 388.42a30.27 30.27 0 0 0 -5 .41c-8.65-3-30.17-3.72-40.23-4.95-20.64-2.5-55.13-10-82.57-10-42.8 0-77.5 10.43-77.5 23.3s34.7 23.29 77.5 23.29c32.68 0 61.9-11 82.57-14.41 8.15-1.35 24.27-1.13 32.9-3a24.36 24.36 0 0 0 12.29 3c9.07 0 16.42-4 16.42-8.81s-7.31-8.83-16.38-8.83z" fill="#231f20" opacity=".15"/><path d="m448.19 304.11h6.25v78.06h-6.25z" fill="#754c29"/><path d="m265.92 314.68h99.4v81.97h-99.4z" fill="#fc6"/><path d="m265.92 312.41h99.4v13.54h-99.4z" fill="#bd974b"/><path d="m301.44 345.73h27.79v13.54h-27.79z" fill="#bd974b"/><path d="m344.01 325.96h21.31v11.39h-21.31z" fill="#e6ac39"/><path d="m265.92 325.87h21.31v11.39h-21.31z" fill="#e6ac39"/><path d="m354.66 373.86h10.66v11.39h-10.66z" fill="#e6ac39"/><path d="m354.66 337.35h10.66v11.39h-10.66z" fill="#e6ac39"/><path d="m302.01 359.27h27.21v37.38h-27.21z" fill="#58595b"/><path d="m257.46 396.65h15.02l4.09-7.94v-23.72h-23.21v23.72z" fill="#8b5e3c"/><path d="m456.15 396.65h17.26l3.59-6.84v-17.97h-24.44v17.97z" fill="#754c29"/><path d="m445.44 396.49h11.75l7.35-12.86v-24.36h-26.44v24.36z" fill="#a97c50"/><path d="m265.92 281.96h99.4v30.46h-99.4z" fill="#d4a954"/><path d="m128.89 408.17c2.36 0 4.68 0 6.94.12 8.23-6.08 22.94-10.14 39.72-10.14 25.77 0 46.67 9.56 46.67 21.35s-20.9 21.34-46.67 21.34c-16.78 0-31.49-4-39.72-10.14-2.26.08-4.58.13-6.94.13-25.78 0-66.67-1.87-66.67-11.33 0-10.7 40.89-11.33 66.67-11.33z" fill="#231f20" opacity=".15"/><path d="m63.5 376.82h6.34v42.89h-6.34z" fill="#754c29"/><path d="m448.19 337.35s-19.32-2.16-41.43-2.16c-20.11 0-41.44 2.16-41.44 2.16s6.13-7.48 6.37-17.35c.2-7.94-6.37-15.89-6.37-15.89s15.55 1.7 40.21 1.85a425.68 425.68 0 0 0 42.66-1.85 31.83 31.83 0 0 0 -4.66 16.62 33.78 33.78 0 0 0 4.66 16.62z" fill="#bd974b"/><path d="m122.89 400.41s-3.84-1.54-25.58-1.54c-19.77 0-27.48 1.54-27.48 1.54s4.37-9.93 4.37-13.28c0-2.55-4.37-10.31-4.37-10.31s2 1.2 26.28 1.31c23.37.11 26.78-1.31 26.78-1.31a18.61 18.61 0 0 0 -4.59 11.79c0 6.66 4.59 11.8 4.59 11.8z" fill="#bd974b"/><path d="m448.19 304.11h6.25v2.47h-6.25z" fill="#bd974b"/><path d="m448.19 334.88h6.25v2.47h-6.25z" fill="#bd974b"/><path d="m63.54 376.82h6.25v2.47h-6.25z" fill="#bd974b"/><path d="m63.54 397.94h6.25v2.47h-6.25z" fill="#bd974b"/><path d="m122.89 376.82h6.34v42.89h-6.34z" fill="#754c29"/><path d="m122.93 376.82h6.25v2.47h-6.25z" fill="#bd974b"/><path d="m122.93 397.94h6.25v2.47h-6.25z" fill="#bd974b"/><path d="m139.51 360.41h6.34v59.3h-6.34z" fill="#754c29"/><path d="m212.71 396.28s-4.84-2.86-32.24-2.86c-24.91 0-34.62 2.86-34.62 2.86s3-2.76 5.51-16.69c1.76-9.63-5.51-19.18-5.51-19.18s2.56 2.24 33.11 2.45c29.46.19 33.75-2.45 33.75-2.45a43.86 43.86 0 0 0 -5.78 21.93c0 12.39 5.78 13.94 5.78 13.94z" fill="#bd974b"/><path d="m139.56 360.41h6.25v2.47h-6.25z" fill="#bd974b"/><path d="m139.56 393.81h6.25v2.47h-6.25z" fill="#bd974b"/><path d="m212.71 360.41h6.34v59.3h-6.34z" fill="#754c29"/><path d="m212.75 360.41h6.25v2.47h-6.25z" fill="#bd974b"/><path d="m212.75 393.81h6.25v2.47h-6.25z" fill="#bd974b"/><path d="m156.78 381.51 1.96-8.14-3.26-6.19 33.88 1.79-25.25 3.74z" fill="#d4a954"/><path d="m78.82 392.95 1.57-6.53-2.61-4.98 27.2 1.44-20.27 3.01z" fill="#d4a954"/><path d="m377.8 324.01 1.87-7.79-3.12-5.92 32.4 1.71-24.14 3.59z" fill="#d4a954"/><path d="m178.03 418.55h-12.09l-2.52-4.79v-12.59h17.12v12.59z" fill="#754c29"/><path d="m190.22 430.87h-8.23l-5.15-9.01v-13.06h18.52v13.06z" fill="#a97c50"/></svg>