<svg viewBox="0 0 512 640" xmlns="http://www.w3.org/2000/svg"><path d="m214.28 210.77h32.48v116.41h-32.48z" fill="#d1d3d4"/><path d="m274.85 210.77h32.48v116.41h-32.48z" fill="#d1d3d4"/><path d="m214.28 201.02h32.48v9.75h-32.48z" fill="#f1f2f2"/><path d="m274.85 201.02h32.48v9.75h-32.48z" fill="#f1f2f2"/><ellipse cx="256" cy="408.76" fill="#231f20" opacity=".15" rx="159.28" ry="48.43"/><path d="m401.37 338.52v-12.85h-13.02v-12.85h-264.7v12.85h-13.02v12.85h-13.91v64.26h318.56v-64.26z" fill="#f1f2f2"/><path d="m197.76 330.08h124.27v19.12h-124.27z" fill="#d1d3d4"/><g fill="#e6e7e8"><path d="m148.14 232.79h32.48v116.41h-32.48z"/><path d="m214.28 253.79h32.48v116.41h-32.48z"/><path d="m274.85 253.79h32.48v116.41h-32.48z"/><path d="m335.55 232.79h32.48v116.41h-32.48z"/></g><path d="m123.65 370.21h264.71v25.7h-264.71z" fill="#d1d3d4"/><path d="m110.63 383.06h290.75v12.85h-290.75z" fill="#d1d3d4"/><path d="m110.63 383.06h290.75v12.85h-290.75z" fill="#fff" opacity=".2"/><path d="m96.72 395.91h318.57v12.85h-318.57z" fill="#d1d3d4"/><path d="m110.63 325.67h13.02v57.38h-13.02z" fill="#bcbec0"/><path d="m96.72 338.52h13.91v57.38h-13.91z" fill="#bcbec0"/><path d="m388.35 345.67h13.02v37.38h-13.02z" fill="#f1f2f2"/><path d="m148.14 223.04h32.48v9.75h-32.48z" fill="#f1f2f2"/><path d="m148.14 242.54h16.24v9.75h-16.24z" fill="#fd9"/><path d="m351.79 242.54h16.24v9.75h-16.24z" fill="#fd9"/><path d="m214.28 263.54h32.48v9.75h-32.48z" fill="#fd9"/><path d="m274.85 263.54h32.48v9.75h-32.48z" fill="#fd9"/><path d="m214.28 244.04h32.48v9.75h-32.48z" fill="#f1f2f2"/><path d="m274.85 244.04h32.48v9.75h-32.48z" fill="#f1f2f2"/><path d="m335.55 223.04h32.48v9.75h-32.48z" fill="#f1f2f2"/></svg>