<svg viewBox="0 0 512 640" xmlns="http://www.w3.org/2000/svg"><g fill="#231f20"><path d="m321.41 397.77h-2.86c-8.77-9.66-36.64-16.72-69.68-16.72-28.81 0-53.69 5.37-65.4 13.14h-1.51c-11.41 0-20.66 4.52-20.66 10.09s9.25 10.08 20.66 10.08h1.51c26.68 14 67.31 2.9 68.26 2.88 8.77 9.67 36.64 16.73 69.68 16.73 40.07 0 72.55-10.39 72.55-23.2s-32.48-13-72.55-13z" opacity=".15"/><ellipse cx="155.06" cy="357.69" opacity=".15" rx="72.55" ry="24.28"/><ellipse cx="351.22" cy="326.52" opacity=".15" rx="54.21" ry="17.58"/><ellipse cx="321.97" cy="467.67" opacity=".15" rx="33.22" ry="11.95"/><path d="m124.11 428.89c-5.41 0-9.79 3.43-9.79 7.65s4.38 7.64 9.79 7.64 9.8-3.42 9.8-7.64-4.38-7.65-9.8-7.65z" opacity=".15"/><path d="m418.42 398.65c-5.41 0-9.8 3.42-9.8 7.64s4.39 7.65 9.8 7.65 9.8-3.43 9.8-7.65-4.39-7.64-9.8-7.64z" opacity=".15"/><ellipse cx="85.15" cy="276.22" opacity=".15" rx="20.65" ry="8.32"/><path d="m50.94 282.44c4.17 0 7.55-2.79 7.55-6.22s-3.38-6.22-7.55-6.22-7.56 2.78-7.56 6.22 3.38 6.22 7.56 6.22z" opacity=".15"/></g><path d="m297.01 241.24h108.32v24.7h-108.32z" fill="#946440"/><path d="m297.01 278.07h107.85v45.83h-107.85z" fill="#a97c50"/><path d="m84.05 303.33h92.77v18.28h-92.77z" fill="#946440"/><path d="m186.79 321h62.08v24.81h-62.08z" fill="#946440"/><path d="m259.95 344.17h124.03v16.29h-124.03z" fill="#946440"/><path d="m266.32 298.23h138.54v-36.25l-12.04-12.95h-84.25-42.25z" fill="#2bb673"/><path d="m404.86 292.1-12.04-12.95v-30.12l12.04 12.95z" fill="#fff" opacity=".3"/><path d="m292.68 334.53h9.1v22.17h-9.1z" fill="#594a42" transform="matrix(.7602926 -.64958075 .64958075 .7602926 -153.25 275.92)"/><path d="m364 344.17a9.78 9.78 0 1 1 -9.78-9.78 9.78 9.78 0 0 1 9.78 9.78z" fill="#009444"/><path d="m378.09 346.83a9.78 9.78 0 1 1 -9.78-9.78 9.78 9.78 0 0 1 9.78 9.78z" fill="#39b54a"/><path d="m107.87 305.78a7 7 0 1 1 -7-7 7 7 0 0 1 7 7z" fill="#be1e2d"/><path d="m126.46 304.71a7 7 0 1 1 -7-7 7 7 0 0 1 7 7z" fill="#be1e2d"/><path d="m173.09 302.1a7.53 7.53 0 1 1 -7.52-7.53 7.53 7.53 0 0 1 7.52 7.53z" fill="#be1e2d"/><path d="m184.35 304.22a7.53 7.53 0 1 1 -7.53-7.53 7.53 7.53 0 0 1 7.53 7.53z" fill="#be1e2d"/><path d="m138.41 304.49a7 7 0 1 1 -7-7 7 7 0 0 1 7 7z" fill="#be1e2d"/><path d="m129.18 308.55a7 7 0 1 1 -7-7 7 7 0 0 1 7 7z" fill="#ef4136"/><path d="m84.05 321.62h92.6v35.6h-92.6z" fill="#a97c50"/><path d="m260.9 360.46h120.89v49.04h-120.89z" fill="#a97c50"/><path d="m188.42 345.35h60.45v50.7h-60.45z" fill="#a97c50"/><path d="m81.12 367.45h15.29l3.18-6.06v-15.92h-21.66v15.92z" fill="#8b5e3c"/><path d="m43.2 276.22h15.29l3.19-6.06v-15.92h-21.66v15.92z" fill="#8b5e3c"/><path d="m106.43 367.45h21.12l4.4-8.37v-22h-29.92v22z" fill="#754c29"/><path d="m427.99 406.29h-19.14l-3.99-7.58v-19.94h27.12v19.94z" fill="#8b5e3c"/><path d="m133.91 436.67h-19.14l-3.99-7.59v-19.94h27.12v19.94z" fill="#8b5e3c"/><path d="m367.23 419.73h-19.14l-3.99-7.58v-19.94h27.12v19.94z" fill="#8b5e3c"/><path d="m332.5 419.73h-8.23l-7.02-14.21v-21.69h22.27v21.69z" fill="#754c29"/><path d="m248.87 269.82h12.04v139.67h-12.04z" fill="#754c29"/><path d="m381.8 292.27h12.04v117.23h-12.04z" fill="#754c29"/><path d="m176.65 269.82h12.04v136.47h-12.04z" fill="#754c29"/><path d="m381.26 221.73h12.04v80.37h-12.04z" fill="#754c29"/><path d="m309.05 221.73h12.04v73.16h-12.04z" fill="#754c29"/><path d="m260.9 310.82h143.96v-18.99l-11.56-12.94h-132.4z" fill="#2bb673"/><path d="m260.9 248.85h12.04v61.98h-12.04z" fill="#f15a29"/><path d="m284.97 248.85h12.04v61.98h-12.04z" fill="#f15a29"/><path d="m309.05 248.85h12.04v61.98h-12.04z" fill="#f15a29"/><path d="m333.12 248.85h12.04v61.98h-12.04z" fill="#f15a29"/><path d="m357.19 248.85h12.04v61.98h-12.04z" fill="#f15a29"/><path d="m381.26 248.85h12.04v61.98h-12.04z" fill="#f15a29"/><path d="m270.22 347.2h22.17v9.1h-22.17z" fill="#594a42"/><path d="m265.22 338.11h22.17v9.1h-22.17z" fill="#a97c50"/><path d="m232.62 316.76a3.73 3.73 0 0 1 .07.68 3.3 3.3 0 0 1 -6.6 0 3 3 0 0 1 .07-.68h-17.72v12.43h15.72a3.06 3.06 0 0 1 -.59-1.81 3.12 3.12 0 1 1 6.23 0 3.07 3.07 0 0 1 -.6 1.81h6.13v-12.43zm-17.88 9.76a2.45 2.45 0 1 1 2.45-2.44 2.44 2.44 0 0 1 -2.45 2.44z" fill="#de9c39"/><path d="m232.12 332.65a2.35 2.35 0 0 1 .45 1.38 2.37 2.37 0 0 1 -4.74 0l-3.49 1.15v5.46h22v-12.64zm9.19 5.41a1.87 1.87 0 1 1 1.87-1.87 1.87 1.87 0 0 1 -1.87 1.87z" fill="#fbb040"/><path d="m161.3 372.78h41.31v33.51h-41.31z" fill="#8b5e3c"/><path d="m186.79 385.1h40.95v21.19h-40.95z" fill="#754c29"/><path d="m313.88 434.16h41.31v33.51h-41.31z" fill="#8b5e3c"/><path d="m64.5 242.7h41.31v33.51h-41.31z" fill="#8b5e3c"/><path d="m288.75 446.48h40.95v21.19h-40.95z" fill="#754c29"/><path d="m201.64 269.13h2.06v17.67h-2.06z" fill="#8b5e3c"/><path d="m221.58 266.48h2.06v17.67h-2.06z" fill="#8b5e3c"/><path d="m202.67 290.78c-3.76 1.85-6.48 7.23-6.48 13.59s2.72 11.75 6.48 13.59z" fill="#4b8abc"/><path d="m202.67 290.78v27.22c3.76-1.84 6.48-7.23 6.48-13.59s-2.72-11.78-6.48-13.63z" fill="#4ba9bc"/><path d="m198.28 285.92c.12 4.13 1.92 7.6 4.39 8.8v-8.8z" fill="#4b8abc"/><path d="m207.06 285.92c-.12 4.13-1.92 7.6-4.39 8.8v-8.8z" fill="#4b8abc"/><path d="m222.62 281.69c-3.76 1.85-6.48 7.23-6.48 13.59s2.72 11.75 6.48 13.59z" fill="#4b8abc"/><path d="m222.62 281.69v27.18c3.75-1.84 6.48-7.23 6.48-13.59s-2.73-11.74-6.48-13.59z" fill="#4ba9bc"/><path d="m218.23 276.83c.11 4.13 1.92 7.59 4.39 8.81v-8.81z" fill="#4b8abc"/><path d="m227 276.83c-.11 4.13-1.92 7.59-4.38 8.81v-8.81z" fill="#4b8abc"/><path d="m260.9 248.85h132.4v30.31h-132.4z" fill="#fff" opacity=".2"/><path d="m349.83 346.94a9.78 9.78 0 1 1 -9.78-9.78 9.78 9.78 0 0 1 9.78 9.78z" fill="#39b54a"/><path d="m117.36 308.83a7 7 0 1 1 -7-7 7 7 0 0 1 7 7z" fill="#ef4136"/><path d="m174.47 307a7.53 7.53 0 1 1 -7.53-7.53 7.53 7.53 0 0 1 7.53 7.53z" fill="#ef4136"/><path d="m162.59 305.63a7.53 7.53 0 1 1 -7.53-7.53 7.53 7.53 0 0 1 7.53 7.53z" fill="#ef4136"/><path d="m192.24 325.64v15h6.13a3.12 3.12 0 1 1 5 0h15.73v-15h-17.68a3.82 3.82 0 0 1 .07.68 3.3 3.3 0 0 1 -6.6 0 3.08 3.08 0 0 1 .07-.68zm18.15 9.91a2.45 2.45 0 1 1 2.44 2.45 2.45 2.45 0 0 1 -2.44-2.45z" fill="#fbb040"/><path d="m164.61 270.47h108.33v-18.99l-12.04-12.95h-84.25l-12.04 12.95z" fill="#2bb673"/><path d="m164.61 257.61h108.33v-36.25l-12.04-12.95h-84.25l-12.04 12.95z" fill="#2bb673"/><path d="m176.65 208.41h12.04v62.06h-12.04z" fill="#f15a29"/><path d="m200.72 208.41h12.04v62.06h-12.04z" fill="#f15a29"/><path d="m224.79 208.41h12.04v62.06h-12.04z" fill="#f15a29"/><path d="m248.87 208.41h12.04v62.06h-12.04z" fill="#f15a29"/><path d="m272.94 251.48-12.04-12.95v-30.12l12.04 12.95z" fill="#fff" opacity=".3"/><path d="m164.61 251.48 12.04-12.95v-30.12l-12.04 12.95z" fill="#231f20" opacity=".2"/><path d="m176.65 208.23h84.25v30.31h-84.25z" fill="#fff" opacity=".2"/><path d="m297.01 222.62h108.32v-18.99l-12.03-12.95h-84.25l-12.04 12.95z" fill="#2bb673"/><path d="m297.01 209.76h108.32v-36.26l-12.03-12.94h-84.25l-12.04 12.94z" fill="#2bb673"/><path d="m309.05 160.56h12.04v62.06h-12.04z" fill="#f15a29"/><path d="m333.12 160.56h12.04v62.06h-12.04z" fill="#f15a29"/><path d="m357.19 160.56h12.04v62.06h-12.04z" fill="#f15a29"/><path d="m381.26 160.56h12.04v62.06h-12.04z" fill="#f15a29"/><path d="m405.33 203.63-12.03-12.95v-30.12l12.03 12.94z" fill="#fff" opacity=".3"/><path d="m297.01 203.63 12.04-12.95v-30.12l-12.04 12.94z" fill="#231f20" opacity=".2"/><path d="m309.05 160.37h84.25v30.31h-84.25z" fill="#fff" opacity=".2"/></svg>