<svg viewBox="0 0 512 640" xmlns="http://www.w3.org/2000/svg"><g fill="#231f20" opacity=".15"><ellipse cx="159.56" cy="261.34" rx="91.12" ry="32.85"/><ellipse cx="96.34" cy="339.57" rx="32.9" ry="7.64"/><ellipse cx="114.19" cy="422.16" rx="63.95" ry="20.35"/><ellipse cx="189.25" cy="459.47" rx="55.58" ry="24.43"/><ellipse cx="250.67" cy="472.53" rx="35.2" ry="16.59"/><ellipse cx="419.66" cy="386.18" rx="43.17" ry="13.64"/><ellipse cx="377.03" cy="401.93" rx="35.08" ry="13.64"/><ellipse cx="343.01" cy="264.21" rx="35.08" ry="18.17"/><ellipse cx="414.41" cy="289" rx="26.83" ry="8.76"/><ellipse cx="246.44" cy="365.67" rx="100.44" ry="21.6"/></g><path d="m138.83 259.68h-70.39l12.28-44.09 33.55 22.28z" fill="#b3b3b3"/><path d="m120.59 219.44 18.24 40.24-24.56-21.81-33.55-22.28z" fill="#ccc"/><path d="m101.99 259.68h-33.55l6.99-25.08z" fill="#a6a6a6"/><path d="m260.02 276.87h-146.86l19.87-65.13 75.75-14.22z" fill="#b3b3b3"/><path d="m210.03 182.21 49.99 94.66-63.48-64.8-63.51-.33 23.67-29.53z" fill="#ccc"/><path d="m193.57 276.87h-80.41l10.63-34.83z" fill="#a6a6a6"/><path d="m307.99 152.03h10.98v113.17h-10.98z" fill="#754c29"/><path d="m361.42 152.03h10.98v113.17h-10.98z" fill="#754c29"/><path d="m334.71 114.34h10.98v64.41h-10.98z" fill="#754c29" transform="matrix(0 1 -1 0 486.74 -193.65)"/><path d="m325.58 94.23h29.23v64.41h-29.23z" fill="#997645" transform="matrix(0 1 -1 0 466.63 -213.76)"/><path d="m318.97 170.57h42.45v4.55h-42.45z" fill="#754c29"/><path d="m318.97 193.53h42.45v4.55h-42.45z" fill="#754c29"/><path d="m318.97 216.48h42.45v4.55h-42.45z" fill="#754c29"/><path d="m318.97 239.44h42.45v4.55h-42.45z" fill="#754c29"/><path d="m207.44 161.68h65.81v28.16h-65.81z" fill="#997645"/><path d="m207.44 189.68h65.81v4.89h-65.81z" fill="#754c29"/><path d="m213.84 167.95h19.55v15.64h-19.55z" fill="#a6a6a6"/><path d="m213.84 167.95h19.55v9.9h-19.55z" fill="#ccc"/><path d="m236.49 157.26h19.55v15.64h-19.55z" fill="#a6a6a6"/><path d="m236.49 157.26h19.55v9.9h-19.55z" fill="#ccc"/><path d="m246.26 170.03h19.55v15.64h-19.55z" fill="#a6a6a6"/><path d="m246.26 170.03h19.55v9.9h-19.55z" fill="#ccc"/><path d="m244.15 119.61h-4.67l-32.04 42.07h4.67z" fill="#c2b59b"/><path d="m239.48 119.61h4.67l29.1 42.07h-4.67z" fill="#c2b59b"/><path d="m244.15 119.61h-4.67l-32.04 70.24h4.67z" fill="#c2b59b"/><path d="m239.48 119.61h4.67l29.1 70.24h-4.67z" fill="#c2b59b"/><path d="m239.48 79.01h4.67v40.61h-4.67z" fill="#c2b59b"/><path d="m361.42 112.45h-42.42l9.12-29.11a12.68 12.68 0 0 1 12.1-8.89 12.67 12.67 0 0 1 12.1 8.89z" fill="#997645"/><path d="m361.42 118.1h-42.42l9.09-29.1a12.68 12.68 0 0 1 12.1-8.89 12.67 12.67 0 0 1 12.1 8.89z" fill="#754c29"/><path d="m225.29 86.72h198.26v19.11h-198.26z" fill="#754c29" transform="matrix(.97050647 .24107506 -.24107506 .97050647 32.77 -75.35)"/><path d="m361.42 128h-42.42l9.12-29.12a12.68 12.68 0 0 1 12.07-8.88 12.67 12.67 0 0 1 12.1 8.89z" fill="#997645"/><path d="m361.42 133.62h-42.42l9.12-29.12a12.68 12.68 0 0 1 12.1-8.89 12.67 12.67 0 0 1 12.1 8.89z" fill="#754c29"/><circle cx="340.19" cy="107.49" fill="#997645" r="5.81"/><path d="m387.59 255.7h53.65v30.22h-53.65z" fill="#997645"/><path d="m387.59 285.81h53.65v3.07h-53.65z" fill="#754c29"/><path d="m403.61 249.47h22.51v18.01h-22.51z" fill="#a6a6a6"/><path d="m403.61 249.47h22.51v11.4h-22.51z" fill="#ccc"/><path d="m403.61 240.71h22.51v18.01h-22.51z" fill="#a6a6a6"/><path d="m403.61 240.71h22.51v11.4h-22.51z" fill="#ccc"/><path d="m403.61 231.71h22.51v18.01h-22.51z" fill="#a6a6a6"/><path d="m403.61 231.71h22.51v11.4h-22.51z" fill="#ccc"/><path d="m389.97 264.23h22.51v18.01h-22.51z" fill="#a6a6a6"/><path d="m389.97 264.23h22.51v11.4h-22.51z" fill="#ccc"/><path d="m389.97 255.47h22.51v18.01h-22.51z" fill="#a6a6a6"/><path d="m389.97 255.47h22.51v11.4h-22.51z" fill="#ccc"/><path d="m389.97 246.47h22.51v18.01h-22.51z" fill="#a6a6a6"/><path d="m389.97 246.47h22.51v11.4h-22.51z" fill="#ccc"/><path d="m416.63 264.23h22.51v18.01h-22.51z" fill="#a6a6a6"/><path d="m416.63 264.23h22.51v11.4h-22.51z" fill="#ccc"/><path d="m416.63 255.47h22.51v18.01h-22.51z" fill="#a6a6a6"/><path d="m416.63 255.47h22.51v11.4h-22.51z" fill="#ccc"/><path d="m416.63 246.47h22.51v18.01h-22.51z" fill="#a6a6a6"/><path d="m416.63 246.47h22.51v11.4h-22.51z" fill="#ccc"/><path d="m164.89 422.94h-114.65l20-58.03 54.65 22.5z" fill="#b3b3b3"/><path d="m135.17 364.91 29.72 58.03-40-35.53-54.65-22.5z" fill="#ccc"/><path d="m104.88 422.94h-54.64l20-58.03z" fill="#a6a6a6"/><path d="m246.47 248.32h100.42v117.36h-100.42z" fill="#fc6"/><path d="m146 314.26h100.42v51.42h-100.42z" fill="#fc6"/><path d="m246.47 235.03h100.42v13.68h-100.42z" fill="#bd974b"/><path d="m282.94 314.23h28.07v13.68h-28.07z" fill="#bd974b"/><path d="m146 300.58h100.42v13.68h-100.42z" fill="#bd974b"/><g fill="#e6ac39"><path d="m325.36 269.43h21.53v11.51h-21.53z"/><path d="m314.59 280.94h21.53v11.51h-21.53z"/><path d="m146 314.26h21.53v11.51h-21.53z"/><path d="m156.77 325.77h21.53v11.51h-21.53z"/><path d="m246.47 314.26h21.53v11.51h-21.53z"/><path d="m325.36 342.65h21.53v11.51h-21.53z"/><path d="m268 248.71h21.53v11.51h-21.53z"/><path d="m246.47 325.77h10.76v11.51h-10.76z"/></g><path d="m184.65 325.52h17.92v23.02h-17.92z" fill="#58595b"/><path d="m268 269.43h17.92v23.02h-17.92z" fill="#58595b"/><path d="m282.94 327.91h27.49v37.76h-27.49z" fill="#58595b"/><path d="m307.44 269.43h17.92v23.02h-17.92z" fill="#58595b"/><path d="m246.47 204.26h100.42v30.77h-100.42z" fill="#d4a954"/><path d="m146 269.81h100.42v30.77h-100.42z" fill="#d4a954"/><path d="m177.17 252.47h29.48v36.99h-29.48z" fill="#fc6"/><path d="m177.17 236.68h29.48v15.79h-29.48z" fill="#fd9"/><path d="m181.14 240.14h21.54v8.57h-21.54z" fill="#bd974b"/><path d="m177.17 259.04h10.58v5.46h-10.58z" fill="#e6ac39"/><path d="m182.46 264.5h10.58v5.46h-10.58z" fill="#e6ac39"/><path d="m196.07 277.99h10.58v5.46h-10.58z" fill="#e6ac39"/><path d="m63.44 306.68h65.81v28.16h-65.81z" fill="#997645"/><path d="m63.44 334.68h65.81v4.89h-65.81z" fill="#754c29"/><path d="m87.84 303.26h17.3v15.64h-17.3z" fill="#a6a6a6"/><path d="m87.84 303.26h17.3v9.9h-17.3z" fill="#ccc"/><path d="m87.84 316.03h17.3v15.64h-17.3z" fill="#a6a6a6"/><path d="m87.84 316.03h17.3v9.9h-17.3z" fill="#ccc"/><path d="m107.78 303.26h17.3v15.64h-17.3z" fill="#a6a6a6"/><path d="m107.78 303.26h17.3v9.9h-17.3z" fill="#ccc"/><path d="m107.78 316.03h17.3v15.64h-17.3z" fill="#a6a6a6"/><path d="m107.78 316.03h17.3v9.9h-17.3z" fill="#ccc"/><path d="m67.92 303.26h17.3v15.64h-17.3z" fill="#a6a6a6"/><path d="m67.92 303.26h17.3v9.9h-17.3z" fill="#ccc"/><ellipse cx="237.21" cy="407.98" fill="#231f20" opacity=".15" rx="10.09" ry="5.71"/><ellipse cx="270.69" cy="410.35" fill="#231f20" opacity=".15" rx="10.09" ry="5.71"/><ellipse cx="260.59" cy="396.95" fill="#231f20" opacity=".15" rx="10.09" ry="5.71"/><path d="m227.12 392.05h20.19v16.15h-20.19z" fill="#a6a6a6"/><path d="m227.12 392.05h20.19v10.22h-20.19z" fill="#ccc"/><path d="m250.5 381.01h20.19v16.15h-20.19z" fill="#a6a6a6"/><path d="m250.5 381.01h20.19v10.22h-20.19z" fill="#ccc"/><path d="m260.59 394.2h20.19v16.15h-20.19z" fill="#a6a6a6"/><path d="m260.59 394.2h20.19v10.22h-20.19z" fill="#ccc"/><path d="m462.83 386.18h-86.33l15.06-60.19 41.15 3.31z" fill="#b3b3b3"/><path d="m414.69 310.19 25.12 9.59 23.02 66.4-37.31-46.46-33.96-13.73z" fill="#ccc"/><path d="m423.77 386.18h-47.27l6.25-24.98z" fill="#a6a6a6"/><path d="m412.11 401.93h-70.4l12.28-34.1 33.55 12.28z" fill="#b3b3b3"/><path d="m393.86 361.69 18.25 40.24-24.57-21.82-33.55-12.28z" fill="#ccc"/><path d="m375.26 401.93h-33.55l12.28-34.1z" fill="#a6a6a6"/><path d="m248.32 459.22h-114.65l20-95.53 54.65 20z" fill="#b3b3b3"/><path d="m196.53 357.69 28.06 12.49 23.73 89.04-40-75.53-54.65-20z" fill="#ccc"/><path d="m188.31 459.22h-54.64l13.99-66.8z" fill="#a6a6a6"/><path d="m285.87 472.34h-70.39l12.28-34.1 33.55 12.28z" fill="#b3b3b3"/><path d="m267.63 432.1 18.24 40.24-24.56-21.82-33.55-12.28z" fill="#ccc"/><path d="m249.02 472.34h-33.54l12.28-34.1z" fill="#a6a6a6"/><path d="m78.4 410.34h47.08v7.44h-47.08z" fill="#754c29" transform="matrix(.89993862 -.43601661 .43601661 .89993862 -170.33 85.87)"/><path d="m119.49 404.6c-3.91-8.07-15.75-12-15.75-12l-1.52.73 1.44 3s7.19 8.21 10.12 12.93c1.89 5.23 3.88 16 3.88 16l1.44 3 1.51-.74s4.53-11.14.32-19.82z" fill="#a6a6a6"/><path d="m119.17 424.43-1.51.73s-2.46-13.26-4.5-17.49-10.94-14.37-10.94-14.37l1.52-.73s11.84 4 15.75 12c4.21 8.72-.32 19.86-.32 19.86z" fill="#ccc"/><ellipse cx="80.85" cy="424.27" fill="#997645" rx="1.78" ry="3.72" transform="matrix(.89993862 -.43601661 .43601661 .89993862 -176.9 77.7)"/><ellipse cx="123.12" cy="403.8" fill="#754c29" rx="1.78" ry="3.72" transform="matrix(.89993862 -.43601661 .43601661 .89993862 -163.74 94.08)"/></svg>