<svg viewBox="0 0 512 640" xmlns="http://www.w3.org/2000/svg"><g fill="#231f20" opacity=".15"><ellipse cx="158.97" cy="261.67" rx="91.12" ry="32.85"/><ellipse cx="427.15" cy="242.3" rx="35.2" ry="19.38"/><ellipse cx="263.59" cy="361.06" rx="145.14" ry="50.73"/><ellipse cx="113.6" cy="422.49" rx="63.95" ry="20.35"/><ellipse cx="188.66" cy="459.8" rx="55.58" ry="24.43"/><ellipse cx="250.08" cy="472.86" rx="35.2" ry="16.59"/><ellipse cx="387.7" cy="455.62" rx="56.59" ry="17.43"/><ellipse cx="413.07" cy="370.51" rx="43.17" ry="13.64"/></g><path d="m462.35 243.04h-70.4l12.28-35.63 33.56 13.81z" fill="#b3b3b3"/><path d="m444.1 207.41 18.25 35.63-24.56-21.82-33.56-13.81z" fill="#ccc"/><path d="m425.5 243.04h-33.55l12.28-35.63z" fill="#a6a6a6"/><path d="m138.25 260.01h-70.4l12.28-44.09 33.55 22.28z" fill="#b3b3b3"/><path d="m120 219.78 18.25 40.23-24.57-21.81-33.55-22.28z" fill="#ccc"/><path d="m101.4 260.01h-33.55l6.99-25.08z" fill="#a6a6a6"/><path d="m259.43 277.21h-146.87l19.88-65.14 75.75-14.21z" fill="#b3b3b3"/><path d="m209.44 182.54 49.99 94.67-63.47-64.81-63.52-.33 23.67-29.53z" fill="#ccc"/><path d="m192.98 277.21h-80.42l10.64-34.84z" fill="#a6a6a6"/><path d="m275.94 299.63-83.39-2.34-63.77 27.19 30.47-66.05 68.84-30.69h60.49l85.35 9.79-15.15 15.85z" fill="#ccc"/><path d="m218.74 377.3-26.19-80.01-63.77 27.19-10.34 30.87z" fill="#999"/><path d="m358.78 253.38 9.95 103.46-47.42 20.46-45.37-77.67z" fill="#b3b3b3"/><path d="m218.74 377.3h69.03l-11.83-77.67-83.39-2.34" fill="#a6a6a6"/><path d="m368.73 356.84 40-21.4-34.8-97.91-15.15 15.85-18.45 10.3 21.27 19.03z" fill="#ccc"/><g fill="#b3b3b3"><path d="m321.31 377.3 2.73-104.53-48.1 26.86 11.83 77.67z"/><path d="m199.62 284.67-16.57-20.54 31.63 5.64 46.7 15.11z"/><path d="m309.91 243.48 43.91-2.77-43.66 22.63-17.2-8.92z"/><path d="m159.25 258.43-30.47 66.05 63.77-27.19z"/><path d="m164.3 423.27h-114.65l20-58.02 54.65 22.5z"/></g><path d="m134.58 365.25 29.72 58.02-40-35.52-54.65-22.5z" fill="#ccc"/><path d="m104.29 423.27h-54.64l20-58.02z" fill="#a6a6a6"/><path d="m365.51 398.26h-70.39l12.28-34.1 33.55 12.28z" fill="#b3b3b3"/><path d="m347.27 358.02 18.24 40.24-24.56-21.82-33.55-12.28z" fill="#ccc"/><path d="m328.67 398.26h-33.55l12.28-34.1z" fill="#a6a6a6"/><path d="m456.24 370.51h-86.33l15.06-60.19 41.15 3.31z" fill="#b3b3b3"/><path d="m408.1 294.52 25.12 9.59 23.02 66.4-37.31-46.45-33.96-13.74z" fill="#ccc"/><path d="m417.18 370.51h-47.27l6.24-24.97z" fill="#a6a6a6"/><path d="m247.73 459.55h-114.65l20-95.53 54.65 20z" fill="#b3b3b3"/><path d="m195.94 358.02 28.06 12.49 23.73 89.04-40-75.53-54.65-20z" fill="#ccc"/><path d="m187.72 459.55h-54.64l13.99-66.8z" fill="#a6a6a6"/><path d="m285.28 472.67h-70.39l12.28-34.1 33.55 12.29z" fill="#b3b3b3"/><path d="m267.04 432.44 18.24 40.23-24.56-21.81-33.55-12.29z" fill="#ccc"/><path d="m248.44 472.67h-33.55l12.28-34.1z" fill="#a6a6a6"/><path d="m444.29 456.27h-113.18l15.32-50.2 58.37-10.95z" fill="#b3b3b3"/><path d="m405.76 383.32 38.53 72.95-48.92-49.94-48.94-.26 18.24-22.75z" fill="#ccc"/><path d="m393.08 456.27h-61.97l8.19-26.85z" fill="#a6a6a6"/></svg>