<svg viewBox="0 0 512 640" xmlns="http://www.w3.org/2000/svg"><ellipse cx="256" cy="408.76" fill="#231f20" opacity=".15" rx="159.28" ry="48.43"/><path d="m401.37 358.52v-12.85h-13.02v-12.85h-20.31v-99.03h20.31v-43.07l-132.35-98.71-132.35 98.71v43.07h24.5v99.03h-24.5v12.85h-13.02v12.85h-13.91v44.26h318.56v-44.26z" fill="#f1f2f2"/><path d="m162.96 238.3h190.25v131.9h-190.25z" fill="#58595b"/><g fill="#e6e7e8"><path d="m148.14 238.3h32.48v131.9h-32.48z"/><path d="m214.28 238.3h32.48v131.9h-32.48z"/><path d="m274.85 238.3h32.48v131.9h-32.48z"/><path d="m335.55 238.3h32.48v131.9h-32.48z"/></g><path d="m123.65 228.1h264.71v16.15h-264.71z" fill="#d1d3d4"/><path d="m123.65 370.21h264.71v25.7h-264.71z" fill="#d1d3d4"/><path d="m110.63 383.06h290.75v12.85h-290.75z" fill="#d1d3d4"/><path d="m110.63 383.06h290.75v12.85h-290.75z" fill="#fff" opacity=".2"/><path d="m96.72 395.91h318.57v12.85h-318.57z" fill="#d1d3d4"/><path d="m388.35 228.1h-264.7l132.35-98.7z" fill="#e6e7e8"/><path d="m328.48 209.36h-144.95l72.47-54.05z" fill="#d1d3d4"/><path d="m123.65 228.1 132.35-98.7v-37.39l-132.35 98.71z" fill="#d1d3d4"/><path d="m123.65 332.82h24.5v37.38h-24.5z" fill="#bcbec0"/><path d="m110.63 345.67h13.02v37.38h-13.02z" fill="#bcbec0"/><path d="m96.72 358.52h13.91v37.38h-13.91z" fill="#bcbec0"/><path d="m388.35 345.67h13.02v37.38h-13.02z" fill="#f1f2f2"/></svg>