<svg viewBox="0 0 512 640" xmlns="http://www.w3.org/2000/svg"><ellipse cx="256" cy="445.86" fill="#231f20" opacity=".15" rx="71.84" ry="45.45"/><path d="m326.58 443.94h-142.42l18.22-195.94h103.68z" fill="#a69680"/><path d="m254.11 52.73h5.14v65.6h-5.14z" fill="#58595b"/><path d="m259.25 70.27v-17.54l59 8.77z" fill="#ef4136"/><path d="m259.25 83.24v-17.54l59 8.77z" fill="#ef4136"/><path d="m242.41 381.2h27.18v62.74h-27.18z" fill="#946440"/><path d="m219.41 369.39h73.19v12.08h-73.19z" fill="#9c896f"/><path d="m269.59 369.39h12.08v74.54h-12.08z" fill="#9c896f"/><path d="m230.33 369.39h12.08v74.54h-12.08z" fill="#9c896f"/><path d="m171.35 229.6h168.21v19.38h-168.21z" fill="#c5bfb7"/><path d="m171.73 167.22h168.55v62.38h-168.55z" fill="#9c896f"/><path d="m340.82 167.22h-169.64l84.82-61.91z" fill="#8b5e3c"/><path d="m196.71 181.39-9.81 11.52v22.52h19.61v-22.52z" fill="#58595b"/><path d="m236.54 181.39-9.81 11.52v22.52h19.62v-22.52z" fill="#58595b"/><path d="m276.37 181.39-9.81 11.52v22.52h19.62v-22.52z" fill="#58595b"/><path d="m316.21 181.39-9.81 11.52v22.52h19.62v-22.52z" fill="#58595b"/><g fill="#9c896f"><path d="m198.93 287.33h53.18v4.99h-53.18z"/><path d="m213.39 306.43h53.18v4.99h-53.18z"/><path d="m274.66 345.97h41.54v4.99h-41.54z"/><path d="m224.23 287.33h4.99v24.09h-4.99z"/><path d="m242.41 309.63h4.99v13.65h-4.99z"/><path d="m299.17 333.93h4.99v13.65h-4.99z"/><path d="m283.69 349.25h4.99v9.49h-4.99z"/><path d="m311.22 349.25h4.99v13.65h-4.99z"/><path d="m206.51 276.18h4.99v13.65h-4.99z"/><path d="m236.54 276.18h4.99v13.65h-4.99z"/></g></svg>