<svg viewBox="0 0 512 640" xmlns="http://www.w3.org/2000/svg"><path d="m140.26 260.62c-34.1 0-64.41 3.84-83.65 9.8a31.36 31.36 0 0 0 -5-.38c-8.77 0-15.88 3.48-15.88 7.77a4.55 4.55 0 0 0 1.27 2.94 7.6 7.6 0 0 0 -2 4.83c0 13.79 47.12 29.87 105.26 29.87s105.27-16.08 105.27-29.87-47.13-24.96-105.27-24.96z" fill="#231f20" opacity=".15"/><path d="m50.95 274.71h-12.08l-2.52-4.79v-12.59h17.12v12.59z" fill="#754c29"/><path d="m140.2 162.71h92.43v126.43h-92.43z" fill="#fc6"/><path d="m47.72 223.4h92.43v65.74h-92.43z" fill="#fc6"/><path d="m140.2 150.48h92.43v12.59h-92.43z" fill="#bd974b"/><path d="m173.76 241.79h25.84v12.59h-25.84z" fill="#bd974b"/><path d="m47.72 210.81h92.43v12.59h-92.43z" fill="#bd974b"/><g fill="#e6ac39"><path d="m212.81 182.14h19.82v10.59h-19.82z"/><path d="m202.9 192.74h19.82v10.59h-19.82z"/><path d="m47.72 223.4h19.82v10.59h-19.82z"/><path d="m57.63 234h19.82v10.59h-19.82z"/><path d="m97 265.78h19.82v10.59h-19.82z"/><path d="m140.2 223.4h19.82v10.59h-19.82z"/><path d="m212.81 267.95h19.82v10.59h-19.82z"/><path d="m160.01 163.07h19.82v10.59h-19.82z"/><path d="m140.2 267.95h9.91v10.59h-9.91z"/><path d="m140.2 234h9.91v10.59h-9.91z"/></g><path d="m83.3 239.3h16.49v21.19h-16.49z" fill="#58595b"/><path d="m160.01 182.14h16.49v21.19h-16.49z" fill="#58595b"/><path d="m173.76 254.38h25.3v34.76h-25.3z" fill="#58595b"/><path d="m196.32 182.14h16.49v21.19h-16.49z" fill="#58595b"/><path d="m240.13 289.14h-11.09l-3.02-5.86v-17.5h17.13v17.5z" fill="#a97c50"/><path d="m127.03 305.3h8.77l5.61-7.86v-20.67h-19.98v20.67z" fill="#754c29"/><path d="m141.49 305.3h7.16l4.47-7.83v-14.84h-16.1v14.84z" fill="#a97c50"/><path d="m56.15 289.03h-8.24l-5.14-9.01v-17.06h18.52v17.06z" fill="#a97c50"/><path d="m100.61 197.21h11.71v13.6h-11.71z" fill="#754c29"/><path d="m91.54 201.82h9.07v8.99h-9.07z" fill="#a97c50"/><path d="m140.2 122.16h92.43v28.32h-92.43z" fill="#d4a954"/><path d="m47.72 182.49h92.43v28.32h-92.43z" fill="#d4a954"/><path d="m458.81 388.42a30.27 30.27 0 0 0 -5 .41c-8.65-3-30.17-3.72-40.23-4.95-20.64-2.5-55.13-10-82.57-10-42.8 0-77.5 10.43-77.5 23.3s34.7 23.29 77.5 23.29c32.68 0 61.9-11 82.57-14.41 8.15-1.35 24.27-1.13 32.9-3a24.36 24.36 0 0 0 12.29 3c9.07 0 16.42-4 16.42-8.81s-7.31-8.83-16.38-8.83z" fill="#231f20" opacity=".15"/><path d="m384.42 313.15h1.48v12.71h-1.48z" fill="#8b5e3c"/><path d="m404.66 311.56h1.48v12.71h-1.48z" fill="#8b5e3c"/><path d="m385.16 328.73c-2.7 1.32-4.66 5.2-4.66 9.77s2 8.45 4.66 9.77z" fill="#4b8abc"/><path d="m385.16 328.73v19.54c2.7-1.32 4.66-5.2 4.66-9.77s-1.96-8.45-4.66-9.77z" fill="#4ba9bc"/><path d="m382 325.23c.09 3 1.38 5.46 3.16 6.33v-6.33z" fill="#4b8abc"/><path d="m388.31 325.23c-.08 3-1.38 5.46-3.15 6.33v-6.33z" fill="#4b8abc"/><path d="m424.13 312.26h1.48v22.92h-1.48z" fill="#8b5e3c"/><path d="m424.87 338c-2.71 1.32-4.66 5.2-4.66 9.77s2 8.45 4.66 9.78z" fill="#4b8abc"/><path d="m424.87 338v19.55c2.7-1.33 4.66-5.2 4.66-9.78s-1.96-8.41-4.66-9.77z" fill="#4ba9bc"/><path d="m421.71 334.54c.09 3 1.38 5.46 3.16 6.34v-6.34z" fill="#4b8abc"/><path d="m428 334.54c-.08 3-1.38 5.46-3.15 6.34v-6.34z" fill="#4b8abc"/><path d="m405.4 322.5c-2.7 1.33-4.66 5.2-4.66 9.77s2 8.45 4.66 9.78z" fill="#4b8abc"/><path d="m405.4 322.5v19.55c2.71-1.33 4.66-5.2 4.66-9.78s-1.95-8.44-4.66-9.77z" fill="#4ba9bc"/><path d="m402.25 319c.08 3 1.38 5.47 3.15 6.34v-6.34z" fill="#4b8abc"/><path d="m408.56 319c-.09 3-1.38 5.47-3.16 6.34v-6.34z" fill="#4b8abc"/><path d="m448.23 314.48h8.66v82.01h-8.66z" fill="#754c29"/><path d="m365.32 305.82h102.25v8.66h-102.25z" fill="#a97c50"/><path d="m265.92 260.68h99.4v135.97h-99.4z" fill="#fc6"/><path d="m265.92 257.77h99.4v13.54h-99.4z" fill="#bd974b"/><path d="m301.44 345.73h27.79v13.54h-27.79z" fill="#bd974b"/><path d="m265.92 291.82h21.31v11.39h-21.31z" fill="#e6ac39"/><path d="m276.57 303.22h21.31v11.39h-21.31z" fill="#e6ac39"/><path d="m344.01 325.96h21.31v11.39h-21.31z" fill="#e6ac39"/><path d="m265.92 325.87h21.31v11.39h-21.31z" fill="#e6ac39"/><path d="m322.7 271.32h21.31v11.39h-21.31z" fill="#e6ac39"/><path d="m354.66 373.86h10.66v11.39h-10.66z" fill="#e6ac39"/><path d="m354.66 337.35h10.66v11.39h-10.66z" fill="#e6ac39"/><path d="m326.27 291.82h17.74v22.79h-17.74z" fill="#58595b"/><path d="m302.01 359.27h27.21v37.38h-27.21z" fill="#58595b"/><path d="m287.23 291.82h17.74v22.79h-17.74z" fill="#58595b"/><path d="m257.46 396.65h15.02l4.09-7.94v-23.72h-23.21v23.72z" fill="#8b5e3c"/><path d="m456.15 396.65h17.26l3.59-6.84v-17.97h-24.44v17.97z" fill="#754c29"/><path d="m445.44 396.49h11.75l7.35-12.86v-24.36h-26.44v24.36z" fill="#a97c50"/><path d="m265.92 227.32h99.4v30.46h-99.4z" fill="#d4a954"/><path d="m365.46 288.99h102.1v16.83h-102.1z" fill="#c49a6c"/><path d="m122.89 437.17c2.36 0 4.68 0 6.94.12 8.23-6.08 22.94-10.14 39.72-10.14 25.77 0 46.67 9.56 46.67 21.35s-20.9 21.34-46.67 21.34c-16.78 0-31.49-4-39.72-10.14-2.26.08-4.58.13-6.94.13-25.78 0-46.67-5.07-46.67-11.33s20.89-11.33 46.67-11.33z" fill="#231f20" opacity=".15"/><path d="m83.6 390.19h8.13v58.15h-8.13z" fill="#754c29"/><path d="m73.57 390.19h49.31v8.13h-49.31z" fill="#a97c50"/><path d="m122.89 361.29h93.33v87.2h-93.33z" fill="#fc6"/><path d="m122.89 358.57h93.33v12.72h-93.33z" fill="#bd974b"/><path d="m156.78 403.52h25.55v9.89h-25.55z" fill="#bd974b"/><path d="m172.32 371.47h20.01v10.7h-20.01z" fill="#e6ac39"/><path d="m122.89 382.12h20.01v10.7h-20.01z" fill="#e6ac39"/><path d="m182.32 382.04h20.01v10.7h-20.01z" fill="#e6ac39"/><path d="m172.32 437.8h20.01v10.7h-20.01z" fill="#e6ac39"/><path d="m122.89 427.1h10v10.7h-10z" fill="#e6ac39"/><path d="m122.89 392.82h10v10.7h-10z" fill="#e6ac39"/><path d="m156.78 413.4h25.55v35.1h-25.55z" fill="#58595b"/><path d="m122.89 329.97h93.33v28.6h-93.33z" fill="#d4a954" transform="matrix(-1 0 0 -1 339.1 688.53)"/><path d="m73.57 374.39h49.18v15.8h-49.18z" fill="#c49a6c" transform="matrix(-1 0 0 -1 196.33 764.58)"/></svg>