<svg xmlns="http://www.w3.org/2000/svg" viewBox="0 0 1000 1000"><defs><style>.a{fill:#b96e2b;}.b{fill:#e6a258;}.c{fill:#a16733;}.d{fill:#bd8648;}</style></defs><polygon class="a" points="521.63 793.28 41.85 743.28 120.6 519.23 459.13 550.48 521.63 793.28"/><polygon class="b" points="857.58 215.56 592.81 206.81 120.6 519.23 459.13 550.48 857.58 215.56"/><polygon class="c" points="857.58 215.56 459.13 550.48 521.63 793.28 958.83 373.7 857.58 215.56"/><polygon class="d" points="464.76 572.38 112.98 540.9 120.6 519.23 459.13 550.48 464.76 572.38"/><polygon class="d" points="857.58 233.17 569.23 221.88 590.6 206.81 857.58 215.56 857.58 233.17"/><polygon class="d" points="459.13 550.48 857.58 215.56 868.27 232.25 464.76 572.38 459.13 550.48"/><polygon class="d" points="120.6 519.23 592.58 206.81 616.9 207.62 143.07 533.4 120.6 519.23"/><polygon class="d" points="41.85 743.28 120.6 519.23 146.59 521.09 72.38 746.46 41.85 743.28"/><polygon class="d" points="942.63 389.25 830.77 214.68 857.58 215.56 958.83 373.7 942.63 389.25"/><polygon class="d" points="515.76 770.49 950.2 360.21 958.83 373.7 521.63 793.28 515.76 770.49"/><polygon class="d" points="521.63 793.28 41.85 743.28 56.78 724.87 515.76 770.49 521.63 793.28"/><polygon class="d" points="521.63 779 497.62 779 440.76 566.5 464.76 566.5 521.63 779"/></svg>