<svg xmlns="http://www.w3.org/2000/svg" viewBox="0 0 1000 1000"><defs><style>.a{fill:#662d91;}.b{fill:#cd62ff;}</style></defs><circle class="a" cx="507.25" cy="500" r="376.82"/><polygon class="b" points="498.19 818.4 498.19 818.4 430.34 500 566.03 500 498.19 818.4"/><polygon class="b" points="498.19 181.6 498.19 181.6 566.03 500 430.34 500 498.19 181.6"/><polygon class="b" points="171.69 500 171.69 500 498.19 429.21 498.19 570.79 171.69 500"/><polygon class="b" points="824.68 500 824.68 500 498.19 570.79 498.19 429.21 824.68 500"/><polygon class="b" points="321.44 676.92 321.44 676.92 462.98 464.88 533.48 535.39 321.44 676.92"/><polygon class="b" points="675.01 323.35 675.01 323.35 533.48 535.39 462.98 464.88 675.01 323.35"/><polygon class="b" points="321.12 322.3 321.12 322.3 533.15 463.84 462.65 534.34 321.12 322.3"/><polygon class="b" points="674.69 675.87 674.69 675.87 462.65 534.34 533.15 463.84 674.69 675.87"/></svg>