<svg viewBox="0 0 64 64" xmlns="http://www.w3.org/2000/svg"><g fill="#f2d346"><path d="m54.88 28.13v-.4a12.23 12.23 0 0 0 -2.51-6.65l-.1-.08a8.29 8.29 0 0 0 -1.83-1.65c-3.75-2.51-9.14-2.13-13.63-.12-1 .44-1.64.72-2.23.92.6-5 2.61-6.62 7.11-9.12l.08-.05a.83.83 0 0 0 .22-.24c.39-.72-.79-2.11-2.63-3.09-1.59-.84-3.14-1.12-3.79-.72s-.35.07-1.35 1.24c-1.45 1.7-2.25 4.84-2.73 7.73a14.2 14.2 0 0 0 -3.72-4c-2.77-2.15-6.51-3.22-9.52-4.9-1.6 2.66.71 7.37 2.24 10.19a11.9 11.9 0 0 0 -4.79.65c-11.51 4.47-6.21 23 1.14 33l.16.16.08.11a1.83 1.83 0 0 0 .13.16l.08.11.12.16.09.11.12.16.09.11.12.15.09.11.12.14a.39.39 0 0 1 .08.1l.23.27.11.12.11.12.1.12.11.12.11.12.11.11.11.12.1.11.12.12.1.1.12.13.09.09.17.16.07.07.19.18.08.07.14.13.09.08a.69.69 0 0 0 .13.11l.09.08.13.11.09.08.13.1.08.07.14.11.08.06.16.12h.06l.21.15h.05l.17.12.1.13.14.09h.09a.57.57 0 0 0 .13.08l.08.06.13.07h.09l.13.07.08.05.14.07h.07l.21.1c1.71.78 8.68.38 10.85-2.15 2.93 2.4 4.62 2.84 7 2.68 9.59-.46 14.71-19.57 13.74-28.99z"/><path d="m-7.13 26.23h79.01v12h-79.01z" transform="matrix(.70710678 -.70710678 .70710678 .70710678 -13.31 32.33)"/></g></svg>