<svg viewBox="0 0 136 164" xmlns="http://www.w3.org/2000/svg"><path d="m122.75 20.84h-6.73l-3.41-4.01 2.63-1.18 3.14-2.65 6.06.23 5.39 1.73-.75 1.96z" fill="#b2a874"/><path d="m112.07 20.64.54-3.81 2.11 2.49-.38 4.79z" fill="#806040"/><path d="m118.38 27.01-2.08-6.99-1.58-.7-.38 4.79z" fill="#8c6946"/><path d="m129.08 16.92 3.01 7.07-8.44 3.02-.9-6.17z" fill="#8c6946"/><path d="m118.38 27.01h5.27l-.9-6.17-6.63-.91" fill="#806040"/><path d="m132.09 23.99.91-1.81-3.17-7.22-.75 1.96z" fill="#8c6946"/><path d="m126.22 26.1-2.72-5.71-.75.45.9 6.17z" fill="#8c6946"/><path d="m112.75 12.84h-6.73l-3.41-4.01 2.63-1.18 3.14-2.65 6.06.23 5.39 1.73-.75 1.96z" fill="#b2a874"/><path d="m102.07 12.64.54-3.81 2.11 2.49-.38 4.79z" fill="#806040"/><path d="m108.38 19.01-2.08-6.99-1.58-.7-.38 4.79z" fill="#8c6946"/><path d="m119.08 8.92 3.01 7.07-8.44 3.02-.9-6.17z" fill="#8c6946"/><path d="m108.38 19.01h5.27l-.9-6.17-6.63-.91" fill="#806040"/><path d="m122.09 15.99.91-1.8-3.17-7.23-.75 1.96z" fill="#8c6946"/><path d="m116.22 18.1-2.72-5.72-.75.46.9 6.17z" fill="#8c6946"/><path d="m5.92 21.99 6.49 4.58 10.71.45 12.67-.88 9.99-5.3-.65-8.76-32.96-5.77-6 6.71z" fill="#8c6946"/><path d="m29.31 17.55 15.82-5.47.65 8.76-3.61 2.18-.3-8.02-7.17 1.17 1.09 9.97-5 .28-4.19.39 1.34-.63-3.31-3.7z" fill="#806040"/><path d="m17.2 22.48h7.43l-1.51 4.54-10.71-.45z" fill="#806040"/><path d="m6.17 13.02 2.23 2.56 1.77 9.44-4.25-3.03z" fill="#806040"/><path d="m34.28 17.23-.36 2.57-1.21-2.46z" fill="#806040"/><path d="m31.36 17.47-.33 4.18-1.77-4.03z" fill="#806040"/><path d="m13.4 25.08-.69-4.31 1.38 1.84z" fill="#806040"/><path d="m17.16 22.53 7.49-.16 4.66-4.82 15.82-5.47-1.3-2.56-31.93-3.51-5.73 7.01 4.16 5.02z" fill="#cfbb7c"/><path d="m43.83 9.52-15-2.92-16.93-.6-5.73 7 4.22 5.07 6.77 4.45 7.49-.16 4.59-4.77 12.63-2 3.26-3.5zm-15.66-.52c1.2.14 8.53 1.58 8.49 1.91-.31 2.7-9.64 5.46-11.4 6a11.43 11.43 0 0 1 -3.42.56c-2 0-3.62-.37-3.62-.84s1.48-.81 3.35-.84h.08c-3.26-.26-5.74-1.52-5.74-3 0-1.16 1.42-2.16 3.53-2.69-2.78-.5 9.56-1.32 8.73-1.1z" fill="#b2a874"/><path d="m125.7 105.99-14.96 15.27-16.43 5.77-19.11-1.99-18 2.11-20.98-2.11-14.7-1.85-10.67-7.07-5.92-14.36v-8.02l25.46-.84 102.07-19.43-2.54 19.43z" fill="#8c6946"/><g fill="#806040"><path d="m14.4 102.34 2.03 11.25 2.62-12.51z"/><path d="m49.52 126.38 1.35-8.73 1.17 8.98z"/><path d="m82.19 97.84.54 4.41 1.87-4.22z"/><path d="m86.67 98.25.5 7.16 2.71-6.91z"/><path d="m111.22 118.28 1.06-7.38-2.11 3.16z"/><path d="m4.93 93.74v8.02l5.92 14.36 10.67 7.07 1.57-16.36-9.29-4.64z"/><path d="m14.65 119.92.76-10.08 1.06 2.11h1.05l.93 11.35z"/><path d="m47.16 99.65.12 6.82 3.16-2.11-1.05-2.11 1.57-3.44z"/><path d="m60.67 97.12-5.49.42-16.04 4.22-2.96 23.23 21.12 2.11z"/><path d="m89.81 98.39-20.69-1.27 1.69 28.29 4.39-.37 13.76 1.64 2.96-13.51 5.07-6.34z"/><path d="m108.39 106.83h-11.4l-2.68 20.2 16.43-5.77z"/><path d="m124.86 90.78-2.96 4.23-2.11 17.31 5.91-6.33z"/></g><path d="m108.45 106.92-11.49-.28-7.15-8.25-24.92-1.69-9.71.84-24.97 6.49-7.03 2.89-9.38-4.73-8.87-8.45.46-18.59-1.92-20.15.96-20.02 12.99-15.98 10.56-8.02 6.09-5.91 20.69-5.07 27.45 2.11 22.38 8.02 14.35 5.49 11.67 21.69v21.58l1.92 14.75-2.61 19.26-10.98 6.33z" fill="#cfbb7c"/><path d="m35.61 26.54a3.68 3.68 0 0 1 -1.61 2.78c7.14.78 12.2 2.69 12.2 4.93 0 1.33 14.8.48 17.86.48s9.86.25 9.86-.48 1.34-1.37 1.11-2.34c-.69-2.94-4.75-2.57-4.75-4.41 0-.28.33-.61.15-.83-1.36-1.67-4.43.33-6.89.33-.08.24.32.31.32.48 0 .8-2.49 1.45-5.55 1.45-2.43 0-4.49-.41-5.25-1h-.53c-3.09.07-5.53-.59-5.53-1.39 0-.51 2.42.32 2.51-1.21.17-2.89-4-2.44-5.08-3-2.71-1.54-6.74.89-10.7.89h-.53c1.48.86 2.41 2.04 2.41 3.32z" fill="#b2a874"/><path d="m113.6 63c-2.22-2.36-7-1.14-9.59-1.27-2.07-.1-6.24-1.27-6.84.59-.08.26.48.29.48.45 0 .61-2.49 1.11-5.56 1.11-.42 0-.84 0-1.23 0-2.25 1.72-9.69 3-18.56 3-2.55 0-5-.1-7.2-.29a49.7 49.7 0 0 1 -11.19 1.65 1.41 1.41 0 0 1 .09.49 2.51 2.51 0 0 1 -1.27 1.93c1.55.06 3 .16 4.42.29a20.58 20.58 0 0 1 4.12-.37c3.07 0 5.55.5 5.55 1.11 0 .29-.56.56-1.47.76 2 .63 3.1 1.39 3.1 2.2 0 .57-1.78.72-1.53 1.59 1.31 4.61 10.2 2 10.2 3.59a1.54 1.54 0 0 1 -.76 1.13c1.13 0 2.3.4 3.29.1 1.62-.5 4-1.83 7.92-2.39-2.27-.13-3.92-.56-3.92-1.06 0-.16.18-.31.5-.45-2-.17-3.39-.57-3.39-1 0-.61 2.48-1.11 5.55-1.11s5.56.5 5.56 1.11c0 .17-.19.32-.5.46 2 .17 3.39.56 3.39 1 0 .17-.62.19-.51.47.37 1 2.66-.1 4.06-.1 3 0 7.36 2.22 8.32.41.53-1-1.79-1.42-1.79-2.26s2-1.17 1.67-2.18c-.81-3-6.28-1.81-6.28-3a1 1 0 0 1 .09-.37c-5 0-9-.84-9-1.85s4.15-1.85 9.26-1.85a36.6 36.6 0 0 1 5.88.43c1.24-1.26 4-2.21 7.51-2.53a1.92 1.92 0 0 1 -.49-1.22c.03-.29.25-.48.12-.57zm-37.88 8.22c-3.07 0-5.56-.49-5.56-1.11s2.49-1.11 5.56-1.11 5.55.5 5.55 1.11-2.49 1.11-5.55 1.11z" fill="#b2a874"/><path d="m100.46 27.88c-1.5-2-3.73-2.46-5.21-3s-3.37.69-5.29.69a19.51 19.51 0 0 0 -2.38-.13c-.51.06-1.54-.07-1.52.49.12 3.39 4.93 3 6.65 3.82 2 1 6.09 1.26 7.82-1.12.13-.18-.09-.43-.09-.65 0 .02.04-.07.02-.1z" fill="#b2a874"/><path d="m29.85 51.54c-.12.21-1.76 1.07-1.76 1.28 0 1.63-.92 2-7.53 2.41 4 .54 2.17 3 3.47 3.58 2.1.91 5-.5 8-.5.56 0 1.33.38 1.64 0 .09-.09-.07-.23-.07-.34 0-.91 4.18-.24 3.95-2.36-.13-1.26.91 2.11 1.61.27.07-.17.44-3.39.44-3.51-.04-.51-7.42-4.81-9.75-.83z" fill="#b2a874"/><path d="m130.61 58.89v-21.58l-11.79-23.59-14.35-5.49-22.26-6.12-27.45-2.11-20.69 5.07-8 5-10.56 8-11.08 16.93-1 20 1.96 20.15-.46 18.59 9 8.25 9.27 4.93 7-2.89 25-6.51 9.8-1 24.89 1.93 7 8.16 11.49.28 10.39-7.62 11.08-6.4 2.61-19.26zm-12-19.32c-.05.49.7.45.7.71 0 .67-5.43 7.79-5.19 8.71.8 3.07 4.89 2.16 4.89 3.51 0 .68-1.5.91-1.31 1.92.7 3.82 6.12 2.34 6.12 3.86 0 1.24-1.56 2.38-4.15 3.28a3.45 3.45 0 0 1 1.27 2.5c0 2.23-2.78 4.13-6.71 4.91 6.26.88 10.56 2.66 10.56 4.72 0 2.34-7.71.49-13.12 5-.5.43.6 1.12.6 1.73 0 2.34-3.08 4.33-7.35 5 3.23.92 5.42 2.63 5.42 4.61 0 2.61-3.81 4.77-8.82 5.21l.14.09c2.87.06 5.13.68 5.13 1.44s-2.49 1.45-5.56 1.45a16 16 0 0 1 -5.24-1c-2.71-.93-6-9.13-6-9.89 0-.57 1.26-1.06 3.1-1.29a11.08 11.08 0 0 1 -3.07-1.44 64.64 64.64 0 0 1 -6.56.32c-1.54 0-3.13-.68-4.46-.14-2 .81-5.56 2.91-11 3.56.8.25 1.28.57 1.28.92 0 .8-2.49 1.44-5.55 1.44s-5.56-.64-5.56-1.44c0-.18.44-.24.36-.51-.77-2.58-5.22-.89-7.49-.63a29.62 29.62 0 0 1 -4.65.66c-3.07 0-5.55-.65-5.55-1.45a.64.64 0 0 1 .33-.48h-.17c-5.75 0-9.59 6.2-9.83 3.38a18.16 18.16 0 0 1 -3.14.25 20.77 20.77 0 0 1 -2.32-.13c-.6.63-2.78 1.09-5.38 1.09-3.07 0-5.56-.64-5.56-1.44s1.81-1.25 4.24-1.4c-.25-.17-.39-.34-.39-.53 0-.8 2.49-1.44 5.56-1.44h1.21a2.1 2.1 0 0 1 -.77-1.48c0-.73 2.12-1.06 1.52-2.07-2.45-4.08-10.14-2.55-10.14-4.57 0-1.52 2.33-2.88 6-3.85a6.29 6.29 0 0 1 -3-2.54c-1.91-.23-3.24-.73-3.24-1.32s1.34-1.08 3.24-1.31c.22-.43 1.09-.67 1-1.24-.51-2.61-4-2-4-3.22a2.37 2.37 0 0 1 1.07-1.74c-4.19-1-6.85-2.42-6.85-4 0-1.18 1.4-2.26 3.75-3.13a2.58 2.58 0 0 1 -.11-.73c0-1.39 1.1-2.66 2.88-3.6-1.09-.67-1.71-1.4-1.71-2.18 0-1.77-1-5.19-1-6.92a2 2 0 0 1 .59-1.29c-1.69-.42 5.19-2.08 7.12-4 .75-.73-1.18-1.54-1.18-2.41 0-2.15 8.82 2.32 8.38-1.45-.28-2.4-6.06-2.33-6.06-3.85 0-1.22 1.53-2.35 4.07-3.24-5.34-.95-5.88-.59-5.88-2.46 0-1.52 2.33-2.88 6-3.85-.89-.25-1.44-.59-1.44-1 0-.79 2.49-1.44 5.55-1.44.18 0 1.75-3.48 4.18-3.48 3.07 0 7.16 3.16 7.16 4a3.32 3.32 0 0 1 2.73-1c1-.29-3.42-7.23-1.79-7.23 3.07 0 5.56.64 5.56 1.44 0 .38 5.42-3 5.74-2.19a60.64 60.64 0 0 1 10.7-.89c1.06 0 2.09 0 3.1.07-.27-.17-.42-.36-.42-.55 0-.8 2.48-1.45 5.55-1.45.63 0 1.8.91 4.87.91s5.36.6 5.54 1.36c1.71.34-1.45 4.7-.32 5.4.54 0 1.1-.07 1.69-.07 2 0-1.59 9.25 4.38 5.7-.43-.2-.67-.44-.67-.69 0-.8 2.49-1.44 5.55-1.44h.54c.76-.56 2.82-1 5.24-1 3.07 0 5.56.65 5.56 1.45s-2.54 1.94-.86 2.23a12.45 12.45 0 0 1 4.93-.79c3.07 0 5.56.65 5.56 1.45 0 .61-1.48 1.13-3.56 1.34 1.46.75 2.3 1.6 2.3 2.51 0 1.78-3.19 3.34-8.07 4.3 1.56.93 2.5 2.11 2.5 3.41 0 0 5.78 2.76 5.78 4.81 0 .93 6.9-6.16 7.12-5 .51 2.6 4 2 4 3.22.02 1.56-6.64-.42-7.12 4.01z" fill="#b2a874"/><path d="m90.78 127.99-6.49 4.58-10.71.44-12.66-.87-10-5.31.66-8.75 32.95-5.77 6 6.71z" fill="#8c6946"/><path d="m67.39 123.55-15.81-5.47-.66 8.75 3.61 2.18.3-8.01 7.17 1.17-1.08 9.97 4.99.28 4.19.39-1.33-.63 3.3-3.7z" fill="#806040"/><path d="m79.5 128.48h-7.43l1.51 4.53 10.71-.44z" fill="#806040"/><path d="m90.53 119.02-2.22 2.56-1.78 9.43 4.25-3.02z" fill="#806040"/><path d="m62.43 123.23.35 2.57 1.22-2.46z" fill="#806040"/><path d="m65.35 123.47.32 4.18 1.77-4.03z" fill="#806040"/><path d="m83.3 131.08.69-4.31-1.38 1.85z" fill="#806040"/><path d="m79.54 128.53-7.48-.16-4.67-4.82-15.81-5.47 1.3-2.56 31.93-3.5 5.72 7-4.15 5.02z" fill="#cfbb7c"/><path d="m51.57 118.08 3.26 3.5 12.63 2 4.6 4.77 7.48.16 6.77-4.45 4.22-5.06-5.72-7-16.94.59-15 2.92zm25.7-2.08c2.1.53 3.53 1.53 3.53 2.69 0 1.52-2.48 2.78-5.75 3a.26.26 0 0 1 .09.05c1.87 0 3.34.4 3.34.84s-1.62.84-3.62.84a11.28 11.28 0 0 1 -3.41-.56c-1.77-.54-11.09-3.3-11.4-6 0-.33 7.29-1.77 8.48-1.91-.78-.17 11.52.65 8.74 1.05z" fill="#b2a874"/><ellipse cx="35.71" cy="127.49" opacity=".07" rx="6.4" ry="1.5"/><path d="m41.8 127.91c-.13-.18 1.63-4.07 2.21-5.62a9.13 9.13 0 0 0 -4.95 4 42.35 42.35 0 0 1 .95-9.72c-2.08 2.85-3.08 6.32-4 9.72l-1.11-5a8.82 8.82 0 0 0 -1 3.16 22.33 22.33 0 0 1 -.72 3.11" fill="#949c54"/><path d="m86.1 122.62s-.88-1.91-1-2.17a8 8 0 0 0 -2.2-3.28l.29 4.63a31.68 31.68 0 0 0 -4.79-6.58 21.59 21.59 0 0 0 1.27 5 11.86 11.86 0 0 1 .36 2.66" fill="#949c54"/><path d="m106.87 122.34c-.56-1.26-.73-4.64-2.35-6.35-.4 1.64.77 3.41.23 5l-2.64-2a10.67 10.67 0 0 1 1.23 3.36" fill="#949c54"/><path d="m110.36 124.01-6.2.02-1.37-1.56 2.71-1.82 2.03-1.71 3.93.15 3.49 1.11-.49 1.27z" fill="#b2a874"/><path d="m102.44 124.88.35-2.51 1.37 1.66-.24 3.1z" fill="#806040"/><path d="m107.53 128.01-1.35-4.53-2.02.55-.24 3.1z" fill="#8c6946"/><path d="m114.46 121.47 1.95 4.59-5.47 1.95-.58-4z" fill="#8c6946"/><path d="m107.53 128.01h3.41l-.58-4-4.3-.59" fill="#806040"/><path d="m116.41 126.06.59-1.18-2.05-4.68-.49 1.27z" fill="#8c6946"/><path d="m112.6 127.42-1.75-3.7-.49.29.58 4z" fill="#8c6946"/><path d="m113.35 120.73-6.41-.13 1.8-.64h2.82z" fill="#cfbb7c"/><path d="m14.36 122.01-4.36.01-2.21-2.6 1.71-.77 2.03-1.71 3.93.15 3.49 1.11-.49 1.27z" fill="#b2a874"/><path d="m7.44 121.88.35-2.46 1.37 1.61-.24 3.1z" fill="#806040"/><path d="m11.53 126.01-1.35-4.53-1.02-.45-.24 3.1z" fill="#8c6946"/><path d="m18.46 119.47 1.95 4.59-5.46 1.95-.59-4z" fill="#8c6946"/><path d="m11.53 126.01h3.42l-.59-4-4.3-.59" fill="#806040"/><path d="m20.41 124.06.59-1.18-2.05-4.68-.49 1.27z" fill="#8c6946"/><path d="m16.6 125.42-1.75-3.7-.49.29.59 4z" fill="#8c6946"/><path d="m131 65-6.61-23h4l2.22-4.69z" fill="#8c6946"/><path d="m5.39 75.15 1.61-15.15-3.53-5z" fill="#8c6946"/></svg>