<svg viewBox="0 0 136 164" xmlns="http://www.w3.org/2000/svg"><path d="m134.15 147-8.13 8h-5.79l-13.2 2.76-6.94-2.61-12.78 1.74-18.1-1.89-17.06 2-19.88-2-13.16 2-14.96-6-2-10.19v-8.65l132-.31v3.15z" fill="#8c6946"/><path d="m133.15 134-14.19 2h-8.82l-11.92-.29-6.45.29-25.84-2-10.17 1-26.85-2-7.29 3-18.47-2-1-1.84 1-29.15-2-20.88 2-10.83-2.3-28.07 1.3-8.23-1.22-8.83 1.22-11.17-1-11 6-2 9 1 11.99-2 26.93 2 27.36-3 23.63 3 16.55-2 10.54 2 2 9.66-2 24.76 1 16.58.45 9.06-1.45 23.07 2 15.31-2 11.56 1 18.85z" fill="#cfbb7c"/><g fill="#806040"><path d="m3.15 134-1-1.84v8.65l2 10.19z"/><path d="m29.15 133-8 3-2.04 21 13.16-2z"/><path d="m67.15 134-11 1-4 22 17.06-2 4.94 1-4-13-2.28-1.61z"/><path d="m98.22 135.71-6.07.29-4.84 20.89 12.78-1.74z"/><path d="m119.15 136h-9l-3.12 21.76 13.2-2.76z"/><path d="m134.15 131.85-1 2.15-7 21 8-8z"/><path d="m36.94 133.6 1.21 10.4 2.2-10.15z"/><path d="m44.87 156.27 1.28-8.27 1.11 8.51z"/><path d="m76.63 134.83.52 4.17 1.77-4z"/><path d="m81.68 135.22.47 6.78 2.57-6.54z"/><path d="m121.15 138 1 7 1-4z"/><path d="m106.15 153 1-7-2 3z"/><path d="m7.79 134.42.36 5.58 1.75-5.34z"/><path d="m11.89 154.11 2.26-11.11 1 2h1l-.6 10.57z"/><path d="m43.18 134.06-.03 4.94 3-2-1-2 .47-.58z"/></g><g fill="#b2a874" opacity=".7"><path d="m37.15 31.5a3.82 3.82 0 0 1 -1.67 2.89c7.41.8 12.67 2.79 12.67 5.11 0 1.39-1.88 2.65-5 3.62a19 19 0 0 1 6.49 2.32c2.25-.56 7.4 1.73 8-1.22.09-.49-.71-.46-.71-.72 0-.71 3.75 1 4.4-1.46.08-.29-.4-.35-.4-.54 0-.83 2.59-1.5 5.77-1.5s5.77.67 5.77 1.5-3.74-1-4.4 1.46c-.08.29.4.35.4.54s-.69.24-.6.66c.35 1.63 3.35 1.07 4.72.49s4.48-.61 5.23-3c.25-.83-.89-1.39-.89-2.15s1.4-1.42 1.16-2.43c-.72-3-4.93-2.66-4.93-4.57 0-.3.34-.64.15-.87-1.41-1.73-4.63.37-7.15.37-.08.25.34.32.34.5 0 .83-2.58 1.5-5.77 1.5-2.52 0-4.66-.42-5.44-1h-.56c-3.18 0-5.77-.67-5.77-1.5 0-.52 2.52.34 2.61-1.25.18-3-4.14-2.53-5.27-3.18-2.82-1.59-7 .93-11.11.93h-.56c1.56.94 2.52 2.17 2.52 3.5z"/><path d="m101 90.81c-2.3-3.19-7.25-1.53-10-1.71-2.16-.13-6.49-1.71-7.1.8-.09.35.49.39.49.6 0 .83-2.58 1.5-5.77 1.5-.44 0-.87 0-1.28 0-2.33 2.33-10.06 4-19.26 4a67.31 67.31 0 0 1 -7.48-.4 40.89 40.89 0 0 1 -11.61 2.23 3 3 0 0 1 .09.67 3.59 3.59 0 0 1 -1.32 2.6c1.61.08 3.14.22 4.59.4a16 16 0 0 1 4.27-.5c3.19 0 5.77.67 5.77 1.5 0 .39-.58.75-1.53 1 2 .86 3.22 1.89 3.22 3 0 .76-1.85 1-1.59 2.15 1.36 6.22 10.59 2.75 10.59 4.85a2.19 2.19 0 0 1 -.79 1.52c1.17 0 2.39.55 3.42.13 1.67-.67 4.19-2.47 8.22-3.22-2.36-.18-4.08-.75-4.08-1.43 0-.22.19-.43.52-.62-2.06-.23-3.52-.76-3.52-1.38 0-.83 2.59-1.5 5.77-1.5s5.77.67 5.77 1.5c0 .22-.19.43-.52.62 2.07.23 3.52.76 3.52 1.38 0 .22-.64.25-.53.62.38 1.31 2.77-.12 4.22-.12 3.1 0 7.64 3 8.64.55.55-1.36-1.87-1.92-1.87-3s2-1.59 1.74-3c-.84-4-6.51-2.44-6.51-4a1.43 1.43 0 0 1 .09-.5c-5.17 0-9.32-1.15-9.32-2.5s4.38-2.55 9.69-2.55a29.71 29.71 0 0 1 6.1.57c1.29-1.69 4.2-3 7.8-3.41a3.12 3.12 0 0 1 -.52-1.66c0-.23.24-.5.08-.69zm-39.31 11.19c-3.18 0-5.77-.67-5.77-1.5s2.59-1.5 5.77-1.5 5.77.67 5.77 1.5-2.58 1.5-5.77 1.5z"/><path d="m45.15 65c2.39 0 5.17 1.72 6.79.33.67-.56 1.63-1.41 1.28-2.41-1.16-3.37-6-2.14-8.1-3-.6-.24-1.31 0-2 0-2.12.08-4.12-.01-6.12-.18a2.8 2.8 0 0 1 .12.76 4 4 0 0 1 -2 3.13 12.14 12.14 0 0 1 3.88 1.64c1.94-.18 4-.27 6.15-.27z"/><path d="m103.16 29.38c-1.55-2.09-3.87-2.55-5.41-3.1s-3.49.72-5.49.72a21 21 0 0 0 -2.47-.14c-.53.07-1.6-.07-1.58.5.12 3.53 5.12 3.08 6.9 4 2.13 1.06 6.33 1.31 8.13-1.16.13-.18-.09-.44-.09-.67 0-.07.03-.12.01-.15z"/><path d="m103 60c-6.26-7.84-17.83-2.63-17.83-5.47 0-1.21 3.67-.67 3.82-3.22 0-.06-.1-.08-.15-.09-1.78-.22-3.68.78-5.84.78a9.88 9.88 0 0 0 -1.94-.09c-3.37.73-13.62-3.6-16.2 3.07-.39 1 1.25 1.61 1.25 2.52s-1.67 1.51-1.3 2.58c1.73 5 9.3 2.69 9.3 5.42s-5.11 2.06-9.04 5.4c-1.67 1.41-9.24-1.47-12.23 4.68-.15.31.31.6.31.92 0 2.5-1.69 3.86-10.15 4.5 5.07.84 3.29 3.91 5 4.77 2.69 1.4 10.78-1.6 13-2.77 3.8-2 8.51-7 11.69-7s5.77.67 5.77 1.5 12.29 3 16.58-3.24c.15-.21-.12-.5-.12-.76 0-.53.72-1 .45-1.52-5-8.92-18.22-2.61-18.22-5.48 0-1.19 3.69-.69 3.71-3.18 0-.64-.94-.52-.94-.82 0-.83 2.59-1.5 5.77-1.5 1.52 0 2.88.34 3.94.41 2.33.14 4.85-.41 7.52-.41 2 0 4.69 1.68 5.89.24.16-.19-.12-.49-.12-.74s.17-.39.08-.5z"/><path d="m133.15 86.13 1.45-23.07-.45-9.06-1-16.58 2-24.76-2-9.66-10.54-2-16.55 2-23.63-3-27.36 3-26.94-2-12 2-9-1-6 2 1 11-1.2 11.17 1.22 8.83-1.3 8.23 2.3 28.07-2 10.83 2 20.88-1 29.15 1 1.84 18.47 2 7.29-3 26.85 2 10.17-1 25.84 2 6.45-.29 11.92.29h8.86l14.19-2 1-2.15-1-18.85 2-11.55zm-12.42-46.36c0 .51.73.47.73.73 0 .7-2.5-.23-4.36 1.45s-6.13 1-9 4.95c-.12.17.07.4.07.6 0 .54-.73 1-.46 1.55.71 1.3 3.1 1 4.27.28a11.91 11.91 0 0 1 5.71-1.33c3.19 0 5.77.67 5.77 1.5 0 .6-3.17-.62-3.35 1.36-.29 3.26 5 2.24 5 3.64 0 .94-.87 1.83-2.39 2.6 1.49.94 2.39 2.12 2.39 3.4 0 2.53-3.47 4.66-8.18 5.3a1.77 1.77 0 0 1 .18.7c0 1.13-1.25 2.18-3.38 3.06 2.08 1 3.38 2.39 3.38 3.94 0 .84-1.33 1.39-1.08 2.35.83 3.19 5.08 2.25 5.08 3.65 0 .7-1.56.94-1.37 2 .74 4 6.37 2.43 6.37 4 0 1.29-1.62 2.47-4.32 3.41a3.56 3.56 0 0 1 1.32 2.59c0 2.31-2.88 4.28-7 5.1 6.5.91 11 2.76 11 4.9 0 2.42-8 .5-13.62 5.21-.52.44.62 1.16.62 1.79 0 2.43-3.2 4.5-7.63 5.22 3.36 1 5.63 2.73 5.63 4.78 0 2.71-4 5-9.16 5.41a.71.71 0 0 1 .14.1c3 0 5.33.7 5.33 1.49s-2.58 1.5-5.77 1.5a16.29 16.29 0 0 1 -5.44-1c-2.82-1-5.33-.7-5.33-1.49 0-.59 1.32-1.1 3.22-1.34a11.74 11.74 0 0 1 -3.1-1.5c-2.13.21-4.42.33-6.81.33-1.6 0-3.25-.71-4.63-.15-2.09.84-5.78 3-11.39 3.69.83.26 1.33.6 1.33 1 0 .83-2.58 1.5-5.77 1.5s-5.77-.67-5.77-1.5c0-.19.46-.25.38-.53-.81-2.68-5.43-.92-7.78-.65a30.33 30.33 0 0 1 -4.83.68c-3.18 0-5.77-.67-5.77-1.5a.69.69 0 0 1 .35-.51h-.31c-6 0-10.84-2.34-11.09-5.26a19.58 19.58 0 0 1 -3.26.26 20.06 20.06 0 0 1 -2.41-.14c-.62.65-2.88 1.14-5.59 1.14-3.18 0-5.77-.67-5.77-1.5s1.88-1.3 4.4-1.46a.72.72 0 0 1 -.4-.54c0-.83 2.59-1.5 5.77-1.5h1.26a2.21 2.21 0 0 1 -.8-1.54c0-.76 2.2-1.1 1.58-2.15-2.58-4.35-10.58-2.75-10.58-4.85 0-1.58 2.42-3 6.28-4a6.49 6.49 0 0 1 -3.15-2.64c-2-.24-3.36-.76-3.36-1.36s1.38-1.12 3.36-1.36c.24-.46 1.14-.7 1-1.29-.53-2.71-4.15-2.09-4.15-3.35a2.44 2.44 0 0 1 1.11-1.8c-4.35-1-7.11-2.51-7.11-4.2 0-1.22 1.45-2.34 3.89-3.25a2.79 2.79 0 0 1 -.12-.75c0-1.45 1.15-2.76 3-3.75-1.13-.68-1.77-1.45-1.77-2.25 0-1.84 3.31-3.47 8.37-4.47-1.62-1-2.6-2.19-2.6-3.53a4 4 0 0 1 2-3.13c-3.55-.91-6-2.75-6-4.87 0-2.57 3.58-4.72 8.39-5.33a1.61 1.61 0 0 1 -.16-.67 2.47 2.47 0 0 1 1.16-1.84c-7.67-.77-13.16-2.78-13.16-5.16 0-1.39 1.88-2.65 5-3.62-4.82-1-8-2.59-8-4.38a2 2 0 0 1 .62-1.33c-1.77-.45-2.85-1-2.85-1.67 0-1.31 8.23-.5 10.24-2.49.77-.76-1.24-1.6-1.24-2.51 0-2.22 7-1.09 6.52-5-.29-2.5-6.29-2.42-6.29-4 0-1.27 1.58-2.44 4.22-3.37-5.54-1-9.22-2.68-9.22-4.63 0-1.57 2.42-3 6.27-4-.92-.27-1.5-.62-1.5-1 0-.83 2.59-1.5 5.77-1.5h.56c.78-.59 2.92-1 5.44-1 3.19 0 5.77.67 5.77 1.5 0 .19-.14.36-.37.53 2.24.06 4.36.22 6.33.47a16 16 0 0 1 4.33-.49c3.19 0 5.77.67 5.77 1.5 0 .39-.58.75-1.53 1 1.67.71 2.78 1.53 3.11 2.42a62.16 62.16 0 0 1 11.11-.92c1.1 0 2.17 0 3.22.08-.29-.18-.45-.38-.45-.58 0-.83 2.59-1.5 5.77-1.5.66 0 1.28 0 1.87.08a12 12 0 0 1 1.93-.94c-.36-.19-.57-.41-.57-.64 0-.83 2.59-1.5 5.77-1.5s5.56.62 5.75 1.41a13.64 13.64 0 0 1 4.5 1.66c.55 0 1.14-.07 1.75-.07a14.39 14.39 0 0 1 4.83.68c1.29-.2 2.66-.35 4.11-.46-.45-.22-.71-.46-.71-.72 0-.83 2.59-1.5 5.77-1.5h.56c.78-.59 2.92-1 5.44-1 3.19 0 5.77.67 5.77 1.5s-2.58 1.5-5.77 1.5h-.56a1.14 1.14 0 0 1 -.27.17c2 .14 4 .36 5.71.65a13.06 13.06 0 0 1 5.12-.81c3.19 0 5.77.67 5.77 1.5 0 .64-1.53 1.18-3.69 1.4 1.51.77 2.38 1.66 2.38 2.6 0 1.84-3.31 3.47-8.38 4.47 1.62 1 2.6 2.19 2.6 3.53v.12c2.19 2.95 6 2.75 6 4.88 0 1-1.61 1.5-1.38 2.65.53 2.71 4.16 2.09 4.16 3.35 0 1.72-6.91-.34-7.42 4.26z"/></g></svg>