<svg viewBox="0 0 136 164" xmlns="http://www.w3.org/2000/svg"><path d="m134 147-8.13 8h-5.79l-13.2 2.76-6.94-2.61-12.77 1.74-18.11-1.89-17.06 2-19.88-2-13.16 2-14.96-6-2-10.19v-8.65l132-.31v3.15z" fill="#8c6946"/><path d="m133 134-14.18 2h-8.82l-11.93-.29-6.44.29-25.85-2-10.17 1-26.85-2-7.29 3-18.47-2-1-1.84 1-29.15-2-20.88 2-10.83-2.29-28.07 1.29-8.23-1.22-8.83 1.22-11.17-1-11 6-2 9 1 11.99-2 26.93 2 27.37-3 23.63 3 16.55-2 10.53 2 2 9.66-2 24.76 1 16.58.45 9.06-1.45 23.07 2 15.31-2 11.56 1 18.85z" fill="#79b548"/><g fill="#806040"><path d="m3 134-1-1.84v8.65l2 10.19z"/><path d="m29 133-8 3-2.04 21 13.16-2z"/><path d="m67 134-11 1-4 22 17.06-2 4.94 1-4-13-2.27-1.61z"/><path d="m98.07 135.71-6.07.29-4.83 20.89 12.77-1.74z"/><path d="m119 136h-9l-3.12 21.76 13.2-2.76z"/><path d="m134 131.85-1 2.15-7 21 8-8z"/><path d="m36.79 133.6 1.21 10.4 2.2-10.15z"/><path d="m44.73 156.27 1.27-8.27 1.12 8.51z"/><path d="m76.48 134.83.52 4.17 1.77-4z"/><path d="m81.53 135.22.47 6.78 2.58-6.54z"/><path d="m121 138 1 7 1-4z"/><path d="m106 153 1-7-2 3z"/><path d="m7.64 134.42.36 5.58 1.76-5.34z"/><path d="m11.75 154.11 2.25-11.11 1 2h1l-.59 10.57z"/><path d="m43.03 134.06-.03 4.94 3-2-1-2 .47-.58z"/></g><g fill="#72ab44" opacity=".7"><path d="m37 31.5a3.82 3.82 0 0 1 -1.67 2.89c7.42.8 12.67 2.79 12.67 5.11 0 1.39-1.88 2.65-5 3.62a19 19 0 0 1 6.5 2.32c2.24-.56 7.39 1.73 7.94-1.22.09-.49-.7-.46-.7-.72 0-.71 3.74 1 4.4-1.46.07-.29-.4-.35-.4-.54 0-.83 2.58-1.5 5.76-1.5s5.77.67 5.77 1.5-3.74-1-4.4 1.46c-.08.29.4.35.4.54s-.68.24-.59.66c.34 1.63 3.35 1.07 4.72.49s4.48-.61 5.22-3c.26-.83-.88-1.39-.88-2.15s1.39-1.42 1.15-2.43c-.68-3.07-4.89-2.66-4.89-4.57 0-.3.34-.64.15-.87-1.41-1.73-4.63.37-7.15.37-.09.25.33.32.33.5 0 .83-2.58 1.5-5.77 1.5-2.52 0-4.65-.42-5.44-1h-.56c-3.18 0-5.76-.67-5.76-1.5 0-.52 2.51.34 2.6-1.25.18-3-4.13-2.53-5.27-3.18-2.83-1.59-7.02.93-11.13.93h-.55c1.55.94 2.55 2.17 2.55 3.5z"/><path d="m43.58 99.88a3 3 0 0 1 -.08 1.73c3.6-.51 6.74 0 8.42 1.3a30.28 30.28 0 0 1 5.75-2.12c5.13-1.36 9.58-1.38 9.93-.05s-3.37 3.44-8.36 4.8a1.44 1.44 0 0 1 .22.47c.41 1.55-5.47 1.47-5.26 5.59.07 1.39 2.16 1.35 2.44 2.4s-1.9 2.25-1 3.42c1.59 2.11 5.22-2 8.21-2.74 1.4-.38 4.07.4 4.11-1 0-.38-.61-.25-.67-.46-.16-.6 1.1-1.49 3-2.24-.36-.1-.6-.25-.66-.47-.21-.8 2.11-2.11 5.19-2.93s5.75-.83 6 0c.16.6-1.1 1.49-3 2.24.36.1.6.25.66.47.17.65-1.34 1.64-3.57 2.43 4.09-.32 7 .78 8.77 1 1.1.13 2.14-.69 3.27-1a2.14 2.14 0 0 1 -1.15-1.26c-.54-2 9.27-1 9-7.41 0-1.21-1.89-.93-2.08-1.67-.28-1.06.6-2.36 2.34-3.71-1 0-1.64-.21-1.74-.59-.21-.8 2.11-2.11 5.19-2.93a16.69 16.69 0 0 1 4.26-.62c1.23-.53 2.72-1.08 4.23-1.53a3.56 3.56 0 0 1 -1.94-2.17 2.58 2.58 0 0 1 -.08-.68 40.57 40.57 0 0 1 -11.8.83 69.3 69.3 0 0 1 -7.12 2.31c-8.9 2.36-16.81 2.69-19.66 1-.39.13-.8.25-1.23.37-3.07.81-5.74.83-5.95 0-.06-.21.49-.39.31-.71-1.23-2.27-5 .37-7.06 1-2.57.87-7.78.53-9.18 4.21-.07.3.23.49.29.72zm34.65.11c-.21-.8 2.11-2.11 5.19-2.93s5.75-.83 6 0-2.11 2.11-5.19 2.93-5.78.8-6 .01z"/><path d="m45.79 73.33c.67-.56 1.64-1.41 1.29-2.41-1.17-3.37-6.08-2.14-8.08-2.92-.6-.24-1.3 0-2 0-2.14 0-4.19-.09-6.12-.26a2.8 2.8 0 0 1 .12.76 4 4 0 0 1 -2 3.13 12.08 12.08 0 0 1 3.83 1.64c1.97-.18 11.34 1.45 12.96.06z"/><path d="m112 25.38c-1.55-2.09-3.86-2.55-5.41-3.1s-3.49.72-5.49.72a21 21 0 0 0 -2.46-.14c-.53.07-1.61-.07-1.59.5.13 3.53 5.12 3.08 6.91 4 2.12 1.06 6.32 1.31 8.12-1.16.14-.18-.09-.44-.09-.67.01-.07.01-.12.01-.15z"/><path d="m102.83 60c-6.26-7.87-17.83-2.66-17.83-5.5 0-1.21 3.67-.67 3.82-3.22 0-.06-.09-.08-.15-.09-1.75-.19-3.67.81-5.78.81a9.84 9.84 0 0 0 -1.89-.09c-3.37.73-13.62-3.6-16.2 3.07-.44 1.02 1.2 1.61 1.2 2.52s-1.67 1.5-1.3 2.58c1.73 5 9.3 2.69 9.3 5.42s-5.12 2.06-9.07 5.4c-1.67 1.41-9.25-1.47-12.23 4.68-.16.31.3.6.3.92 0 2.53-6.22 4.65-14.67 5.3 5.07.84 7.81 3.11 9.48 4 2.68 1.37 6.46-.8 10.19-.8.71 0 1.69.59 2.1 0 .11-.15-.1-.35-.1-.53 0-1.4 5.35-.38 5.06-3.65-.17-1.94-3.28-.75-3.28-1.35 0-.79 4.45 1.36 5.34-1.49.08-.26-.34-.33-.34-.51 0-.83 2.58-1.5 5.76-1.5s5.77.67 5.77 1.5-4.45-1.33-5.31 1.53c-.06.18.19.27.3.34 1.8 1.05 4.33-.34 6.7-.34.37 0 .79.23 1.09 0 1.9-1.38 9.52 1.46 13.81-4.76.14-.21-.12-.5-.12-.76 0-.53.71-1 .44-1.52-4.98-8.9-18.22-2.59-18.22-5.46 0-1.19 3.7-.69 3.71-3.18 0-.64-.93-.52-.93-.82 0-.83 2.58-1.5 5.76-1.5 1.53 0 2.88.34 3.94.41 2.33.14 4.86-.41 7.52-.41 2 0 4.7 1.68 5.89.24.16-.19-.11-.49-.11-.74s.16-.39.05-.5z"/><path d="m133 86.13 1.45-23.07-.45-9.06-1-16.58 2-24.76-2-9.66-10.53-2-16.55 2-23.63-3-27.37 3-26.92-2-12 2-9-1-6 2 1 11-1.22 11.17 1.22 8.83-1.29 8.23 2.29 28.07-2 10.83 2 20.87-1 29.16 1 1.84 18.47 2 7.29-3 26.85 2 10.17-1 25.85 2 6.44-.29 11.93.29h8.82l14.18-2 1-2.15-1-18.85 2-11.55zm-12.41-46.36c-.06.51.72.47.72.73 0 .7-2.5-.23-4.36 1.45s-6.13 1-9 4.95c-.12.17.07.4.07.6 0 .54-.73 1-.45 1.55.71 1.3 3.09 1 4.26.28a12 12 0 0 1 5.71-1.33c3.19 0 5.77.67 5.77 1.5 0 .6-3.16-.62-3.34 1.36-.3 3.26 5 2.24 5 3.64 0 .94-.86 1.83-2.38 2.6 1.49.94 2.38 2.12 2.38 3.4 0 2.53-3.47 4.66-8.18 5.3a1.62 1.62 0 0 1 .18.7c0 1.13-1.25 2.18-3.37 3.06 2.07 1 3.37 2.39 3.37 3.94 0 .84-1.32 1.39-1.07 2.35.85 3.15 5.1 2.25 5.1 3.65 0 .7-1.56.94-1.36 2 .73 4 6.36 2.43 6.36 4 0 1.29-1.62 2.47-4.31 3.41a3.58 3.58 0 0 1 1.31 2.59c0 2.31-2.88 4.28-7 5.1 6.5.91 11 2.76 11 4.9 0 2.42-8 .5-13.61 5.21-.53.44.61 1.16.61 1.79 0 2.43-3.2 4.5-7.63 5.22 3.36 1 5.63 2.73 5.63 4.78 0 2.71-4 5-9.15 5.41l.13.1c3 0 5.33.7 5.33 1.49s-2.58 1.5-5.77 1.5a16.35 16.35 0 0 1 -5.44-1c-2.81-1-5.32-.7-5.32-1.49 0-.59 1.31-1.1 3.21-1.34a11.74 11.74 0 0 1 -3.18-1.49c-2.13.21-4.41.33-6.81.33-1.6 0-3.24-.71-4.63-.15-2.09.84-5.78 3-11.39 3.69.83.26 1.33.6 1.33 1 0 .83-2.58 1.5-5.77 1.5s-5.76-.67-5.76-1.5c0-.19.45-.25.37-.53-.8-2.68-5.42-.92-7.78-.65a30.15 30.15 0 0 1 -4.83.68c-3.18 0-5.76-.67-5.76-1.5a.67.67 0 0 1 .34-.51h-.23c-6 0-10.84-2.34-11.09-5.26a20.6 20.6 0 0 1 -5.66.12c-.63.65-2.89 1.14-5.6 1.14-3.18 0-5.76-.67-5.76-1.5s1.87-1.3 4.4-1.46a.69.69 0 0 1 -.4-.54c0-.83 2.58-1.5 5.76-1.5h1.27a2.18 2.18 0 0 1 -.81-1.54c0-.76 2.2-1.1 1.58-2.15-2.58-4.35-10.58-2.75-10.58-4.85 0-1.58 2.42-3 6.29-4a6.47 6.47 0 0 1 -3.16-2.64c-2-.24-3.35-.76-3.35-1.36s1.37-1.12 3.35-1.36c.24-.46 1.14-.7 1-1.29-.5-2.71-4.13-2.09-4.13-3.35a2.44 2.44 0 0 1 1.11-1.8c-4.34-1.01-7.11-2.51-7.11-4.2 0-1.22 1.46-2.34 3.89-3.25a3.24 3.24 0 0 1 -.11-.75c0-1.45 1.14-2.76 3-3.75-1.14-.68-1.78-1.45-1.78-2.25 0-1.84 3.31-3.5 8.37-4.5-1.61-1-2.59-2.19-2.59-3.53a4 4 0 0 1 2-3.13c-3.55-.91-6-2.75-6-4.87 0-2.57 3.57-4.72 8.38-5.33a1.78 1.78 0 0 1 -.16-.64 2.46 2.46 0 0 1 1.17-1.84c-7.68-.77-13.17-2.78-13.17-5.16 0-1.39 1.88-2.65 5-3.62-4.83-1-8-2.59-8-4.38a2 2 0 0 1 .62-1.33c-1.76-.45-2.84-1-2.84-1.67 0-1.31 8.22-.5 10.22-2.5.77-.76-1.23-1.6-1.23-2.51 0-2.22 7-1.09 6.51-5-.28-2.49-6.28-2.41-6.28-3.99 0-1.27 1.59-2.44 4.22-3.37-5.54-1-9.22-2.68-9.22-4.63 0-1.57 2.42-3 6.28-4-.93-.27-1.5-.62-1.5-1 0-.83 2.58-1.5 5.76-1.5h.56c.79-.59 2.92-1 5.44-1 3.19 0 5.77.67 5.77 1.5 0 .19-.13.36-.37.53 2.24.06 4.36.22 6.33.47a16 16 0 0 1 4.27-.5c3.19 0 5.77.67 5.77 1.5 0 .39-.58.75-1.53 1 1.67.71 2.78 1.53 3.11 2.42a62.16 62.16 0 0 1 11.11-.92c1.1 0 2.17 0 3.22.08-.28-.18-.44-.38-.44-.58 0-.83 2.58-1.5 5.76-1.5.66 0 1.29 0 1.88.08a11.83 11.83 0 0 1 1.92-.94c-.36-.19-.56-.41-.56-.64 0-.83 2.58-1.5 5.76-1.5s5.57.62 5.75 1.41a13.64 13.64 0 0 1 4.5 1.66c.55 0 1.14-.07 1.75-.07a14.35 14.35 0 0 1 4.83.68c1.29-.2 2.67-.35 4.11-.46-.45-.22-.7-.46-.7-.72 0-.83 2.58-1.5 5.76-1.5h.56c.79-.59 2.92-1 5.44-1 3.19 0 5.77.67 5.77 1.5s-2.58 1.5-5.77 1.5h-.54a1.78 1.78 0 0 1 -.27.17c2 .14 4 .36 5.7.65a13.06 13.06 0 0 1 5.12-.81c3.19 0 5.77.67 5.77 1.5 0 .64-1.53 1.18-3.69 1.4 1.52.77 2.38 1.66 2.38 2.6 0 1.84-3.31 3.47-8.37 4.47 1.61 1 2.59 2.19 2.59 3.53v.12c2.2 2.95 6 2.75 6 4.88 0 1-1.6 1.5-1.38 2.65.53 2.71 4.16 2.09 4.16 3.35-.01 1.72-6.92-.34-7.42 4.26z"/></g><ellipse cx="89.6" cy="69" opacity=".07" rx="5.4" ry="1"/><ellipse cx="24.6" cy="40" opacity=".07" rx="6.4" ry="2"/><ellipse cx="36.73" cy="27" opacity=".07" rx="4.27" ry="1"/><ellipse cx="78.5" cy="18.5" opacity=".07" rx="4.5" ry="1.5"/><path d="m75.89 17.66 3.2-2.99 3.91 1.56v1.99l-3.91.71z" fill="#b3b3b3"/><path d="m79.09 14.67 3.91 1.56v1.99z" fill="#ccc"/><path d="m22 40.54a.67.67 0 0 0 -.08-.62c-.73-1.45-2-2.6-2.76-4.05a8.89 8.89 0 0 1 5.25 3.39 41.82 41.82 0 0 0 -2-9.39c2.32 2.57 3.67 5.85 5 9.05l.59-4.92a8.81 8.81 0 0 1 1.32 3 20.36 20.36 0 0 0 1.23 3" fill="#309c58"/><path d="m36.37 27.48c.63-1.48.86-5.48 2.77-7.48.47 1.94-.9 4-.27 5.9l3.13-2.32c-.65 1.05-1.63 3.84-1.45 4" fill="#309c58"/><path d="m85.83 16.22a10.28 10.28 0 0 1 4.23-8.7 36.09 36.09 0 0 0 -2.39 7.31 9 9 0 0 1 3.43-3l-1.65 3.33a3.43 3.43 0 0 1 2.55-.35c-.53.38-2.08.71-2.26 1.34s1.26 1.55 1.91 1.45a7 7 0 0 1 -3.55-.25l.15.86c-.07.34-.6.34-.87.11s-.42-.58-.72-.77c-.73-.45-1.93.31-2.47-.37z" fill="#309c58"/><path d="m103.77 114.35c-.57-1.26-.74-4.65-2.36-6.35-.4 1.64.77 3.41.23 5l-2.64-2a10.79 10.79 0 0 1 1.23 3.37" fill="#309c58"/><path d="m88.37 68.8c.09-.14 0-.32-.06-.47-.57-1.12-1.57-2-2.14-3.15a6.94 6.94 0 0 1 4.07 2.63 32.4 32.4 0 0 0 -1.51-7.28 23.22 23.22 0 0 1 3.86 7l.41-3.81a6.54 6.54 0 0 1 1 2.3 15.43 15.43 0 0 0 1 2.4" fill="#309c58"/><ellipse cx="117.73" cy="124" opacity=".07" rx="4.27" ry="1"/><path d="m116.37 123.75c.66-1.48.86-5.47 2.77-7.48.47 1.94-.9 4-.27 5.9l3.11-2.33c-.65 1.06-1.63 3.85-1.45 4" fill="#309c58"/><ellipse cx="32.5" cy="92.5" opacity=".07" rx="4.5" ry="1.5"/><path d="m29.89 91.92 3.2-2.98 3.91 1.56v1.99l-3.91.71z" fill="#b3b3b3"/><path d="m33.09 88.94 3.91 1.56v1.99z" fill="#ccc"/></svg>