<svg viewBox="0 0 256 256" xmlns="http://www.w3.org/2000/svg" xmlns:xlink="http://www.w3.org/1999/xlink"><clipPath id="a"><path d="m0 0h256v256h-256z"/></clipPath><g clip-path="url(#a)"><path d="m160 12-24-10-1-39 16 7 14 10 16 1 24 7 21.51-7.63 23.49-14.37h6v20z" fill="#806040"/><path d="m205-12 21.51-7.63 23.49-14.37-13 31-29 4z" fill="#8c6946"/><path d="m165-20 16 1 5 23-21-1z" fill="#8c6946"/><g fill="#3e94c2"><path d="m0-24h3v59h-3z"/><path d="m253-24h3v59h-3z"/><path d="m0-23.24v58.24h3c4.73 0 17-3 17-3l20-6 18-2s27.25-8.28 37-8c13.63.44 63 18 63 18l21 3 24 6 26-8h27v-59h-3c-10 0-28 15-38 20-13.67 6.83-51.33-2.75-66-7-24-7-48.82-26.54-74-28-18.33-1-51 12-72 14.53a6.36 6.36 0 0 0 -3 1.23z"/></g><path d="m167.72 21.55q5.43.84 10.8 2a13.56 13.56 0 0 1 4.41 1.55c3 1.88 4.59 6 8.06 6.46 3.78.54 6.38-3.49 9.31-5.94 5-4.17 12.17-4 18.67-3.94 5.47 0 10.95-.19 16.42-.4 2.6-.11 5.28-.23 7.61-1.39s4.21-3.65 3.8-6.22l-18.75-.29a34.47 34.47 0 0 0 -7.18.4c-3.47.7-6.62 2.45-9.88 3.84-9.43 4-16.77 4.2-27 3.35-5.23-.43-13.91-2.31-19-1" fill="#fff" opacity=".2"/><path d="m113.44-1.06c-4.77-1.78-9.8-4.27-14.73-2.95-2.31.62-4.33 2-6.55 2.93-4.16 1.69-8.9 1.45-13.42 1.19l-15.42-.89c5.95 6.36 15.83 6.86 24.47 5.78s17.53-3.37 25.9-1c2.08.59 4.08 1.47 6.17 2a20.54 20.54 0 0 0 15.21-2" fill="#fff" opacity=".2"/></g></svg>