<svg viewBox="0 0 256 256" xmlns="http://www.w3.org/2000/svg" xmlns:xlink="http://www.w3.org/1999/xlink"><clipPath id="a"><path d="m0 0h256v256h-256z"/></clipPath><g clip-path="url(#a)"><path d="m139 242-4-28-21-4-33-10-32 5-31 12-18 10v10z" fill="#8c6946"/><path d="m18 217-18 10v2l20-2z" fill="#806040"/><path d="m81 200-32 5-2 13 34-1z" fill="#8c6946"/><path d="m114 210-33-10-1 19 34 12z" fill="#806040"/><path d="m160 263-24-10-1-39 16 7 14 10 16 1 24 7 21.51-7.63 23.49-6.37 6 2v10z" fill="#806040"/><path d="m205 239 21.51-7.63 23.49-6.37-13 23-29 4z" fill="#8c6946"/><path d="m165 231 16 1 5 23-21-1z" fill="#8c6946"/><g fill="#3e94c2"><path d="m0 227h3v59h-3z"/><path d="m253 227h3v59h-3z"/><path d="m0 227.76v58.24h3c4.73 0 17-3 17-3l20-6 18-2s27.25-8.28 37-8c13.63.44 63 18 63 18l21 3 24 6 26-8h27v-59h-3c-10 0-28 15-38 20-13.67 6.83-51.33-2.75-66-7-24-7-48.82-26.54-74-28-18.33-1-51 12-72 14.5a6.36 6.36 0 0 0 -3 1.26z"/></g><path d="m13.49 237.37a56.16 56.16 0 0 0 20.74-4.26c4.71-2 9.64-4.61 14.61-3.47 2.34.54 4.4 1.88 6.65 2.69 4.26 1.55 8.95 1.15 13.46.73 5.12-.48 13-1.06 20 1.94-8 3-20.25 4-28.93 3.23s-17.64-2.75-25.92 0c-2 .67-4 1.61-6.09 2.23a20.52 20.52 0 0 1 -15.27-1.49" fill="#fff" opacity=".2"/><path d="m113.44 249.94c-4.77-1.78-9.8-4.27-14.73-2.95-2.31.62-4.33 2-6.55 2.93-4.2 1.69-8.9 1.45-13.42 1.19l-15.42-.89c5.95 6.36 15.83 6.86 24.47 5.75s17.53-3.37 25.9-1c2.08.59 4.08 1.47 6.17 2a20.54 20.54 0 0 0 15.21-2" fill="#fff" opacity=".2"/></g></svg>