<svg viewBox="0 0 256 256" xmlns="http://www.w3.org/2000/svg" xmlns:xlink="http://www.w3.org/1999/xlink"><clipPath id="a"><path d="m0 0h256v256h-256z"/></clipPath><g clip-path="url(#a)"><path d="m42 33-4-17-8-16v33l11 22z" fill="#806040"/><path d="m30 215-10-21-8-34-5 14 23 82z" fill="#806040"/><g fill="#3e94c2"><path d="m-29 253h59v3h-59z"/><path d="m-29 0h59v3h-59z"/><path d="m-28.67 256h59s0-1.91 0-3c-.5-22-19.25-68.55-18.5-92 .18-5.82 8-24 8-24l5-30 10.76-26.42 1.24-13.58 4-12s-2-13.89-5-27c-2-8.55-5.31-17.1-5.5-25 0-1.08 0-3 0-3h-59s-.06 1.92 0 3c.18 3.61 7.5 11 7.5 11l3 14 10 13 5.08 17.56s0 15-1.08 23.44c-3.11 25-37.57 73.82-39 99-.3 5.14 2.41 18.57 2.41 18.57l8.59 19.43 2 24s1.57 7.09 1.5 10c-.03 1.09 0 3 0 3z"/></g><path d="m2.64 7.88c-1.29 6.82 2.25 13.27 6.17 19s8.42 11.48 9.3 18.2c.65 5-.76 10.11-1.56 15.17-2.15 13.75-8.28 29.3-9.72 23.75-1.5-5.73 4.35-9.87 4.25-15.83-.11-6.86.7-13.91-1.41-20.41-1.42-4.39-4.11-8.36-5.51-12.76a46 46 0 0 1 -1.62-9.4l-1.62-15.82" fill="#fff" opacity=".2"/></g></svg>