<svg viewBox="0 0 128 128" xmlns="http://www.w3.org/2000/svg"><path d="m0 0h128v128h-128z" fill="#3e94c2"/><g fill="#fff"><path d="m10.33 12.3c5.72 1.23 11.58-.73 17.4-1.3a73.11 73.11 0 0 1 13.47.34c4.13.36 8.34.73 12.17 2.31l-16.56.87-2.42.12-15.84.83" opacity=".2"/><path d="m49.65 22.75a33.85 33.85 0 0 0 15.38 0c4.12-1 8.18-2.71 12.41-2.45a39.5 39.5 0 0 1 7 1.52c5.27 1.32 10.73 1.58 16.15 1.84l-26.72 1.9a43.22 43.22 0 0 0 -6.62.81 38.76 38.76 0 0 1 -4.75 1.06c-3.67.36-7.21-1.26-10.54-2.84" opacity=".2"/><path d="m8.18 36.42a29.88 29.88 0 0 0 11.3-.74c2.64-.69 5.45-1.73 8-.77a32.45 32.45 0 0 1 3.32 1.92c2.2 1.17 4.66 1.26 7.08 1.37l8.25.36c-3.51 3.06-8.8 2.79-13.33 1.73s-9.14-2.75-13.73-1.93c-1.14.21-2.25.56-3.39.74a11 11 0 0 1 -8-1.91" opacity=".2"/><path d="m32.79 51.2c4.25 1.4 8.89.23 13.13-1.22s8.53-3.21 13-3c3.31.19 6.45 1.46 9.62 2.42a50.62 50.62 0 0 0 26.56.63c-2.56 2.8-6.66 3.5-10.45 3.67a60.26 60.26 0 0 1 -11.7-.6c-4.46-.67-8.92-1.83-13.41-1.42-3 .28-5.95 1.28-9 1.55a38 38 0 0 1 -6.31-.14l-10.43-.79" opacity=".2"/><path d="m88.26 40.61a20.69 20.69 0 0 0 9.53-2.47 10.34 10.34 0 0 1 2.85-1.26c2.14-.4 4.17.91 6.15 1.83a18.83 18.83 0 0 0 12.37 1.21 2.66 2.66 0 0 1 -1.85 1.87 7.65 7.65 0 0 1 -2.74.22 32.71 32.71 0 0 1 -8.2-1c-.86-.25-1.71-.58-2.59-.78-5.1-1.12-10.42 2.3-15.49 1.06" opacity=".2"/><path d="m112.26 24.61a20.69 20.69 0 0 0 9.53-2.47 10.34 10.34 0 0 1 2.85-1.26c2.14-.4 4.17.91 6.15 1.83 3.82 1.79 2.23 3.09-.42 2.3-.86-.25-1.71-.58-2.59-.78-5.1-1.12-10.42 2.3-15.49 1.06" opacity=".2"/><path d="m-15.74 24.61a20.69 20.69 0 0 0 9.53-2.47 10.34 10.34 0 0 1 2.85-1.26 5.78 5.78 0 0 1 3.14.42c1 .39 2 .95 3 1.41a18.83 18.83 0 0 0 12.37 1.21 2.66 2.66 0 0 1 -1.85 1.87 7.65 7.65 0 0 1 -2.74.22 32.71 32.71 0 0 1 -8.2-1c-.86-.25-1.71-.58-2.59-.78-5.1-1.12-10.42 2.3-15.49 1.06" opacity=".2"/><path d="m94.8 10.71c3.79-.25 7.66-.53 11.16-2a9 9 0 0 1 3.34-1 7.08 7.08 0 0 1 2.75.73l5.36 2.23a6.55 6.55 0 0 0 3.36.74c.84-.13 1.91-.49 2.38.22a3.22 3.22 0 0 1 -3.15 1.64 11.33 11.33 0 0 1 -3.62-1 34.68 34.68 0 0 0 -8.47-2 6.84 6.84 0 0 0 -1.63 0 10.72 10.72 0 0 0 -1.92.61 10.84 10.84 0 0 1 -7.2 0" opacity=".2"/><path d="m8.81 71.42c3.69.5 7.61.92 11-.61 2.58-1.15 4.71-3.37 7.5-3.86 4.59-.8 8.91 3.4 13.53 2.78a9 9 0 0 1 2.16-.24 1.64 1.64 0 0 1 1.56 1.29l-13.48-.78c-2.46-.15-5.08-.27-7.23.94-.68.38-1.29.88-2 1.21a8.6 8.6 0 0 1 -3.18.6c-2.93.17-5.86.19-8.79.09" opacity=".2"/><path d="m38.11 83.63a28.94 28.94 0 0 0 14.77-4.41 6.05 6.05 0 0 1 2.24-1 6.54 6.54 0 0 1 3.05.61 18.55 18.55 0 0 0 9.23.71c2.19-.38 4.61-1.12 6.49.07 1.11.7 1.78 2 2.86 2.68a7.8 7.8 0 0 0 3.36 1l8.89 1.23a6.8 6.8 0 0 1 -4.89 1.61c-7.4 0-14.34-4.9-21.68-4-2.1.25-4.14 1-6.25.93s-4.18-.9-6.18-.7c-1.88.18-3.56 1.17-5.32 1.86s-3.86 1-5.45 0" opacity=".2"/><path d="m74.69 70.52c1.91-.42 3.81-.91 5.69-1.45a7.14 7.14 0 0 0 2.3-1c1.52-1.11 2.24-3.34 4.08-3.73 2-.42 3.52 1.65 5.18 2.85 2.81 2.05 6.62 1.7 10.09 1.46 2.92-.21 5.85-.28 8.78-.36a10 10 0 0 1 4.11.48 3.39 3.39 0 0 1 2.24 3.23l-10 .8a18.35 18.35 0 0 1 -3.85 0 28.19 28.19 0 0 1 -5.4-1.7 34 34 0 0 0 -16.25-1.17c-2.78.41-5.6 1.07-8.36.55" opacity=".2"/><path d="m18 101c3.67-.17 8.14-.09 11.6-1.81 1.08-.54 11.86-2.24 15-1.63a22.87 22.87 0 0 1 3.16 1.37c2.29.87 4.71.08 7-.82a6.68 6.68 0 0 1 2.8-.69 6.84 6.84 0 0 1 2.62 1l6.1 3.21c-6.93.25-13.26-.84-20.19-.59-5.32.2-10 2.25-15.2 1-3-.72-7 0-10 .84" opacity=".2"/><path d="m57.29 116.08a22.63 22.63 0 0 0 14.45-1.23c2.29-1 4.58-2.43 7.08-2.23 1.63.12 3.11.93 4.68 1.36 6.12 1.65 12.61-2.63 18.79-1.24a35.64 35.64 0 0 1 5.21 2c4.2 1.68 8.74 2.23 13.23 2.78a10.53 10.53 0 0 1 -7.81 3 26.12 26.12 0 0 1 -8.37-1.82 26.11 26.11 0 0 0 -6-1.67c-6.08-.62-12.08 3.56-18 2.25-2.51-.55-4.77-2-7.31-2.44s-5 .31-7.48.72-5.23.49-7.3-1" opacity=".2"/><path d="m28 117.83a8.52 8.52 0 0 1 -6.84.11c-.87-.36-1.67-.87-2.56-1.15-2.38-.74-4.9.24-7.22 1.11s-5 1.63-7.22.53c3.84.1 7.18-2.51 10.87-3.55a5.46 5.46 0 0 1 2.59-.22 7.64 7.64 0 0 1 2.71 1.44c1.79 1.25 4 2.37 6.06 1.53" opacity=".2"/><path d="m88.44 101.55a11.07 11.07 0 0 0 6.66-1.14c2.36-1.24 4.65-3.43 7.27-2.88a13.41 13.41 0 0 1 3.39 1.73 9 9 0 0 0 6.11.87 1.76 1.76 0 0 1 .72-.06c.69.16.8 1.18.41 1.78-.7 1.07-2.19 1.25-3.47 1.21a22 22 0 0 1 -6.48-1.2 9.13 9.13 0 0 0 -3-.75 10.73 10.73 0 0 0 -3.62 1 13.15 13.15 0 0 1 -7.58.44" opacity=".2"/><path d="m-14 56.55a14.11 14.11 0 0 0 7.58-1.14c2.7-1.24 5.3-3.43 8.28-2.88a16.37 16.37 0 0 1 3.87 1.73 11.52 11.52 0 0 0 7 .87 2.21 2.21 0 0 1 .81-.06c.79.16.91 1.18.47 1.78-.8 1.07-2.49 1.25-4 1.21a28.19 28.19 0 0 1 -7.38-1.2 11.59 11.59 0 0 0 -3.42-.75 13.46 13.46 0 0 0 -4.11 1 17 17 0 0 1 -8.64.44" opacity=".2"/><path d="m114 56.55a14.11 14.11 0 0 0 7.58-1.14c2.7-1.24 5.3-3.43 8.28-2.88a16.37 16.37 0 0 1 3.87 1.73c2.1 1-.72 3.32-3.09 2.6a11.59 11.59 0 0 0 -3.42-.75 13.46 13.46 0 0 0 -4.11 1 17 17 0 0 1 -8.64.44" opacity=".2"/><path d="m-17 90.55a20.38 20.38 0 0 0 9.19-1.14c3.27-1.24 6.43-3.43 10-2.88a21.92 21.92 0 0 1 4.69 1.73 16.68 16.68 0 0 0 8.44.87 3.24 3.24 0 0 1 1-.06 1 1 0 0 1 .57 1.78c-1 1.07-3 1.25-4.78 1.21a40.8 40.8 0 0 1 -9-1.2 16.68 16.68 0 0 0 -4.11-.75 19.3 19.3 0 0 0 -5 1 24.79 24.79 0 0 1 -10.47.44" opacity=".2"/><path d="m111 90.55a20.38 20.38 0 0 0 9.19-1.14c3.27-1.24 6.43-3.43 10-2.88 1.73.26 3.82 5 1 4.33a16.68 16.68 0 0 0 -4.15-.75 19.3 19.3 0 0 0 -5 1 24.79 24.79 0 0 1 -10.47.44" opacity=".2"/></g></svg>