<svg viewBox="0 0 512 640" xmlns="http://www.w3.org/2000/svg"><ellipse cx="73" cy="549.47" opacity=".07" rx="52.76" ry="11.33"/><ellipse cx="161.29" cy="622.69" opacity=".07" rx="52.76" ry="11.33"/><ellipse cx="369.08" cy="624.85" opacity=".07" rx="52.76" ry="11.33"/><ellipse cx="434.54" cy="547.44" opacity=".07" rx="52.76" ry="11.33"/><ellipse cx="333.76" cy="516.91" opacity=".07" rx="52.76" ry="11.33"/><g fill="#734e2e"><path d="m315.32 404.07h24.34v112.84h-24.34z"/><path d="m327.17 434.2-11.48 9.3-26.55-39.43h11.48z"/><path d="m327.72 455.22 11.48 9.3 26.55-39.43h-11.48z"/></g><path d="m394.51 376.86a18.09 18.09 0 0 0 -14.43-17.72 22.37 22.37 0 0 0 -39.79-20.43 26.46 26.46 0 0 0 -40.87 7.92 16 16 0 0 0 -1.84-.11 17.12 17.12 0 0 0 -17.12 17.12c0 .29 0 .58.05.87a22.75 22.75 0 0 0 -8.28 33.79 15.68 15.68 0 1 0 25.2 14.39 24.52 24.52 0 0 0 5.52.65 24.13 24.13 0 0 0 18-8.09 19.34 19.34 0 0 0 12.16 5.43 12.76 12.76 0 0 0 11.57 9.76 14.87 14.87 0 0 0 28.73-1.36 15.44 15.44 0 0 0 1.81.1 16.93 16.93 0 0 0 12.58-28.29 18.06 18.06 0 0 0 6.71-14.03z" fill="#2b8c4f"/><path d="m305.27 516.91h12.27v-11.94z" fill="#734e2e"/><path d="m350.82 516.91h-12.27v-14.06z" fill="#734e2e"/><path d="m295.28 390.71a12.32 12.32 0 0 1 11.65-12.3 12.6 12.6 0 0 1 -.26-2.55 12.47 12.47 0 0 1 12.47-12.47h.83c0-.25 0-.51 0-.76a9.64 9.64 0 0 1 13.83-8.7 9.5 9.5 0 0 0 -18.84.92 17.75 17.75 0 0 0 -25.7 15.88 17.45 17.45 0 0 0 .45 3.92 14.49 14.49 0 1 0 11.39 26.45 12.32 12.32 0 0 1 -5.82-10.39z" fill="#278048"/><path d="m374.39 363.77a12.5 12.5 0 0 0 -15.64 12.23 10.43 10.43 0 0 0 -1.4-.46 11.17 11.17 0 0 0 -7 21.15 10.91 10.91 0 0 1 10.26-14.28 12.49 12.49 0 0 0 5.93 5 12.23 12.23 0 0 1 14.7-15.63 11.47 11.47 0 0 1 2.13.77 12.5 12.5 0 0 0 -8.98-8.78z" fill="#278048"/><path d="m417.96 419.45h28.04v130.01h-28.04z" fill="#734e2e"/><path d="m432.25 453.12 13.23 9.18 27.83-48.93-11.81 1.58z" fill="#734e2e"/><path d="m429.62 462.95-11.23 16.03-26.31-43.52 9.89-3.24z" fill="#734e2e"/><path d="m481.31 381.9a21.31 21.31 0 0 0 -11.16-27.71 15.31 15.31 0 0 0 .21-2.46 16 16 0 0 0 -23.46-14.17 21.17 21.17 0 0 0 -41.1 4.94 24.38 24.38 0 0 0 -30 33.22 18 18 0 0 0 -2.21-.14 19.42 19.42 0 0 0 -4.78 38.25 21.29 21.29 0 1 0 36.92 14.45c0-.09 0-.19 0-.28a14.9 14.9 0 0 0 19.27-2 15.17 15.17 0 0 0 16.94-.68 17.75 17.75 0 0 0 17.81-7.21 22.15 22.15 0 1 0 21.59-36.23z" fill="#309c58"/><path d="m467.92 549.47h-21.91v-15.29z" fill="#734e2e"/><path d="m396.06 549.47h21.9v-15.29z" fill="#734e2e"/><path d="m447 404.82a15.93 15.93 0 0 1 18.9-15.68 16.32 16.32 0 1 0 -16.42 24.23 15.93 15.93 0 0 1 -2.48-8.55z" fill="#2b8c4f"/><path d="m436.78 347.17a14.92 14.92 0 0 0 -27.63 7.83 15.18 15.18 0 0 0 -17.58 19.3 16.64 16.64 0 0 0 -13.57 16.36 16.46 16.46 0 0 0 1.78 7.47 17.48 17.48 0 0 0 13.34 25 17.12 17.12 0 0 1 14.46-26.3 16.51 16.51 0 0 1 3.16.3 17.6 17.6 0 0 0 -10.35-8.13 13.08 13.08 0 0 1 8.45-11.57 11.77 11.77 0 0 1 -.32-2.68 12 12 0 0 1 15.34-11.51c0-.3-.05-.6-.05-.9a15.31 15.31 0 0 1 12.97-15.17z" fill="#2b8c4f"/><path d="m65.69 423.78h18.78v127.71h-18.78z" fill="#734e2e" transform="matrix(-1 0 0 -1 150.15 975.27)"/><path d="m69.22 468.53-2.47 22.54-22.49-48.77 6.98-4.51z" fill="#734e2e"/><path d="m80.81 456.9 3.24 18.69 28.09-46.63-10.77 3.34z" fill="#734e2e"/><path d="m136.88 418.44a16.76 16.76 0 0 0 -8.28-14.44 19.92 19.92 0 0 0 -8.81-36 22.69 22.69 0 0 0 .21-2.88 22.22 22.22 0 0 0 -22.22-22.22h-.42a20.27 20.27 0 0 0 -35.9.57 16.86 16.86 0 0 0 -15.85 28.73 23.85 23.85 0 0 0 -4.61 8.9 13.95 13.95 0 0 0 -18.6 18.58 19.73 19.73 0 0 0 -1.46 32 20.14 20.14 0 1 0 33.11 3.45 18.43 18.43 0 0 0 13.43-8.13 14.42 14.42 0 0 0 14.9 2.78 16.63 16.63 0 0 0 22.33 13.88 14.84 14.84 0 0 0 28.29-6.24 14.68 14.68 0 0 0 -1.59-6.64 16.68 16.68 0 0 0 5.47-12.34z" fill="#2b8c4f"/><path d="m98.48 551.49h-14.01v-13.51z" fill="#734e2e"/><path d="m57.44 551.49h9.5v-27.03z" fill="#734e2e"/><path d="m93.46 425.2a8.79 8.79 0 0 1 5.93-10.91 9.12 9.12 0 0 1 2.41-.35 9.11 9.11 0 0 1 3.26-9.78 8.32 8.32 0 0 1 4.9-12.07 8.08 8.08 0 0 1 2.31-.34c-.07-.2-.14-.39-.2-.59a10.63 10.63 0 0 1 5.66-12.63 10.37 10.37 0 0 0 -16.87 10.65 11.12 11.12 0 0 0 -2.09.39 10.57 10.57 0 0 0 -7.13 13.12 10.79 10.79 0 0 0 1.36 2.84 11.54 11.54 0 0 0 1 21 8.19 8.19 0 0 1 -.54-1.33z" fill="#278048"/><path d="m86.77 347.73a7.67 7.67 0 0 0 -6.89 4.27 10.45 10.45 0 0 0 -17.68 11 11.41 11.41 0 0 0 -9.2 17.6 12.12 12.12 0 0 0 -4.78 6.08 10.37 10.37 0 0 0 -5.58 12.32 10.18 10.18 0 0 0 -2.08.4 10.56 10.56 0 0 0 -5.83 15.92 11.54 11.54 0 0 0 1 21 9.19 9.19 0 0 1 -.52-1.33 8.76 8.76 0 0 1 5.93-10.9 8.67 8.67 0 0 1 2.4-.36 9.09 9.09 0 0 1 3.3-9.73 8.3 8.3 0 0 1 4.89-12.08 8.46 8.46 0 0 1 2.32-.34l-.06-.16a11.88 11.88 0 0 0 8.65 1 8.8 8.8 0 0 1 3.09-15.19 9.75 9.75 0 1 1 16.27-10.74 8.08 8.08 0 0 0 1.31.11 9.16 9.16 0 0 0 6.69-2.89 9.32 9.32 0 0 1 2.66-18.26 9.21 9.21 0 0 1 1.76.18c0-.08 0-.16 0-.23a7.67 7.67 0 0 0 -7.65-7.67z" fill="#278048"/><path d="m361.26 495.76h19.28v131.12h-19.28z" fill="#734e2e" transform="matrix(-1 0 0 -1 741.8 1122.63)"/><path d="m364.89 541.7-2.54 23.14-23.08-50.07 7.17-4.63z" fill="#734e2e"/><path d="m376.79 529.76 3.32 19.19 28.84-47.87-11.05 3.42z" fill="#734e2e"/><path d="m434.36 490.28a17.21 17.21 0 0 0 -8.51-14.84 20.45 20.45 0 0 0 -9-36.92 24 24 0 0 0 .21-3 22.81 22.81 0 0 0 -22.81-22.81c-.15 0-.29 0-.43 0a20.8 20.8 0 0 0 -36.85.59 17.31 17.31 0 0 0 -16.28 29.43 24.41 24.41 0 0 0 -4.69 9.13 14.34 14.34 0 0 0 -19.14 19.14 20.24 20.24 0 0 0 -1.49 32.83 20.68 20.68 0 1 0 34 3.54 18.94 18.94 0 0 0 13.75-8.34 14.84 14.84 0 0 0 15.3 2.86 17.1 17.1 0 0 0 22.93 14.25 15.23 15.23 0 1 0 27.42-13.14 17.16 17.16 0 0 0 5.59-12.72z" fill="#2b8c4f"/><path d="m394.93 626.88h-14.39v-13.87z" fill="#734e2e"/><path d="m352.79 626.88h9.76v-27.76z" fill="#734e2e"/><path d="m389.78 497.21a9 9 0 0 1 6.09-11.21 8.79 8.79 0 0 1 2.46-.37 9.35 9.35 0 0 1 3.36-10 8.75 8.75 0 0 1 -.76-1.77 8.55 8.55 0 0 1 5.78-10.63 8.22 8.22 0 0 1 2.38-.35c-.07-.2-.15-.4-.21-.61a10.92 10.92 0 0 1 5.81-13 10.64 10.64 0 0 0 -17.31 10.94 10.84 10.84 0 0 0 -8.12 16.79 11.85 11.85 0 0 0 1.06 21.56 9.07 9.07 0 0 1 -.54-1.35z" fill="#278048"/><path d="m382.91 417.68a7.86 7.86 0 0 0 -7.08 4.42 10.73 10.73 0 0 0 -18.15 11.34 11.73 11.73 0 0 0 -9.46 18 12.51 12.51 0 0 0 -4.9 6.25 10.63 10.63 0 0 0 -5.72 12.66 10.84 10.84 0 0 0 -8.12 16.76 11.84 11.84 0 0 0 1.06 21.55 8.56 8.56 0 0 1 -.54-1.36 9 9 0 0 1 6.09-11.2 9.15 9.15 0 0 1 2.46-.36 9.37 9.37 0 0 1 3.36-10 8.75 8.75 0 0 1 -.76-1.77 8.52 8.52 0 0 1 8.16-11l-.06-.17a12.34 12.34 0 0 0 5.74 1.41 12.59 12.59 0 0 0 3.15-.41 9 9 0 0 1 3.17-15.6 10 10 0 1 1 16.7-11 10 10 0 0 0 1.35.11 9.43 9.43 0 0 0 6.86-3 9.57 9.57 0 0 1 4.54-18.57c0-.08 0-.15 0-.23a7.87 7.87 0 0 0 -7.85-7.83z" fill="#278048"/><path d="m145.07 496.37h27.68v128.34h-27.68z" fill="#734e2e"/><path d="m159.18 529.6 13.06 9.06 27.47-48.3-11.67 1.57z" fill="#734e2e"/><path d="m156.58 539.31-11.09 15.82-25.96-42.96 9.75-3.19z" fill="#734e2e"/><path d="m207.6 459.3a21 21 0 0 0 -11-27.35 16.39 16.39 0 0 0 .21-2.44 15.8 15.8 0 0 0 -23.16-14 20.89 20.89 0 0 0 -40.57 4.88 24.07 24.07 0 0 0 -29.65 32.79 19.62 19.62 0 0 0 -2.18-.14 19.17 19.17 0 0 0 -4.72 37.76 21 21 0 1 0 36.47 14.28c0-.09 0-.18 0-.27a14.73 14.73 0 0 0 19-1.95 15 15 0 0 0 16.72-.68 17.28 17.28 0 0 0 3.24.31 17.56 17.56 0 0 0 14.34-7.43 21.87 21.87 0 1 0 21.3-35.76z" fill="#309c58"/><path d="m194.38 624.71h-21.63v-15.08z" fill="#734e2e"/><path d="m123.45 624.71h21.62v-15.08z" fill="#734e2e"/><path d="m173.69 481.92a15.76 15.76 0 0 1 15.75-15.75 15.44 15.44 0 0 1 2.91.28 16.11 16.11 0 1 0 -16.2 23.91 15.68 15.68 0 0 1 -2.46-8.44z" fill="#2b8c4f"/><path d="m163.65 425a14.73 14.73 0 0 0 -27.28 7.72 15.68 15.68 0 0 0 -3-.3 15 15 0 0 0 -14.37 19.41 16.38 16.38 0 0 0 -11.6 23.49 17.08 17.08 0 0 0 -1.76 7.55 17.29 17.29 0 0 0 14.95 17.13 16.9 16.9 0 0 1 17.41-25.67 17.34 17.34 0 0 0 -10.26-8.07 12.94 12.94 0 0 1 8.34-11.42 12.07 12.07 0 0 1 -.3-2.64 11.83 11.83 0 0 1 15.13-11.37c0-.3 0-.59 0-.89a15.1 15.1 0 0 1 12.74-14.94z" fill="#2b8c4f"/></svg>