<svg viewBox="0 0 512 640" xmlns="http://www.w3.org/2000/svg"><ellipse cx="93.26" cy="425.13" opacity=".07" rx="52.76" ry="11.33"/><ellipse cx="169.47" cy="367.21" opacity=".07" rx="52.76" ry="11.33"/><ellipse cx="261.7" cy="465.92" opacity=".07" rx="52.76" ry="11.33"/><ellipse cx="337.12" cy="409.5" opacity=".07" rx="52.76" ry="11.33"/><ellipse cx="432.47" cy="435.56" opacity=".07" rx="52.76" ry="11.33"/><g fill="#997645"><path d="m157.92 262.13h22.66v105.08h-22.66z"/><path d="m168.95 290.19-10.69 8.65-24.72-36.71h10.69z"/><path d="m169.47 309.76 10.69 8.66 24.72-36.72h-10.69z"/></g><path d="m231.66 236.79a16.85 16.85 0 0 0 -13.43-16.51 20.83 20.83 0 0 0 -37.06-19 24.64 24.64 0 0 0 -38.06 7.37 16.22 16.22 0 0 0 -1.72-.1 15.94 15.94 0 0 0 -15.94 15.94v.81a21.19 21.19 0 0 0 -7.7 31.47 14.6 14.6 0 1 0 23.46 13.4 22.38 22.38 0 0 0 21.94-6.93 18.06 18.06 0 0 0 11.33 5.06 11.89 11.89 0 0 0 10.77 9.09 13.85 13.85 0 0 0 26.76-1.27 15.76 15.76 0 0 0 13.4-26.25 16.81 16.81 0 0 0 6.25-13.08z" fill="#2b8c4f"/><path d="m148.56 367.21h11.42v-11.12z" fill="#997645"/><path d="m190.97 367.21h-11.42v-13.09z" fill="#997645"/><path d="m139.25 249.68a11.48 11.48 0 0 1 10.85-11.45 11.64 11.64 0 0 1 11.37-14h.77c0-.24 0-.47 0-.71a9 9 0 0 1 12.88-8.11 8.85 8.85 0 0 0 -17.55.87 16.35 16.35 0 0 0 -7.38-1.76 16.55 16.55 0 0 0 -16.55 16.55 16.18 16.18 0 0 0 .42 3.64 13.49 13.49 0 1 0 10.6 24.63 11.44 11.44 0 0 1 -5.41-9.66z" fill="#278048"/><path d="m212.93 224.59a11.64 11.64 0 0 0 -14.57 11.41 9.43 9.43 0 0 0 -1.3-.43 10.4 10.4 0 0 0 -6.54 19.7 10.15 10.15 0 0 1 9.56-13.3 11.61 11.61 0 0 0 5.51 4.7 11.41 11.41 0 0 1 13.7-14.56 11.62 11.62 0 0 1 2 .71 11.66 11.66 0 0 0 -8.36-8.23z" fill="#278048"/><path d="m324.05 290.57h25.65v118.93h-25.65z" fill="#997645"/><path d="m337.12 321.36 12.1 8.4 25.46-44.76-10.81 1.45z" fill="#997645"/><path d="m334.71 330.36-10.27 14.66-24.07-39.81 9.04-2.96z" fill="#997645"/><path d="m382 256.21a19.46 19.46 0 0 0 -10.2-25.34 15.31 15.31 0 0 0 .19-2.26 14.64 14.64 0 0 0 -21.47-13 19.36 19.36 0 0 0 -37.59 4.51 22.3 22.3 0 0 0 -27.47 30.39 17 17 0 0 0 -2-.13 17.77 17.77 0 0 0 -4.38 35 19.48 19.48 0 1 0 33.78 13.21c0-.09 0-.17 0-.26a13.62 13.62 0 0 0 17.63-1.8 13.9 13.9 0 0 0 15.51-.53 16.17 16.17 0 0 0 16.29-6.6 20.27 20.27 0 1 0 19.71-33.19z" fill="#2b8c4f"/><path d="m369.74 409.5h-20.04v-13.98z" fill="#997645"/><path d="m304 409.5h20.05v-13.98z" fill="#997645"/><path d="m350.57 277.18a14.6 14.6 0 0 1 14.59-14.6 15.07 15.07 0 0 1 2.7.25 14.93 14.93 0 1 0 -15 22.17 14.58 14.58 0 0 1 -2.29-7.82z" fill="#278048"/><path d="m341.26 224.44a13.65 13.65 0 0 0 -25.26 7.16 14.19 14.19 0 0 0 -2.79-.28 13.9 13.9 0 0 0 -13.3 17.94 15.19 15.19 0 0 0 -10.75 21.77 16 16 0 0 0 12.21 22.87 15.66 15.66 0 0 1 13.22-24.06 16.18 16.18 0 0 1 2.89.27 16.12 16.12 0 0 0 -9.5-7.48 12 12 0 0 1 7.73-10.58 10.95 10.95 0 0 1 13.74-13c0-.28 0-.55 0-.82a14 14 0 0 1 11.81-13.79z" fill="#278048"/><path d="m80.44 306.19h25.65v118.93h-25.65z" fill="#997645"/><path d="m93.51 336.99 12.1 8.39 25.45-44.76-10.8 1.45z" fill="#997645"/><path d="m91.1 345.99-10.27 14.66-24.07-39.81 9.04-2.97z" fill="#997645"/><path d="m138.38 271.83a19.46 19.46 0 0 0 -10.2-25.34 15.29 15.29 0 0 0 .19-2.25 14.64 14.64 0 0 0 -21.47-13 19.36 19.36 0 0 0 -37.59 4.52 22.3 22.3 0 0 0 -27.47 30.38 19.38 19.38 0 0 0 -2-.12 17.77 17.77 0 0 0 -4.38 35 19.48 19.48 0 1 0 33.78 13.22c0-.09 0-.17 0-.26a13.64 13.64 0 0 0 17.63-1.81 13.87 13.87 0 0 0 15.5-.62 16.27 16.27 0 0 0 16.29-6.6 20.27 20.27 0 1 0 19.75-33.15z" fill="#309c58"/><path d="m126.13 425.13h-20.04v-13.98z" fill="#997645"/><path d="m60.39 425.13h20.05v-13.98z" fill="#997645"/><path d="m107 292.8a14.59 14.59 0 0 1 14.59-14.59 15.07 15.07 0 0 1 2.7.25 14.93 14.93 0 1 0 -15 22.16 14.58 14.58 0 0 1 -2.29-7.82z" fill="#2b8c4f"/><path d="m97.65 240.07a13.65 13.65 0 0 0 -25.28 7.15 13.47 13.47 0 0 0 -2.79-.28 13.9 13.9 0 0 0 -13.3 17.94 15.21 15.21 0 0 0 -12.38 14.93 15.05 15.05 0 0 0 1.63 6.83 16 16 0 0 0 12.21 22.87 15.5 15.5 0 0 1 -2.44-8.39 15.66 15.66 0 0 1 15.7-15.62 15.31 15.31 0 0 1 2.89.27 16 16 0 0 0 -9.5-7.48 11.93 11.93 0 0 1 7.73-10.58 11 11 0 0 1 13.74-13c0-.27 0-.54 0-.82a14 14 0 0 1 11.79-13.82z" fill="#2b8c4f"/><path d="m248.63 346.99h25.65v118.93h-25.65z" fill="#997645"/><path d="m261.12 378.75-12.1 9.79-27.98-41.55h12.1z" fill="#997645"/><path d="m261.7 400.9 12.1 9.8 27.99-41.56h-12.1z" fill="#997645"/><path d="m332.1 318.31a19.08 19.08 0 0 0 -15.21-18.68 23.58 23.58 0 0 0 -41.89-21.53 27.9 27.9 0 0 0 -43.08 8.34 18 18 0 0 0 -20 17.93v.92a24 24 0 0 0 -8.72 35.61 16.53 16.53 0 1 0 26.56 15.17 25.33 25.33 0 0 0 24.83-7.84 20.36 20.36 0 0 0 12.83 5.77 13.45 13.45 0 0 0 12.19 10.29 15.68 15.68 0 0 0 30.29-1.43 17.19 17.19 0 0 0 1.91.11 17.86 17.86 0 0 0 13.26-29.83 19 19 0 0 0 7.03-14.83z" fill="#309c58"/><path d="m238.04 465.92h12.92v-12.58z" fill="#997645"/><path d="m286.05 465.92h-12.93v-14.82z" fill="#997645"/><path d="m227.5 332.9a13 13 0 0 1 12.28-13 13.18 13.18 0 0 1 12.87-15.83h.88c0-.27 0-.53 0-.8a10.18 10.18 0 0 1 10.18-10.19 10.05 10.05 0 0 1 4.4 1 10 10 0 0 0 -19.87 1 18.69 18.69 0 0 0 -26.65 20.92 15.27 15.27 0 1 0 12 27.87 13 13 0 0 1 -6.09-10.97z" fill="#2b8c4f"/><path d="m310.89 304.51a13.2 13.2 0 0 0 -16.08 9.49 13.51 13.51 0 0 0 -.41 3.43 11.52 11.52 0 0 0 -1.47-.49 11.78 11.78 0 0 0 -7.4 22.3 11.5 11.5 0 0 1 10.82-15.05 13.12 13.12 0 0 0 6.24 5.31 12.9 12.9 0 0 1 15.5-16.5 12 12 0 0 1 2.25.81 13.2 13.2 0 0 0 -9.45-9.3z" fill="#2b8c4f"/><path d="m423.57 316.62h17.49v118.93h-17.49z" fill="#997645" transform="matrix(-1 0 0 -1 864.63 752.18)"/><path d="m426.86 358.3-2.3 20.99-20.94-45.42 6.5-4.2z" fill="#997645"/><path d="m437.66 347.47 3.01 17.4 26.16-43.42-10.02 3.11z" fill="#997645"/><path d="m489.87 311.65a15.61 15.61 0 0 0 -7.71-13.46 18.55 18.55 0 0 0 -8.16-33.49 21.53 21.53 0 0 0 .19-2.68 20.69 20.69 0 0 0 -20.69-20.69h-.39a18.88 18.88 0 0 0 -33.43.54 15.7 15.7 0 0 0 -14.77 26.69 22.46 22.46 0 0 0 -4.25 8.29 13 13 0 0 0 -17.32 17.31 18.36 18.36 0 0 0 -1.4 29.84 18.76 18.76 0 1 0 30.83 3.22 17.2 17.2 0 0 0 12.47-7.57 13.5 13.5 0 0 0 9.06 3.49 13.32 13.32 0 0 0 4.82-.9 15.5 15.5 0 0 0 20.79 12.93 13.82 13.82 0 1 0 24.9-12 15.54 15.54 0 0 0 5.06-11.52z" fill="#309c58"/><path d="m454.11 435.56h-13.05v-12.58z" fill="#997645"/><path d="m415.89 435.56h8.85v-25.18z" fill="#997645"/><path d="m449.44 317.94a8.17 8.17 0 0 1 5.56-10.15 7.94 7.94 0 0 1 2.24-.33 8.48 8.48 0 0 1 3-9.11 7.86 7.86 0 0 1 -.68-1.6 7.76 7.76 0 0 1 7.4-10 5.1 5.1 0 0 1 -.19-.55 9.9 9.9 0 0 1 5.23-11.72 9.65 9.65 0 0 0 -15.71 9.92 9.33 9.33 0 0 0 -1.94.36 9.84 9.84 0 0 0 -6.6 12.24 10.14 10.14 0 0 0 1.22 2.62 10.74 10.74 0 0 0 1 19.55 8 8 0 0 1 -.53-1.23z" fill="#2b8c4f"/><path d="m443.21 245.8a7.14 7.14 0 0 0 -6.42 4 9.74 9.74 0 0 0 -16.47 10.29 10.64 10.64 0 0 0 -8.58 16.31 11.33 11.33 0 0 0 -4.44 5.66 9.66 9.66 0 0 0 -5.19 11.49 10.36 10.36 0 0 0 -1.94.37 9.83 9.83 0 0 0 -5.42 14.84 10.74 10.74 0 0 0 .95 19.55 7.09 7.09 0 0 1 -.48-1.24 8.16 8.16 0 0 1 7.78-10.46 8.47 8.47 0 0 1 3-9.1 7.89 7.89 0 0 1 -.69-1.6 7.78 7.78 0 0 1 5.25-9.65 7.61 7.61 0 0 1 2.15-.31.88.88 0 0 0 -.05-.15 11.11 11.11 0 0 0 8.06.9 8.19 8.19 0 0 1 2.87-14.15 9.08 9.08 0 1 1 15.15-10 9.89 9.89 0 0 0 1.23.09 8.51 8.51 0 0 0 6.22-2.69 8.68 8.68 0 0 1 4.12-16.84c0-.07 0-.14 0-.21a7.14 7.14 0 0 0 -7.1-7.1z" fill="#2b8c4f"/></svg>