<svg viewBox="0 0 512 640" xmlns="http://www.w3.org/2000/svg"><ellipse cx="129.85" cy="445.02" opacity=".07" rx="52.76" ry="18.15"/><ellipse cx="305.94" cy="401.19" opacity=".07" rx="52.76" ry="18.15"/><ellipse cx="382.15" cy="457.41" opacity=".07" rx="52.76" ry="18.15"/><ellipse cx="178.92" cy="349" opacity=".07" rx="52.76" ry="18.15"/><path d="m161.4 347.19h35.05l-7.47-93.93h-20.11z" fill="#734e2e"/><path d="m115.85 289.86 19.47 1.6 14.18 18.64 29.43-6.33 33.44 8.02 10.7-20.86 18.93-3.75-36.05-65.81-50.56.1z" fill="#4f8061"/><path d="m126.93 242.22 19.52 1.19 10.56 13.89 21.92-4.72 24.9 5.98 7.97-15.54 19.12-2.79-32.12-49.04h-39.75z" fill="#5c9471"/><path d="m139.56 202.47 14.78.91 8 10.51 16.59-3.58 18.85 4.53 6.03-11.77 14.48-2.11-39.36-53.08z" fill="#67a67e"/><path d="m284.76 402h42.35l-9.02-113.5h-24.31z" fill="#734e2e"/><path d="m229.72 332.72 23.53 1.94 17.14 22.53 35.55-7.66 40.4 9.7 12.93-25.22 22.88-4.52-43.56-79.52-61.09.12z" fill="#426b51"/><path d="m243.1 275.16 23.6 1.45 12.76 16.77 26.48-5.7 30.09 7.22 9.63-18.77 23.11-3.37-38.82-59.25h-48.03z" fill="#4f8061"/><path d="m258.37 227.13 17.86 1.1 9.66 12.7 20.05-4.32 22.77 5.47 7.29-14.22 17.5-2.55-47.56-64.14z" fill="#5c9471"/><path d="m108.67 445.02h42.36l-9.03-113.5h-24.31z" fill="#734e2e"/><path d="m53.63 375.74 23.53 1.94 17.14 22.53 35.55-7.66 40.41 9.7 12.93-25.22 22.87-4.52-43.55-79.52-61.1.12z" fill="#4f8061"/><path d="m67.02 318.18 23.59 1.45 12.77 16.77 26.47-5.7 30.09 7.22 9.63-18.77 23.11-3.37-38.81-59.25h-48.04z" fill="#5c9471"/><path d="m82.29 270.15 17.86 1.1 9.66 12.7 20.04-4.32 22.78 5.47 7.29-14.22 17.49-2.55-47.56-64.14z" fill="#67a67e"/><path d="m360.97 457.94h42.36l-9.02-113.5h-24.31z" fill="#734e2e"/><path d="m305.94 388.66 23.52 1.94 17.14 22.53 35.55-7.66 40.41 9.7 12.93-25.22 22.88-4.52-43.56-79.53-61.1.13z" fill="#4f8061"/><path d="m319.32 331.1 23.59 1.45 12.77 16.77 26.47-5.7 30.09 7.22 9.63-18.78 23.11-3.37-38.81-59.25h-48.04z" fill="#5c9471"/><path d="m334.59 283.07 17.86 1.1 9.66 12.7 20.04-4.32 22.78 5.46 7.29-14.21 17.49-2.55-47.56-64.14z" fill="#67a67e"/></svg>