<svg viewBox="0 0 512 640" xmlns="http://www.w3.org/2000/svg"><ellipse cx="116.11" cy="310.14" opacity=".07" rx="52.76" ry="18.15"/><ellipse cx="199.78" cy="262.3" opacity=".07" rx="52.76" ry="18.15"/><ellipse cx="323.95" cy="266.63" opacity=".07" rx="52.76" ry="18.15"/><ellipse cx="391.05" cy="314.77" opacity=".07" rx="52.76" ry="18.15"/><path d="m341.48 266.63h-35.05l7.46-93.92h20.12z" fill="#734e2e"/><path d="m387.03 209.3-19.47 1.61-14.19 18.64-29.42-6.34-33.44 8.03-10.7-20.87-18.93-3.74 36.05-65.82 50.56.1z" fill="#426b51"/><path d="m375.95 161.66-19.52 1.2-10.57 13.89-21.91-4.72-24.9 5.97-7.97-15.54-19.13-2.79 32.13-49.03h39.75z" fill="#4f8061"/><path d="m363.31 121.92-14.77.9-8 10.51-16.59-3.57-18.85 4.52-6.03-11.76-14.48-2.11 39.36-53.09z" fill="#5c9471"/><path d="m217.24 262.31h-34.92l7.44-93.57h20.04z" fill="#734e2e"/><path d="m262.61 205.19-19.39 1.6-14.14 18.57-29.3-6.31-33.31 7.99-10.66-20.78-18.86-3.73 35.9-65.56 50.37.1z" fill="#426b51"/><path d="m251.58 157.74-19.45 1.19-10.53 13.83-21.82-4.7-24.81 5.95-7.94-15.48-19.05-2.77 32-48.85h39.6z" fill="#4f8061"/><path d="m238.99 118.15-14.73.9-7.96 10.47-16.52-3.56-18.78 4.51-6.01-11.72-14.42-2.11 39.21-52.88z" fill="#5c9471"/><path d="m410.49 314.38h-38.88l8.28-104.19h22.32z" fill="#734e2e"/><path d="m461.01 250.79-21.59 1.78-15.74 20.68-32.63-7.03-37.09 8.9-11.87-23.15-21.01-4.15 39.99-73 56.08.11z" fill="#4f8061"/><path d="m448.73 197.95-21.66 1.32-11.72 15.41-24.3-5.24-27.63 6.63-8.84-17.24-21.21-3.09 35.63-54.4h44.1z" fill="#5c9471"/><path d="m434.71 153.86-16.39 1-8.87 11.66-18.4-3.96-20.91 5.01-6.69-13.04-16.06-2.35 43.66-58.88z" fill="#67a67e"/><path d="m137.28 310.94h-42.35l9.02-113.5h24.31z" fill="#734e2e"/><path d="m192.32 241.66-23.53 1.94-17.13 22.53-35.55-7.66-40.41 9.7-12.93-25.22-22.88-4.52 43.56-79.53 61.09.13z" fill="#4f8061"/><path d="m178.94 184.1-23.6 1.44-12.76 16.78-26.47-5.7-30.1 7.22-9.62-18.78-23.12-3.37 38.82-59.25h48.03z" fill="#5c9471"/><path d="m163.67 136.07-17.86 1.1-9.66 12.7-20.04-4.32-22.78 5.46-7.29-14.21-17.49-2.55 47.56-64.14z" fill="#67a67e"/></svg>