<svg viewBox="0 0 256 256" xmlns="http://www.w3.org/2000/svg" xmlns:xlink="http://www.w3.org/1999/xlink"><clipPath id="a"><path d="m-18.27 31.99v118.86l146.27 73.16 146.26-73.16v-118.86z"/></clipPath><clipPath id="b"><path d="m106.63 85.34c1.56.13 2.85-.8 2.87-2.07l-5.66-.46a2.82 2.82 0 0 0 2.79 2.53z"/></clipPath><g clip-path="url(#a)"><path d="m145.12 161.45a6.86 6.86 0 0 0 -1.77-4.67l-7.45-29.08a9.34 9.34 0 0 0 .14-1.6 9.81 9.81 0 0 0 -9.95-9.62l-20.19-7.76-1.23-12.72-19.87-5.13 3.08 9.41-1.66 8.52-20.44 7.78a10.56 10.56 0 0 0 -9.78 8.67s-8.08 11.3-10.52 15.52c-1 1.71-8.53 17.74-8.53 19.94a10.09 10.09 0 0 0 .18 1.85 25.7 25.7 0 0 0 2.81 6.37c4.24 5.94 15.89 11.14 15.89 11.14l6.44-6.45s-4.87-5.67-6-7.9a21.17 21.17 0 0 0 -3.05-4.19l.25-.82s10.5-5.24 14.74-19.88l5.79 41.93h44.22l5.42-38.11c.11.57.22 1.08.32 1.48.92 3.6 4.81 12.82 5.52 14.51a16.69 16.69 0 0 0 -.07 4.3l5.21 16.43 10.63-2.45-.07-13.55c.06-.83-.06-3.92-.06-3.92z" fill="#736039"/><path d="m119.12 229.67h-46.15l1-38.9h44.22z" fill="#006838"/><path d="m73.97 182.76h44.22v8.01h-44.22z" fill="#8b5e3c"/><path d="m64.91 229.67 9.06-38.9h19.74l-20.56 38.9z" fill="#428f6a"/><path d="m127.72 229.67-9.53-38.9h-20.5l21.17 38.9z" fill="#428f6a"/><g fill="#653"><path d="m101.88 141.03-2.95-4.96v5.59l.57 3.79 19.25-6.6.06-2.55z"/><path d="m89.46 141.03-16.93-4.73.05 2.55 19.26 6.6.57-3.79v-5.59z"/><path d="m106.94 155.59-9.69 1.4-1.61-4.74-1.61 4.74-9.68-1.4-3.33-3.94 1.39 6.24 13.23 1.4 13.24-1.4 1.38-6.24z"/><path d="m97.1 168.5-1.46-4.28-1.46 4.28-8.76-1.4-3.01-3.56 1.25 5.65 11.98 1.4 11.98-1.4 1.26-5.65-3.01 3.56z"/><path d="m55.48 155.47 7.03-15.99 1.86 5.02z"/><path d="m130.46 154.81-2.64-15.94-2.31 3.82z"/><path d="m50.81 162.85-2.93 2.15 10.75 9.08z"/><path d="m136.07 161.93-3.53 2 3.85 12.89z"/></g><path d="m90.6 190.77h10.09v38.91h-10.09z" fill="#428f6a"/><path d="m92.34 116.95-12.2-1.76-2.95.96 14.75 2.42z" fill="#653"/><path d="m100.67 116.95 12.2-1.76 2.7 1-14.5 2.38z" fill="#653"/><path d="m149.98 186.93-3 4.73-7.54 1.91-4.97-2.67.12-9.53 10.63-2.45z" fill="#736039"/><path d="m71.61 178.06v5.6l-5.35 5.64-5.62.4-4.85-9.63 6.44-6.45z" fill="#736039"/><path d="m114.1 91.58-.1-2.36-2.1-5.72s.06-2.67.06-3.87c0-8.5-7.13-12.67-14.61-12.48-.71 0-.75 0-1.46 0-8.59 0-15.16 3.69-15.16 15.66 0 3.18 3.11 8.34 3.11 8.34l6.83 8 14.75 4.59 5-1.68 1.58-4-.83-5.06 1.85-.45z" fill="#736039"/><path d="m110.51 83.33-8.26-.65.82 2.63 3.6 1.58 2.51-.63 1.47-.92z" fill="#653"/><path d="m106.52 94.4-.14-1.03 2.95-6.02.17 2.51z" fill="#653"/><path d="m104.28 96.2-3.45-4.01.57-1.58 2.88 3.69z" fill="#653"/><g clip-path="url(#b)"><path d="m109.5 83.27c0 1.27-1.31 2.2-2.87 2.07a2.82 2.82 0 0 1 -2.79-2.53" fill="#e6e7e8"/><path d="m107.54 82.41a1.07 1.07 0 0 0 -1 1.13 1 1 0 1 0 1-1.13z" fill="#603913"/></g><path d="m97.79 83.49a2.94 2.94 0 1 0 -5.87 0c0 1 1 3.14 1 3.53a2.25 2.25 0 0 0 4.22 1.1 2.06 2.06 0 0 1 -1.43.51 2 2 0 0 1 -1.9-2.09 1.91 1.91 0 0 1 .28-.92 2 2 0 1 1 3-1.65 1.86 1.86 0 0 1 -.08.41 1.71 1.71 0 0 0 -2.22.18l.38.62a1.17 1.17 0 0 1 1.67.06 1.11 1.11 0 0 1 -.6 1.7 3.38 3.38 0 0 1 .09.54 1.69 1.69 0 0 0 .94-.49 1.71 1.71 0 0 0 .17-2.17 2.85 2.85 0 0 0 .35-1.33z" fill="#653"/><path d="m102.09 79.92.93 1.47 7.25-.01-.12-1.19z" fill="#414042"/><path d="m109.75 71.28-4.29-3.92-7.53-1.49-5.52.65-4.19 1.12-4.01 2.52-3.17 4.28-.65 3.83-.65 4.28.46 2.89 1.31 3.26 2.92 4.67 1.52 1.05 1.24-1.62 2.05-.65 1.59-4.57-.94-4.75 1.4-2.14 2.15-1.62 3.35-.15 2.15.09.83-2.79-.23-2.8 3.26-1.68 3.5-.28 4.01 1.83z" fill="#653"/><path d="m111.64 95.95-4.32.35-.56 1.14 5.28.68z" fill="#a65c46"/></g></svg>