<svg id="unit" xmlns="http://www.w3.org/2000/svg" xmlns:xlink="http://www.w3.org/1999/xlink" viewBox="0 0 256 256"><defs><style>.cls-1{fill:none;}.cls-2{clip-path:url(#clip-path);}.cls-3{fill:#736039;}.cls-4{fill:#006838;}.cls-5{fill:#8b5e3c;}.cls-6{fill:#428f6a;}.cls-7{fill:#653;}.cls-8{clip-path:url(#clip-path-2);}.cls-9{fill:#e6e7e8;}.cls-10{fill:#58595b;}.cls-11{fill:#414042;}.cls-12{fill:#a65c46;}</style><clipPath id="clip-path"><polygon class="cls-1" points="0 43.98 0 162.03 128 212.02 256 162.03 256 43.98 0 43.98"/></clipPath><clipPath id="clip-path-2"><path class="cls-1" d="M112.6,90.84a2.12,2.12,0,0,0,2.51-1.8l-5-.41A2.46,2.46,0,0,0,112.6,90.84Z"/></clipPath></defs><g id="african"><g class="cls-2"><path class="cls-3" d="M146.24,157.36a6,6,0,0,0-1.55-4.08h0l-6.52-25.41a8,8,0,0,0,.13-1.4,8.56,8.56,0,0,0-8.7-8.4L112,111.28l-1.07-11.15L93.52,95.68l2.7,8.22-1.45,7.44-17.87,6.8a9.25,9.25,0,0,0-8.58,7.58s-7.06,9.88-9.19,13.56c-.87,1.5-7.45,15.51-7.45,17.43a8.56,8.56,0,0,0,.15,1.62,22.88,22.88,0,0,0,2.45,5.56c3.72,5.2,13.89,9.73,13.89,9.73L73.8,168s-4.25-5-5.27-6.91a17.94,17.94,0,0,0-2.66-3.66l.21-.72s9.18-4.58,12.89-17.38L84.06,176H122.7l4.74-33.31c.1.5.19,1,.28,1.3.81,3.14,4.2,11.2,4.83,12.67a14.22,14.22,0,0,0-.06,3.77L137,174.77l9.29-2.15-.06-11.84C146.34,160.05,146.24,157.36,146.24,157.36Z"/><polygon class="cls-4" points="123.52 216.98 83.19 216.98 84.06 182.98 122.7 182.98 123.52 216.98"/><rect class="cls-5" x="84.06" y="175.98" width="38.64" height="7"/><polygon class="cls-6" points="76.14 216.98 84.06 182.98 101.31 182.98 83.34 216.98 76.14 216.98"/><polygon class="cls-6" points="131.03 216.98 122.7 182.98 104.79 182.98 123.29 216.98 131.03 216.98"/><polygon class="cls-7" points="108.45 139.51 105.88 135.18 105.88 140.06 105.87 140.06 106.37 143.37 123.2 137.61 123.24 135.38 108.45 139.51"/><polygon class="cls-7" points="97.6 139.51 82.8 135.38 82.85 137.61 99.68 143.37 100.17 140.06 100.17 135.18 97.6 139.51"/><polygon class="cls-7" points="112.87 152.23 104.41 153.46 103 149.32 101.59 153.46 93.13 152.23 90.22 148.79 91.43 154.24 103 155.47 114.57 154.24 115.78 148.79 112.87 152.23"/><polygon class="cls-7" points="104.28 163.52 103 159.78 101.72 163.52 94.06 162.3 91.43 159.18 92.53 164.12 103 165.34 113.47 164.12 114.57 159.18 111.94 162.3 104.28 163.52"/><polygon class="cls-7" points="67.9 152.13 74.05 138.16 75.67 142.54 67.9 152.13"/><polygon class="cls-7" points="133.42 151.55 131.12 137.62 129.1 140.96 133.42 151.55"/><polygon class="cls-7" points="63.82 158.58 61.26 160.46 70.66 168.39 63.82 158.58"/><polygon class="cls-7" points="138.33 157.77 135.25 159.52 138.61 170.79 138.33 157.77"/><rect class="cls-6" x="98.59" y="182.98" width="8.82" height="34"/><polygon class="cls-7" points="100.11 118.46 89.45 116.92 86.87 117.77 99.76 119.88 100.11 118.46"/><polygon class="cls-7" points="107.39 118.46 118.06 116.92 120.42 117.81 107.74 119.88 107.39 118.46"/><polygon class="cls-3" points="150.49 179.63 147.87 183.76 141.28 185.42 136.94 183.09 137.04 174.76 146.33 172.62 150.49 179.63"/><polygon class="cls-3" points="82 171.87 82 176.76 77.32 181.69 72.41 182.04 68.17 173.63 73.8 168 82 171.87"/><path class="cls-3" d="M119.13,96.29l-.1-2.06-1.82-5s.05-2.33.05-3.38c0-7.42-6.23-11.07-12.77-10.9h-1.27C95.71,75,90,78.18,90,88.63c0,2.78,2.71,7.29,2.71,7.29l6,7,12.9,4,4.4-1.47,1.38-3.47-.76-4.46,1.62-.4Z"/><polygon class="cls-7" points="116 89.08 108.77 88.52 109.49 90.82 112.64 92.2 114.83 91.64 116.11 90.84 116 89.08"/><polygon class="cls-7" points="112.51 98.76 112.38 97.86 114.96 92.6 115.11 94.8 112.51 98.76"/><polygon class="cls-7" points="110.55 100.33 107.54 96.83 108.03 95.45 110.55 98.67 110.55 100.33"/><g class="cls-8"><path class="cls-9" d="M115.11,89a2.12,2.12,0,0,1-2.51,1.8,2.46,2.46,0,0,1-2.44-2.21"/><path class="cls-10" d="M113.4,88.29a.91.91,0,0,0-.86,1,.94.94,0,0,0,1,.88.93.93,0,0,0,.86-1A.92.92,0,0,0,113.4,88.29Z"/></g><path class="cls-7" d="M104.88,89.22a2.57,2.57,0,0,0-5.13,0c0,.9.92,2.75.92,3.09a2,2,0,0,0,3.68,1,1.72,1.72,0,0,1-1.24.44,1.74,1.74,0,0,1-1.67-1.82,1.83,1.83,0,0,1,.25-.81,1.74,1.74,0,1,1,2.59-1.43,2,2,0,0,1-.06.35,1.51,1.51,0,0,0-2,.16l.33.54a1,1,0,0,1,1.47.06,1,1,0,0,1-.53,1.48,4,4,0,0,1,.08.48,1.6,1.6,0,0,0,.82-.43,1.5,1.5,0,0,0,.15-1.9A2.56,2.56,0,0,0,104.88,89.22Z"/><polygon class="cls-11" points="108.64 86.11 109.45 87.39 115.79 87.38 115.68 86.35 108.64 86.11"/><polygon class="cls-7" points="115.33 78.55 111.58 75.13 105 73.83 100.18 74.4 96.51 75.38 93.01 77.57 90.24 81.32 89.67 84.66 89.1 88.41 89.51 90.93 90.65 93.78 93.2 97.86 94.53 98.78 95.62 97.37 97.41 96.8 98.79 92.81 97.98 88.65 99.2 86.78 101.07 85.37 104 85.23 105.88 85.31 106.61 82.87 106.41 80.42 109.26 78.96 112.31 78.72 115.81 80.31 115.33 78.55"/><polygon class="cls-12" points="116.98 100.11 113.2 100.42 112.72 101.42 117.33 102.01 116.98 100.11"/></g></g></svg>