<svg viewBox="0 0 256 256" xmlns="http://www.w3.org/2000/svg" xmlns:xlink="http://www.w3.org/1999/xlink"><clipPath id="a"><path d="m0 43.98v118.05l128 49.99 128-49.99v-118.05z"/></clipPath><clipPath id="b"><path d="m112.6 90.84a2.12 2.12 0 0 0 2.51-1.8l-5-.41a2.46 2.46 0 0 0 2.49 2.21z"/></clipPath><g clip-path="url(#a)"><path d="m131.66 228.49-8.79-49.64h-38.76l-7.77 50.36 5.3-.96 6.56 3.94h9.36 9.5 7.88l7.93-.96z" fill="#009444"/><path d="m130.76 223.42-.34-1.91h-5l-.51-4.3h4.75l-.37-2.05h-4.62l-.41-3.44h4.43l-.44-2.26h-4.25l-.55-4.61h4l-.33-1.91h-3.93l-.49-4.17h3.68l-.31-1.76h-3.58l-.6-5h3.28l-.29-1.67h-3.19l-.52-4.42h2.92l-.31-1.77h-2.78l-.63-5.25h-2.74l.65 5.25h-3.64l-.35-5.25h-2.75l.39 5.25h-4.54l-.11-5.25h-2.74l.1 5.25h-4.95v-5.25h-2.75v5.25h-3.65l.22-5.25h-2.75l-.22 5.25h-2.93l.71-5.25h-2.74l-.58 5.2h-1.7l-.3 1.77h1.73l-.52 4.42h-1.87l-.25 1.71h1.91l-.59 5h-2.1l-.31 1.77h2.19l-.49 4.17h-2.31l-.29 1.91h2.41l-.51 4.61h-2.61l-.39 2.26h2.7l-.4 3.44h-2.79l-.32 2.05h2.87l-.51 4.3h-3l-.29 1.91h3.08l-.61 5.18 1.93-.35.65-4.83h6.63l-.36 8.77h2.75l.36-8.77h5.27v8.77h2.75v-8.77h5.72l.17 8.77h2.75l-.18-8.77h6.7l.65 8.7 2.35-.22-.57-8.48h5.88l.93 7.43 2.35-.73-.79-6.7zm-8.63-8.26h-5.41l-.23-3.44h5.21zm-17.13-10.31.09 4.61h-5.4v-4.61zm-5.35-1.91v-4.17h5.23l.08 4.17zm8.09 1.91h5.68l.35 4.61h-5.94zm0-1.91-.08-4.17h5.34l.31 4.17zm-.11-5.93-.1-5h5l.38 5zm-2.75 0h-5.19v-5h5.09zm-7.94 0h-4.18l.21-5h4zm0 1.76v4.17h-4.43l.18-4.17zm0 6.08v4.61h-4.7l.19-4.61zm0 6.87v3.44h-4.94l.14-3.44zm2.75 0h5.48l.07 3.44h-5.55zm8.23 0h6.08l.25 3.44h-6.25zm13.5-2.26h-5.09l-.31-4.61h4.83zm-.81-6.52h-4.72l-.28-4.17h4.48zm-.74-5.93h-4.38l-.34-5h4.09zm-1.39-11.14.55 4.42h-4l-.3-4.42zm-6.43 0 .33 4.42h-4.89l-.09-4.42zm-7.39 0 .09 4.42h-5.06v-4.42zm-7.72 0v4.42h-3.94l.19-4.42zm-9.57 0h3.1l-.18 4.42h-3.51zm-.82 6.13h3.67l-.22 5h-4.13zm-.92 6.81h4.31l-.17 4.17h-4.71zm-.82 6.08h4.88l-.19 4.61h-5.32zm-.93 6.87h5.53l-.15 3.44h-5.85zm-1.33 9.79.58-4.3h6.05l-.18 4.3zm9.2 0 .18-4.3h5v4.3zm7.94 0v-4.3h5.59l.09 4.3zm8.43 0-.09-4.3h6.36l.32 4.3zm9 0-.29-4.3h5.53l.53 4.3z" fill="#c74f48"/><path d="m88.2 232.19 3.11-35.04-6.55 32.75z" fill="#231f20" opacity=".5"/><path d="m96.1 232.19 3.1-32.44 1.2 32.44z" fill="#231f20" opacity=".5"/><path d="m104 232.19 2.23-37.78 1.43 22.29 1.28-4.43 1.71 19.92z" fill="#231f20" opacity=".5"/><path d="m117.34 231.87-1.42-24.5 5.71 23.93z" fill="#231f20" opacity=".5"/><path d="m112.64 191.59-8.64 2.82-8.64-2.82v-14.25h17.28z" fill="#006838"/><path d="m98.92 179.96h10.15v3.35h-10.15z" fill="#939598"/><path d="m122.7 178.98-38.64.08v-3.08h38.64z" fill="#006838"/><path d="m146.24 157.36a6 6 0 0 0 -1.55-4.08l-6.52-25.41a8 8 0 0 0 .13-1.4 8.56 8.56 0 0 0 -8.7-8.4l-17.6-6.79-1.07-11.15-17.41-4.45 2.7 8.22-1.45 7.44-17.87 6.8a9.25 9.25 0 0 0 -8.58 7.58s-7.06 9.88-9.19 13.56c-.87 1.5-7.45 15.51-7.45 17.43a8.56 8.56 0 0 0 .15 1.62 22.88 22.88 0 0 0 2.45 5.56c3.72 5.2 13.89 9.73 13.89 9.73l5.63-5.62s-4.25-5-5.27-6.91a17.94 17.94 0 0 0 -2.66-3.66l.21-.72s9.18-4.58 12.89-17.38l5.09 36.67h38.64l4.74-33.31c.1.5.19 1 .28 1.3.81 3.14 4.2 11.2 4.83 12.67a14.22 14.22 0 0 0 -.06 3.77l4.51 14.34 9.29-2.15-.06-11.84c.11-.73.01-3.42.01-3.42z" fill="#fadda2"/><g fill="#e5c9a1"><path d="m108.45 139.51-2.57-4.33v4.88h-.01l.5 3.31 16.83-5.76.04-2.23z"/><path d="m97.6 139.51-14.8-4.13.05 2.23 16.83 5.76.49-3.31v-4.88z"/><path d="m112.87 152.23-8.46 1.23-1.41-4.14-1.41 4.14-8.46-1.23-2.91-3.44 1.21 5.45 11.57 1.23 11.57-1.23 1.21-5.45z"/><path d="m104.28 163.52-1.28-3.74-1.28 3.74-7.66-1.22-2.63-3.12 1.1 4.94 10.47 1.22 10.47-1.22 1.1-4.94-2.63 3.12z"/><path d="m67.9 152.13 6.15-13.97 1.62 4.38z"/><path d="m133.42 151.55-2.3-13.93-2.02 3.34z"/><path d="m63.82 158.58-2.56 1.88 9.4 7.93z"/><path d="m138.33 157.77-3.08 1.75 3.36 11.27z"/><path d="m100.11 118.46-10.66-1.54-2.58.85 12.89 2.11z"/><path d="m107.39 118.46 10.67-1.54 2.36.89-12.68 2.07z"/></g><path d="m150.49 179.63-2.62 4.13-6.59 1.66-4.34-2.33.1-8.33 9.29-2.14z" fill="#fadda2"/><path d="m82 171.87v4.89l-4.68 4.93-4.91.35-4.24-8.41 5.63-5.63z" fill="#fadda2"/><path d="m119.56 96.48-2.35-7.25s.05-2.33.05-3.38c0-7.42-6.23-11.07-12.77-10.9h-1.27c-7.51.05-13.22 3.23-13.22 13.68 0 2.78 2.71 7.29 2.71 7.29l6 7 12.24 3.81 5.85-2.69-.17-6.51z" fill="#fadda2"/><path d="m116.01 89.11-7.24-.59.72 1.87 3.15 1.11 2.19-.45.67-.65z" fill="#e5c9a1"/><path d="m112.51 98.76-.13-.9 2.58-5.26.15 2.2z" fill="#e5c9a1"/><path d="m111 100.9-3.46-4.07.49-1.38 2.97 3.79z" fill="#e5c9a1"/><g clip-path="url(#b)"><path d="m115.11 89a2.12 2.12 0 0 1 -2.51 1.8 2.46 2.46 0 0 1 -2.44-2.21" fill="#e6e7e8"/><path d="m113.4 88.29a.91.91 0 0 0 -.86 1 .94.94 0 0 0 1 .88.93.93 0 0 0 .86-1 .92.92 0 0 0 -1-.88z" fill="#58595b"/></g><path d="m104.88 89.22a2.57 2.57 0 0 0 -5.13 0c0 .9.92 2.75.92 3.09a2 2 0 0 0 3.68 1 1.72 1.72 0 0 1 -1.24.44 1.74 1.74 0 0 1 -1.67-1.82 1.83 1.83 0 0 1 .25-.81 1.74 1.74 0 1 1 2.59-1.43 2 2 0 0 1 -.06.35 1.51 1.51 0 0 0 -2 .16l.33.54a1 1 0 0 1 1.47.06 1 1 0 0 1 -.53 1.48 4 4 0 0 1 .08.48 1.6 1.6 0 0 0 .82-.43 1.5 1.5 0 0 0 .15-1.9 2.56 2.56 0 0 0 .34-1.21z" fill="#e5c9a1"/><path d="m116.65 99.75-3.8.84.84-1.12 2.93-.71z" fill="#e5c9a1"/><path d="m116.66 100.9-2.26.43-1.94 1.57-1.68.12 1.64-3.34 4.18-.86v-1.27l-4.19.31-1.8 1.38-2 3.65-2.1-1.25-1.07-8-1.16 1.68-.49 6.65 3.42 5.57 3.7 1.08 4-.31 1.91-2.14z" fill="#d4a954"/><path d="m108.31 85.58.53 1.2 7.23 1.1.14-1.88z" fill="#d4a954"/><path d="m117.89 82.46-1.14-3.18-2.12-3.47-3.91-3.12-5.94.89-2.53-.49-5.13 1.47-2.69.16-2.04 2.85-2.28 2.94v3.74l-1.71 1.88v6.51l-.89 2.04.49 3.42-.49 3.91.49 3.5 1.95-4.64.9 2.28 1.79-3.67 1.55 5.05 1.38-3.42 1.87 1.63 1.14-4.15 1.63 1.55.17-5.3 1.31-3.76 1.01-2.51.83 1.17 1.49-2.31.65 1.22 1.06-4.15 2.61-2.28 3.5-1.88.81 1.71 1.71-1.38.74 1.79 1.46.9z" fill="#d4a954"/></g></svg>