<svg viewBox="0 0 256 256" xmlns="http://www.w3.org/2000/svg" xmlns:xlink="http://www.w3.org/1999/xlink"><clipPath id="a"><path d="m-18.27 31.99v118.86l146.27 73.16 146.26-73.16v-118.86z"/></clipPath><clipPath id="b"><path d="m110.4 85.54c1.56.13 2.85-.8 2.87-2.06l-5.65-.48a2.82 2.82 0 0 0 2.78 2.54z"/></clipPath><g clip-path="url(#a)"><path d="m132.18 242.83-10.04-56.72h-44.3l-8.87 57.54 6.05-1.09 7.51 4.5h10.69 10.86 9l9.06-1.09z" fill="#009444"/><path d="m131.15 237-.38-2.17h-5.72l-.58-4.92h5.43l-.42-2.34h-5.29l-.47-3.94h5.07l-.5-2.57h-4.87l-.63-5.27h4.61l-.39-2.18h-4.48l-.57-4.78h4.21l-.36-2h-4.08l-.69-5.77h3.75l-.34-1.91h-3.64l-.6-5.05h3.35l-.36-2h-3.2l-.71-6h-3.14l.75 6h-4.16l-.4-6h-3.14l.45 6h-5.2l-.12-6h-3.13l.12 6h-5.67v-6h-3.14v6h-4.17l.24-6h-3.13l-.25 6h-3.35l.81-6h-3.14l-.7 6h-1.9l-.31 2h2l-.6 5.05h-2.18l-.3 1.91h2.23l-.68 5.77h-2.44l-.31 2h2.51l-.56 4.78h-2.68l-.34 2.18h2.74l-.62 5.27h-3l-.4 2.57h3l-.47 3.94h-3.06l-.37 2.34h3.28l-.58 4.92h-3.46l-.32 2.17h3.53l-.7 5.92 2.2-.39.75-5.53h7.58l-.42 10h3.14l.42-10h6v10h3.14v-10h6.53l.2 10h3.14l-.2-10h7.69l.75 9.95 2.68-.25-.66-9.7h6.73l1.06 8.5 2.69-.84-.91-7.66zm-9.86-9.43h-6.18l-.27-3.94h6zm-19.53-11.78.11 5.27h-6.22v-5.27zm-6.11-2.18v-4.78h6l.1 4.78zm9.25 2.18h6.49l.39 5.27h-6.78zm-.05-2.18-.09-4.78h6.11l.36 4.78zm-.13-6.78-.12-5.77h5.69l.43 5.77zm-3.14 0h-5.93v-5.77h5.82zm-9.07 0h-4.78l.24-5.77h4.54zm0 2v4.78h-5.06l.2-4.78zm0 7v5.27h-5.37l.22-5.27zm0 7.84v3.94h-5.64l.17-3.94zm3.14 0h6.27l.08 3.94h-6.35zm9.4 0h6.95l.29 3.94h-7.14zm15.43-2.57h-5.81l-.36-5.27h5.52zm-.92-7.45h-5.39l-.33-4.78h5.16zm-.85-6.78h-5l-.39-5.77h4.68zm-1.59-12.73.63 5.05h-4.56l-.34-5.05zm-7.35 0 .38 5.05h-5.58l-.11-5.05zm-8.44 0 .1 5.05h-5.78v-5.05zm-8.82 0v5.05h-4.46l.2-5.05zm-10.93 0h3.54l-.21 5.05h-4zm-.94 7h4.19l-.24 5.77h-4.74zm-1.06 7.77h4.93l-.2 4.78h-5.37zm-.94 7h5.58l-.22 5.18h-6.07zm-1.06 7.84h6.32l-.16 3.94h-6.69zm-1.51 11.2.66-4.92h6.91l-.2 4.92zm10.5 0 .21-4.92h5.73v4.92zm9.08 0v-4.92h6.35l.1 4.92zm9.63 0-.1-4.92h7.27l.36 4.92zm10.32 0-.33-4.92h6.32l.61 4.92z" fill="#c74f48"/><path d="m82.53 247.06 3.54-40.05-7.48 37.43z" fill="#231f20" opacity=".5"/><path d="m91.55 247.06 3.55-37.07 1.36 37.07z" fill="#231f20" opacity=".5"/><path d="m100.57 247.06 2.55-43.18 1.64 25.47 1.46-5.06 1.95 22.77z" fill="#231f20" opacity=".5"/><path d="m115.82 246.69-1.62-28 6.52 27.35z" fill="#231f20" opacity=".5"/><path d="m110.44 200.66-9.87 3.22-9.87-3.22v-16.28h19.74z" fill="#006838"/><path d="m94.78 187.37h11.59v3.83h-11.59z" fill="#939598"/><path d="m121.95 186.25-44.16.09v-3.52h44.16z" fill="#006838"/><path d="m148.84 161.55a6.77 6.77 0 0 0 -1.77-4.67l-7.46-29a9.33 9.33 0 0 0 .15-1.6 9.79 9.79 0 0 0 -9.94-9.6l-20.17-7.75-1.22-12.74-19.83-5.12 3.08 9.39-1.68 8.54-20.42 7.77a10.53 10.53 0 0 0 -9.8 8.66s-8.08 11.28-10.51 15.49c-1 1.71-8.52 17.72-8.52 19.92a9.44 9.44 0 0 0 .19 1.85 25.72 25.72 0 0 0 2.82 6.31c4.24 6 15.87 11.14 15.87 11.14l6.44-6.44s-4.86-5.66-6-7.89a20.66 20.66 0 0 0 -3-4.18l.25-.82s10.41-5.24 14.68-19.81l5.82 41.87h44.18l5.41-38c.11.57.22 1.07.32 1.48.92 3.59 4.8 12.8 5.51 14.48a16.86 16.86 0 0 0 -.06 4.3l5.2 16.41 10.56-2.54-.06-13.53c.12-.84-.04-3.92-.04-3.92z" fill="#fadda2"/><g fill="#e5c9a1"><path d="m105.66 141.16-2.94-4.96v5.58l.56 3.78 19.23-6.58.05-2.55z"/><path d="m93.26 141.16-16.91-4.73.06 2.55 19.23 6.58.56-3.78v-5.58z"/><path d="m110.71 155.69-9.67 1.4-1.61-4.73-1.61 4.73-9.67-1.4-3.32-3.93 1.39 6.23 13.21 1.39 13.22-1.39 1.38-6.23z"/><path d="m100.89 168.59-1.46-4.28-1.46 4.28-8.75-1.4-3-3.56 1.25 5.64 11.96 1.4 11.97-1.4 1.25-5.64-3.01 3.56z"/><path d="m59.32 155.57 7.03-15.96 1.85 5.01z"/><path d="m134.2 154.91-2.63-15.92-2.31 3.82z"/><path d="m54.66 162.95-2.93 2.14 10.75 9.06z"/><path d="m139.8 162.02-3.52 2 3.85 12.88z"/><path d="m96.13 117.1-12.18-1.76-2.95.97 14.73 2.41z"/><path d="m104.45 117.1 12.19-1.76 2.7 1.01-14.49 2.37z"/></g><path d="m153.69 186.99-2.99 4.73-7.53 1.9-4.96-2.67.12-9.51 10.61-2.45z" fill="#fadda2"/><path d="m75.44 178.13v5.59l-5.35 5.64-5.61.4-4.85-9.63 6.44-6.43z" fill="#fadda2"/><path d="m118.36 92-2.69-8.29s0-2.66.06-3.87c0-8.48-7.12-12.64-14.6-12.45-.7 0-.74 0-1.45 0-8.58 0-15.13 3.69-15.13 15.64 0 3.17 3.1 8.32 3.1 8.32l6.82 8 14 4.35 6.68-3.07-.19-7.44z" fill="#fadda2"/><path d="m114.3 83.56-8.27-.67.82 2.13 3.59 1.27 2.51-.51.77-.74z" fill="#e5c9a1"/><path d="m110.3 94.59-.15-1.03 2.95-6.01.17 2.51z" fill="#e5c9a1"/><path d="m108.58 97.03-3.96-4.65.57-1.57 3.38 4.33z" fill="#e5c9a1"/><g clip-path="url(#b)"><path d="m113.27 83.48c0 1.26-1.31 2.19-2.87 2.06a2.82 2.82 0 0 1 -2.78-2.54" fill="#e6e7e8"/><path d="m111.31 82.62a1 1 0 0 0 -1 1.12 1 1 0 1 0 1-1.12z" fill="#00a79d"/></g><path d="m101.58 83.69a2.93 2.93 0 0 0 -5.86 0c0 1 1 3.14 1 3.53a2.24 2.24 0 0 0 4.28 1.09 2 2 0 0 1 -1.43.51 2 2 0 0 1 -1.9-2.09 2 2 0 0 1 .28-.91 2 2 0 1 1 3-1.65 1.75 1.75 0 0 1 -.08.41 1.71 1.71 0 0 0 -2.22.18l.38.62a1.17 1.17 0 0 1 1.67.06 1.11 1.11 0 0 1 -.6 1.7 3.38 3.38 0 0 1 .09.54 1.7 1.7 0 0 0 1.06-2.68 2.85 2.85 0 0 0 .33-1.31z" fill="#e5c9a1"/><path d="m115.03 95.72-4.34.96.96-1.29 3.35-.8z" fill="#e5c9a1"/><path d="m115 97-2.58.49-2.22 1.8-1.91.14 1.87-3.83 4.77-1v-1.45l-4.79.36-2.06 1.57-2.27 4.18-2.4-1.43-1.22-9.13-1.33 1.92-.56 7.6 3.91 6.36 4.23 1.24 4.57-.36 2.18-2.44z" fill="#d4a954"/><path d="m105.5 79.52.61 1.38 8.25 1.25.17-2.15z" fill="#d4a954"/><path d="m116.44 75.96-1.3-3.63-2.42-3.97-4.47-3.57-6.79 1.03-2.88-.56-5.87 1.68-3.07.18-2.33 3.26-2.6 3.35v4.28l-1.96 2.14v7.45l-1.02 2.32.56 3.91-.56 4.47.56 4 2.23-5.3 1.03 2.6 2.04-4.18 1.77 5.77 1.58-3.91 2.14 1.86 1.31-4.75 1.86 1.77.19-6.05 1.5-4.29 1.15-2.88.95 1.34 1.7-2.64.74 1.4 1.21-4.75 2.98-2.61 4-2.14.94 1.96 1.95-1.58.84 2.04 1.67 1.03z" fill="#d4a954"/></g></svg>