<svg viewBox="0 0 256 256" xmlns="http://www.w3.org/2000/svg" xmlns:xlink="http://www.w3.org/1999/xlink"><clipPath id="a"><path d="m0 43.98v118.05l128 49.99 128-49.99v-118.05z"/></clipPath><clipPath id="b"><path d="m112.6 90.84a2.12 2.12 0 0 0 2.51-1.8l-5-.41a2.46 2.46 0 0 0 2.49 2.21z"/></clipPath><g clip-path="url(#a)"><path d="m146.24 157.36a6 6 0 0 0 -1.55-4.08l-6.52-25.41a8 8 0 0 0 .13-1.4 8.56 8.56 0 0 0 -8.7-8.4l-17.6-6.79-1.07-11.15-17.41-4.45 2.7 8.22-1.45 7.44-17.87 6.8a9.25 9.25 0 0 0 -8.58 7.58s-7.06 9.88-9.19 13.56c-.87 1.5-7.45 15.51-7.45 17.43a8.56 8.56 0 0 0 .15 1.62 22.88 22.88 0 0 0 2.45 5.56c3.72 5.2 13.89 9.73 13.89 9.73l5.63-5.62s-4.25-5-5.27-6.91a17.94 17.94 0 0 0 -2.66-3.66l.21-.72s9.18-4.58 12.89-17.38l5.09 36.67h38.64l4.74-33.31c.1.5.19 1 .28 1.3.81 3.14 4.2 11.2 4.83 12.67a14.22 14.22 0 0 0 -.06 3.77l4.51 14.34 9.29-2.15-.06-11.84c.11-.73.01-3.42.01-3.42z" fill="#ebcb8d"/><path d="m123.52 216.98h-40.33l.87-34h38.64z" fill="#8b5e3c"/><path d="m84.06 175.98h38.64v7h-38.64z" fill="#8b5e3c"/><path d="m76.14 216.98 7.92-34h17.25l-17.97 34z" fill="#a97c50"/><path d="m131.03 216.98-8.33-34h-17.91l18.5 34z" fill="#a97c50"/><g fill="#d9bc82"><path d="m108.45 139.51-2.57-4.33v4.88h-.01l.5 3.31 16.83-5.76.04-2.23z"/><path d="m97.6 139.51-14.8-4.13.05 2.23 16.83 5.76.49-3.31v-4.88z"/><path d="m112.87 152.23-8.46 1.23-1.41-4.14-1.41 4.14-8.46-1.23-2.91-3.44 1.21 5.45 11.57 1.23 11.57-1.23 1.21-5.45z"/><path d="m104.28 163.52-1.28-3.74-1.28 3.74-7.66-1.22-2.63-3.12 1.1 4.94 10.47 1.22 10.47-1.22 1.1-4.94-2.63 3.12z"/><path d="m67.9 152.13 6.15-13.97 1.62 4.38z"/><path d="m133.42 151.55-2.3-13.93-2.02 3.34z"/><path d="m63.82 158.58-2.56 1.88 9.4 7.93z"/><path d="m138.33 157.77-3.08 1.75 3.36 11.27z"/></g><path d="m98.59 182.98h8.82v34h-8.82z" fill="#a97c50"/><path d="m100.11 118.46-10.66-1.54-2.58.85 12.89 2.11z" fill="#d9bc82"/><path d="m107.39 118.46 10.67-1.54 2.36.89-12.68 2.07z" fill="#d9bc82"/><path d="m150.49 179.63-2.62 4.13-6.59 1.66-4.34-2.33.1-8.33 9.29-2.14z" fill="#ebcb8d"/><path d="m82 171.87v4.89l-4.68 4.93-4.91.35-4.24-8.41 5.63-5.63z" fill="#ebcb8d"/><path d="m119.56 96.48-2.35-7.25s.05-2.33.05-3.38c0-7.42-6.23-11.07-12.77-10.9h-1.27c-7.51.05-13.22 3.23-13.22 13.68 0 2.78 2.71 7.29 2.71 7.29l6 7 12.24 3.81 5.85-2.69-.17-6.51z" fill="#ebcb8d"/><path d="m116 89.08-7.23-.56.72 2.3 3.15 1.38 2.19-.56 1.28-.8z" fill="#d9bc82"/><path d="m112.51 98.76-.13-.9 2.58-5.26.15 2.2z" fill="#d9bc82"/><path d="m111 100.9-3.46-4.07.49-1.38 2.97 3.79z" fill="#d9bc82"/><g clip-path="url(#b)"><path d="m115.11 89a2.12 2.12 0 0 1 -2.51 1.8 2.46 2.46 0 0 1 -2.44-2.21" fill="#e6e7e8"/><path d="m113.4 88.29a.91.91 0 0 0 -.86 1 .94.94 0 0 0 1 .88.93.93 0 0 0 .86-1 .92.92 0 0 0 -1-.88z" fill="#58595b"/></g><path d="m104.88 89.22a2.57 2.57 0 0 0 -5.13 0c0 .9.92 2.75.92 3.09a2 2 0 0 0 3.68 1 1.72 1.72 0 0 1 -1.24.44 1.74 1.74 0 0 1 -1.67-1.82 1.83 1.83 0 0 1 .25-.81 1.74 1.74 0 1 1 2.59-1.43 2 2 0 0 1 -.06.35 1.51 1.51 0 0 0 -2 .16l.33.54a1 1 0 0 1 1.47.06 1 1 0 0 1 -.53 1.48 4 4 0 0 1 .08.48 1.6 1.6 0 0 0 .82-.43 1.5 1.5 0 0 0 .15-1.9 2.56 2.56 0 0 0 .34-1.21z" fill="#d9bc82"/><path d="m116.65 99.75-3.8.84.84-1.12 2.93-.71z" fill="#d9bc82"/><path d="m116.66 100.9-2.26.43-1.65 2.31-2-.62 1.64-3.34 4.18-.86v-1.27l-4.19.31-1.8 1.38-2 3.65-2.1-1.25-1.39-8-1.14 1 .92 11 6 3 5.91-1.45z" fill="#58595b"/><path d="m109.1 85.7-.32 2.2.87-.78 6.24.94.07-.78z" fill="#58595b"/><path d="m115.33 78.55-3.75-3.42-6.58-1.3-4.82.57-3.67.98-3.5 2.19-2.77 3.75-.57 3.34-.57 3.75.41 2.52 1.14 2.85 2.55 4.08 1.33.92 1.09-1.41 1.79-.57 1.38-3.99-.81-4.16 1.22-1.87 1.87-1.41 2.93-.14 1.88.08.73-2.44-.2-2.45 2.85-1.46 3.05-.24 3.5 1.59z" fill="#58595b"/></g></svg>