<svg viewBox="0 0 256 256" xmlns="http://www.w3.org/2000/svg" xmlns:xlink="http://www.w3.org/1999/xlink"><clipPath id="a"><path d="m-18.27 31.99v118.86l146.27 73.16 146.26-73.16v-118.86z"/></clipPath><clipPath id="b"><path d="m110.4 85.54c1.56.13 2.85-.8 2.87-2.06l-5.65-.48a2.82 2.82 0 0 0 2.78 2.54z"/></clipPath><g clip-path="url(#a)"><path d="m148.84 161.55a6.77 6.77 0 0 0 -1.77-4.67l-7.46-29a9.33 9.33 0 0 0 .15-1.6 9.79 9.79 0 0 0 -9.94-9.6l-20.17-7.75-1.22-12.74-19.83-5.12 3.08 9.39-1.68 8.54-20.42 7.77a10.53 10.53 0 0 0 -9.8 8.66s-8.08 11.28-10.51 15.49c-1 1.71-8.52 17.72-8.52 19.92a9.44 9.44 0 0 0 .19 1.85 25.72 25.72 0 0 0 2.82 6.31c4.24 6 15.87 11.14 15.87 11.14l6.44-6.44s-4.86-5.66-6-7.89a20.66 20.66 0 0 0 -3-4.18l.25-.82s10.41-5.24 14.68-19.81l5.82 41.87h44.18l5.41-38c.11.57.22 1.07.32 1.48.92 3.59 4.8 12.8 5.51 14.48a16.86 16.86 0 0 0 -.06 4.3l5.2 16.41 10.56-2.54-.06-13.53c.12-.84-.04-3.92-.04-3.92z" fill="#ffdfb2"/><path d="m121.95 186.25-44.16.09v-3.52h44.16z" fill="#603913"/><g fill="#e5c9a1"><path d="m105.66 141.16-2.94-4.96v5.58l.56 3.78 19.23-6.58.05-2.55z"/><path d="m93.26 141.16-16.91-4.73.06 2.55 19.23 6.58.56-3.78v-5.58z"/><path d="m110.71 155.69-9.67 1.4-1.61-4.73-1.61 4.73-9.67-1.4-3.32-3.93 1.39 6.23 13.21 1.39 13.22-1.39 1.38-6.23z"/><path d="m100.89 168.59-1.46-4.28-1.46 4.28-8.75-1.4-3-3.56 1.25 5.64 11.96 1.4 11.97-1.4 1.25-5.64-3.01 3.56z"/><path d="m59.32 155.57 7.03-15.96 1.85 5.01z"/><path d="m134.2 154.91-2.63-15.92-2.31 3.82z"/><path d="m54.66 162.95-2.93 2.14 10.75 9.06z"/><path d="m139.8 162.02-3.52 2 3.85 12.88z"/></g><path d="m121.95 186.25-44.16.09-9.04 43.33h8.04.18 17.42 10.08 18.14.27 8.59z" fill="#754c29"/><path d="m97.11 186.3h2.98v15.4h-2.98z" fill="#603913"/><path d="m102.57 183.7h2.98v13.93h-2.98z" fill="#603913"/><path d="m96.13 117.1-12.18-1.76-2.95.97 14.73 2.41z" fill="#e5c9a1"/><path d="m104.45 117.1 12.19-1.76 2.7 1.01-14.49 2.37z" fill="#e5c9a1"/><path d="m153.69 186.99-2.99 4.73-7.53 1.9-4.96-2.67.12-9.51 10.61-2.45z" fill="#ffdfb2"/><path d="m75.44 178.13v5.59l-5.35 5.64-5.61.4-4.85-9.63 6.44-6.43z" fill="#ffdfb2"/><path d="m118.36 92-2.69-8.29s0-2.66.06-3.87c0-8.48-7.12-12.64-14.6-12.45-.7 0-.74 0-1.45 0-8.58 0-15.13 3.69-15.13 15.64 0 3.17 3.1 8.32 3.1 8.32l6.82 8 14 4.35 6.68-3.07-.19-7.44z" fill="#ffdfb2"/><path d="m114.28 83.53-8.25-.64.82 2.63 3.59 1.57 2.51-.63 1.47-.92z" fill="#e5c9a1"/><path d="m110.3 94.59-.15-1.03 2.95-6.01.17 2.51z" fill="#e5c9a1"/><path d="m108.58 97.03-3.96-4.65.57-1.57 3.38 4.33z" fill="#e5c9a1"/><g clip-path="url(#b)"><path d="m113.27 83.48c0 1.26-1.31 2.19-2.87 2.06a2.82 2.82 0 0 1 -2.78-2.54" fill="#e6e7e8"/><path d="m111.31 82.62a1 1 0 0 0 -1 1.12 1 1 0 1 0 1-1.12z" fill="#1c75bc"/></g><path d="m101.58 83.69a2.93 2.93 0 0 0 -5.86 0c0 1 1 3.14 1 3.53a2.24 2.24 0 0 0 4.28 1.09 2 2 0 0 1 -1.43.51 2 2 0 0 1 -1.9-2.09 2 2 0 0 1 .28-.91 2 2 0 1 1 3-1.65 1.75 1.75 0 0 1 -.08.41 1.71 1.71 0 0 0 -2.22.18l.38.62a1.17 1.17 0 0 1 1.67.06 1.11 1.11 0 0 1 -.6 1.7 3.38 3.38 0 0 1 .09.54 1.7 1.7 0 0 0 1.06-2.68 2.85 2.85 0 0 0 .33-1.31z" fill="#e5c9a1"/><path d="m115.03 95.72-4.34.96.96-1.29 3.35-.8z" fill="#e5c9a1"/><path d="m115 97-2.58.49-2.22 1.8-1.91.14 1.87-3.83 4.77-1v-1.45l-4.79.36-2.06 1.57-2.27 4.18-2.4-1.43-1.24-9.29-2.77 1.52 2.17 12.35 2.64 2.17 4.23 1.24 4.57-.36 2.18-2.44z" fill="#e6ac39"/><path d="m105.22 80.13.76 1.3 8.34.33-.07-2.15z" fill="#e6ac39"/></g></svg>