<svg xmlns="http://www.w3.org/2000/svg" viewBox="0 0 256 256"><defs><style>.a{opacity:0.15;}.b{fill:#c1272d;}.c{fill:red;}</style></defs><ellipse class="a" cx="24" cy="32" rx="8" ry="5"/><rect class="b" x="16" y="16" width="16" height="16"/><rect class="c" x="16" y="8" width="16" height="8"/><ellipse class="a" cx="24" cy="84" rx="8" ry="5"/><rect class="b" x="16" y="68" width="16" height="16"/><rect class="c" x="16" y="60" width="16" height="8"/><ellipse class="a" cx="24" cy="136" rx="8" ry="5"/><rect class="b" x="16" y="120" width="16" height="16"/><rect class="c" x="16" y="112" width="16" height="8"/><ellipse class="a" cx="24" cy="188" rx="8" ry="5"/><rect class="b" x="16" y="172" width="16" height="16"/><rect class="c" x="16" y="164" width="16" height="8"/><ellipse class="a" cx="232" cy="32" rx="8" ry="5"/><rect class="b" x="224" y="16" width="16" height="16"/><rect class="c" x="224" y="8" width="16" height="8"/><ellipse class="a" cx="180" cy="32" rx="8" ry="5"/><rect class="b" x="172" y="16" width="16" height="16"/><rect class="c" x="172" y="8" width="16" height="8"/><ellipse class="a" cx="128" cy="32" rx="8" ry="5"/><rect class="b" x="120" y="16" width="16" height="16"/><rect class="c" x="120" y="8" width="16" height="8"/><ellipse class="a" cx="76" cy="32" rx="8" ry="5"/><rect class="b" x="68" y="16" width="16" height="16"/><rect class="c" x="68" y="8" width="16" height="8"/><ellipse class="a" cx="24" cy="240" rx="8" ry="5"/><rect class="b" x="16" y="224" width="16" height="16"/><rect class="c" x="16" y="216" width="16" height="8"/><ellipse class="a" cx="232" cy="240" rx="8" ry="5"/><rect class="b" x="224" y="224" width="16" height="16"/><rect class="c" x="224" y="216" width="16" height="8"/><ellipse class="a" cx="180" cy="240" rx="8" ry="5"/><rect class="b" x="172" y="224" width="16" height="16"/><rect class="c" x="172" y="216" width="16" height="8"/><ellipse class="a" cx="128" cy="240" rx="8" ry="5"/><rect class="b" x="120" y="224" width="16" height="16"/><rect class="c" x="120" y="216" width="16" height="8"/><ellipse class="a" cx="76" cy="240" rx="8" ry="5"/><rect class="b" x="68" y="224" width="16" height="16"/><rect class="c" x="68" y="216" width="16" height="8"/></svg>