<svg xmlns="http://www.w3.org/2000/svg" viewBox="0 0 256 256"><defs><style>.a{opacity:0.15;}.b{fill:#c1272d;}.c{fill:red;}</style></defs><ellipse class="a" cx="232" cy="84" rx="8" ry="5"/><rect class="b" x="224" y="68" width="16" height="16"/><rect class="c" x="224" y="60" width="16" height="8"/><ellipse class="a" cx="232" cy="136" rx="8" ry="5"/><rect class="b" x="224" y="120" width="16" height="16"/><rect class="c" x="224" y="112" width="16" height="8"/><ellipse class="a" cx="232" cy="188" rx="8" ry="5"/><rect class="b" x="224" y="172" width="16" height="16"/><rect class="c" x="224" y="164" width="16" height="8"/><ellipse class="a" cx="232" cy="32" rx="8" ry="5"/><rect class="b" x="224" y="16" width="16" height="16"/><rect class="c" x="224" y="8" width="16" height="8"/><ellipse class="a" cx="232" cy="240" rx="8" ry="5"/><rect class="b" x="224" y="224" width="16" height="16"/><rect class="c" x="224" y="216" width="16" height="8"/></svg>