<svg viewBox="0 0 1080 522" xmlns="http://www.w3.org/2000/svg"><metadata><?xpacket begin="﻿" id="W5M0MpCehiHzreSzNTczkc9d"?>
<x:xmpmeta xmlns:x="adobe:ns:meta/" x:xmptk="Adobe XMP Core 6.0-c002 79.164352, 2020/01/30-15:50:38        ">
   <rdf:RDF xmlns:rdf="http://www.w3.org/1999/02/22-rdf-syntax-ns#">
      <rdf:Description rdf:about=""
            xmlns:dc="http://purl.org/dc/elements/1.1/"
            xmlns:Iptc4xmpCore="http://iptc.org/std/Iptc4xmpCore/1.0/xmlns/"
            xmlns:xmp="http://ns.adobe.com/xap/1.0/"
            xmlns:xmpMM="http://ns.adobe.com/xap/1.0/mm/"
            xmlns:stEvt="http://ns.adobe.com/xap/1.0/sType/ResourceEvent#">
         <dc:creator>
            <rdf:Seq>
               <rdf:li>Jerkko Valta</rdf:li>
            </rdf:Seq>
         </dc:creator>
         <Iptc4xmpCore:CreatorContactInfo>
            <rdf:Description>
               <Iptc4xmpCore:CiAdrCity>Tampere</Iptc4xmpCore:CiAdrCity>
               <Iptc4xmpCore:CiAdrCtry>Finland</Iptc4xmpCore:CiAdrCtry>
               <Iptc4xmpCore:CiEmailWork>jerkko.valta@gmail.com</Iptc4xmpCore:CiEmailWork>
            </rdf:Description>
         </Iptc4xmpCore:CreatorContactInfo>
         <xmp:MetadataDate>2020-06-09T23:07:08+03:00</xmp:MetadataDate>
         <xmpMM:InstanceID>xmp.iid:9053aa5e-ea0d-475c-95ae-00fb7c32a0f9</xmpMM:InstanceID>
         <xmpMM:DocumentID>xmp.did:9053aa5e-ea0d-475c-95ae-00fb7c32a0f9</xmpMM:DocumentID>
         <xmpMM:OriginalDocumentID>xmp.did:9053aa5e-ea0d-475c-95ae-00fb7c32a0f9</xmpMM:OriginalDocumentID>
         <xmpMM:History>
            <rdf:Seq>
               <rdf:li>
                  <rdf:Description>
                     <stEvt:action>saved</stEvt:action>
                     <stEvt:instanceID>xmp.iid:9053aa5e-ea0d-475c-95ae-00fb7c32a0f9</stEvt:instanceID>
                     <stEvt:when>2020-06-09T23:07:08+03:00</stEvt:when>
                     <stEvt:softwareAgent>Adobe Bridge 2020 (Macintosh)</stEvt:softwareAgent>
                     <stEvt:changed>/metadata</stEvt:changed>
                  </rdf:Description>
               </rdf:li>
            </rdf:Seq>
         </xmpMM:History>
      </rdf:Description>
   </rdf:RDF>
</x:xmpmeta>
                                                                                                    
                                                                                                    
                                                                                                    
                                                                                                    
                                                                                                    
                                                                                                    
                                                                                                    
                                                                                                    
                                                                                                    
                                                                                                    
                                                                                                    
                                                                                                    
                                                                                                    
                                                                                                    
                                                                                                    
                                                                                                    
                                                                                                    
                                                                                                    
                                                                                                    
                                                                                                    
                           
<?xpacket end="w"?></metadata>
<path d="m866.72 270.24v-125.74l-67.72-18.19v-82.31l-151.14-40-48.15 19.52-6.24-3.41c-21.06-11.5-46.12-17.33-74.47-17.33-33.38 0-62 7.82-85.06 23.26l-5.4 3.61-129.2-30.01-49.34 86.45.39 41.25-23.49-6.68-67.45 92.46-5.29 55.56-59.69 84 55.9 121.52 739 4.42 58.63-131.88z" fill="#333"/><path d="m394.63 95.83a135.2 135.2 0 0 1 21.72-37.77l-104.35-24.56 43.31 52z" fill="#ffec96"/><path d="m277.31 151.43 33.69 10.57 42.11-57 35.36 10.4a167.48 167.48 0 0 1 6.16-19.53l-39.36-10.4-43.27-51.97-34.65 65zm28.16-55.9 9.72-13.37 9.81 10.21v27.91l-19.48 5.22z" fill="#a68e53"/><path d="m324.95 92.37-9.76-10.21-9.73 13.37v29.97l19.49-5.22z" fill="#333"/><path d="m699.59 46.69-8.66 4.87v9.32l8.66 2.26z" fill="#a68e53"/><path d="m747.23 58.99-8.66 5.12v8.28l8.66 2.27z" fill="#a68e53"/><path d="m664.21 103.39 48.37 12.61v12.75l21.42-6.86 39.19 10.18v-67l-26-6.07v15.66l-8.66-2.27-13-3.4v-16.4l-26-5.9v16.45l-8.66-2.25-17.27-4.52v-17.17l-23.82-7.51v77.55zm65.69-8.27s.21-8.79 7.58-7c7.58 1.9 7.58 9.48 7.58 9.48v11.5l-15.16-3.78zm-47.64-9.42s.2-8.79 7.58-7c7.58 1.9 7.58 9.47 7.58 9.47v11.56l-15.16-3.79z" fill="#ffec96"/><path d="m697.42 88.22s0-7.57-7.58-9.47c-7.38-1.84-7.58 7-7.58 7v10.19l15.16 3.79z" fill="#333"/><path d="m745.06 97.65s0-7.58-7.58-9.48c-7.37-1.84-7.58 7-7.58 7v10.25l15.16 3.78z" fill="#333"/><path d="m647.44 110.19 2.34-1v-77.5l-38.98 15.31v.43c20.08 18.91 30.86 42.81 36.64 62.76z" fill="#a68e53"/><path d="m383.42 150.51a138.46 138.46 0 0 1 1.74-18.72l-29-7.28 7 7.75 20.3 21.79z" fill="#ffec96"/><path d="m734.24 140.61-13 5.49v13.52l13 3.38z" fill="#a68e53"/><path d="m801.37 157.43-13 6v12.55l13 3.4z" fill="#a68e53"/><path d="m721.24 196.14c-10.54-2.63-10.82 9.93-10.82 9.93v41.51l21.65 3.24v-41.14s0-10.83-10.83-13.54z" fill="#333"/><path d="m788.37 209.14c-10.54-2.64-10.82 9.92-10.82 9.92v39.34l21.65 3.25v-39s0-10.81-10.83-13.51z" fill="#333"/><path d="m664.94 162.42v-16.32-23.82l-19.49 8.66v139.14l19.49 2.22z" fill="#a68e53"/><path d="m574.36 126.43c32.17 3.8 55.25 10.82 60.26 19.11-2.28-19.11-18.46-112.9-115.94-112.9-17.14 0-31.76 3.13-44.26 8.34 29.24 4.64 59.7 13.28 75.75 29.33 17.67 17.69 23.15 39.03 24.19 56.12z" fill="#ffec96"/><path d="m504.62 123.84q7.26-.44 14.77-.44-7.5 0-14.77.44z" fill="#ffec96"/><path d="m474.41 41c-53.84 22.45-68.08 83.72-71.23 102.43 3.15-18.74 17.41-80.01 71.23-102.43z" fill="#ffec96"/><path d="m414.22 143.94-2.62 1z" fill="#ffec96"/><path d="m402.39 148.92s3-1.43 8.4-3.62c-5.41 2.19-8.4 3.62-8.4 3.62z" fill="#ffec96"/><path d="m444.06 265.38 19.49-2.22v-115.47c-14 1.51-26.56 6.68-36.82 12.42a112 112 0 0 1 17.33-7.9z" fill="#ffec96"/><path d="m593.48 151a134.93 134.93 0 0 0 -19.48-3.31v114.25l19.49 2.22z" fill="#a68e53"/><path d="m595.13 151.43q2.08.6 4 1.29-1.91-.72-4-1.29z" fill="#a68e53"/><path d="m593.5 151 1.52.41z" fill="#a68e53"/><path d="m599.62 152.89.9.35z" fill="#a68e53"/><path d="m602.84 154.24.6.28z" fill="#a68e53"/><path d="m601.24 153.53.76.33z" fill="#a68e53"/><path d="m519.85 256.75v-115.21h-1.08a128.63 128.63 0 0 0 -18.41 1.46v116l-36.81 4.19-19.49 2.22v-113.2a112 112 0 0 0 -17.33 7.9v107.25l-26 3v-97.7l-17.31-18.57-27.28-29.54-55 75.9v6.74l8.67-1.82v75.35l-36.49 4.71v-72.2l7.73-1.51v-5.89l-44.56-47.06-51.95 67v4.89l6.49-1.27v65.43l-15.66 1.18-38.81 64.49 42.55 82.29 343.42-4.33-2.67-181.7zm-270.69 11-23.82 3.85v-36.6l23.82-3.85zm123.44-23.75-28.16 4.56v-43.3l28.16-4.56z" fill="#a68e53"/><path d="m903.15 359.51-67.15-67.71v-126l-34.64-8.37v21.95l-13-3.4-19.49-5.11v-22.39l-34.64-7.87v22.39l-13-3.38-21.64-5.62v-23.85l-34.65-7.87v150l-19.49-2.22-34.65-3.95v-106c-.19-.25-.4-.51-.62-.75a2.29 2.29 0 0 0 -.21-.23q-.22-.25-.48-.51l-.26-.24c-.16-.16-.33-.31-.5-.46a3.11 3.11 0 0 0 -.28-.23c-.18-.16-.36-.31-.55-.45l-.28-.21c-.2-.15-.41-.31-.63-.46l-.25-.17-.74-.48-.19-.11-.9-.53h-.09q-.66-.37-1.38-.72l-.6-.28c-.28-.13-.55-.26-.84-.38l-.76-.33-.72-.29-.9-.35-.47-.17q-1.93-.69-4-1.29h-.11l-1.54-.47v113.16l-19.5-2.22-36.82-4.2v-114.94a96.33 96.33 0 0 0 -17.32-1.43v115.38l2.67 181.7 337.31 3.35zm-171.08-108.69-21.65-3.24v-41.51s.28-12.56 10.82-9.93c10.83 2.71 10.83 13.54 10.83 13.54zm67.13 10.83-21.65-3.25v-39.34s.28-12.56 10.82-9.92c10.83 2.7 10.83 13.53 10.83 13.53z" fill="#ffec96"/><path d="m403.18 143.41v.12c-.05.3-.1.59-.14.86v.2c0 .26-.08.51-.12.74v.19c-.1.72-.19 1.33-.26 1.83v.18s0 .23-.05.34a1.23 1.23 0 0 1 0 .2v.26.16.16.16.11s3-1.43 8.4-3.62l.81-.33 2.62-1c1.08-.42 2.22-.86 3.44-1.31l1.82-.68 2.94-1.06c3-1.07 6.39-2.2 10-3.34l2.52-.79 2-.6c1.8-.54 3.67-1.08 5.59-1.62q6.88-1.93 14.67-3.75c2.06-.47 4.17-.93 6.31-1.38l2.94-.6 2.53-.49c1.71-.32 3.43-.63 5.18-.93l2.63-.44c1.77-.29 3.55-.56 5.36-.82q4.06-.59 8.25-1.06c4.65-.52 9.41-.94 14.25-1.23s9.77-.44 14.77-.44h4.29 2.57.83c2.25 0 4.49.08 6.71.14h.63l3 .1h.28q3.53.12 7 .29c10.49.51 20.43 1.33 29.64 2.42-1-17.09-6.52-38.45-24.19-56.12-16-16.05-46.51-24.69-75.75-29.33-54.06 22.49-68.32 83.76-71.47 102.48z" fill="#a68e53"/><path d="m225.34 271.61 23.82-3.86v-36.63l-23.82 3.85z" fill="#333"/><path d="m344.44 248.53 28.16-4.56v-43.3l-28.16 4.56z" fill="#333"/><path d="m281.04 205.79 22.09-28.37-66.65-18.69z" fill="#ffec96"/><path d="m1057.73 443.54s-20.21-40-22-42.72c6.69-7.73 10-16.4 13.63-25.84a93.82 93.82 0 0 0 6.41-33.9c0-18.73-4.25-34.72-12.63-47.53-9-13.71-20.8-23.67-38.94-29.6-14.66-4.78-32.82-7.11-55.53-7.11h-112.67v61.05h-97.54l-22.85-.2v9.2c-10.59-3.24-18.41-9.2-45.94-9h-84.74v7.11c-3.71-.88-14.19-4.59-17.82-5.26a127.79 127.79 0 0 0 -23-1.93c-15.21 0-28.73 2.64-40.18 7.83a70.74 70.74 0 0 0 -24.87 18.27c-16.35-17.31-39.44-26.1-68.72-26.1-18.59 0-35.47 4.4-50.16 13.06a88.61 88.61 0 0 0 -19.62 15.65c-7.45-10.75-18.37-18.52-32.56-23.2-11.19-3.66-24.84-5.43-41.73-5.43h-42a82.48 82.48 0 0 0 -7.41-18.58c-8.31-15-21.75-26.21-40-33.44-15.28-6.08-34.38-9-58.4-9h-117.53v81.7h19.93v103.85h-20.86v79.28h361.3v-10.34c11.69 4.88 31.12 10.43 45.86 10.43 18.86 0 36-4.58 50.87-13.62a38.42 38.42 0 0 0 4.06-3.09s45.78 13 52.58 14.34a131.81 131.81 0 0 0 25.6 2.37c14 0 32.62-5.13 43.37-9.14v9.05h390v-10.7c4.49 2.31 17.53 10.71 23.64 10.71h82.72v-70.39zm-112.4-138.75h1zm-2.32-.11-3.27-.18-2.44-.06 2.44.06zm-10.76.22a14.19 14.19 0 0 1 2-.33 14.19 14.19 0 0 0 -2 .33zm2.69-.39c.53 0 1.09-.06 1.66-.06-.6 0-1.13.03-1.66.06zm-279.86 56.18c.38 0 .72 0 1 .07-.29-.03-.61-.07-1-.07zm1.43.09a1.84 1.84 0 0 0 .53 0 1.76 1.76 0 0 1 -.46.06zm2.47-.32h.51zm1.71 0c.76 0 1.54.06 2.35.12-.82-.07-1.58-.1-2.35-.13zm-401.21.19c1.09.05 2.22.09 3.43.09-1.21-.01-2.34-.05-3.43-.1zm-6.55-.19h.6z" fill="#333"/><g fill="#ffec96"><path d="m51.54 473.1v-165.24h-19.92v-20.34h86.9q29.82 0 47.06 6.86t24.47 19.84q7.22 13 7.22 32.89 0 22.81-9.62 39.09t-28 24.92q-18.39 8.63-43.92 8.63h-11.73a40 40 0 0 1 -7.22-.4v53.75h35.43v17.9h-101.53v-17.9zm89.31-83.86q9.77-12.33 9.76-41.37 0-22.28-9.09-32.62t-27.41-10.35a55 55 0 0 0 -13.64 1.53 39.18 39.18 0 0 1 -3.87.77v93.05q6.29 1.32 18.31 1.32 16.19 0 25.94-12.33z"/><path d="m197.64 478.47 30.68-117.74h-13.95v-12.16h55q20.22 0 32.2 3.92t17.31 12.06q5.34 8.16 5.33 21.51a44 44 0 0 1 -3 16c-2 5.25-8.17 9.93-12.28 14.05a36.05 36.05 0 0 1 -15.22 8.89 28.06 28.06 0 0 1 10.29 7.66 62.67 62.67 0 0 1 8 11.42q3.31 6.14 7.35 14.83t6.55 12.78c1.62 2.71 3.3 4.29 5.05 4.72l5.9 2.06v12.53h-36.5c-1.93 0-3.87-2-5.8-6.14s-4.49-10.51-7.68-19.26q-3.56-10-6.22-16.59a83.83 83.83 0 0 0 -5.85-11.81q-3.18-5.25-6.64-7h-26.62l-12.27 48.29h23.17v12.51h-69.44v-12.53zm84.18-68.47c3.8-5.06 8.78-12.71 8.78-22.95q0-13.23-5.71-19.75t-18.89-6.57h-6l-15.34 56.4c1 .28 9.75.42 14 .42h7.11q10.34 0 16.05-7.55z"/><path d="m352.6 382.31a59.59 59.59 0 0 1 23.16-25q14.92-8.8 34.58-8.8 32.3 0 47.92 18.11t15.63 50.87q0 21.92-8.33 38.6a61.72 61.72 0 0 1 -23.44 25.88q-15.12 9.17-35 9.17-21.33 0-35.33-8.8a52.7 52.7 0 0 1 -20.73-24.67q-6.74-15.87-6.74-37.48t8.28-37.88zm34.4 81.28q7.72 14.51 22 14.51a21.83 21.83 0 0 0 16.14-6.8q6.69-6.81 10.29-20.36t3.61-33.33q0-28.83-7.73-42.53t-22.22-13.69q-14.42 0-22.18 14.6t-7.77 44q.04 29.1 7.86 43.6z"/><path d="m493.57 448h19.09l4.78 23q2.34 2.73 8.23 4.67a43.22 43.22 0 0 0 13.57 1.95q11.79 0 17.46-4.91t5.66-13.92a17 17 0 0 0 -3.6-10.73 34.49 34.49 0 0 0 -10.11-8.41q-6.51-3.78-17.92-9a89.55 89.55 0 0 1 -25.88-17.28q-10.62-10.37-10.62-27.24a34 34 0 0 1 5.56-18.92q5.58-8.55 16.81-13.64t27.51-5.09a96.63 96.63 0 0 1 17.45 1.42q7.73 1.41 15.87 3.61a66.64 66.64 0 0 0 7.11 1.65v33h-18.25l-4.58-22.16q-1.41-1.71-6.14-3.17a36 36 0 0 0 -10.52-1.45q-10.68 0-15.73 4.64t-5.05 12.55a17 17 0 0 0 4.12 11.33 39.85 39.85 0 0 0 10.53 8.6q6.41 3.72 18.67 9.64a158.12 158.12 0 0 1 18.11 10.14 48.38 48.38 0 0 1 13 12.87 31.27 31.27 0 0 1 5.43 18.28 40.19 40.19 0 0 1 -5.24 19.74q-5.24 9.46-17.31 15.7t-31.36 6.23a100.34 100.34 0 0 1 -19.61-1.78q-8.92-1.79-18.57-4.59a56.33 56.33 0 0 0 -8.52-2.15z"/><path d="m622.78 478.47v-117.74h-13.94v-12.16h60.83q20.87 0 32.94 4.8t17.13 13.89q5.06 9.09 5 23 0 16-6.73 27.36a43.69 43.69 0 0 1 -19.61 17.45q-12.87 6-30.75 6h-8.23a27.77 27.77 0 0 1 -5.05-.28v37.62h24.8v12.59h-71v-12.53zm62.52-58.7q6.83-8.62 6.83-29 0-15.6-6.36-22.83t-19.19-7.25c-3.62 0-6.8-.71-9.54 0-.69.18-1.59-.18-2.72 0v66.75a66.52 66.52 0 0 0 12.82.92 22 22 0 0 0 18.16-8.59z"/><path d="m753.34 478.47v-116.7h-14.88v-13.2h111.32v26.9h-15.63l-3.07-13.7h-46v48.94h23.77l3.45-15.71h13.7v47.64h-13.7l-3.3-16.76h-23.93v52.59h46l4.19-19.64 14.51 2.94v29.23h-111v-12.53z"/><path d="m887.06 473.1v-168.2h-20.39v-17.38h82q28.88 0 46 5.6c11.41 3.73 17.72 9.47 22.8 17.23s7.62 18 7.62 30.73a62.84 62.84 0 0 1 -4.34 22.84c-2.9 7.5-5.35 14.19-11.24 20.07a51.42 51.42 0 0 1 -21.65 12.76 40.19 40.19 0 0 1 14.64 10.9 89.42 89.42 0 0 1 11.32 16.35q4.74 8.76 10.5 21.19t9.36 18.25q3.46 5.82 7.21 6.76l8.43 2.94v17.86h-52q-4.15 0-8.29-8.77t-11-27.52q-5.03-14.31-8.87-23.71a119.43 119.43 0 0 0 -8.35-16.87q-4.54-7.5-9.49-10h-19.07v69h24.34v17.87h-89.92v-17.9zm83.78-97.88q8.16-10.83 8.16-32.78 0-18.9-8.15-28.22t-27-9.32c-7.4 0-7.39-1.06-11.58 0v80.57q2.14.58 11.23.59h4.36q14.82 0 22.98-10.84z"/></g><g fill="#f2c655" opacity=".8"><path d="m104.18 473.1h-7.45v-22.92l-40.84 40.83h30.38z"/><path d="m141.52 315.25q9.09 10.33 9.09 32.62a128.9 128.9 0 0 1 -1.06 17.26l43.75-43.74a50.41 50.41 0 0 0 -3.25-7.17q-7.22-13-24.47-19.84a93.5 93.5 0 0 0 -22.32-5.4l-17.26 17.25a29.3 29.3 0 0 1 15.52 9.02z"/><path d="m96.6 400.25v-64.61l-45.06 45.06v82.44l61.59-61.58a90.2 90.2 0 0 1 -16.53-1.31z"/><path d="m30.68 473.1v10.9l10.91-10.9z"/><path d="m43.97 287.52-12.35 12.36v7.98h14.24l20.33-20.34z"/><path d="m159.64 411.12q18.38-8.64 28-24.92 9.07-15.36 9.59-36.53l-69.57 69.57q18.04-1.59 31.98-8.12z"/><path d="m96.6 307.2a39.18 39.18 0 0 0 3.87-.77 51.2 51.2 0 0 1 10.88-1.43l17.23-17.22c-3.23-.14-6.57-.22-10.06-.22h-20.1l-46.88 46.84v30.37l45.06-45z"/><path d="m319.26 458.91q-4-8.7-7.35-14.83a62.67 62.67 0 0 0 -8-11.42c-.4-.46-.81-.9-1.22-1.32l-20.79 20.83q2.22 5.68 5 13.44 4.78 13.13 7.68 19.26a18.29 18.29 0 0 0 2.72 4.39l24.7-24.71c-.85-1.69-1.76-3.55-2.74-5.64z"/><path d="m252.44 491.01v-9.38l-9.39 9.38z"/><path d="m210.83 491.01 20.45-20.45 7.57-29.79-50.25 50.24z"/><path d="m214.37 348.57v12.16h2.17l12.17-12.16z"/><path d="m318.86 364.55a24 24 0 0 0 -1.62-2.17l-26.72 26.72c-.61 9.19-5.16 16.15-8.7 20.86q-5.71 7.59-16.1 7.59h-3.65l-12.63 12.63h18.72a11.31 11.31 0 0 1 2.08 1.42l53.41-53.4a33.29 33.29 0 0 0 -4.79-13.65z"/><path d="m387.82 465.13-16.7 16.71.71.47a56.93 56.93 0 0 0 21.46 7.69l12.18-12.18q-11.01-1.49-17.65-12.69z"/><path d="m465.56 456.06q7.51-15 8.24-34.31l-45 45a30.82 30.82 0 0 1 -3.61 4.53 23.68 23.68 0 0 1 -4.52 3.59l-16.18 16.18h2.68q19.84 0 35-9.17a60.31 60.31 0 0 0 6.13-4.27l10-10a66.27 66.27 0 0 0 7.26-11.55z"/><path d="m387 376q7.77-14.6 22.18-14.6a24 24 0 0 1 12.67 3.34l13-13a83.64 83.64 0 0 0 -24.43-3.28q-18.15 0-32.26 7.51l-24.53 24.53c-.32.59-.64 1.18-.95 1.79q-8.24 16.23-8.24 37.85a113.8 113.8 0 0 0 1.72 20.3l33.54-33.55q1.3-19.73 7.3-30.89z"/><path d="m439.08 417.61a141.87 141.87 0 0 1 -2.65 29.29l37.23-37.23a87.81 87.81 0 0 0 -5.05-25.32l-29.61 29.57c.06 1.21.08 2.44.08 3.69z"/><path d="m528.39 389.91a18.15 18.15 0 0 1 -.87-21.88l-31.35 31.35a33.67 33.67 0 0 0 8.68 14c1.28 1.25 2.64 2.45 4 3.63l23.32-23.32a34.23 34.23 0 0 1 -3.78-3.78z"/><path d="m559.22 409-23.88 23.88q8.17 3.85 13.31 6.83c.45.25.88.52 1.3.78l23.56-23.56q-6.27-3.99-14.29-7.93z"/><path d="m594.18 449.44a31.73 31.73 0 0 0 -4.37-16.63l-27.51 27.51q-.45 7.9-5.6 12.4c-2.71 2.35-6.49 3.84-11.3 4.5l-13.58 13.58c2.72.2 5.54.31 8.45.31q14.75 0 25.26-3.65l27.08-27.08a39.26 39.26 0 0 0 1.57-10.94z"/><path d="m516.6 353.57q-11.24 5.1-16.81 13.64a34 34 0 0 0 -5.56 18.92q0 1.47.09 2.88l40-40a58 58 0 0 0 -17.72 4.56z"/><path d="m517.44 471-3.44-16.78-20.43 20.38v8a56.33 56.33 0 0 1 8.52 2.15c.93.28 1.85.53 2.78.78l13.55-13.53a10 10 0 0 1 -.98-1z"/><path d="m584.54 388.14v-4.51l-4.5 4.51z"/><path d="m545.05 361.39a36 36 0 0 1 10.52 1.45 18 18 0 0 1 5.2 2.31l12.68-12.67q-6.06-1.51-11.89-2.58a92.13 92.13 0 0 0 -14.56-1.39l-16.7 16.7c3.41-2.54 8.3-3.82 14.75-3.82z"/><path d="m679.22 478.47h-2.36l-12.54 12.54h14.9z"/><path d="m654.32 368.3-31.54 31.54v30.37l31.54-31.54z"/><path d="m637.48 348.57h-17.88l-10.76 10.77v1.39h13.94v6.88l19.05-19z"/><path d="m666.58 360.73q12.46 0 18.82 6.86l15-15q-10.33-3.59-26.4-3.96l-11.88 11.88c1.4.09 2.88.22 4.46.22z"/><path d="m847.51 491.01 2.27-2.27v-26.97l-14.51-2.94-4.18 19.64h-46.02v-7.46l-20.01 20z"/><path d="m785.07 370.27-31.73 31.72v22.22l31.73-31.72z"/><path d="m849.78 375.47v-15.47l-15.47 15.47z"/><path d="m785.07 425.88h23.95l.86 4.39 16.09-16.08v-19.2h-11.18l-3.19 3.19-2.76 12.53h-9.77l-45.73 45.73v22.03h-14.6v12.54h10.4l35.93-35.93z"/><path d="m825.97 442.63v-12.52l-12.52 12.52z"/><path d="m815.79 361.76 13.2-13.19h-22.23l-13.19 13.19z"/><path d="m947.84 386.06h-4.36q-9.09 0-11.23-.59v-61.65l-45.19 45.18v82.44l45.19-45.19v-2.16h2.16l18.39-18.39a36.11 36.11 0 0 1 -4.96.36z"/><path d="m932.25 304.9a12.09 12.09 0 0 1 3.47-.46l16.88-16.89q-2 0-4 0h-26.34l-35.2 35.2v30.37l45.19-45.19z"/><path d="m987.82 396.75a51.42 51.42 0 0 0 21.65-12.75c5.89-5.88 8.34-12.57 11.24-20.07a63.86 63.86 0 0 0 4.14-18l-65.71 65.72c.56.8 1.12 1.63 1.67 2.54a119.43 119.43 0 0 1 8.35 16.81l.27.67 28.57-28.51a37.38 37.38 0 0 0 -10.18-6.41z"/><path d="m910.1 491.01 22.15-22.15v-30.37l-52.52 52.52z"/><path d="m1049.32 476.36v-3.26l-8.43-2.94a9.4 9.4 0 0 1 -4.54-3.05l-23.91 23.89h22.23z"/><path d="m970.84 314.22q8.14 9.31 8.15 28.22a80.23 80.23 0 0 1 -2 19.12l44.11-44.12a40.12 40.12 0 0 0 -3.65-7.09c-5.08-7.76-11.39-13.5-22.8-17.23a117.72 117.72 0 0 0 -26.8-4.87l-17 17q13.43 1.49 19.99 8.97z"/><path d="m867.81 287.52-1.14 1.14v16.24h5.98l17.38-17.38z"/></g></svg>