<?xml version="1.0" standalone="no"?>
<!DOCTYPE svg PUBLIC "-//W3C//DTD SVG 20010904//EN"
 "http://www.w3.org/TR/2001/REC-SVG-20010904/DTD/svg10.dtd">
<svg version="1.0" xmlns="http://www.w3.org/2000/svg"
 width="1080.000000pt" height="1080.000000pt" viewBox="0 0 1080.000000 1080.000000"
 preserveAspectRatio="xMidYMid meet">
<metadata>
Created by potrace 1.11, written by Peter Selinger 2001-2013
</metadata>
<g transform="translate(0.000000,1080.000000) scale(0.100000,-0.100000)"
fill="#000000" stroke="none">
<path d="M5040 10789 c-1680 -111 -3202 -992 -4137 -2394 -708 -1061 -1015
-2343 -868 -3625 71 -614 238 -1176 520 -1745 275 -555 584 -985 1024 -1426
441 -440 871 -749 1426 -1024 642 -318 1300 -495 2030 -546 327 -23 812 -1
1165 52 868 131 1704 480 2405 1004 231 173 395 315 595 515 503 503 893 1084
1166 1737 83 199 234 652 268 803 91 411 133 750 143 1150 42 1730 -744 3356
-2137 4419 -1011 772 -2320 1165 -3600 1080z m2901 -2603 c24 -8 124 -40 222
-71 l177 -56 0 -160 c0 -87 2 -159 5 -159 2 0 72 -18 155 -39 l150 -39 0 83 0
84 85 46 85 47 237 -55 238 -54 3 -151 3 -151 32 -10 c35 -11 192 -51 201 -51
3 0 6 35 8 77 l3 76 73 44 c41 24 80 43 88 43 35 0 235 -461 339 -780 86 -264
155 -570 129 -570 -4 0 -165 41 -356 90 -191 50 -355 90 -364 90 -10 0 -102
-27 -205 -60 -103 -33 -190 -60 -193 -60 -3 0 -6 53 -6 118 l0 117 -445 116
-445 116 -131 -53 c-187 -77 -174 -79 -214 41 -124 377 -314 706 -548 951 -96
100 -98 104 -75 114 12 6 176 71 363 145 187 74 340 134 341 135 0 0 20 -7 45
-14z m-2178 -21 c401 -47 727 -181 1024 -422 324 -262 585 -684 728 -1176 38
-130 95 -393 95 -441 l0 -28 -39 35 c-21 19 -59 47 -84 61 -319 187 -1245 322
-2078 302 -456 -10 -785 -56 -1237 -172 -182 -46 -515 -153 -623 -199 -35 -15
-73 -31 -84 -36 -11 -4 -47 -20 -79 -34 -33 -14 -61 -23 -64 -21 -8 9 19 181
48 302 127 533 381 1003 713 1320 313 298 717 479 1162 517 113 10 403 5 518
-8z m-3153 -226 c520 -122 949 -225 953 -229 4 -4 -21 -46 -57 -94 -165 -218
-330 -554 -412 -839 -19 -66 -36 -122 -37 -124 -2 -1 -148 41 -326 93 -178 52
-327 92 -332 87 -4 -4 -184 -237 -399 -518 -216 -280 -398 -510 -405 -509 -6
1 -143 45 -303 98 l-292 98 0 478 0 479 322 604 c178 333 327 603 333 601 5
-2 435 -103 955 -225z m5890 -1489 c170 -38 311 -70 314 -70 3 0 7 -100 8
-222 l3 -223 180 -47 c99 -26 188 -48 198 -48 15 0 17 12 17 120 l0 121 63 28
c34 15 88 38 120 51 l57 24 213 -48 c116 -27 260 -59 320 -73 l107 -25 0 -207
0 -207 92 -24 91 -23 -6 -261 c-13 -520 -83 -947 -234 -1411 -242 -747 -638
-1391 -1198 -1950 -559 -560 -1203 -956 -1950 -1198 -499 -162 -950 -232
-1490 -231 -414 1 -718 33 -1084 114 -1837 411 -3290 1864 -3701 3701 -74 335
-110 647 -115 1014 -4 304 2 415 20 415 24 0 900 -241 909 -250 5 -5 -55 -122
-135 -267 -124 -223 -145 -265 -149 -313 l-5 -55 -72 -14 -73 -13 0 -670 0
-669 33 6 c27 4 550 65 563 65 2 0 4 313 4 695 0 549 -3 695 -12 695 -12 0
-52 -8 -125 -25 -22 -5 -23 -3 -23 56 l0 61 492 677 c270 372 501 690 513 707
l21 31 264 -69 c145 -38 265 -70 267 -71 1 -2 -4 -57 -12 -122 -8 -66 -15
-160 -15 -208 l0 -89 160 -171 160 -172 0 -902 0 -903 23 4 c12 3 110 15 217
26 107 12 205 23 218 26 l22 4 0 996 0 995 113 54 c183 87 439 165 541 165
l26 0 0 -1065 0 -1065 23 0 c13 0 159 16 326 35 166 19 308 35 316 35 13 0 15
139 15 1074 l0 1073 38 7 c20 3 114 11 207 17 156 10 243 8 383 -8 l52 -6 0
-1063 0 -1063 33 -6 c17 -3 151 -19 297 -35 146 -16 284 -32 308 -35 l42 -6 0
1055 c0 934 2 1056 15 1056 61 0 372 -59 444 -85 63 -22 153 -72 189 -105 l32
-29 0 -985 c0 -882 2 -986 15 -986 17 0 509 -55 582 -65 l43 -6 2 1287 3 1286
175 79 c96 43 181 78 188 78 8 1 152 -30 322 -69z"/>
<path d="M8547 7319 c-36 -21 -50 -70 -55 -191 l-4 -117 38 -10 c22 -5 77 -19
124 -31 47 -12 93 -23 103 -26 16 -5 17 6 17 127 0 123 -2 135 -25 175 -39 66
-143 105 -198 73z"/>
<path d="M9443 7150 c-13 -5 -32 -24 -43 -42 -17 -28 -20 -51 -20 -154 l0
-122 125 -31 c68 -17 132 -31 141 -31 15 0 16 14 12 128 -5 139 -14 170 -68
215 -27 24 -88 48 -115 46 -5 0 -20 -4 -32 -9z"/>
<path d="M1608 7139 l-88 -122 0 -278 c0 -154 3 -279 8 -279 4 1 86 22 182 48
l175 47 3 259 2 259 -87 91 c-49 50 -92 92 -98 93 -5 2 -49 -52 -97 -118z"/>
<path d="M9100 5137 c-19 -12 -43 -38 -54 -57 -20 -34 -21 -52 -24 -455 l-3
-420 163 -24 c90 -13 178 -26 196 -29 l32 -5 0 405 0 405 -31 62 c-24 48 -43
70 -77 92 -84 53 -150 62 -202 26z"/>
<path d="M2550 5040 c-91 -15 -198 -33 -237 -40 l-73 -12 0 -404 0 -404 23 5
c12 3 121 21 242 40 121 19 230 37 243 40 l22 5 0 400 0 400 -27 -1 c-16 -1
-102 -14 -193 -29z"/>
</g>
</svg>
