<svg viewBox="0 0 64 64" xmlns="http://www.w3.org/2000/svg"><path d="m60.92 27.11c0-.16 0-.33 0-.51a15.55 15.55 0 0 0 -3.17-8.41l-.09-.11a10.1 10.1 0 0 0 -2.38-2.08c-4.73-3.16-11.54-2.69-17.23-.14-1.22.55-2.07.9-2.81 1.16.76-6.29 3.3-8.37 9-11.53l.11-.06a.8.8 0 0 0 .28-.3c.49-.91-1-2.66-3.33-3.9-2-1.07-4-1.42-4.79-.91s-.51 0-1.78 1.48c-1.83 2.14-2.84 6.11-3.46 9.77a17.66 17.66 0 0 0 -4.69-5.1c-3.41-2.6-8.15-3.94-11.95-6-2 3.37.89 9.32 2.83 12.89a14.89 14.89 0 0 0 -6.06.82c-14.55 5.62-7.86 29.03 1.44 41.65l.17.22a1.13 1.13 0 0 0 .1.13l.16.21.1.14.16.2a1.34 1.34 0 0 0 .11.14l.15.19.11.14c.05.07.11.13.16.19a.76.76 0 0 0 .11.14l.15.19.1.11c.1.12.2.23.29.35l.14.15.13.15.14.16.14.15.13.15.14.14.14.15.13.14.15.15.12.13.16.16.12.12.21.2.08.08.25.23.1.1a1.29 1.29 0 0 1 .17.16l.12.1.16.14.11.1.17.14.11.09.16.14.12.09.17.13.1.08.2.15.07.06.27.19h.07l.21.14.09.06.18.12.1.07.17.1.11.06.16.1.11.06.16.09.11.06.18.09h.08l.27.13c2.16 1 11 .47 13.71-2.72 3.71 3 5.84 3.58 8.86 3.38 12.19-.68 18.66-24.85 17.43-36.74z" fill="#f2d346"/></svg>