<?xml version="1.0" encoding="utf-8"?>
<!-- Generator: Adobe Illustrator 24.1.0, SVG Export Plug-In . SVG Version: 6.00 Build 0)  -->
<svg version="1.1" id="Layer_1" xmlns="http://www.w3.org/2000/svg" xmlns:xlink="http://www.w3.org/1999/xlink" x="0px" y="0px"
	 viewBox="0 0 64 64" style="enable-background:new 0 0 64 64;" xml:space="preserve">
<style type="text/css">
	.st0{fill:#333333;}
</style>
<g>
	<path class="st0" d="M64,0L52.8,0.1L13.8,41.5l-2.7-2.7l-3.6,3.5l3.6,3.7L0.3,56.8c-0.6,0.5-0.5,3.5,1.5,5.5s4.9,2,5.5,1.5
		l10.8-10.8l3.6,3.6l3.6-3.5l-2.8-2.8l41.4-39.1L64,0z"/>
	<path class="st0" d="M0,0l11.2,0.1l39.1,41.4l2.7-2.7l3.6,3.5L52.9,46l10.8,10.8c0.5,0.5,0.5,3.5-1.5,5.5s-4.9,2-5.5,1.5L46,52.9
		l-3.6,3.6L38.8,53l2.8-2.8L0.1,11.2L0,0z"/>
</g>
</svg>
