<svg xmlns="http://www.w3.org/2000/svg" viewBox="0 0 1000 1000"><defs><style>.a{fill:#754c29;}.b{fill:#bcbec0;}.c{fill:#a7a9ac;}.d{fill:#6d6e71;}.e{fill:#a97c50;}</style></defs><path class="a" d="M893.93,773.24c-.16-.16-.37-.26-.54-.41l.07-.07-608-598.48L174.64,283.38l608,598.48.07-.06c.15.17.25.38.42.54,11.47,11.29,45.59-4,76.19-34.1S905.41,784.54,893.93,773.24Z"/><path class="b" d="M615.29,203.09C544.78,132.57,466.6,96.41,440.68,122.32L110.56,452.44,365.94,707.82,696,377.72l0,0C722,351.78,685.81,273.61,615.29,203.09Z"/><path class="c" d="M145.42,487.3,365.94,707.82,696,377.72l0,0c14.77-14.77,13.11-53.21-36.61-123.71,0,0-34.77,151.67-167.52,210.68C384.3,512.49,145.42,487.3,145.42,487.3Z"/><path class="d" d="M284.87,533.51C355.39,604,391.69,682.06,365.94,707.82s-103.79-10.55-174.31-81.07S84.82,478.19,110.56,452.44,214.35,463,284.87,533.51Z"/><path class="a" d="M341.16,229.35c11.54,11.54-4.05,45.84-34.83,76.62s-65.08,46.37-76.63,34.83,4.06-45.85,34.84-76.62S329.62,217.81,341.16,229.35Z"/><path class="a" d="M285.27,173.88c11.5,11.5-4,45.67-34.7,76.33s-64.84,46.2-76.33,34.7,4-45.67,34.69-76.33S273.77,162.38,285.27,173.88Z"/><path class="e" d="M285.27,173.88c11.5,11.49-4,45.67-34.7,76.33s-64.84,46.2-76.33,34.7,4-45.67,34.69-76.33S273.77,162.38,285.27,173.88Z"/></svg>